M48
; DRILL file {KiCad 5.1.6} date 10/02/20 21:06:47
; FORMAT={-:-/ absolute / metric / decimal}
; #@! TF.CreationDate,2020-10-02T21:06:47+02:00
; #@! TF.GenerationSoftware,Kicad,Pcbnew,5.1.6
; #@! TF.FileFunction,Plated,1,4,PTH
FMAT,2
METRIC
T1C0.300
%
G90
G05
T1
X164.7Y-87.2
X164.8Y-85.8
X164.8Y-88.7
X164.9Y-84.5
X164.9Y-90.0
X165.2Y-83.1
X165.3Y-91.4
X165.7Y-81.8
X165.7Y-92.7
X166.2Y-94.0
X166.3Y-80.4
X166.9Y-79.3
X166.9Y-95.2
X167.6Y-78.0
X167.7Y-96.4
X168.5Y-77.0
X168.5Y-97.5
X169.4Y-75.9
X169.4Y-98.6
X170.4Y-75.0
X170.4Y-99.5
X171.2Y-81.2
X171.6Y-74.1
X171.6Y-100.3
X172.2Y-80.2
X172.25Y-86.5
X172.3Y-90.5
X172.463Y-92.713
X172.5Y-89.1
X172.7Y-73.4
X172.7Y-101.1
X172.9Y-78.5
X173.75Y-96.5
X173.9Y-72.7
X174.0Y-95.5
X174.0Y-101.75
X174.038Y-92.712
X174.1Y-99.25
X174.4Y-82.4
X174.5Y-96.5
X174.9Y-99.25
X175.0Y-95.5
X175.2Y-102.3
X175.3Y-72.2
X175.75Y-97.0
X175.75Y-97.75
X176.0Y-83.25
X176.167Y-92.698
X176.5Y-87.25
X176.6Y-71.8
X176.6Y-102.8
X177.0Y-83.25
X177.1Y-81.8
X177.7Y-90.5
X177.737Y-92.713
X177.9Y-93.8
X178.0Y-80.2
X178.0Y-103.1
X178.5Y-71.5
X178.5Y-72.5
X178.5Y-73.5
X178.5Y-83.174
X178.9Y-80.6
X179.129Y-87.2
X179.246Y-94.347
X179.5Y-74.5
X179.6Y-84.0
X180.65Y-90.5
X180.75Y-74.5
X180.8Y-92.0
X181.35Y-91.5
X181.6Y-83.0
X181.8Y-86.6
X181.8Y-88.0
X182.0Y-74.5
X182.95Y-90.5
X183.0Y-78.2
X183.2Y-86.6
X183.2Y-88.0
X183.25Y-71.5
X183.25Y-72.5
X183.25Y-73.5
X183.9Y-78.2
X183.9Y-81.6
X184.0Y-83.0
X184.0Y-84.0
X184.7Y-78.2
X184.7Y-81.6
X184.9Y-71.8
X185.0Y-85.25
X185.05Y-82.3
X185.25Y-101.5
X185.5Y-78.2
X185.5Y-81.6
X185.85Y-90.25
X186.15Y-94.05
X186.2Y-72.3
X186.2Y-102.3
X186.25Y-84.5
X186.3Y-78.2
X186.3Y-81.6
X186.7Y-93.6
X186.8Y-90.25
X187.25Y-84.5
X187.5Y-72.7
X187.5Y-101.8
X188.25Y-84.5
X188.7Y-101.1
X188.8Y-73.4
X189.25Y-84.5
X189.5Y-90.25
X189.5Y-89.25
X189.9Y-74.2
X189.9Y-100.4
X190.25Y-84.5
X190.25Y-90.0
X190.75Y-85.5
X191.0Y-75.0
X191.0Y-99.6
X191.25Y-83.5
X191.25Y-84.5
X191.25Y-90.0
X191.25Y-91.0
X192.0Y-82.75
X192.0Y-91.75
X192.1Y-75.9
X192.1Y-98.6
X193.0Y-76.9
X193.0Y-82.75
X193.0Y-91.75
X193.0Y-97.5
X193.8Y-96.4
X193.9Y-78.0
X194.0Y-82.75
X194.0Y-91.75
X194.6Y-79.3
X194.6Y-95.2
X195.0Y-82.75
X195.0Y-91.75
X195.2Y-80.5
X195.2Y-94.0
X195.8Y-81.8
X195.8Y-92.7
X196.0Y-82.75
X196.0Y-91.75
T0
M30
