%TF.GenerationSoftware,KiCad,Pcbnew,5.1.6*%
%TF.CreationDate,2020-10-02T21:06:49+02:00*%
%TF.ProjectId,NRF24,4e524632-342e-46b6-9963-61645f706362,rev?*%
%TF.SameCoordinates,Original*%
%TF.FileFunction,Legend,Top*%
%TF.FilePolarity,Positive*%
%FSLAX46Y46*%
G04 Gerber Fmt 4.6, Leading zero omitted, Abs format (unit mm)*
G04 Created by KiCad (PCBNEW 5.1.6) date 2020-10-02 21:06:49*
%MOMM*%
%LPD*%
G01*
G04 APERTURE LIST*
%ADD10C,0.150000*%
%ADD11C,0.200000*%
%ADD12C,0.010000*%
%ADD13C,0.120000*%
%ADD14C,0.100000*%
G04 APERTURE END LIST*
D10*
X184800000Y-102000000D02*
G75*
G03*
X184800000Y-102000000I-50000J0D01*
G01*
X177900000Y-81200000D02*
G75*
G03*
X177900000Y-81200000I-50000J0D01*
G01*
X174050000Y-89900000D02*
G75*
G03*
X174050000Y-89900000I-50000J0D01*
G01*
X179750000Y-86250000D02*
G75*
G03*
X179750000Y-86250000I-50000J0D01*
G01*
D11*
X185757359Y-74217004D02*
X186818019Y-73156344D01*
X186363450Y-74823095D01*
X187424111Y-73762435D01*
X186868527Y-75328172D02*
X187575633Y-74621065D01*
X187929187Y-74267511D02*
X187828172Y-74267511D01*
X187828172Y-74368527D01*
X187929187Y-74368527D01*
X187929187Y-74267511D01*
X187828172Y-74368527D01*
X188080710Y-75126141D02*
X187373603Y-75833248D01*
X187979694Y-75227156D02*
X188080710Y-75227156D01*
X188232233Y-75277664D01*
X188383755Y-75429187D01*
X188434263Y-75580710D01*
X188383755Y-75732233D01*
X187828172Y-76287816D01*
X189040355Y-76085786D02*
X188131217Y-76994923D01*
X187979694Y-77045431D01*
X187828172Y-76994923D01*
X187777664Y-76944416D01*
X189393908Y-75732233D02*
X189292893Y-75732233D01*
X189292893Y-75833248D01*
X189393908Y-75833248D01*
X189393908Y-75732233D01*
X189292893Y-75833248D01*
X189292893Y-77752538D02*
X189848477Y-77196954D01*
X189898984Y-77045431D01*
X189848477Y-76893908D01*
X189646446Y-76691877D01*
X189494923Y-76641370D01*
X189343400Y-77702030D02*
X189191877Y-77651522D01*
X188939339Y-77398984D01*
X188888832Y-77247461D01*
X188939339Y-77095938D01*
X189040355Y-76994923D01*
X189191877Y-76944416D01*
X189343400Y-76994923D01*
X189595938Y-77247461D01*
X189747461Y-77297969D01*
X190404061Y-78863705D02*
X190555583Y-78005076D01*
X189797969Y-78257614D02*
X190858629Y-77196954D01*
X191262690Y-77601015D01*
X191313198Y-77752538D01*
X191313198Y-77853553D01*
X191262690Y-78005076D01*
X191111167Y-78156599D01*
X190959644Y-78207106D01*
X190858629Y-78207106D01*
X190707106Y-78156599D01*
X190303045Y-77752538D01*
X191767766Y-79116244D02*
X191414213Y-78762690D01*
X190858629Y-79318274D02*
X191919289Y-78257614D01*
X192424366Y-78762690D01*
X192676904Y-79217259D02*
X192777919Y-79217259D01*
X192929442Y-79267766D01*
X193181980Y-79520305D01*
X193232488Y-79671827D01*
X193232488Y-79772843D01*
X193181980Y-79924366D01*
X193080965Y-80025381D01*
X192878934Y-80126396D01*
X191666751Y-80126396D01*
X192323350Y-80782995D01*
X193939594Y-80985026D02*
X193232488Y-81692133D01*
X194091117Y-80328427D02*
X193080965Y-80833503D01*
X193737564Y-81490102D01*
D10*
X167932142Y-85392857D02*
X168503571Y-84992857D01*
X167932142Y-84707142D02*
X169132142Y-84707142D01*
X169132142Y-85164285D01*
X169075000Y-85278571D01*
X169017857Y-85335714D01*
X168903571Y-85392857D01*
X168732142Y-85392857D01*
X168617857Y-85335714D01*
X168560714Y-85278571D01*
X168503571Y-85164285D01*
X168503571Y-84707142D01*
X167989285Y-86364285D02*
X167932142Y-86250000D01*
X167932142Y-86021428D01*
X167989285Y-85907142D01*
X168103571Y-85850000D01*
X168560714Y-85850000D01*
X168675000Y-85907142D01*
X168732142Y-86021428D01*
X168732142Y-86250000D01*
X168675000Y-86364285D01*
X168560714Y-86421428D01*
X168446428Y-86421428D01*
X168332142Y-85850000D01*
X168732142Y-86821428D02*
X167932142Y-87107142D01*
X168732142Y-87392857D01*
X168046428Y-87850000D02*
X167989285Y-87907142D01*
X167932142Y-87850000D01*
X167989285Y-87792857D01*
X168046428Y-87850000D01*
X167932142Y-87850000D01*
X168275000Y-89278571D02*
X168275000Y-89850000D01*
X167932142Y-89164285D02*
X169132142Y-89564285D01*
X167932142Y-89964285D01*
X165982142Y-84107142D02*
X165982142Y-83421428D01*
X165982142Y-83764285D02*
X167182142Y-83764285D01*
X167010714Y-83650000D01*
X166896428Y-83535714D01*
X166839285Y-83421428D01*
X167182142Y-84850000D02*
X167182142Y-84964285D01*
X167125000Y-85078571D01*
X167067857Y-85135714D01*
X166953571Y-85192857D01*
X166725000Y-85250000D01*
X166439285Y-85250000D01*
X166210714Y-85192857D01*
X166096428Y-85135714D01*
X166039285Y-85078571D01*
X165982142Y-84964285D01*
X165982142Y-84850000D01*
X166039285Y-84735714D01*
X166096428Y-84678571D01*
X166210714Y-84621428D01*
X166439285Y-84564285D01*
X166725000Y-84564285D01*
X166953571Y-84621428D01*
X167067857Y-84678571D01*
X167125000Y-84735714D01*
X167182142Y-84850000D01*
X167239285Y-86621428D02*
X165696428Y-85592857D01*
X167067857Y-86964285D02*
X167125000Y-87021428D01*
X167182142Y-87135714D01*
X167182142Y-87421428D01*
X167125000Y-87535714D01*
X167067857Y-87592857D01*
X166953571Y-87650000D01*
X166839285Y-87650000D01*
X166667857Y-87592857D01*
X165982142Y-86907142D01*
X165982142Y-87650000D01*
X167182142Y-88392857D02*
X167182142Y-88507142D01*
X167125000Y-88621428D01*
X167067857Y-88678571D01*
X166953571Y-88735714D01*
X166725000Y-88792857D01*
X166439285Y-88792857D01*
X166210714Y-88735714D01*
X166096428Y-88678571D01*
X166039285Y-88621428D01*
X165982142Y-88507142D01*
X165982142Y-88392857D01*
X166039285Y-88278571D01*
X166096428Y-88221428D01*
X166210714Y-88164285D01*
X166439285Y-88107142D01*
X166725000Y-88107142D01*
X166953571Y-88164285D01*
X167067857Y-88221428D01*
X167125000Y-88278571D01*
X167182142Y-88392857D01*
X167067857Y-89250000D02*
X167125000Y-89307142D01*
X167182142Y-89421428D01*
X167182142Y-89707142D01*
X167125000Y-89821428D01*
X167067857Y-89878571D01*
X166953571Y-89935714D01*
X166839285Y-89935714D01*
X166667857Y-89878571D01*
X165982142Y-89192857D01*
X165982142Y-89935714D01*
X167182142Y-90678571D02*
X167182142Y-90792857D01*
X167125000Y-90907142D01*
X167067857Y-90964285D01*
X166953571Y-91021428D01*
X166725000Y-91078571D01*
X166439285Y-91078571D01*
X166210714Y-91021428D01*
X166096428Y-90964285D01*
X166039285Y-90907142D01*
X165982142Y-90792857D01*
X165982142Y-90678571D01*
X166039285Y-90564285D01*
X166096428Y-90507142D01*
X166210714Y-90450000D01*
X166439285Y-90392857D01*
X166725000Y-90392857D01*
X166953571Y-90450000D01*
X167067857Y-90507142D01*
X167125000Y-90564285D01*
X167182142Y-90678571D01*
D12*
%TO.C,G\u002A\u002A\u002A*%
G36*
X191044650Y-94764859D02*
G01*
X191063623Y-94758264D01*
X191129093Y-94778769D01*
X191138248Y-94797768D01*
X191115801Y-94882743D01*
X191038512Y-94936281D01*
X190993206Y-94937339D01*
X190960596Y-94893359D01*
X190983418Y-94821437D01*
X191044650Y-94764859D01*
G37*
X191044650Y-94764859D02*
X191063623Y-94758264D01*
X191129093Y-94778769D01*
X191138248Y-94797768D01*
X191115801Y-94882743D01*
X191038512Y-94936281D01*
X190993206Y-94937339D01*
X190960596Y-94893359D01*
X190983418Y-94821437D01*
X191044650Y-94764859D01*
G36*
X187564792Y-98255639D02*
G01*
X187597583Y-98275098D01*
X187605496Y-98366616D01*
X187551568Y-98424288D01*
X187528734Y-98427761D01*
X187453465Y-98400080D01*
X187463772Y-98329977D01*
X187494310Y-98293058D01*
X187564792Y-98255639D01*
G37*
X187564792Y-98255639D02*
X187597583Y-98275098D01*
X187605496Y-98366616D01*
X187551568Y-98424288D01*
X187528734Y-98427761D01*
X187453465Y-98400080D01*
X187463772Y-98329977D01*
X187494310Y-98293058D01*
X187564792Y-98255639D01*
G36*
X191676116Y-94578225D02*
G01*
X191676116Y-94614146D01*
X191640195Y-94614146D01*
X191640195Y-94578225D01*
X191676116Y-94578225D01*
G37*
X191676116Y-94578225D02*
X191676116Y-94614146D01*
X191640195Y-94614146D01*
X191640195Y-94578225D01*
X191676116Y-94578225D01*
G36*
X187409844Y-98791404D02*
G01*
X187419475Y-98798946D01*
X187427016Y-98861158D01*
X187419475Y-98870788D01*
X187357262Y-98878330D01*
X187347633Y-98870788D01*
X187340090Y-98808576D01*
X187347633Y-98798946D01*
X187409844Y-98791404D01*
G37*
X187409844Y-98791404D02*
X187419475Y-98798946D01*
X187427016Y-98861158D01*
X187419475Y-98870788D01*
X187357262Y-98878330D01*
X187347633Y-98870788D01*
X187340090Y-98808576D01*
X187347633Y-98798946D01*
X187409844Y-98791404D01*
G36*
X191264595Y-95127594D02*
G01*
X191298946Y-95135001D01*
X191298045Y-95194272D01*
X191263025Y-95242764D01*
X191189611Y-95286092D01*
X191155261Y-95278685D01*
X191156161Y-95219414D01*
X191191182Y-95170922D01*
X191264595Y-95127594D01*
G37*
X191264595Y-95127594D02*
X191298946Y-95135001D01*
X191298045Y-95194272D01*
X191263025Y-95242764D01*
X191189611Y-95286092D01*
X191155261Y-95278685D01*
X191156161Y-95219414D01*
X191191182Y-95170922D01*
X191264595Y-95127594D01*
G36*
X190163326Y-92805288D02*
G01*
X190348327Y-92765162D01*
X190391250Y-92769108D01*
X190516620Y-92773109D01*
X190596835Y-92747885D01*
X190597502Y-92747237D01*
X190680597Y-92709271D01*
X190775804Y-92694658D01*
X190846092Y-92695143D01*
X190830007Y-92704172D01*
X190756512Y-92762381D01*
X190677807Y-92895486D01*
X190665943Y-92922118D01*
X190603836Y-93064240D01*
X190566463Y-93126819D01*
X190537679Y-93123323D01*
X190501334Y-93067224D01*
X190498274Y-93061990D01*
X190438551Y-93003179D01*
X190389647Y-93037013D01*
X190357161Y-93154674D01*
X190346794Y-93300634D01*
X190343132Y-93535146D01*
X190250792Y-93396636D01*
X190176283Y-93310236D01*
X190115653Y-93306039D01*
X190062198Y-93389970D01*
X190009213Y-93567954D01*
X189996758Y-93621183D01*
X189950185Y-93826063D01*
X189919917Y-93946997D01*
X189898897Y-93998919D01*
X189880068Y-93996759D01*
X189856371Y-93955451D01*
X189847214Y-93937573D01*
X189795784Y-93869438D01*
X189754295Y-93890876D01*
X189718855Y-94006580D01*
X189700109Y-94114904D01*
X189636418Y-94319322D01*
X189553382Y-94423275D01*
X189487383Y-94487303D01*
X189465485Y-94555447D01*
X189487729Y-94656855D01*
X189553901Y-94820093D01*
X189584866Y-94924333D01*
X189554955Y-95002860D01*
X189472635Y-95080965D01*
X189381788Y-95169502D01*
X189363746Y-95245065D01*
X189402681Y-95342977D01*
X189473145Y-95535429D01*
X189462058Y-95671243D01*
X189370665Y-95747466D01*
X189226004Y-95762963D01*
X189081664Y-95755481D01*
X189216967Y-95933645D01*
X189308422Y-96062847D01*
X189373138Y-96170004D01*
X189384026Y-96193474D01*
X189448181Y-96247082D01*
X189539206Y-96233950D01*
X189621970Y-96208246D01*
X189615935Y-96222069D01*
X189546638Y-96268435D01*
X189463325Y-96351511D01*
X189464124Y-96454662D01*
X189464493Y-96455891D01*
X189510065Y-96530651D01*
X189565603Y-96556212D01*
X189597062Y-96524216D01*
X189594033Y-96487700D01*
X189628509Y-96434741D01*
X189736172Y-96381565D01*
X189742244Y-96379500D01*
X189841503Y-96354426D01*
X189919837Y-96368680D01*
X190010132Y-96435428D01*
X190100583Y-96522953D01*
X190232576Y-96641093D01*
X190354899Y-96727964D01*
X190409267Y-96753975D01*
X190493525Y-96786771D01*
X190514669Y-96805495D01*
X190477776Y-96845379D01*
X190381634Y-96941003D01*
X190240700Y-97078175D01*
X190069431Y-97242705D01*
X190063810Y-97248073D01*
X189618939Y-97672857D01*
X189357206Y-97401757D01*
X189217686Y-97250662D01*
X189137178Y-97140383D01*
X189099484Y-97043426D01*
X189088826Y-96946222D01*
X189098979Y-96782240D01*
X189132677Y-96639149D01*
X189134526Y-96634526D01*
X189186873Y-96507268D01*
X189056158Y-96565867D01*
X188917159Y-96588976D01*
X188765828Y-96562492D01*
X188765156Y-96562232D01*
X188638217Y-96531652D01*
X188548386Y-96569536D01*
X188512142Y-96606476D01*
X188446354Y-96666642D01*
X188406160Y-96652273D01*
X188381909Y-96552857D01*
X188371441Y-96453212D01*
X188360039Y-96376314D01*
X188332585Y-96374718D01*
X188269802Y-96452064D01*
X188252520Y-96475667D01*
X188171538Y-96571003D01*
X188099171Y-96592818D01*
X188091492Y-96590136D01*
X188844342Y-95837287D01*
X188884402Y-95858432D01*
X188928158Y-95853422D01*
X189000494Y-95818513D01*
X189011973Y-95797714D01*
X188971912Y-95776569D01*
X188928158Y-95781580D01*
X188855821Y-95816488D01*
X188844342Y-95837287D01*
X188091492Y-96590136D01*
X187997009Y-96557142D01*
X187883215Y-96488951D01*
X187870672Y-96475614D01*
X189069721Y-95276565D01*
X189132376Y-95287069D01*
X189143684Y-95278685D01*
X189166415Y-95231442D01*
X189163765Y-95226924D01*
X189107924Y-95221426D01*
X189089803Y-95224804D01*
X189059549Y-95260752D01*
X189069721Y-95276565D01*
X187870672Y-96475614D01*
X187817963Y-96419564D01*
X187771276Y-96382011D01*
X187717875Y-96424511D01*
X187675868Y-96528600D01*
X187667664Y-96572814D01*
X187620789Y-96715589D01*
X187539024Y-96781071D01*
X187448826Y-96764102D01*
X187344165Y-96751932D01*
X187265031Y-96786252D01*
X187174886Y-96824068D01*
X187100501Y-96769848D01*
X187098443Y-96767150D01*
X187025372Y-96707751D01*
X186983307Y-96730944D01*
X186995494Y-96818019D01*
X187006383Y-96841250D01*
X187035143Y-96928985D01*
X186995974Y-96975587D01*
X186874858Y-96992256D01*
X186816309Y-96993097D01*
X186638137Y-97028122D01*
X186532587Y-97096343D01*
X186367252Y-97258001D01*
X186169258Y-97440965D01*
X186083956Y-97544164D01*
X186042734Y-97613816D01*
X185997335Y-97680569D01*
X185954435Y-97652838D01*
X185935220Y-97622106D01*
X185896722Y-97570015D01*
X185856285Y-97574058D01*
X185791917Y-97644836D01*
X185737279Y-97717489D01*
X185638339Y-97834901D01*
X185572862Y-97877947D01*
X185560058Y-97873476D01*
X185533329Y-97779170D01*
X185590912Y-97632562D01*
X185693813Y-97482022D01*
X185783838Y-97341531D01*
X185837497Y-97212474D01*
X185844081Y-97169742D01*
X185870272Y-97068828D01*
X185961373Y-96963528D01*
X186027445Y-96908447D01*
X186269094Y-96756726D01*
X186490803Y-96694855D01*
X186673881Y-96721095D01*
X186817082Y-96779104D01*
X186764833Y-96633785D01*
X186741512Y-96544899D01*
X186756630Y-96470611D01*
X186823329Y-96381070D01*
X186920226Y-96280827D01*
X187042008Y-96170572D01*
X187141521Y-96100861D01*
X187185988Y-96086908D01*
X187260805Y-96064355D01*
X187347186Y-95997551D01*
X187460126Y-95920624D01*
X187557385Y-95894474D01*
X187673465Y-95851692D01*
X187757339Y-95755226D01*
X187847702Y-95653577D01*
X187942993Y-95630795D01*
X187956813Y-95632535D01*
X188039397Y-95623847D01*
X188048913Y-95587491D01*
X188065119Y-95496402D01*
X188148395Y-95456062D01*
X188271279Y-95479691D01*
X188402886Y-95538791D01*
X188407059Y-95343911D01*
X188449961Y-95143982D01*
X188537107Y-95023158D01*
X188629370Y-94901092D01*
X188679314Y-94779075D01*
X188679967Y-94774819D01*
X188730242Y-94657475D01*
X188842652Y-94508395D01*
X188900239Y-94446784D01*
X189008874Y-94325198D01*
X189076938Y-94226085D01*
X189089803Y-94183094D01*
X189115515Y-94117789D01*
X189196255Y-94010957D01*
X189275716Y-93925338D01*
X189391368Y-93814482D01*
X189459540Y-93768870D01*
X189501786Y-93779204D01*
X189528407Y-93816332D01*
X189578828Y-93877666D01*
X189616067Y-93857686D01*
X189644090Y-93749352D01*
X189664287Y-93575242D01*
X189720666Y-93327084D01*
X189833377Y-93104123D01*
X189986304Y-92924233D01*
X190163326Y-92805288D01*
G37*
X190163326Y-92805288D02*
X190348327Y-92765162D01*
X190391250Y-92769108D01*
X190516620Y-92773109D01*
X190596835Y-92747885D01*
X190597502Y-92747237D01*
X190680597Y-92709271D01*
X190775804Y-92694658D01*
X190846092Y-92695143D01*
X190830007Y-92704172D01*
X190756512Y-92762381D01*
X190677807Y-92895486D01*
X190665943Y-92922118D01*
X190603836Y-93064240D01*
X190566463Y-93126819D01*
X190537679Y-93123323D01*
X190501334Y-93067224D01*
X190498274Y-93061990D01*
X190438551Y-93003179D01*
X190389647Y-93037013D01*
X190357161Y-93154674D01*
X190346794Y-93300634D01*
X190343132Y-93535146D01*
X190250792Y-93396636D01*
X190176283Y-93310236D01*
X190115653Y-93306039D01*
X190062198Y-93389970D01*
X190009213Y-93567954D01*
X189996758Y-93621183D01*
X189950185Y-93826063D01*
X189919917Y-93946997D01*
X189898897Y-93998919D01*
X189880068Y-93996759D01*
X189856371Y-93955451D01*
X189847214Y-93937573D01*
X189795784Y-93869438D01*
X189754295Y-93890876D01*
X189718855Y-94006580D01*
X189700109Y-94114904D01*
X189636418Y-94319322D01*
X189553382Y-94423275D01*
X189487383Y-94487303D01*
X189465485Y-94555447D01*
X189487729Y-94656855D01*
X189553901Y-94820093D01*
X189584866Y-94924333D01*
X189554955Y-95002860D01*
X189472635Y-95080965D01*
X189381788Y-95169502D01*
X189363746Y-95245065D01*
X189402681Y-95342977D01*
X189473145Y-95535429D01*
X189462058Y-95671243D01*
X189370665Y-95747466D01*
X189226004Y-95762963D01*
X189081664Y-95755481D01*
X189216967Y-95933645D01*
X189308422Y-96062847D01*
X189373138Y-96170004D01*
X189384026Y-96193474D01*
X189448181Y-96247082D01*
X189539206Y-96233950D01*
X189621970Y-96208246D01*
X189615935Y-96222069D01*
X189546638Y-96268435D01*
X189463325Y-96351511D01*
X189464124Y-96454662D01*
X189464493Y-96455891D01*
X189510065Y-96530651D01*
X189565603Y-96556212D01*
X189597062Y-96524216D01*
X189594033Y-96487700D01*
X189628509Y-96434741D01*
X189736172Y-96381565D01*
X189742244Y-96379500D01*
X189841503Y-96354426D01*
X189919837Y-96368680D01*
X190010132Y-96435428D01*
X190100583Y-96522953D01*
X190232576Y-96641093D01*
X190354899Y-96727964D01*
X190409267Y-96753975D01*
X190493525Y-96786771D01*
X190514669Y-96805495D01*
X190477776Y-96845379D01*
X190381634Y-96941003D01*
X190240700Y-97078175D01*
X190069431Y-97242705D01*
X190063810Y-97248073D01*
X189618939Y-97672857D01*
X189357206Y-97401757D01*
X189217686Y-97250662D01*
X189137178Y-97140383D01*
X189099484Y-97043426D01*
X189088826Y-96946222D01*
X189098979Y-96782240D01*
X189132677Y-96639149D01*
X189134526Y-96634526D01*
X189186873Y-96507268D01*
X189056158Y-96565867D01*
X188917159Y-96588976D01*
X188765828Y-96562492D01*
X188765156Y-96562232D01*
X188638217Y-96531652D01*
X188548386Y-96569536D01*
X188512142Y-96606476D01*
X188446354Y-96666642D01*
X188406160Y-96652273D01*
X188381909Y-96552857D01*
X188371441Y-96453212D01*
X188360039Y-96376314D01*
X188332585Y-96374718D01*
X188269802Y-96452064D01*
X188252520Y-96475667D01*
X188171538Y-96571003D01*
X188099171Y-96592818D01*
X188091492Y-96590136D01*
X188844342Y-95837287D01*
X188884402Y-95858432D01*
X188928158Y-95853422D01*
X189000494Y-95818513D01*
X189011973Y-95797714D01*
X188971912Y-95776569D01*
X188928158Y-95781580D01*
X188855821Y-95816488D01*
X188844342Y-95837287D01*
X188091492Y-96590136D01*
X187997009Y-96557142D01*
X187883215Y-96488951D01*
X187870672Y-96475614D01*
X189069721Y-95276565D01*
X189132376Y-95287069D01*
X189143684Y-95278685D01*
X189166415Y-95231442D01*
X189163765Y-95226924D01*
X189107924Y-95221426D01*
X189089803Y-95224804D01*
X189059549Y-95260752D01*
X189069721Y-95276565D01*
X187870672Y-96475614D01*
X187817963Y-96419564D01*
X187771276Y-96382011D01*
X187717875Y-96424511D01*
X187675868Y-96528600D01*
X187667664Y-96572814D01*
X187620789Y-96715589D01*
X187539024Y-96781071D01*
X187448826Y-96764102D01*
X187344165Y-96751932D01*
X187265031Y-96786252D01*
X187174886Y-96824068D01*
X187100501Y-96769848D01*
X187098443Y-96767150D01*
X187025372Y-96707751D01*
X186983307Y-96730944D01*
X186995494Y-96818019D01*
X187006383Y-96841250D01*
X187035143Y-96928985D01*
X186995974Y-96975587D01*
X186874858Y-96992256D01*
X186816309Y-96993097D01*
X186638137Y-97028122D01*
X186532587Y-97096343D01*
X186367252Y-97258001D01*
X186169258Y-97440965D01*
X186083956Y-97544164D01*
X186042734Y-97613816D01*
X185997335Y-97680569D01*
X185954435Y-97652838D01*
X185935220Y-97622106D01*
X185896722Y-97570015D01*
X185856285Y-97574058D01*
X185791917Y-97644836D01*
X185737279Y-97717489D01*
X185638339Y-97834901D01*
X185572862Y-97877947D01*
X185560058Y-97873476D01*
X185533329Y-97779170D01*
X185590912Y-97632562D01*
X185693813Y-97482022D01*
X185783838Y-97341531D01*
X185837497Y-97212474D01*
X185844081Y-97169742D01*
X185870272Y-97068828D01*
X185961373Y-96963528D01*
X186027445Y-96908447D01*
X186269094Y-96756726D01*
X186490803Y-96694855D01*
X186673881Y-96721095D01*
X186817082Y-96779104D01*
X186764833Y-96633785D01*
X186741512Y-96544899D01*
X186756630Y-96470611D01*
X186823329Y-96381070D01*
X186920226Y-96280827D01*
X187042008Y-96170572D01*
X187141521Y-96100861D01*
X187185988Y-96086908D01*
X187260805Y-96064355D01*
X187347186Y-95997551D01*
X187460126Y-95920624D01*
X187557385Y-95894474D01*
X187673465Y-95851692D01*
X187757339Y-95755226D01*
X187847702Y-95653577D01*
X187942993Y-95630795D01*
X187956813Y-95632535D01*
X188039397Y-95623847D01*
X188048913Y-95587491D01*
X188065119Y-95496402D01*
X188148395Y-95456062D01*
X188271279Y-95479691D01*
X188402886Y-95538791D01*
X188407059Y-95343911D01*
X188449961Y-95143982D01*
X188537107Y-95023158D01*
X188629370Y-94901092D01*
X188679314Y-94779075D01*
X188679967Y-94774819D01*
X188730242Y-94657475D01*
X188842652Y-94508395D01*
X188900239Y-94446784D01*
X189008874Y-94325198D01*
X189076938Y-94226085D01*
X189089803Y-94183094D01*
X189115515Y-94117789D01*
X189196255Y-94010957D01*
X189275716Y-93925338D01*
X189391368Y-93814482D01*
X189459540Y-93768870D01*
X189501786Y-93779204D01*
X189528407Y-93816332D01*
X189578828Y-93877666D01*
X189616067Y-93857686D01*
X189644090Y-93749352D01*
X189664287Y-93575242D01*
X189720666Y-93327084D01*
X189833377Y-93104123D01*
X189986304Y-92924233D01*
X190163326Y-92805288D01*
G36*
X191131522Y-93475595D02*
G01*
X191436099Y-93283930D01*
X191756019Y-93159108D01*
X192073733Y-93109811D01*
X192371694Y-93144717D01*
X192400470Y-93153411D01*
X192472866Y-93184301D01*
X192486412Y-93217117D01*
X192432149Y-93257408D01*
X192301120Y-93310724D01*
X192084366Y-93382612D01*
X191975666Y-93416571D01*
X191692588Y-93515455D01*
X191478648Y-93624466D01*
X191311229Y-93763930D01*
X191167718Y-93954168D01*
X191025496Y-94215508D01*
X190979044Y-94312205D01*
X190704471Y-94790695D01*
X190505442Y-95046230D01*
X190368893Y-95206493D01*
X190288429Y-95317172D01*
X190251708Y-95403779D01*
X190246386Y-95491831D01*
X190254361Y-95565227D01*
X190345496Y-95914397D01*
X190514413Y-96207649D01*
X190599451Y-96303400D01*
X190704393Y-96396717D01*
X190762206Y-96415363D01*
X190774494Y-96354505D01*
X190752972Y-96255711D01*
X192376576Y-94632107D01*
X192438788Y-94639649D01*
X192448418Y-94632107D01*
X192455960Y-94569895D01*
X192448418Y-94560265D01*
X192386206Y-94552723D01*
X192376576Y-94560265D01*
X192369034Y-94622477D01*
X192376576Y-94632107D01*
X190752972Y-96255711D01*
X190742865Y-96209311D01*
X190696799Y-96060437D01*
X190742170Y-96015066D01*
X190778091Y-96015066D01*
X190778091Y-95979145D01*
X190766117Y-95979145D01*
X190819998Y-95925264D01*
X190846283Y-95941688D01*
X190867893Y-95925264D01*
X190884317Y-95882554D01*
X190867893Y-95877369D01*
X190820963Y-95915700D01*
X190819998Y-95925264D01*
X190766117Y-95979145D01*
X190742170Y-95979145D01*
X190742170Y-96015066D01*
X190696799Y-96060437D01*
X190688799Y-96034581D01*
X190636829Y-95835091D01*
X190611238Y-95647284D01*
X190610726Y-95489197D01*
X190633995Y-95378867D01*
X190679743Y-95334330D01*
X190737157Y-95363475D01*
X190814506Y-95402769D01*
X190949564Y-95442488D01*
X191003360Y-95453954D01*
X191220695Y-95495564D01*
X191110098Y-95650494D01*
X191019138Y-95783649D01*
X190982403Y-95849457D01*
X191000605Y-95842639D01*
X191074456Y-95757915D01*
X191099896Y-95726214D01*
X191199606Y-95602701D01*
X191339237Y-95432414D01*
X191493327Y-95246353D01*
X191540346Y-95189963D01*
X191673943Y-95024941D01*
X191780333Y-94883940D01*
X191843597Y-94788496D01*
X191853822Y-94765873D01*
X191893634Y-94674496D01*
X191949617Y-94582752D01*
X192013216Y-94478266D01*
X192024764Y-94430603D01*
X191983008Y-94452260D01*
X191960539Y-94473505D01*
X191913318Y-94504584D01*
X191889125Y-94496926D01*
X192041313Y-94344739D01*
X192067598Y-94361163D01*
X192089208Y-94344739D01*
X192105632Y-94302029D01*
X192089207Y-94296844D01*
X192042278Y-94335175D01*
X192041313Y-94344739D01*
X191889125Y-94496926D01*
X191859223Y-94487462D01*
X191848629Y-94477554D01*
X192107169Y-94219015D01*
X192143090Y-94219015D01*
X192143090Y-94183094D01*
X192107169Y-94183094D01*
X192107169Y-94219015D01*
X191848629Y-94477554D01*
X191776405Y-94410015D01*
X191706430Y-94332483D01*
X191596275Y-94191462D01*
X191568361Y-94093125D01*
X191626831Y-94015163D01*
X191775833Y-93935266D01*
X191780651Y-93933096D01*
X191883598Y-93907735D01*
X191975812Y-93949505D01*
X192037367Y-94005529D01*
X192166909Y-94135071D01*
X192213121Y-93939317D01*
X192256249Y-93783017D01*
X192294423Y-93718048D01*
X192336073Y-93735025D01*
X192362102Y-93773466D01*
X192393281Y-93810023D01*
X192435658Y-93805674D01*
X192506395Y-93749799D01*
X192622655Y-93631777D01*
X192666973Y-93584796D01*
X192812670Y-93437953D01*
X192901445Y-93368987D01*
X192937523Y-93374632D01*
X192937728Y-93375448D01*
X192988562Y-93463735D01*
X193091540Y-93583102D01*
X193216998Y-93704371D01*
X193335276Y-93798368D01*
X193404022Y-93834128D01*
X193484454Y-93900521D01*
X193508067Y-94028508D01*
X193473906Y-94194822D01*
X193423415Y-94306756D01*
X193354393Y-94404925D01*
X193230039Y-94556513D01*
X193067093Y-94743335D01*
X192882295Y-94947196D01*
X192692382Y-95149909D01*
X192514097Y-95333282D01*
X192364177Y-95479125D01*
X192266593Y-95563833D01*
X192173560Y-95635714D01*
X192025436Y-95751015D01*
X191847033Y-95890400D01*
X191749981Y-95966414D01*
X191577714Y-96096751D01*
X191433046Y-96197489D01*
X191335506Y-96255494D01*
X191307159Y-96264212D01*
X191314748Y-96226210D01*
X191381583Y-96137845D01*
X191488824Y-96022754D01*
X191624827Y-95875629D01*
X191694611Y-95766745D01*
X191705666Y-95709764D01*
X191805906Y-95609525D01*
X191873152Y-95622712D01*
X191909603Y-95601974D01*
X191930579Y-95529273D01*
X191928511Y-95516188D01*
X191883595Y-95475939D01*
X191817661Y-95496373D01*
X191783655Y-95549041D01*
X191805906Y-95609525D01*
X191705666Y-95709764D01*
X191712829Y-95672850D01*
X191712621Y-95667575D01*
X191702248Y-95566294D01*
X191690703Y-95526758D01*
X191650686Y-95553357D01*
X191556056Y-95637680D01*
X191423182Y-95764761D01*
X191337214Y-95849982D01*
X191176345Y-96014993D01*
X191075613Y-96131336D01*
X191020952Y-96219748D01*
X190998301Y-96300965D01*
X190994195Y-96355738D01*
X190963906Y-96532658D01*
X190891991Y-96621352D01*
X190786157Y-96622407D01*
X190654115Y-96536416D01*
X190503573Y-96363968D01*
X190469470Y-96315563D01*
X190284248Y-95978944D01*
X190185897Y-95646118D01*
X190172775Y-95401158D01*
X190207489Y-95178991D01*
X190280342Y-94901145D01*
X190380123Y-94600750D01*
X190495620Y-94310936D01*
X190615621Y-94064834D01*
X190638598Y-94024746D01*
X190859840Y-93725427D01*
X191131522Y-93475595D01*
G37*
X191131522Y-93475595D02*
X191436099Y-93283930D01*
X191756019Y-93159108D01*
X192073733Y-93109811D01*
X192371694Y-93144717D01*
X192400470Y-93153411D01*
X192472866Y-93184301D01*
X192486412Y-93217117D01*
X192432149Y-93257408D01*
X192301120Y-93310724D01*
X192084366Y-93382612D01*
X191975666Y-93416571D01*
X191692588Y-93515455D01*
X191478648Y-93624466D01*
X191311229Y-93763930D01*
X191167718Y-93954168D01*
X191025496Y-94215508D01*
X190979044Y-94312205D01*
X190704471Y-94790695D01*
X190505442Y-95046230D01*
X190368893Y-95206493D01*
X190288429Y-95317172D01*
X190251708Y-95403779D01*
X190246386Y-95491831D01*
X190254361Y-95565227D01*
X190345496Y-95914397D01*
X190514413Y-96207649D01*
X190599451Y-96303400D01*
X190704393Y-96396717D01*
X190762206Y-96415363D01*
X190774494Y-96354505D01*
X190752972Y-96255711D01*
X192376576Y-94632107D01*
X192438788Y-94639649D01*
X192448418Y-94632107D01*
X192455960Y-94569895D01*
X192448418Y-94560265D01*
X192386206Y-94552723D01*
X192376576Y-94560265D01*
X192369034Y-94622477D01*
X192376576Y-94632107D01*
X190752972Y-96255711D01*
X190742865Y-96209311D01*
X190696799Y-96060437D01*
X190742170Y-96015066D01*
X190778091Y-96015066D01*
X190778091Y-95979145D01*
X190766117Y-95979145D01*
X190819998Y-95925264D01*
X190846283Y-95941688D01*
X190867893Y-95925264D01*
X190884317Y-95882554D01*
X190867893Y-95877369D01*
X190820963Y-95915700D01*
X190819998Y-95925264D01*
X190766117Y-95979145D01*
X190742170Y-95979145D01*
X190742170Y-96015066D01*
X190696799Y-96060437D01*
X190688799Y-96034581D01*
X190636829Y-95835091D01*
X190611238Y-95647284D01*
X190610726Y-95489197D01*
X190633995Y-95378867D01*
X190679743Y-95334330D01*
X190737157Y-95363475D01*
X190814506Y-95402769D01*
X190949564Y-95442488D01*
X191003360Y-95453954D01*
X191220695Y-95495564D01*
X191110098Y-95650494D01*
X191019138Y-95783649D01*
X190982403Y-95849457D01*
X191000605Y-95842639D01*
X191074456Y-95757915D01*
X191099896Y-95726214D01*
X191199606Y-95602701D01*
X191339237Y-95432414D01*
X191493327Y-95246353D01*
X191540346Y-95189963D01*
X191673943Y-95024941D01*
X191780333Y-94883940D01*
X191843597Y-94788496D01*
X191853822Y-94765873D01*
X191893634Y-94674496D01*
X191949617Y-94582752D01*
X192013216Y-94478266D01*
X192024764Y-94430603D01*
X191983008Y-94452260D01*
X191960539Y-94473505D01*
X191913318Y-94504584D01*
X191889125Y-94496926D01*
X192041313Y-94344739D01*
X192067598Y-94361163D01*
X192089208Y-94344739D01*
X192105632Y-94302029D01*
X192089207Y-94296844D01*
X192042278Y-94335175D01*
X192041313Y-94344739D01*
X191889125Y-94496926D01*
X191859223Y-94487462D01*
X191848629Y-94477554D01*
X192107169Y-94219015D01*
X192143090Y-94219015D01*
X192143090Y-94183094D01*
X192107169Y-94183094D01*
X192107169Y-94219015D01*
X191848629Y-94477554D01*
X191776405Y-94410015D01*
X191706430Y-94332483D01*
X191596275Y-94191462D01*
X191568361Y-94093125D01*
X191626831Y-94015163D01*
X191775833Y-93935266D01*
X191780651Y-93933096D01*
X191883598Y-93907735D01*
X191975812Y-93949505D01*
X192037367Y-94005529D01*
X192166909Y-94135071D01*
X192213121Y-93939317D01*
X192256249Y-93783017D01*
X192294423Y-93718048D01*
X192336073Y-93735025D01*
X192362102Y-93773466D01*
X192393281Y-93810023D01*
X192435658Y-93805674D01*
X192506395Y-93749799D01*
X192622655Y-93631777D01*
X192666973Y-93584796D01*
X192812670Y-93437953D01*
X192901445Y-93368987D01*
X192937523Y-93374632D01*
X192937728Y-93375448D01*
X192988562Y-93463735D01*
X193091540Y-93583102D01*
X193216998Y-93704371D01*
X193335276Y-93798368D01*
X193404022Y-93834128D01*
X193484454Y-93900521D01*
X193508067Y-94028508D01*
X193473906Y-94194822D01*
X193423415Y-94306756D01*
X193354393Y-94404925D01*
X193230039Y-94556513D01*
X193067093Y-94743335D01*
X192882295Y-94947196D01*
X192692382Y-95149909D01*
X192514097Y-95333282D01*
X192364177Y-95479125D01*
X192266593Y-95563833D01*
X192173560Y-95635714D01*
X192025436Y-95751015D01*
X191847033Y-95890400D01*
X191749981Y-95966414D01*
X191577714Y-96096751D01*
X191433046Y-96197489D01*
X191335506Y-96255494D01*
X191307159Y-96264212D01*
X191314748Y-96226210D01*
X191381583Y-96137845D01*
X191488824Y-96022754D01*
X191624827Y-95875629D01*
X191694611Y-95766745D01*
X191705666Y-95709764D01*
X191805906Y-95609525D01*
X191873152Y-95622712D01*
X191909603Y-95601974D01*
X191930579Y-95529273D01*
X191928511Y-95516188D01*
X191883595Y-95475939D01*
X191817661Y-95496373D01*
X191783655Y-95549041D01*
X191805906Y-95609525D01*
X191705666Y-95709764D01*
X191712829Y-95672850D01*
X191712621Y-95667575D01*
X191702248Y-95566294D01*
X191690703Y-95526758D01*
X191650686Y-95553357D01*
X191556056Y-95637680D01*
X191423182Y-95764761D01*
X191337214Y-95849982D01*
X191176345Y-96014993D01*
X191075613Y-96131336D01*
X191020952Y-96219748D01*
X190998301Y-96300965D01*
X190994195Y-96355738D01*
X190963906Y-96532658D01*
X190891991Y-96621352D01*
X190786157Y-96622407D01*
X190654115Y-96536416D01*
X190503573Y-96363968D01*
X190469470Y-96315563D01*
X190284248Y-95978944D01*
X190185897Y-95646118D01*
X190172775Y-95401158D01*
X190207489Y-95178991D01*
X190280342Y-94901145D01*
X190380123Y-94600750D01*
X190495620Y-94310936D01*
X190615621Y-94064834D01*
X190638598Y-94024746D01*
X190859840Y-93725427D01*
X191131522Y-93475595D01*
G36*
X186762052Y-97895397D02*
G01*
X187132944Y-97683058D01*
X187541710Y-97520500D01*
X187848580Y-97441176D01*
X188248371Y-97395074D01*
X188595225Y-97430222D01*
X188901088Y-97549692D01*
X189177910Y-97756551D01*
X189214372Y-97792003D01*
X189431052Y-98008683D01*
X189309727Y-98130008D01*
X189197621Y-98211438D01*
X189092483Y-98242310D01*
X189088318Y-98242032D01*
X188982537Y-98273953D01*
X188943582Y-98318906D01*
X188861382Y-98401887D01*
X188783031Y-98440172D01*
X188682546Y-98497427D01*
X188659173Y-98560899D01*
X188615183Y-98659888D01*
X188560158Y-98718781D01*
X188498722Y-98796096D01*
X188495022Y-98845762D01*
X188551763Y-98864983D01*
X188654947Y-98821871D01*
X188780897Y-98727613D01*
X188816910Y-98693686D01*
X188885827Y-98638106D01*
X188897066Y-98663644D01*
X188851199Y-98768172D01*
X188748801Y-98949563D01*
X188747263Y-98952144D01*
X188634482Y-99114099D01*
X188465231Y-99323231D01*
X188256060Y-99562190D01*
X188023522Y-99813620D01*
X187784169Y-100060170D01*
X187554551Y-100284489D01*
X187351224Y-100469222D01*
X187190736Y-100597017D01*
X187156726Y-100619616D01*
X186996782Y-100711839D01*
X186851794Y-100783250D01*
X186787910Y-100807576D01*
X186662296Y-100813281D01*
X186598834Y-100769059D01*
X188281580Y-99086314D01*
X188343791Y-99093856D01*
X188353422Y-99086314D01*
X188360963Y-99024102D01*
X188353422Y-99014472D01*
X188291209Y-99006930D01*
X188281580Y-99014472D01*
X188274037Y-99076684D01*
X188281580Y-99086314D01*
X186598834Y-100769059D01*
X186584854Y-100759317D01*
X186575996Y-100681977D01*
X186549251Y-100620959D01*
X186517791Y-100610219D01*
X186434735Y-100568322D01*
X186387190Y-100528293D01*
X188437012Y-98478470D01*
X188491433Y-98434063D01*
X188536783Y-98377424D01*
X188518217Y-98371044D01*
X188439929Y-98439843D01*
X188428414Y-98460847D01*
X188437012Y-98478470D01*
X186387190Y-100528293D01*
X186331220Y-100481172D01*
X186323693Y-100473490D01*
X186246084Y-100343167D01*
X186245871Y-100295839D01*
X187185988Y-99355721D01*
X187221909Y-99355721D01*
X187221909Y-99319800D01*
X187257830Y-99283879D01*
X187293751Y-99283879D01*
X187293751Y-99247958D01*
X187257830Y-99247958D01*
X187257830Y-99283879D01*
X187221909Y-99319800D01*
X187185988Y-99319800D01*
X187185988Y-99355721D01*
X186245871Y-100295839D01*
X186245369Y-100184160D01*
X186323528Y-99985669D01*
X186450498Y-99782084D01*
X186541973Y-99654603D01*
X186595929Y-99599497D01*
X186631892Y-99605066D01*
X186665592Y-99653247D01*
X186708115Y-99705944D01*
X186758108Y-99700870D01*
X186841187Y-99630399D01*
X186883240Y-99588449D01*
X186901542Y-99568326D01*
X187078225Y-99391642D01*
X187114146Y-99391642D01*
X187114146Y-99355721D01*
X187078225Y-99355721D01*
X187078225Y-99391642D01*
X186901542Y-99568326D01*
X186973455Y-99489256D01*
X186990623Y-99444329D01*
X186953350Y-99440539D01*
X186866954Y-99417247D01*
X186844708Y-99369576D01*
X186794663Y-99266234D01*
X186741007Y-99199208D01*
X186690327Y-99134210D01*
X186723387Y-99108380D01*
X186756523Y-99104126D01*
X186830560Y-99091389D01*
X186849022Y-99050906D01*
X186824093Y-98949744D01*
X186819416Y-98934133D01*
X186808166Y-98872244D01*
X186840558Y-98871097D01*
X186933159Y-98932124D01*
X186951669Y-98945563D01*
X187100242Y-99038388D01*
X187246801Y-99107210D01*
X187263152Y-99112822D01*
X187368130Y-99159525D01*
X187389354Y-99212004D01*
X187386599Y-99220772D01*
X187388951Y-99245798D01*
X187412216Y-99222739D01*
X187481614Y-99166754D01*
X187608868Y-99084977D01*
X187715746Y-99023375D01*
X187852001Y-98941049D01*
X187998407Y-98841328D01*
X188137378Y-98738089D01*
X188251326Y-98645203D01*
X188322664Y-98576544D01*
X188333804Y-98545984D01*
X188319670Y-98546986D01*
X188269006Y-98525803D01*
X188264164Y-98451826D01*
X188251957Y-98337631D01*
X188209071Y-98182245D01*
X188186936Y-98122304D01*
X188144111Y-97982902D01*
X188136147Y-97881166D01*
X188146174Y-97856720D01*
X188217539Y-97841331D01*
X188354504Y-97849408D01*
X188488374Y-97871629D01*
X188703379Y-97918680D01*
X188830617Y-97957972D01*
X188882021Y-98001305D01*
X188869524Y-98060476D01*
X188805059Y-98147283D01*
X188787961Y-98167827D01*
X188646198Y-98337381D01*
X188821835Y-98174296D01*
X188952386Y-98069991D01*
X189052552Y-98036496D01*
X189107763Y-98044604D01*
X189218275Y-98060531D01*
X189247643Y-98019752D01*
X189195888Y-97926665D01*
X189106609Y-97827924D01*
X188871699Y-97642274D01*
X188605522Y-97535364D01*
X188364811Y-97498420D01*
X188239183Y-97493830D01*
X188143810Y-97513022D01*
X188047596Y-97570290D01*
X187919451Y-97679927D01*
X187868709Y-97726479D01*
X187682228Y-97879730D01*
X187471268Y-98025620D01*
X187319351Y-98112656D01*
X187134738Y-98219100D01*
X186921742Y-98363755D01*
X186726217Y-98515463D01*
X186724744Y-98516708D01*
X186568681Y-98651610D01*
X186472347Y-98749415D01*
X186416988Y-98837546D01*
X186383847Y-98943425D01*
X186363398Y-99045071D01*
X186311202Y-99288126D01*
X186256446Y-99484585D01*
X186204002Y-99624088D01*
X186158740Y-99696270D01*
X186125526Y-99690768D01*
X186109233Y-99597220D01*
X186108842Y-99586791D01*
X186074549Y-99443883D01*
X186014384Y-99375768D01*
X185970662Y-99295957D01*
X185966955Y-99149169D01*
X185998145Y-98959453D01*
X186059117Y-98750858D01*
X186144756Y-98547433D01*
X186217916Y-98419038D01*
X186450041Y-98144923D01*
X186762052Y-97895397D01*
G37*
X186762052Y-97895397D02*
X187132944Y-97683058D01*
X187541710Y-97520500D01*
X187848580Y-97441176D01*
X188248371Y-97395074D01*
X188595225Y-97430222D01*
X188901088Y-97549692D01*
X189177910Y-97756551D01*
X189214372Y-97792003D01*
X189431052Y-98008683D01*
X189309727Y-98130008D01*
X189197621Y-98211438D01*
X189092483Y-98242310D01*
X189088318Y-98242032D01*
X188982537Y-98273953D01*
X188943582Y-98318906D01*
X188861382Y-98401887D01*
X188783031Y-98440172D01*
X188682546Y-98497427D01*
X188659173Y-98560899D01*
X188615183Y-98659888D01*
X188560158Y-98718781D01*
X188498722Y-98796096D01*
X188495022Y-98845762D01*
X188551763Y-98864983D01*
X188654947Y-98821871D01*
X188780897Y-98727613D01*
X188816910Y-98693686D01*
X188885827Y-98638106D01*
X188897066Y-98663644D01*
X188851199Y-98768172D01*
X188748801Y-98949563D01*
X188747263Y-98952144D01*
X188634482Y-99114099D01*
X188465231Y-99323231D01*
X188256060Y-99562190D01*
X188023522Y-99813620D01*
X187784169Y-100060170D01*
X187554551Y-100284489D01*
X187351224Y-100469222D01*
X187190736Y-100597017D01*
X187156726Y-100619616D01*
X186996782Y-100711839D01*
X186851794Y-100783250D01*
X186787910Y-100807576D01*
X186662296Y-100813281D01*
X186598834Y-100769059D01*
X188281580Y-99086314D01*
X188343791Y-99093856D01*
X188353422Y-99086314D01*
X188360963Y-99024102D01*
X188353422Y-99014472D01*
X188291209Y-99006930D01*
X188281580Y-99014472D01*
X188274037Y-99076684D01*
X188281580Y-99086314D01*
X186598834Y-100769059D01*
X186584854Y-100759317D01*
X186575996Y-100681977D01*
X186549251Y-100620959D01*
X186517791Y-100610219D01*
X186434735Y-100568322D01*
X186387190Y-100528293D01*
X188437012Y-98478470D01*
X188491433Y-98434063D01*
X188536783Y-98377424D01*
X188518217Y-98371044D01*
X188439929Y-98439843D01*
X188428414Y-98460847D01*
X188437012Y-98478470D01*
X186387190Y-100528293D01*
X186331220Y-100481172D01*
X186323693Y-100473490D01*
X186246084Y-100343167D01*
X186245871Y-100295839D01*
X187185988Y-99355721D01*
X187221909Y-99355721D01*
X187221909Y-99319800D01*
X187257830Y-99283879D01*
X187293751Y-99283879D01*
X187293751Y-99247958D01*
X187257830Y-99247958D01*
X187257830Y-99283879D01*
X187221909Y-99319800D01*
X187185988Y-99319800D01*
X187185988Y-99355721D01*
X186245871Y-100295839D01*
X186245369Y-100184160D01*
X186323528Y-99985669D01*
X186450498Y-99782084D01*
X186541973Y-99654603D01*
X186595929Y-99599497D01*
X186631892Y-99605066D01*
X186665592Y-99653247D01*
X186708115Y-99705944D01*
X186758108Y-99700870D01*
X186841187Y-99630399D01*
X186883240Y-99588449D01*
X186901542Y-99568326D01*
X187078225Y-99391642D01*
X187114146Y-99391642D01*
X187114146Y-99355721D01*
X187078225Y-99355721D01*
X187078225Y-99391642D01*
X186901542Y-99568326D01*
X186973455Y-99489256D01*
X186990623Y-99444329D01*
X186953350Y-99440539D01*
X186866954Y-99417247D01*
X186844708Y-99369576D01*
X186794663Y-99266234D01*
X186741007Y-99199208D01*
X186690327Y-99134210D01*
X186723387Y-99108380D01*
X186756523Y-99104126D01*
X186830560Y-99091389D01*
X186849022Y-99050906D01*
X186824093Y-98949744D01*
X186819416Y-98934133D01*
X186808166Y-98872244D01*
X186840558Y-98871097D01*
X186933159Y-98932124D01*
X186951669Y-98945563D01*
X187100242Y-99038388D01*
X187246801Y-99107210D01*
X187263152Y-99112822D01*
X187368130Y-99159525D01*
X187389354Y-99212004D01*
X187386599Y-99220772D01*
X187388951Y-99245798D01*
X187412216Y-99222739D01*
X187481614Y-99166754D01*
X187608868Y-99084977D01*
X187715746Y-99023375D01*
X187852001Y-98941049D01*
X187998407Y-98841328D01*
X188137378Y-98738089D01*
X188251326Y-98645203D01*
X188322664Y-98576544D01*
X188333804Y-98545984D01*
X188319670Y-98546986D01*
X188269006Y-98525803D01*
X188264164Y-98451826D01*
X188251957Y-98337631D01*
X188209071Y-98182245D01*
X188186936Y-98122304D01*
X188144111Y-97982902D01*
X188136147Y-97881166D01*
X188146174Y-97856720D01*
X188217539Y-97841331D01*
X188354504Y-97849408D01*
X188488374Y-97871629D01*
X188703379Y-97918680D01*
X188830617Y-97957972D01*
X188882021Y-98001305D01*
X188869524Y-98060476D01*
X188805059Y-98147283D01*
X188787961Y-98167827D01*
X188646198Y-98337381D01*
X188821835Y-98174296D01*
X188952386Y-98069991D01*
X189052552Y-98036496D01*
X189107763Y-98044604D01*
X189218275Y-98060531D01*
X189247643Y-98019752D01*
X189195888Y-97926665D01*
X189106609Y-97827924D01*
X188871699Y-97642274D01*
X188605522Y-97535364D01*
X188364811Y-97498420D01*
X188239183Y-97493830D01*
X188143810Y-97513022D01*
X188047596Y-97570290D01*
X187919451Y-97679927D01*
X187868709Y-97726479D01*
X187682228Y-97879730D01*
X187471268Y-98025620D01*
X187319351Y-98112656D01*
X187134738Y-98219100D01*
X186921742Y-98363755D01*
X186726217Y-98515463D01*
X186724744Y-98516708D01*
X186568681Y-98651610D01*
X186472347Y-98749415D01*
X186416988Y-98837546D01*
X186383847Y-98943425D01*
X186363398Y-99045071D01*
X186311202Y-99288126D01*
X186256446Y-99484585D01*
X186204002Y-99624088D01*
X186158740Y-99696270D01*
X186125526Y-99690768D01*
X186109233Y-99597220D01*
X186108842Y-99586791D01*
X186074549Y-99443883D01*
X186014384Y-99375768D01*
X185970662Y-99295957D01*
X185966955Y-99149169D01*
X185998145Y-98959453D01*
X186059117Y-98750858D01*
X186144756Y-98547433D01*
X186217916Y-98419038D01*
X186450041Y-98144923D01*
X186762052Y-97895397D01*
D13*
%TO.C,U3*%
X181115000Y-85140000D02*
X180390000Y-85140000D01*
X184610000Y-89360000D02*
X184610000Y-88635000D01*
X183885000Y-89360000D02*
X184610000Y-89360000D01*
X180390000Y-89360000D02*
X180390000Y-88635000D01*
X181115000Y-89360000D02*
X180390000Y-89360000D01*
X184610000Y-85140000D02*
X184610000Y-85865000D01*
X183885000Y-85140000D02*
X184610000Y-85140000D01*
%TO.C,J2*%
X191490000Y-87500000D02*
X191990000Y-87250000D01*
X191490000Y-87000000D02*
X191490000Y-87500000D01*
X191990000Y-87250000D02*
X191490000Y-87000000D01*
D14*
%TO.C,LD1*%
X179300000Y-92090000D02*
G75*
G03*
X179300000Y-92090000I-50000J0D01*
G01*
D13*
%TO.C,C19*%
X185390000Y-79737221D02*
X185390000Y-80062779D01*
X186410000Y-79737221D02*
X186410000Y-80062779D01*
%TO.C,Q2*%
X173800000Y-98300000D02*
X173800000Y-97700000D01*
X175200000Y-97300000D02*
X175200000Y-97300000D01*
X175200000Y-98500000D02*
X175200000Y-97300000D01*
%TO.C,Q1*%
X180700000Y-80100000D02*
X180100000Y-80100000D01*
X179700000Y-78700000D02*
X179700000Y-78700000D01*
X180900000Y-78700000D02*
X179700000Y-78700000D01*
%TO.C,Y1*%
X181750000Y-94400000D02*
X185750000Y-94400000D01*
X181750000Y-91100000D02*
X181750000Y-94400000D01*
%TO.C,U2*%
X173390000Y-85365000D02*
X173390000Y-85140000D01*
X173390000Y-85140000D02*
X173615000Y-85140000D01*
X177610000Y-89135000D02*
X177610000Y-89360000D01*
X177610000Y-89360000D02*
X177385000Y-89360000D01*
X177610000Y-85365000D02*
X177610000Y-85140000D01*
X177610000Y-85140000D02*
X177385000Y-85140000D01*
X173390000Y-89135000D02*
X173390000Y-89360000D01*
%TO.C,U1*%
X177175000Y-78590000D02*
X174175000Y-78590000D01*
X175675000Y-81810000D02*
X174175000Y-81810000D01*
%TO.C,J1*%
X179485000Y-96330000D02*
X179485000Y-96265000D01*
X183015000Y-96330000D02*
X183015000Y-96265000D01*
X179485000Y-102735000D02*
X179485000Y-102670000D01*
X183015000Y-102735000D02*
X183015000Y-102670000D01*
X184340000Y-102670000D02*
X183015000Y-102670000D01*
X183015000Y-96265000D02*
X179485000Y-96265000D01*
X183015000Y-102735000D02*
X179485000Y-102735000D01*
%TO.C,C8*%
X183790000Y-79737221D02*
X183790000Y-80062779D01*
X184810000Y-79737221D02*
X184810000Y-80062779D01*
%TO.C,C7*%
X176787221Y-91240000D02*
X177112779Y-91240000D01*
X176787221Y-92260000D02*
X177112779Y-92260000D01*
%TO.C,C1*%
X173412779Y-92260000D02*
X173087221Y-92260000D01*
X173412779Y-91240000D02*
X173087221Y-91240000D01*
%TD*%
M02*
