%TF.GenerationSoftware,KiCad,Pcbnew,(5.1.6)-1*%
%TF.CreationDate,2020-10-05T19:31:36+02:00*%
%TF.ProjectId,NRF24,4e524632-342e-46b6-9963-61645f706362,rev?*%
%TF.SameCoordinates,Original*%
%TF.FileFunction,Legend,Bot*%
%TF.FilePolarity,Positive*%
%FSLAX46Y46*%
G04 Gerber Fmt 4.6, Leading zero omitted, Abs format (unit mm)*
G04 Created by KiCad (PCBNEW (5.1.6)-1) date 2020-10-05 19:31:36*
%MOMM*%
%LPD*%
G01*
G04 APERTURE LIST*
%ADD10C,0.180000*%
%ADD11C,0.150000*%
%ADD12C,0.010000*%
%ADD13C,0.120000*%
G04 APERTURE END LIST*
D10*
X185319047Y-79102380D02*
X185319047Y-79816666D01*
X185366666Y-79959523D01*
X185461904Y-80054761D01*
X185604761Y-80102380D01*
X185700000Y-80102380D01*
X184366666Y-80102380D02*
X184842857Y-80102380D01*
X184842857Y-79102380D01*
X183461904Y-80007142D02*
X183509523Y-80054761D01*
X183652380Y-80102380D01*
X183747619Y-80102380D01*
X183890476Y-80054761D01*
X183985714Y-79959523D01*
X184033333Y-79864285D01*
X184080952Y-79673809D01*
X184080952Y-79530952D01*
X184033333Y-79340476D01*
X183985714Y-79245238D01*
X183890476Y-79150000D01*
X183747619Y-79102380D01*
X183652380Y-79102380D01*
X183509523Y-79150000D01*
X183461904Y-79197619D01*
X182747619Y-79102380D02*
X182747619Y-79816666D01*
X182795238Y-79959523D01*
X182890476Y-80054761D01*
X183033333Y-80102380D01*
X183128571Y-80102380D01*
X181795238Y-80102380D02*
X182271428Y-80102380D01*
X182271428Y-79102380D01*
X180890476Y-80007142D02*
X180938095Y-80054761D01*
X181080952Y-80102380D01*
X181176190Y-80102380D01*
X181319047Y-80054761D01*
X181414285Y-79959523D01*
X181461904Y-79864285D01*
X181509523Y-79673809D01*
X181509523Y-79530952D01*
X181461904Y-79340476D01*
X181414285Y-79245238D01*
X181319047Y-79150000D01*
X181176190Y-79102380D01*
X181080952Y-79102380D01*
X180938095Y-79150000D01*
X180890476Y-79197619D01*
X180176190Y-79102380D02*
X180176190Y-79816666D01*
X180223809Y-79959523D01*
X180319047Y-80054761D01*
X180461904Y-80102380D01*
X180557142Y-80102380D01*
X179223809Y-80102380D02*
X179700000Y-80102380D01*
X179700000Y-79102380D01*
X178319047Y-80007142D02*
X178366666Y-80054761D01*
X178509523Y-80102380D01*
X178604761Y-80102380D01*
X178747619Y-80054761D01*
X178842857Y-79959523D01*
X178890476Y-79864285D01*
X178938095Y-79673809D01*
X178938095Y-79530952D01*
X178890476Y-79340476D01*
X178842857Y-79245238D01*
X178747619Y-79150000D01*
X178604761Y-79102380D01*
X178509523Y-79102380D01*
X178366666Y-79150000D01*
X178319047Y-79197619D01*
X177604761Y-79102380D02*
X177604761Y-79816666D01*
X177652380Y-79959523D01*
X177747619Y-80054761D01*
X177890476Y-80102380D01*
X177985714Y-80102380D01*
X176652380Y-80102380D02*
X177128571Y-80102380D01*
X177128571Y-79102380D01*
X175747619Y-80007142D02*
X175795238Y-80054761D01*
X175938095Y-80102380D01*
X176033333Y-80102380D01*
X176176190Y-80054761D01*
X176271428Y-79959523D01*
X176319047Y-79864285D01*
X176366666Y-79673809D01*
X176366666Y-79530952D01*
X176319047Y-79340476D01*
X176271428Y-79245238D01*
X176176190Y-79150000D01*
X176033333Y-79102380D01*
X175938095Y-79102380D01*
X175795238Y-79150000D01*
X175747619Y-79197619D01*
D11*
X170763173Y-96058668D02*
X171629199Y-95558668D01*
X170843942Y-95627136D01*
X171295865Y-94981318D01*
X170429840Y-95481318D01*
X169977459Y-94697771D02*
X170431091Y-94435866D01*
X170537379Y-94429486D01*
X170626238Y-94488155D01*
X170721476Y-94653113D01*
X170727856Y-94759401D01*
X170018698Y-94673961D02*
X170025078Y-94780249D01*
X170144126Y-94986446D01*
X170232984Y-95045115D01*
X170339272Y-95038735D01*
X170421751Y-94991116D01*
X170480420Y-94902258D01*
X170474040Y-94795970D01*
X170354992Y-94589773D01*
X170348613Y-94483485D01*
X169525078Y-93914224D02*
X170391103Y-93414224D01*
X169566317Y-93890415D02*
X169572697Y-93996703D01*
X169667935Y-94161660D01*
X169756794Y-94220329D01*
X169821842Y-94237759D01*
X169928131Y-94231379D01*
X170175566Y-94088522D01*
X170234235Y-93999664D01*
X170251665Y-93934615D01*
X170245285Y-93828327D01*
X170150047Y-93663369D01*
X170061189Y-93604700D01*
X169137746Y-93148107D02*
X169144126Y-93254395D01*
X169239364Y-93419352D01*
X169328222Y-93478021D01*
X169434510Y-93471642D01*
X169764425Y-93281166D01*
X169823094Y-93192307D01*
X169816714Y-93086019D01*
X169721476Y-92921062D01*
X169632618Y-92862393D01*
X169526329Y-92868773D01*
X169443851Y-92916392D01*
X169599467Y-93376404D01*
X168477459Y-92099695D02*
X169343484Y-91599695D01*
X169013570Y-91790171D02*
X169007190Y-91683883D01*
X168911952Y-91518925D01*
X168823094Y-91460256D01*
X168758045Y-91442827D01*
X168651757Y-91449206D01*
X168404321Y-91592064D01*
X168345652Y-91680922D01*
X168328222Y-91745971D01*
X168334602Y-91852259D01*
X168429840Y-92017216D01*
X168518698Y-92075885D01*
X168650047Y-91065293D02*
X167953649Y-91192430D01*
X168411952Y-90652900D02*
X167953649Y-91192430D01*
X167795072Y-91393956D01*
X167777642Y-91459005D01*
X167784022Y-91565293D01*
X169631850Y-97399159D02*
X169869946Y-97811552D01*
X170735971Y-97311552D01*
X169315947Y-96756760D02*
X169322327Y-96863048D01*
X169417565Y-97028005D01*
X169506423Y-97086675D01*
X169612711Y-97080295D01*
X169942626Y-96889819D01*
X170001295Y-96800960D01*
X169994915Y-96694672D01*
X169899677Y-96529715D01*
X169810818Y-96471046D01*
X169704530Y-96477426D01*
X169622052Y-96525045D01*
X169777668Y-96985057D01*
X169036612Y-96368177D02*
X169613963Y-96034843D01*
X169531484Y-96082462D02*
X169548914Y-96017413D01*
X169542534Y-95911125D01*
X169471105Y-95787407D01*
X169382247Y-95728738D01*
X169275959Y-95735118D01*
X168822327Y-95997023D01*
X169275959Y-95735118D02*
X169334628Y-95646260D01*
X169328248Y-95539972D01*
X169256820Y-95416254D01*
X169167961Y-95357585D01*
X169061673Y-95363964D01*
X168608041Y-95625869D01*
X168298517Y-95089758D02*
X168387375Y-95148427D01*
X168452424Y-95165857D01*
X168558712Y-95159477D01*
X168806148Y-95016620D01*
X168864817Y-94927762D01*
X168882247Y-94862713D01*
X168875867Y-94756425D01*
X168804439Y-94632707D01*
X168715580Y-94574038D01*
X168650532Y-94556608D01*
X168544243Y-94562988D01*
X168296808Y-94705845D01*
X168238138Y-94794703D01*
X168220709Y-94859752D01*
X168227088Y-94966040D01*
X168298517Y-95089758D01*
X168494915Y-94096596D02*
X167917565Y-94429929D01*
X168412436Y-94144215D02*
X168429866Y-94079166D01*
X168423486Y-93972878D01*
X168352058Y-93849160D01*
X168263199Y-93790491D01*
X168156911Y-93796871D01*
X167703279Y-94058776D01*
X167465184Y-93646382D02*
X168331209Y-93146382D01*
X167250898Y-93275229D02*
X167704530Y-93013324D01*
X167810818Y-93006944D01*
X167899677Y-93065613D01*
X167971105Y-93189331D01*
X167977485Y-93295619D01*
X167960055Y-93360668D01*
X166863566Y-92509112D02*
X166869946Y-92615400D01*
X166965184Y-92780357D01*
X167054042Y-92839026D01*
X167160330Y-92832646D01*
X167490245Y-92642170D01*
X167548914Y-92553312D01*
X167542534Y-92447024D01*
X167447296Y-92282067D01*
X167358437Y-92223397D01*
X167252149Y-92229777D01*
X167169671Y-92277396D01*
X167325287Y-92737408D01*
X166369946Y-91749374D02*
X166823578Y-91487470D01*
X166929866Y-91481090D01*
X167018724Y-91539759D01*
X167113963Y-91704716D01*
X167120342Y-91811004D01*
X166411185Y-91725565D02*
X166417565Y-91831853D01*
X166536612Y-92038050D01*
X166625471Y-92096719D01*
X166731759Y-92090339D01*
X166814237Y-92042720D01*
X166872906Y-91953862D01*
X166866527Y-91847573D01*
X166747479Y-91641377D01*
X166741099Y-91535089D01*
X165917565Y-90965828D02*
X166783590Y-90465828D01*
X165958804Y-90942018D02*
X165965184Y-91048306D01*
X166060422Y-91213263D01*
X166149280Y-91271933D01*
X166214329Y-91289362D01*
X166320617Y-91282983D01*
X166568053Y-91140125D01*
X166626722Y-91051267D01*
X166644152Y-90986218D01*
X166637772Y-90879930D01*
X166542534Y-90714973D01*
X166453676Y-90656304D01*
D12*
%TO.C,G\u002A\u002A\u002A*%
G36*
X168797726Y-89368521D02*
G01*
X168608823Y-89418016D01*
X168546800Y-89455444D01*
X168626660Y-89495050D01*
X168797012Y-89486402D01*
X168954015Y-89440613D01*
X168994930Y-89407476D01*
X168953268Y-89359127D01*
X168797726Y-89368521D01*
G37*
X168797726Y-89368521D02*
X168608823Y-89418016D01*
X168546800Y-89455444D01*
X168626660Y-89495050D01*
X168797012Y-89486402D01*
X168954015Y-89440613D01*
X168994930Y-89407476D01*
X168953268Y-89359127D01*
X168797726Y-89368521D01*
G36*
X168343600Y-89443600D02*
G01*
X168394400Y-89494400D01*
X168445200Y-89443600D01*
X168394400Y-89392800D01*
X168343600Y-89443600D01*
G37*
X168343600Y-89443600D02*
X168394400Y-89494400D01*
X168445200Y-89443600D01*
X168394400Y-89392800D01*
X168343600Y-89443600D01*
G36*
X169235394Y-80293838D02*
G01*
X168971516Y-80406712D01*
X168668572Y-80451999D01*
X168337741Y-80538664D01*
X167941857Y-80780976D01*
X167505890Y-81152415D01*
X167054812Y-81626459D01*
X166613597Y-82176587D01*
X166207216Y-82776279D01*
X165860641Y-83399013D01*
X165825492Y-83471441D01*
X165640825Y-83874734D01*
X165528873Y-84187908D01*
X165471892Y-84491716D01*
X165452136Y-84866910D01*
X165450815Y-85176400D01*
X165459340Y-85640006D01*
X165491035Y-85969529D01*
X165560195Y-86233894D01*
X165681112Y-86502024D01*
X165753955Y-86638149D01*
X166012243Y-87017006D01*
X166398090Y-87462818D01*
X166870752Y-87928683D01*
X166891458Y-87947591D01*
X167221944Y-88259779D01*
X167480945Y-88526325D01*
X167640102Y-88716528D01*
X167675242Y-88796077D01*
X167698345Y-88844485D01*
X167759000Y-88829841D01*
X167914260Y-88861597D01*
X168112791Y-89008801D01*
X168137587Y-89034205D01*
X168448761Y-89250819D01*
X168791647Y-89269021D01*
X169170151Y-89088568D01*
X169333908Y-88959398D01*
X169601240Y-88744022D01*
X169969576Y-88469279D01*
X170100403Y-88376800D01*
X167683200Y-88376800D01*
X167678556Y-88470572D01*
X167644393Y-88478400D01*
X167500763Y-88404257D01*
X167480000Y-88376800D01*
X167484645Y-88283027D01*
X167518808Y-88275200D01*
X167662438Y-88349342D01*
X167683200Y-88376800D01*
X170100403Y-88376800D01*
X170369549Y-88186548D01*
X170465527Y-88121198D01*
X170678419Y-87967211D01*
X167835600Y-87967211D01*
X167761127Y-88023113D01*
X167683200Y-88007141D01*
X167549519Y-87935027D01*
X167530800Y-87908729D01*
X167613765Y-87873213D01*
X167683200Y-87868800D01*
X167226000Y-87868800D01*
X167188827Y-87952428D01*
X167158267Y-87936533D01*
X167146108Y-87815957D01*
X167158267Y-87801066D01*
X167218668Y-87815013D01*
X167226000Y-87868800D01*
X167683200Y-87868800D01*
X167818432Y-87921970D01*
X167835600Y-87967211D01*
X170678419Y-87967211D01*
X170968296Y-87757540D01*
X171235021Y-87513200D01*
X166819600Y-87513200D01*
X166768800Y-87564000D01*
X166718000Y-87513200D01*
X166768800Y-87462400D01*
X166819600Y-87513200D01*
X171235021Y-87513200D01*
X171335394Y-87421252D01*
X171355817Y-87394666D01*
X167395334Y-87394666D01*
X167381387Y-87455067D01*
X167327600Y-87462400D01*
X167243972Y-87425226D01*
X167259867Y-87394666D01*
X167380443Y-87382507D01*
X167395334Y-87394666D01*
X171355817Y-87394666D01*
X171606774Y-87067992D01*
X166921200Y-87067992D01*
X166858602Y-87123076D01*
X166819600Y-87106800D01*
X166721794Y-86972209D01*
X166718000Y-86942407D01*
X166780599Y-86887323D01*
X166819600Y-86903600D01*
X166917407Y-87038190D01*
X166921200Y-87067992D01*
X171606774Y-87067992D01*
X171616191Y-87055735D01*
X171860053Y-86604390D01*
X171938304Y-86432696D01*
X172178801Y-85767914D01*
X172269674Y-85166219D01*
X172218103Y-84561458D01*
X172166319Y-84331310D01*
X172092793Y-84063265D01*
X170467429Y-84063265D01*
X170466828Y-84077520D01*
X170435787Y-84120526D01*
X170370852Y-83991389D01*
X170350531Y-83931800D01*
X170247800Y-83677164D01*
X170169430Y-83619695D01*
X170118646Y-83754463D01*
X170098671Y-84076537D01*
X170101426Y-84312762D01*
X170130492Y-84707561D01*
X170185931Y-84933348D01*
X170260614Y-84980202D01*
X170347412Y-84838201D01*
X170388071Y-84711667D01*
X170438925Y-84554895D01*
X170461132Y-84587454D01*
X170467073Y-84673480D01*
X170398801Y-84939962D01*
X170198629Y-85091313D01*
X170021187Y-85104093D01*
X169901744Y-85056953D01*
X169833296Y-84926195D01*
X169796998Y-84662787D01*
X169786409Y-84493246D01*
X169791019Y-84304696D01*
X169152228Y-84304696D01*
X169113465Y-84480634D01*
X169057989Y-84516000D01*
X169001287Y-84441854D01*
X169016451Y-84367790D01*
X169023280Y-84196656D01*
X168976771Y-83948430D01*
X168899229Y-83700859D01*
X168812960Y-83531689D01*
X168767521Y-83500131D01*
X168734860Y-83593502D01*
X168710701Y-83840362D01*
X168699498Y-84191044D01*
X168699200Y-84262141D01*
X168707360Y-84694786D01*
X168735534Y-84937512D01*
X168789268Y-85003087D01*
X168874106Y-84904276D01*
X168930798Y-84795400D01*
X169012878Y-84657663D01*
X169045720Y-84704139D01*
X169047924Y-84737342D01*
X168992652Y-84916617D01*
X168859613Y-85107942D01*
X168715312Y-85221491D01*
X168685264Y-85227200D01*
X168565777Y-85184785D01*
X168438521Y-85122025D01*
X168311095Y-85001432D01*
X168252445Y-84780913D01*
X168242000Y-84527586D01*
X168277934Y-84045193D01*
X168374177Y-83675071D01*
X168513389Y-83434211D01*
X168678233Y-83339606D01*
X168851369Y-83408246D01*
X169015459Y-83657124D01*
X169048444Y-83737281D01*
X169130300Y-84036208D01*
X169152228Y-84304696D01*
X169791019Y-84304696D01*
X169798069Y-84016448D01*
X169884956Y-83683741D01*
X170039982Y-83516126D01*
X170121601Y-83500000D01*
X170287624Y-83588492D01*
X170418387Y-83802154D01*
X170467429Y-84063265D01*
X172092793Y-84063265D01*
X172033422Y-83846826D01*
X171896037Y-83454158D01*
X171728125Y-83112853D01*
X171503646Y-82782463D01*
X171196558Y-82422537D01*
X170780823Y-81992624D01*
X170518468Y-81733798D01*
X167699477Y-81733798D01*
X167683200Y-81772800D01*
X167548610Y-81870606D01*
X167518808Y-81874400D01*
X167465678Y-81814021D01*
X167297461Y-81814021D01*
X167226000Y-81874400D01*
X167063885Y-81965779D01*
X167042286Y-81931363D01*
X167073600Y-81874400D01*
X167221979Y-81777801D01*
X167257397Y-81774355D01*
X167297461Y-81814021D01*
X167465678Y-81814021D01*
X167463724Y-81811801D01*
X167480000Y-81772800D01*
X167614591Y-81674993D01*
X167644393Y-81671200D01*
X167699477Y-81733798D01*
X170518468Y-81733798D01*
X170451800Y-81668027D01*
X170030303Y-81247125D01*
X170009301Y-81224379D01*
X168297849Y-81224379D01*
X168242000Y-81315600D01*
X168089018Y-81443667D01*
X168013920Y-81468000D01*
X167982952Y-81406820D01*
X168038800Y-81315600D01*
X168162693Y-81211884D01*
X167879850Y-81211884D01*
X167845352Y-81311227D01*
X167809674Y-81370159D01*
X167691088Y-81539728D01*
X167640777Y-81537515D01*
X167632400Y-81428070D01*
X167714290Y-81270887D01*
X167783314Y-81228629D01*
X167879850Y-81211884D01*
X168162693Y-81211884D01*
X168191783Y-81187532D01*
X168266881Y-81163200D01*
X168297849Y-81224379D01*
X170009301Y-81224379D01*
X169741218Y-80934043D01*
X169686638Y-80862837D01*
X168397143Y-80862837D01*
X168363697Y-80939397D01*
X168247997Y-80960000D01*
X168079391Y-80943636D01*
X168038800Y-80920070D01*
X168118953Y-80843175D01*
X168278554Y-80817206D01*
X168396314Y-80861535D01*
X168397143Y-80862837D01*
X169686638Y-80862837D01*
X169563995Y-80702838D01*
X169478079Y-80527569D01*
X169461200Y-80417666D01*
X169448832Y-80224300D01*
X169375539Y-80204260D01*
X169235394Y-80293838D01*
G37*
X169235394Y-80293838D02*
X168971516Y-80406712D01*
X168668572Y-80451999D01*
X168337741Y-80538664D01*
X167941857Y-80780976D01*
X167505890Y-81152415D01*
X167054812Y-81626459D01*
X166613597Y-82176587D01*
X166207216Y-82776279D01*
X165860641Y-83399013D01*
X165825492Y-83471441D01*
X165640825Y-83874734D01*
X165528873Y-84187908D01*
X165471892Y-84491716D01*
X165452136Y-84866910D01*
X165450815Y-85176400D01*
X165459340Y-85640006D01*
X165491035Y-85969529D01*
X165560195Y-86233894D01*
X165681112Y-86502024D01*
X165753955Y-86638149D01*
X166012243Y-87017006D01*
X166398090Y-87462818D01*
X166870752Y-87928683D01*
X166891458Y-87947591D01*
X167221944Y-88259779D01*
X167480945Y-88526325D01*
X167640102Y-88716528D01*
X167675242Y-88796077D01*
X167698345Y-88844485D01*
X167759000Y-88829841D01*
X167914260Y-88861597D01*
X168112791Y-89008801D01*
X168137587Y-89034205D01*
X168448761Y-89250819D01*
X168791647Y-89269021D01*
X169170151Y-89088568D01*
X169333908Y-88959398D01*
X169601240Y-88744022D01*
X169969576Y-88469279D01*
X170100403Y-88376800D01*
X167683200Y-88376800D01*
X167678556Y-88470572D01*
X167644393Y-88478400D01*
X167500763Y-88404257D01*
X167480000Y-88376800D01*
X167484645Y-88283027D01*
X167518808Y-88275200D01*
X167662438Y-88349342D01*
X167683200Y-88376800D01*
X170100403Y-88376800D01*
X170369549Y-88186548D01*
X170465527Y-88121198D01*
X170678419Y-87967211D01*
X167835600Y-87967211D01*
X167761127Y-88023113D01*
X167683200Y-88007141D01*
X167549519Y-87935027D01*
X167530800Y-87908729D01*
X167613765Y-87873213D01*
X167683200Y-87868800D01*
X167226000Y-87868800D01*
X167188827Y-87952428D01*
X167158267Y-87936533D01*
X167146108Y-87815957D01*
X167158267Y-87801066D01*
X167218668Y-87815013D01*
X167226000Y-87868800D01*
X167683200Y-87868800D01*
X167818432Y-87921970D01*
X167835600Y-87967211D01*
X170678419Y-87967211D01*
X170968296Y-87757540D01*
X171235021Y-87513200D01*
X166819600Y-87513200D01*
X166768800Y-87564000D01*
X166718000Y-87513200D01*
X166768800Y-87462400D01*
X166819600Y-87513200D01*
X171235021Y-87513200D01*
X171335394Y-87421252D01*
X171355817Y-87394666D01*
X167395334Y-87394666D01*
X167381387Y-87455067D01*
X167327600Y-87462400D01*
X167243972Y-87425226D01*
X167259867Y-87394666D01*
X167380443Y-87382507D01*
X167395334Y-87394666D01*
X171355817Y-87394666D01*
X171606774Y-87067992D01*
X166921200Y-87067992D01*
X166858602Y-87123076D01*
X166819600Y-87106800D01*
X166721794Y-86972209D01*
X166718000Y-86942407D01*
X166780599Y-86887323D01*
X166819600Y-86903600D01*
X166917407Y-87038190D01*
X166921200Y-87067992D01*
X171606774Y-87067992D01*
X171616191Y-87055735D01*
X171860053Y-86604390D01*
X171938304Y-86432696D01*
X172178801Y-85767914D01*
X172269674Y-85166219D01*
X172218103Y-84561458D01*
X172166319Y-84331310D01*
X172092793Y-84063265D01*
X170467429Y-84063265D01*
X170466828Y-84077520D01*
X170435787Y-84120526D01*
X170370852Y-83991389D01*
X170350531Y-83931800D01*
X170247800Y-83677164D01*
X170169430Y-83619695D01*
X170118646Y-83754463D01*
X170098671Y-84076537D01*
X170101426Y-84312762D01*
X170130492Y-84707561D01*
X170185931Y-84933348D01*
X170260614Y-84980202D01*
X170347412Y-84838201D01*
X170388071Y-84711667D01*
X170438925Y-84554895D01*
X170461132Y-84587454D01*
X170467073Y-84673480D01*
X170398801Y-84939962D01*
X170198629Y-85091313D01*
X170021187Y-85104093D01*
X169901744Y-85056953D01*
X169833296Y-84926195D01*
X169796998Y-84662787D01*
X169786409Y-84493246D01*
X169791019Y-84304696D01*
X169152228Y-84304696D01*
X169113465Y-84480634D01*
X169057989Y-84516000D01*
X169001287Y-84441854D01*
X169016451Y-84367790D01*
X169023280Y-84196656D01*
X168976771Y-83948430D01*
X168899229Y-83700859D01*
X168812960Y-83531689D01*
X168767521Y-83500131D01*
X168734860Y-83593502D01*
X168710701Y-83840362D01*
X168699498Y-84191044D01*
X168699200Y-84262141D01*
X168707360Y-84694786D01*
X168735534Y-84937512D01*
X168789268Y-85003087D01*
X168874106Y-84904276D01*
X168930798Y-84795400D01*
X169012878Y-84657663D01*
X169045720Y-84704139D01*
X169047924Y-84737342D01*
X168992652Y-84916617D01*
X168859613Y-85107942D01*
X168715312Y-85221491D01*
X168685264Y-85227200D01*
X168565777Y-85184785D01*
X168438521Y-85122025D01*
X168311095Y-85001432D01*
X168252445Y-84780913D01*
X168242000Y-84527586D01*
X168277934Y-84045193D01*
X168374177Y-83675071D01*
X168513389Y-83434211D01*
X168678233Y-83339606D01*
X168851369Y-83408246D01*
X169015459Y-83657124D01*
X169048444Y-83737281D01*
X169130300Y-84036208D01*
X169152228Y-84304696D01*
X169791019Y-84304696D01*
X169798069Y-84016448D01*
X169884956Y-83683741D01*
X170039982Y-83516126D01*
X170121601Y-83500000D01*
X170287624Y-83588492D01*
X170418387Y-83802154D01*
X170467429Y-84063265D01*
X172092793Y-84063265D01*
X172033422Y-83846826D01*
X171896037Y-83454158D01*
X171728125Y-83112853D01*
X171503646Y-82782463D01*
X171196558Y-82422537D01*
X170780823Y-81992624D01*
X170518468Y-81733798D01*
X167699477Y-81733798D01*
X167683200Y-81772800D01*
X167548610Y-81870606D01*
X167518808Y-81874400D01*
X167465678Y-81814021D01*
X167297461Y-81814021D01*
X167226000Y-81874400D01*
X167063885Y-81965779D01*
X167042286Y-81931363D01*
X167073600Y-81874400D01*
X167221979Y-81777801D01*
X167257397Y-81774355D01*
X167297461Y-81814021D01*
X167465678Y-81814021D01*
X167463724Y-81811801D01*
X167480000Y-81772800D01*
X167614591Y-81674993D01*
X167644393Y-81671200D01*
X167699477Y-81733798D01*
X170518468Y-81733798D01*
X170451800Y-81668027D01*
X170030303Y-81247125D01*
X170009301Y-81224379D01*
X168297849Y-81224379D01*
X168242000Y-81315600D01*
X168089018Y-81443667D01*
X168013920Y-81468000D01*
X167982952Y-81406820D01*
X168038800Y-81315600D01*
X168162693Y-81211884D01*
X167879850Y-81211884D01*
X167845352Y-81311227D01*
X167809674Y-81370159D01*
X167691088Y-81539728D01*
X167640777Y-81537515D01*
X167632400Y-81428070D01*
X167714290Y-81270887D01*
X167783314Y-81228629D01*
X167879850Y-81211884D01*
X168162693Y-81211884D01*
X168191783Y-81187532D01*
X168266881Y-81163200D01*
X168297849Y-81224379D01*
X170009301Y-81224379D01*
X169741218Y-80934043D01*
X169686638Y-80862837D01*
X168397143Y-80862837D01*
X168363697Y-80939397D01*
X168247997Y-80960000D01*
X168079391Y-80943636D01*
X168038800Y-80920070D01*
X168118953Y-80843175D01*
X168278554Y-80817206D01*
X168396314Y-80861535D01*
X168397143Y-80862837D01*
X169686638Y-80862837D01*
X169563995Y-80702838D01*
X169478079Y-80527569D01*
X169461200Y-80417666D01*
X169448832Y-80224300D01*
X169375539Y-80204260D01*
X169235394Y-80293838D01*
G36*
X169766000Y-88732400D02*
G01*
X169816800Y-88783200D01*
X169867600Y-88732400D01*
X169816800Y-88681600D01*
X169766000Y-88732400D01*
G37*
X169766000Y-88732400D02*
X169816800Y-88783200D01*
X169867600Y-88732400D01*
X169816800Y-88681600D01*
X169766000Y-88732400D01*
G36*
X169920212Y-79761164D02*
G01*
X169920964Y-79782395D01*
X170110355Y-79831335D01*
X170144456Y-79839447D01*
X170412963Y-79929423D01*
X170674277Y-80056995D01*
X170873871Y-80189618D01*
X170957219Y-80294749D01*
X170948519Y-80319348D01*
X170834294Y-80310136D01*
X170602082Y-80226898D01*
X170434088Y-80150921D01*
X170073757Y-80000111D01*
X169843308Y-79949114D01*
X169758024Y-79989866D01*
X169833188Y-80114304D01*
X170084081Y-80314364D01*
X170101676Y-80326317D01*
X170531821Y-80563862D01*
X170917764Y-80653066D01*
X170990294Y-80655200D01*
X171242947Y-80636364D01*
X171382161Y-80589382D01*
X171391600Y-80571310D01*
X171305563Y-80403307D01*
X171085242Y-80201868D01*
X170787326Y-80002979D01*
X170468505Y-79842630D01*
X170185467Y-79756810D01*
X170099775Y-79751199D01*
X169920212Y-79761164D01*
G37*
X169920212Y-79761164D02*
X169920964Y-79782395D01*
X170110355Y-79831335D01*
X170144456Y-79839447D01*
X170412963Y-79929423D01*
X170674277Y-80056995D01*
X170873871Y-80189618D01*
X170957219Y-80294749D01*
X170948519Y-80319348D01*
X170834294Y-80310136D01*
X170602082Y-80226898D01*
X170434088Y-80150921D01*
X170073757Y-80000111D01*
X169843308Y-79949114D01*
X169758024Y-79989866D01*
X169833188Y-80114304D01*
X170084081Y-80314364D01*
X170101676Y-80326317D01*
X170531821Y-80563862D01*
X170917764Y-80653066D01*
X170990294Y-80655200D01*
X171242947Y-80636364D01*
X171382161Y-80589382D01*
X171391600Y-80571310D01*
X171305563Y-80403307D01*
X171085242Y-80201868D01*
X170787326Y-80002979D01*
X170468505Y-79842630D01*
X170185467Y-79756810D01*
X170099775Y-79751199D01*
X169920212Y-79761164D01*
G36*
X167685948Y-79656977D02*
G01*
X167478340Y-79786157D01*
X167458240Y-79802114D01*
X167175200Y-80029266D01*
X167450623Y-80135006D01*
X167808724Y-80231030D01*
X168238746Y-80289471D01*
X168651462Y-80302655D01*
X168953200Y-80264253D01*
X169119479Y-80202964D01*
X169103352Y-80152809D01*
X169021091Y-80117122D01*
X168765625Y-80058482D01*
X168595287Y-80045600D01*
X168379509Y-80001253D01*
X168284109Y-79929937D01*
X168293132Y-79876266D01*
X168106534Y-79876266D01*
X168092587Y-79936667D01*
X168038800Y-79944000D01*
X167955172Y-79906826D01*
X167971067Y-79876266D01*
X168091643Y-79864107D01*
X168106534Y-79876266D01*
X168293132Y-79876266D01*
X168295328Y-79863209D01*
X168468682Y-79864468D01*
X168608313Y-79887043D01*
X168850378Y-79921876D01*
X168924629Y-79899111D01*
X168879415Y-79832401D01*
X168710455Y-79745615D01*
X168421075Y-79668357D01*
X168248055Y-79639976D01*
X167912926Y-79614325D01*
X167685948Y-79656977D01*
G37*
X167685948Y-79656977D02*
X167478340Y-79786157D01*
X167458240Y-79802114D01*
X167175200Y-80029266D01*
X167450623Y-80135006D01*
X167808724Y-80231030D01*
X168238746Y-80289471D01*
X168651462Y-80302655D01*
X168953200Y-80264253D01*
X169119479Y-80202964D01*
X169103352Y-80152809D01*
X169021091Y-80117122D01*
X168765625Y-80058482D01*
X168595287Y-80045600D01*
X168379509Y-80001253D01*
X168284109Y-79929937D01*
X168293132Y-79876266D01*
X168106534Y-79876266D01*
X168092587Y-79936667D01*
X168038800Y-79944000D01*
X167955172Y-79906826D01*
X167971067Y-79876266D01*
X168091643Y-79864107D01*
X168106534Y-79876266D01*
X168293132Y-79876266D01*
X168295328Y-79863209D01*
X168468682Y-79864468D01*
X168608313Y-79887043D01*
X168850378Y-79921876D01*
X168924629Y-79899111D01*
X168879415Y-79832401D01*
X168710455Y-79745615D01*
X168421075Y-79668357D01*
X168248055Y-79639976D01*
X167912926Y-79614325D01*
X167685948Y-79656977D01*
G36*
X168043089Y-78160832D02*
G01*
X168014774Y-78340510D01*
X168105414Y-78616467D01*
X168289973Y-78941608D01*
X168543417Y-79268833D01*
X168734413Y-79461400D01*
X169031335Y-79708172D01*
X169221556Y-79822196D01*
X169293264Y-79800827D01*
X169234647Y-79641417D01*
X169187814Y-79563000D01*
X169019021Y-79317802D01*
X168788470Y-79008835D01*
X168665233Y-78851800D01*
X168495672Y-78617203D01*
X168417721Y-78460381D01*
X168433515Y-78420000D01*
X168542693Y-78497295D01*
X168730405Y-78702434D01*
X168960830Y-78995294D01*
X169022360Y-79079527D01*
X169247852Y-79380073D01*
X169428045Y-79596257D01*
X169532211Y-79691982D01*
X169543827Y-79692040D01*
X169561114Y-79549654D01*
X169498491Y-79293710D01*
X169380030Y-78985228D01*
X169229805Y-78685229D01*
X169071888Y-78454733D01*
X169043856Y-78424686D01*
X168770799Y-78223476D01*
X168467701Y-78104247D01*
X168199084Y-78084010D01*
X168043089Y-78160832D01*
G37*
X168043089Y-78160832D02*
X168014774Y-78340510D01*
X168105414Y-78616467D01*
X168289973Y-78941608D01*
X168543417Y-79268833D01*
X168734413Y-79461400D01*
X169031335Y-79708172D01*
X169221556Y-79822196D01*
X169293264Y-79800827D01*
X169234647Y-79641417D01*
X169187814Y-79563000D01*
X169019021Y-79317802D01*
X168788470Y-79008835D01*
X168665233Y-78851800D01*
X168495672Y-78617203D01*
X168417721Y-78460381D01*
X168433515Y-78420000D01*
X168542693Y-78497295D01*
X168730405Y-78702434D01*
X168960830Y-78995294D01*
X169022360Y-79079527D01*
X169247852Y-79380073D01*
X169428045Y-79596257D01*
X169532211Y-79691982D01*
X169543827Y-79692040D01*
X169561114Y-79549654D01*
X169498491Y-79293710D01*
X169380030Y-78985228D01*
X169229805Y-78685229D01*
X169071888Y-78454733D01*
X169043856Y-78424686D01*
X168770799Y-78223476D01*
X168467701Y-78104247D01*
X168199084Y-78084010D01*
X168043089Y-78160832D01*
D13*
%TO.C,BT1*%
X174800000Y-99150000D02*
X174800000Y-101150000D01*
X175800000Y-100150000D02*
X173800000Y-100150000D01*
X189150000Y-75800000D02*
X184650000Y-75800000D01*
X189150000Y-98500000D02*
X184650000Y-98500000D01*
X189150000Y-98500000D02*
X189150000Y-75800000D01*
X184650000Y-72600000D02*
X183100000Y-72600000D01*
X184650000Y-75800000D02*
X184650000Y-72600000D01*
X184650000Y-101700000D02*
X183100000Y-101700000D01*
X184650000Y-98500000D02*
X184650000Y-101700000D01*
X176950000Y-101700000D02*
X178500000Y-101700000D01*
X176950000Y-98500000D02*
X176950000Y-101700000D01*
X172450000Y-96700000D02*
X174250000Y-98500000D01*
X174250000Y-98500000D02*
X176950000Y-98500000D01*
X172450000Y-75800000D02*
X172450000Y-96700000D01*
X172450000Y-75800000D02*
X176950000Y-75800000D01*
X176950000Y-72600000D02*
X178500000Y-72600000D01*
X176950000Y-75800000D02*
X176950000Y-72600000D01*
%TD*%
M02*
