%TF.GenerationSoftware,KiCad,Pcbnew,(5.1.6)-1*%
%TF.CreationDate,2020-10-05T19:31:36+02:00*%
%TF.ProjectId,NRF24,4e524632-342e-46b6-9963-61645f706362,rev?*%
%TF.SameCoordinates,Original*%
%TF.FileFunction,Copper,L3,Inr*%
%TF.FilePolarity,Positive*%
%FSLAX46Y46*%
G04 Gerber Fmt 4.6, Leading zero omitted, Abs format (unit mm)*
G04 Created by KiCad (PCBNEW (5.1.6)-1) date 2020-10-05 19:31:36*
%MOMM*%
%LPD*%
G01*
G04 APERTURE LIST*
%TA.AperFunction,ViaPad*%
%ADD10C,1.000000*%
%TD*%
%TA.AperFunction,ViaPad*%
%ADD11C,0.600000*%
%TD*%
%TA.AperFunction,Conductor*%
%ADD12C,0.200000*%
%TD*%
G04 APERTURE END LIST*
D10*
%TO.N,GND*%
X179500000Y-77250000D03*
X179500000Y-75750000D03*
D11*
X178500000Y-71500000D03*
X181800000Y-88000000D03*
X183200000Y-86600000D03*
X183200000Y-88000000D03*
X181800000Y-86600000D03*
X184000000Y-84000000D03*
X184000000Y-83000000D03*
X182950000Y-90500000D03*
X172462500Y-92712562D03*
X179600020Y-84000000D03*
X177000000Y-83250000D03*
X172500000Y-89100000D03*
X185050000Y-82300006D03*
X185750000Y-90250000D03*
X178500000Y-72500000D03*
X178500000Y-73500000D03*
X179500000Y-74500000D03*
X180750000Y-74500000D03*
X182000000Y-74500000D03*
X183250000Y-73500000D03*
X192000000Y-84500000D03*
X192000000Y-82750000D03*
X193000000Y-82750000D03*
X194000000Y-82750000D03*
X195000000Y-82750000D03*
X191000000Y-90000000D03*
X192000000Y-91750000D03*
X193000000Y-91750000D03*
X194000000Y-91750000D03*
X195000000Y-91750000D03*
X196000000Y-91750000D03*
X164700000Y-87200000D03*
X164800000Y-85800000D03*
X164900000Y-84500000D03*
X165200000Y-83100000D03*
X165700000Y-81800000D03*
X166300000Y-80400000D03*
X166900000Y-79300000D03*
X167600000Y-78000000D03*
X168500000Y-77000000D03*
X184900000Y-71800000D03*
X186200000Y-72200000D03*
X187500000Y-72700000D03*
X188800000Y-73400000D03*
X189900000Y-74200000D03*
X193000000Y-76900000D03*
X193900000Y-78000000D03*
X194600000Y-79300000D03*
X195200000Y-80500000D03*
X195800000Y-81800000D03*
X195800000Y-92700000D03*
X195200000Y-94000000D03*
X194600000Y-95200000D03*
X193800000Y-96400000D03*
X193000000Y-97500000D03*
X189900000Y-100400000D03*
X188700000Y-101100000D03*
X187500000Y-101800000D03*
X186200000Y-102300000D03*
X178000000Y-103100000D03*
X176600000Y-102800000D03*
X175200000Y-102300000D03*
X172700000Y-101100000D03*
X171600000Y-100300000D03*
X170400000Y-99500000D03*
X169400000Y-98600000D03*
X168500000Y-97500000D03*
X167700000Y-96400000D03*
X166900000Y-95200000D03*
X166200000Y-94000000D03*
X165700000Y-92700000D03*
X165300000Y-91400000D03*
X164900000Y-90000000D03*
X164800000Y-88700000D03*
X174000000Y-101750000D03*
X183250000Y-71500000D03*
X183250000Y-72500000D03*
X190750000Y-85500000D03*
X191000000Y-84500000D03*
X172300000Y-90500000D03*
X180799996Y-92000000D03*
X181350000Y-91500009D03*
X186699998Y-93600000D03*
X186150000Y-94050000D03*
X187350000Y-81650000D03*
X185800000Y-81650000D03*
X171500000Y-87250000D03*
X177100000Y-96600000D03*
X177100000Y-97400000D03*
X186750000Y-90250000D03*
X190000000Y-84500000D03*
X189000000Y-84500000D03*
X188000000Y-84500000D03*
X187000000Y-84500000D03*
X196000000Y-82750000D03*
X192000000Y-83600000D03*
X192000000Y-90000000D03*
X190000000Y-90000000D03*
X192000000Y-90800000D03*
X186000000Y-84500000D03*
X177700000Y-90500000D03*
X176500000Y-94750000D03*
X171000000Y-92750000D03*
X177737516Y-92737490D03*
X176600000Y-71800000D03*
X171600000Y-74100000D03*
X175300000Y-72200000D03*
X173900000Y-72700000D03*
X172700000Y-73400000D03*
X177500000Y-77500000D03*
X171750000Y-76500000D03*
X188735000Y-91015000D03*
%TO.N,/NRST*%
X176500000Y-93750000D03*
X179250000Y-96000000D03*
%TO.N,/SPI_SCK*%
X176500000Y-87249985D03*
X179128621Y-87199999D03*
%TO.N,Net-(BT1-Pad1)*%
X176000000Y-99000000D03*
X174200000Y-99000000D03*
%TO.N,VCC*%
X174037512Y-92712488D03*
X176000000Y-83250000D03*
X185250000Y-101500000D03*
X172900000Y-96600000D03*
X172900000Y-97400000D03*
X178100000Y-81950000D03*
X178100000Y-82850000D03*
X179000000Y-82850000D03*
X168799992Y-88750000D03*
X176162516Y-92694193D03*
X177500000Y-76500000D03*
X176750000Y-81750000D03*
X172250000Y-81750000D03*
D10*
%TO.N,+VSW*%
X185750000Y-77250000D03*
X185750000Y-75750000D03*
D11*
X180650000Y-90500000D03*
X181600000Y-83000000D03*
X184750000Y-85500000D03*
D10*
X187250000Y-75750000D03*
X187250000Y-77250000D03*
%TD*%
D12*
%TO.N,VCC*%
G36*
X179400000Y-73806178D02*
G01*
X179295818Y-73826901D01*
X179168426Y-73879668D01*
X179053776Y-73956274D01*
X178956274Y-74053776D01*
X178879668Y-74168426D01*
X178826901Y-74295818D01*
X178800000Y-74431056D01*
X178800000Y-74568944D01*
X178826901Y-74704182D01*
X178879668Y-74831574D01*
X178956274Y-74946224D01*
X179007024Y-74996974D01*
X178926283Y-75050924D01*
X178800924Y-75176283D01*
X178702430Y-75323690D01*
X178634586Y-75487480D01*
X178600000Y-75661358D01*
X178600000Y-75838642D01*
X178634586Y-76012520D01*
X178702430Y-76176310D01*
X178800924Y-76323717D01*
X178926283Y-76449076D01*
X179002496Y-76500000D01*
X178926283Y-76550924D01*
X178800924Y-76676283D01*
X178702430Y-76823690D01*
X178634586Y-76987480D01*
X178600000Y-77161358D01*
X178600000Y-77338642D01*
X178634586Y-77512520D01*
X178702430Y-77676310D01*
X178800924Y-77823717D01*
X178926283Y-77949076D01*
X179073690Y-78047570D01*
X179237480Y-78115414D01*
X179400000Y-78147741D01*
X179400000Y-83326073D01*
X179395838Y-83326901D01*
X179268446Y-83379668D01*
X179153796Y-83456274D01*
X179056294Y-83553776D01*
X178979688Y-83668426D01*
X178926921Y-83795818D01*
X178900020Y-83931056D01*
X178900020Y-84068944D01*
X178926921Y-84204182D01*
X178979688Y-84331574D01*
X179056294Y-84446224D01*
X179153796Y-84543726D01*
X179268446Y-84620332D01*
X179395838Y-84673099D01*
X179400000Y-84673927D01*
X179400000Y-86554734D01*
X179332803Y-86526900D01*
X179197565Y-86499999D01*
X179059677Y-86499999D01*
X178924439Y-86526900D01*
X178797047Y-86579667D01*
X178682397Y-86656273D01*
X178584895Y-86753775D01*
X178508289Y-86868425D01*
X178455522Y-86995817D01*
X178428621Y-87131055D01*
X178428621Y-87268943D01*
X178455522Y-87404181D01*
X178508289Y-87531573D01*
X178584895Y-87646223D01*
X178682397Y-87743725D01*
X178797047Y-87820331D01*
X178924439Y-87873098D01*
X179059677Y-87899999D01*
X179197565Y-87899999D01*
X179332803Y-87873098D01*
X179400000Y-87845264D01*
X179400000Y-95316123D01*
X179318944Y-95300000D01*
X179181056Y-95300000D01*
X179045818Y-95326901D01*
X178918426Y-95379668D01*
X178803776Y-95456274D01*
X178706274Y-95553776D01*
X178629668Y-95668426D01*
X178576901Y-95795818D01*
X178550000Y-95931056D01*
X178550000Y-96068944D01*
X178576901Y-96204182D01*
X178629668Y-96331574D01*
X178706274Y-96446224D01*
X178803776Y-96543726D01*
X178918426Y-96620332D01*
X179045818Y-96673099D01*
X179181056Y-96700000D01*
X179318944Y-96700000D01*
X179454182Y-96673099D01*
X179581574Y-96620332D01*
X179696224Y-96543726D01*
X179793726Y-96446224D01*
X179870332Y-96331574D01*
X179923099Y-96204182D01*
X179947363Y-96082201D01*
X193173962Y-96082201D01*
X193126901Y-96195818D01*
X193100000Y-96331056D01*
X193100000Y-96468944D01*
X193126901Y-96604182D01*
X193179668Y-96731574D01*
X193256274Y-96846224D01*
X193260122Y-96850072D01*
X193204182Y-96826901D01*
X193068944Y-96800000D01*
X192931056Y-96800000D01*
X192795818Y-96826901D01*
X192668426Y-96879668D01*
X192553776Y-96956274D01*
X192456274Y-97053776D01*
X192379668Y-97168426D01*
X192326901Y-97295818D01*
X192300000Y-97431056D01*
X192300000Y-97568944D01*
X192326901Y-97704182D01*
X192379668Y-97831574D01*
X192456274Y-97946224D01*
X192553776Y-98043726D01*
X192668426Y-98120332D01*
X192795818Y-98173099D01*
X192931056Y-98200000D01*
X193068944Y-98200000D01*
X193178617Y-98178184D01*
X192117302Y-99281941D01*
X190911759Y-100316056D01*
X190584642Y-100546154D01*
X190600000Y-100468944D01*
X190600000Y-100331056D01*
X190573099Y-100195818D01*
X190520332Y-100068426D01*
X190443726Y-99953776D01*
X190346224Y-99856274D01*
X190231574Y-99779668D01*
X190104182Y-99726901D01*
X189968944Y-99700000D01*
X189831056Y-99700000D01*
X189695818Y-99726901D01*
X189568426Y-99779668D01*
X189453776Y-99856274D01*
X189356274Y-99953776D01*
X189279668Y-100068426D01*
X189226901Y-100195818D01*
X189200000Y-100331056D01*
X189200000Y-100468944D01*
X189226901Y-100604182D01*
X189253506Y-100668413D01*
X189243726Y-100653776D01*
X189146224Y-100556274D01*
X189031574Y-100479668D01*
X188904182Y-100426901D01*
X188768944Y-100400000D01*
X188631056Y-100400000D01*
X188495818Y-100426901D01*
X188368426Y-100479668D01*
X188253776Y-100556274D01*
X188156274Y-100653776D01*
X188079668Y-100768426D01*
X188026901Y-100895818D01*
X188000000Y-101031056D01*
X188000000Y-101168944D01*
X188026901Y-101304182D01*
X188053506Y-101368413D01*
X188043726Y-101353776D01*
X187946224Y-101256274D01*
X187831574Y-101179668D01*
X187704182Y-101126901D01*
X187568944Y-101100000D01*
X187431056Y-101100000D01*
X187295818Y-101126901D01*
X187168426Y-101179668D01*
X187053776Y-101256274D01*
X186956274Y-101353776D01*
X186879668Y-101468426D01*
X186826901Y-101595818D01*
X186800000Y-101731056D01*
X186800000Y-101868944D01*
X186819558Y-101967268D01*
X186743726Y-101853776D01*
X186646224Y-101756274D01*
X186531574Y-101679668D01*
X186404182Y-101626901D01*
X186268944Y-101600000D01*
X186131056Y-101600000D01*
X185995818Y-101626901D01*
X185868426Y-101679668D01*
X185753776Y-101756274D01*
X185656274Y-101853776D01*
X185579668Y-101968426D01*
X185526901Y-102095818D01*
X185500000Y-102231056D01*
X185500000Y-102368944D01*
X185526901Y-102504182D01*
X185579668Y-102631574D01*
X185656274Y-102746224D01*
X185753776Y-102843726D01*
X185868426Y-102920332D01*
X185937287Y-102948855D01*
X185277193Y-103171297D01*
X183730362Y-103531911D01*
X182156085Y-103742607D01*
X180568871Y-103801446D01*
X178983313Y-103707885D01*
X178463285Y-103626665D01*
X178543726Y-103546224D01*
X178620332Y-103431574D01*
X178673099Y-103304182D01*
X178700000Y-103168944D01*
X178700000Y-103031056D01*
X178673099Y-102895818D01*
X178620332Y-102768426D01*
X178543726Y-102653776D01*
X178446224Y-102556274D01*
X178331574Y-102479668D01*
X178204182Y-102426901D01*
X178068944Y-102400000D01*
X177931056Y-102400000D01*
X177795818Y-102426901D01*
X177668426Y-102479668D01*
X177553776Y-102556274D01*
X177456274Y-102653776D01*
X177379668Y-102768426D01*
X177326901Y-102895818D01*
X177300000Y-103031056D01*
X177300000Y-103168944D01*
X177326901Y-103304182D01*
X177379668Y-103431574D01*
X177397733Y-103458610D01*
X177019418Y-103361637D01*
X177046224Y-103343726D01*
X177143726Y-103246224D01*
X177220332Y-103131574D01*
X177273099Y-103004182D01*
X177300000Y-102868944D01*
X177300000Y-102731056D01*
X177273099Y-102595818D01*
X177220332Y-102468426D01*
X177143726Y-102353776D01*
X177046224Y-102256274D01*
X176931574Y-102179668D01*
X176804182Y-102126901D01*
X176668944Y-102100000D01*
X176531056Y-102100000D01*
X176395818Y-102126901D01*
X176268426Y-102179668D01*
X176153776Y-102256274D01*
X176056274Y-102353776D01*
X175979668Y-102468426D01*
X175926901Y-102595818D01*
X175900000Y-102731056D01*
X175900000Y-102868944D01*
X175926901Y-103004182D01*
X175962775Y-103090789D01*
X175875470Y-103068411D01*
X175500963Y-102933011D01*
X175531574Y-102920332D01*
X175646224Y-102843726D01*
X175743726Y-102746224D01*
X175820332Y-102631574D01*
X175873099Y-102504182D01*
X175900000Y-102368944D01*
X175900000Y-102231056D01*
X175873099Y-102095818D01*
X175820332Y-101968426D01*
X175743726Y-101853776D01*
X175646224Y-101756274D01*
X175531574Y-101679668D01*
X175404182Y-101626901D01*
X175268944Y-101600000D01*
X175131056Y-101600000D01*
X174995818Y-101626901D01*
X174868426Y-101679668D01*
X174753776Y-101756274D01*
X174700000Y-101810050D01*
X174700000Y-101681056D01*
X174673099Y-101545818D01*
X174620332Y-101418426D01*
X174543726Y-101303776D01*
X174446224Y-101206274D01*
X174331574Y-101129668D01*
X174204182Y-101076901D01*
X174068944Y-101050000D01*
X173931056Y-101050000D01*
X173795818Y-101076901D01*
X173668426Y-101129668D01*
X173553776Y-101206274D01*
X173456274Y-101303776D01*
X173379668Y-101418426D01*
X173326901Y-101545818D01*
X173300000Y-101681056D01*
X173300000Y-101818944D01*
X173326901Y-101954182D01*
X173364957Y-102046059D01*
X172946725Y-101847674D01*
X172842520Y-101785365D01*
X172904182Y-101773099D01*
X173031574Y-101720332D01*
X173146224Y-101643726D01*
X173243726Y-101546224D01*
X173320332Y-101431574D01*
X173373099Y-101304182D01*
X173400000Y-101168944D01*
X173400000Y-101031056D01*
X173373099Y-100895818D01*
X173320332Y-100768426D01*
X173243726Y-100653776D01*
X173146224Y-100556274D01*
X173031574Y-100479668D01*
X172904182Y-100426901D01*
X172768944Y-100400000D01*
X172631056Y-100400000D01*
X172495818Y-100426901D01*
X172368426Y-100479668D01*
X172253776Y-100556274D01*
X172249928Y-100560122D01*
X172273099Y-100504182D01*
X172300000Y-100368944D01*
X172300000Y-100231056D01*
X172273099Y-100095818D01*
X172220332Y-99968426D01*
X172143726Y-99853776D01*
X172046224Y-99756274D01*
X171931574Y-99679668D01*
X171804182Y-99626901D01*
X171668944Y-99600000D01*
X171531056Y-99600000D01*
X171395818Y-99626901D01*
X171268426Y-99679668D01*
X171153776Y-99756274D01*
X171056274Y-99853776D01*
X170979668Y-99968426D01*
X170926901Y-100095818D01*
X170900000Y-100231056D01*
X170900000Y-100368944D01*
X170926901Y-100504182D01*
X170953533Y-100568478D01*
X170453321Y-100200000D01*
X170468944Y-100200000D01*
X170604182Y-100173099D01*
X170731574Y-100120332D01*
X170846224Y-100043726D01*
X170943726Y-99946224D01*
X171020332Y-99831574D01*
X171073099Y-99704182D01*
X171100000Y-99568944D01*
X171100000Y-99431056D01*
X171073099Y-99295818D01*
X171020332Y-99168426D01*
X170943726Y-99053776D01*
X170846224Y-98956274D01*
X170808483Y-98931056D01*
X173500000Y-98931056D01*
X173500000Y-99068944D01*
X173526901Y-99204182D01*
X173579668Y-99331574D01*
X173656274Y-99446224D01*
X173753776Y-99543726D01*
X173868426Y-99620332D01*
X173995818Y-99673099D01*
X174131056Y-99700000D01*
X174268944Y-99700000D01*
X174404182Y-99673099D01*
X174531574Y-99620332D01*
X174646224Y-99543726D01*
X174743726Y-99446224D01*
X174820332Y-99331574D01*
X174873099Y-99204182D01*
X174900000Y-99068944D01*
X174900000Y-98931056D01*
X175300000Y-98931056D01*
X175300000Y-99068944D01*
X175326901Y-99204182D01*
X175379668Y-99331574D01*
X175456274Y-99446224D01*
X175553776Y-99543726D01*
X175668426Y-99620332D01*
X175795818Y-99673099D01*
X175931056Y-99700000D01*
X176068944Y-99700000D01*
X176204182Y-99673099D01*
X176331574Y-99620332D01*
X176446224Y-99543726D01*
X176543726Y-99446224D01*
X176620332Y-99331574D01*
X176673099Y-99204182D01*
X176700000Y-99068944D01*
X176700000Y-98931056D01*
X176673099Y-98795818D01*
X176620332Y-98668426D01*
X176543726Y-98553776D01*
X176446224Y-98456274D01*
X176367799Y-98403872D01*
X190524000Y-98403872D01*
X190524000Y-98596128D01*
X190561508Y-98784689D01*
X190635080Y-98962309D01*
X190741892Y-99122163D01*
X190877837Y-99258108D01*
X191037691Y-99364920D01*
X191215311Y-99438492D01*
X191403872Y-99476000D01*
X191596128Y-99476000D01*
X191784689Y-99438492D01*
X191962309Y-99364920D01*
X192122163Y-99258108D01*
X192258108Y-99122163D01*
X192364920Y-98962309D01*
X192438492Y-98784689D01*
X192476000Y-98596128D01*
X192476000Y-98403872D01*
X192438492Y-98215311D01*
X192364920Y-98037691D01*
X192258108Y-97877837D01*
X192122163Y-97741892D01*
X191962309Y-97635080D01*
X191784689Y-97561508D01*
X191596128Y-97524000D01*
X191403872Y-97524000D01*
X191215311Y-97561508D01*
X191037691Y-97635080D01*
X190877837Y-97741892D01*
X190741892Y-97877837D01*
X190635080Y-98037691D01*
X190561508Y-98215311D01*
X190524000Y-98403872D01*
X176367799Y-98403872D01*
X176331574Y-98379668D01*
X176204182Y-98326901D01*
X176068944Y-98300000D01*
X175931056Y-98300000D01*
X175795818Y-98326901D01*
X175668426Y-98379668D01*
X175553776Y-98456274D01*
X175456274Y-98553776D01*
X175379668Y-98668426D01*
X175326901Y-98795818D01*
X175300000Y-98931056D01*
X174900000Y-98931056D01*
X174873099Y-98795818D01*
X174820332Y-98668426D01*
X174743726Y-98553776D01*
X174646224Y-98456274D01*
X174531574Y-98379668D01*
X174404182Y-98326901D01*
X174268944Y-98300000D01*
X174131056Y-98300000D01*
X173995818Y-98326901D01*
X173868426Y-98379668D01*
X173753776Y-98456274D01*
X173656274Y-98553776D01*
X173579668Y-98668426D01*
X173526901Y-98795818D01*
X173500000Y-98931056D01*
X170808483Y-98931056D01*
X170731574Y-98879668D01*
X170604182Y-98826901D01*
X170468944Y-98800000D01*
X170331056Y-98800000D01*
X170195818Y-98826901D01*
X170068426Y-98879668D01*
X170031655Y-98904237D01*
X170073099Y-98804182D01*
X170100000Y-98668944D01*
X170100000Y-98531056D01*
X170073099Y-98395818D01*
X170020332Y-98268426D01*
X169943726Y-98153776D01*
X169846224Y-98056274D01*
X169731574Y-97979668D01*
X169604182Y-97926901D01*
X169468944Y-97900000D01*
X169331056Y-97900000D01*
X169195818Y-97926901D01*
X169068426Y-97979668D01*
X168953776Y-98056274D01*
X168856274Y-98153776D01*
X168779668Y-98268426D01*
X168726901Y-98395818D01*
X168700000Y-98531056D01*
X168700000Y-98571623D01*
X168341629Y-98182212D01*
X168431056Y-98200000D01*
X168568944Y-98200000D01*
X168704182Y-98173099D01*
X168831574Y-98120332D01*
X168946224Y-98043726D01*
X169043726Y-97946224D01*
X169120332Y-97831574D01*
X169173099Y-97704182D01*
X169200000Y-97568944D01*
X169200000Y-97431056D01*
X169173099Y-97295818D01*
X169120332Y-97168426D01*
X169043726Y-97053776D01*
X168946224Y-96956274D01*
X168831574Y-96879668D01*
X168704182Y-96826901D01*
X168568944Y-96800000D01*
X168431056Y-96800000D01*
X168295818Y-96826901D01*
X168239878Y-96850072D01*
X168243726Y-96846224D01*
X168320332Y-96731574D01*
X168373099Y-96604182D01*
X168387644Y-96531056D01*
X176400000Y-96531056D01*
X176400000Y-96668944D01*
X176426901Y-96804182D01*
X176479668Y-96931574D01*
X176525388Y-97000000D01*
X176479668Y-97068426D01*
X176426901Y-97195818D01*
X176400000Y-97331056D01*
X176400000Y-97468944D01*
X176426901Y-97604182D01*
X176479668Y-97731574D01*
X176556274Y-97846224D01*
X176653776Y-97943726D01*
X176768426Y-98020332D01*
X176895818Y-98073099D01*
X177031056Y-98100000D01*
X177168944Y-98100000D01*
X177304182Y-98073099D01*
X177431574Y-98020332D01*
X177546224Y-97943726D01*
X177643726Y-97846224D01*
X177720332Y-97731574D01*
X177773099Y-97604182D01*
X177800000Y-97468944D01*
X177800000Y-97331056D01*
X177773099Y-97195818D01*
X177720332Y-97068426D01*
X177674612Y-97000000D01*
X177720332Y-96931574D01*
X177773099Y-96804182D01*
X177800000Y-96668944D01*
X177800000Y-96531056D01*
X177773099Y-96395818D01*
X177720332Y-96268426D01*
X177643726Y-96153776D01*
X177546224Y-96056274D01*
X177431574Y-95979668D01*
X177304182Y-95926901D01*
X177168944Y-95900000D01*
X177031056Y-95900000D01*
X176895818Y-95926901D01*
X176768426Y-95979668D01*
X176653776Y-96056274D01*
X176556274Y-96153776D01*
X176479668Y-96268426D01*
X176426901Y-96395818D01*
X176400000Y-96531056D01*
X168387644Y-96531056D01*
X168400000Y-96468944D01*
X168400000Y-96331056D01*
X168373099Y-96195818D01*
X168320332Y-96068426D01*
X168243726Y-95953776D01*
X168146224Y-95856274D01*
X168031574Y-95779668D01*
X167904182Y-95726901D01*
X167768944Y-95700000D01*
X167631056Y-95700000D01*
X167495818Y-95726901D01*
X167368426Y-95779668D01*
X167253776Y-95856274D01*
X167156274Y-95953776D01*
X167079668Y-96068426D01*
X167026901Y-96195818D01*
X167000000Y-96331056D01*
X167000000Y-96452302D01*
X166625387Y-95843926D01*
X166695818Y-95873099D01*
X166831056Y-95900000D01*
X166968944Y-95900000D01*
X167104182Y-95873099D01*
X167231574Y-95820332D01*
X167346224Y-95743726D01*
X167443726Y-95646224D01*
X167520332Y-95531574D01*
X167573099Y-95404182D01*
X167600000Y-95268944D01*
X167600000Y-95131056D01*
X167573099Y-94995818D01*
X167520332Y-94868426D01*
X167443726Y-94753776D01*
X167346224Y-94656274D01*
X167231574Y-94579668D01*
X167104182Y-94526901D01*
X166968944Y-94500000D01*
X166831056Y-94500000D01*
X166695818Y-94526901D01*
X166631587Y-94553506D01*
X166646224Y-94543726D01*
X166743726Y-94446224D01*
X166820332Y-94331574D01*
X166873099Y-94204182D01*
X166900000Y-94068944D01*
X166900000Y-93931056D01*
X166873099Y-93795818D01*
X166825564Y-93681056D01*
X175800000Y-93681056D01*
X175800000Y-93818944D01*
X175826901Y-93954182D01*
X175879668Y-94081574D01*
X175956274Y-94196224D01*
X176010050Y-94250000D01*
X175956274Y-94303776D01*
X175879668Y-94418426D01*
X175826901Y-94545818D01*
X175800000Y-94681056D01*
X175800000Y-94818944D01*
X175826901Y-94954182D01*
X175879668Y-95081574D01*
X175956274Y-95196224D01*
X176053776Y-95293726D01*
X176168426Y-95370332D01*
X176295818Y-95423099D01*
X176431056Y-95450000D01*
X176568944Y-95450000D01*
X176704182Y-95423099D01*
X176831574Y-95370332D01*
X176946224Y-95293726D01*
X177043726Y-95196224D01*
X177120332Y-95081574D01*
X177173099Y-94954182D01*
X177200000Y-94818944D01*
X177200000Y-94681056D01*
X177173099Y-94545818D01*
X177120332Y-94418426D01*
X177043726Y-94303776D01*
X176989950Y-94250000D01*
X177043726Y-94196224D01*
X177120332Y-94081574D01*
X177173099Y-93954182D01*
X177200000Y-93818944D01*
X177200000Y-93681056D01*
X177173099Y-93545818D01*
X177120332Y-93418426D01*
X177043726Y-93303776D01*
X176946224Y-93206274D01*
X176831574Y-93129668D01*
X176704182Y-93076901D01*
X176568944Y-93050000D01*
X176431056Y-93050000D01*
X176295818Y-93076901D01*
X176168426Y-93129668D01*
X176053776Y-93206274D01*
X175956274Y-93303776D01*
X175879668Y-93418426D01*
X175826901Y-93545818D01*
X175800000Y-93681056D01*
X166825564Y-93681056D01*
X166820332Y-93668426D01*
X166743726Y-93553776D01*
X166646224Y-93456274D01*
X166531574Y-93379668D01*
X166404182Y-93326901D01*
X166268944Y-93300000D01*
X166131056Y-93300000D01*
X166032732Y-93319558D01*
X166146224Y-93243726D01*
X166243726Y-93146224D01*
X166320332Y-93031574D01*
X166373099Y-92904182D01*
X166400000Y-92768944D01*
X166400000Y-92681056D01*
X170300000Y-92681056D01*
X170300000Y-92818944D01*
X170326901Y-92954182D01*
X170379668Y-93081574D01*
X170456274Y-93196224D01*
X170553776Y-93293726D01*
X170668426Y-93370332D01*
X170795818Y-93423099D01*
X170931056Y-93450000D01*
X171068944Y-93450000D01*
X171204182Y-93423099D01*
X171331574Y-93370332D01*
X171446224Y-93293726D01*
X171543726Y-93196224D01*
X171620332Y-93081574D01*
X171673099Y-92954182D01*
X171700000Y-92818944D01*
X171700000Y-92681056D01*
X171692553Y-92643618D01*
X171762500Y-92643618D01*
X171762500Y-92781506D01*
X171789401Y-92916744D01*
X171842168Y-93044136D01*
X171918774Y-93158786D01*
X172016276Y-93256288D01*
X172130926Y-93332894D01*
X172258318Y-93385661D01*
X172393556Y-93412562D01*
X172531444Y-93412562D01*
X172666682Y-93385661D01*
X172794074Y-93332894D01*
X172908724Y-93256288D01*
X173006226Y-93158786D01*
X173082832Y-93044136D01*
X173135599Y-92916744D01*
X173162500Y-92781506D01*
X173162500Y-92668546D01*
X177037516Y-92668546D01*
X177037516Y-92806434D01*
X177064417Y-92941672D01*
X177117184Y-93069064D01*
X177193790Y-93183714D01*
X177291292Y-93281216D01*
X177405942Y-93357822D01*
X177533334Y-93410589D01*
X177668572Y-93437490D01*
X177806460Y-93437490D01*
X177941698Y-93410589D01*
X178069090Y-93357822D01*
X178183740Y-93281216D01*
X178281242Y-93183714D01*
X178357848Y-93069064D01*
X178410615Y-92941672D01*
X178437516Y-92806434D01*
X178437516Y-92668546D01*
X178410615Y-92533308D01*
X178357848Y-92405916D01*
X178281242Y-92291266D01*
X178183740Y-92193764D01*
X178069090Y-92117158D01*
X177941698Y-92064391D01*
X177806460Y-92037490D01*
X177668572Y-92037490D01*
X177533334Y-92064391D01*
X177405942Y-92117158D01*
X177291292Y-92193764D01*
X177193790Y-92291266D01*
X177117184Y-92405916D01*
X177064417Y-92533308D01*
X177037516Y-92668546D01*
X173162500Y-92668546D01*
X173162500Y-92643618D01*
X173135599Y-92508380D01*
X173082832Y-92380988D01*
X173006226Y-92266338D01*
X172908724Y-92168836D01*
X172794074Y-92092230D01*
X172666682Y-92039463D01*
X172531444Y-92012562D01*
X172393556Y-92012562D01*
X172258318Y-92039463D01*
X172130926Y-92092230D01*
X172016276Y-92168836D01*
X171918774Y-92266338D01*
X171842168Y-92380988D01*
X171789401Y-92508380D01*
X171762500Y-92643618D01*
X171692553Y-92643618D01*
X171673099Y-92545818D01*
X171620332Y-92418426D01*
X171543726Y-92303776D01*
X171446224Y-92206274D01*
X171331574Y-92129668D01*
X171204182Y-92076901D01*
X171068944Y-92050000D01*
X170931056Y-92050000D01*
X170795818Y-92076901D01*
X170668426Y-92129668D01*
X170553776Y-92206274D01*
X170456274Y-92303776D01*
X170379668Y-92418426D01*
X170326901Y-92545818D01*
X170300000Y-92681056D01*
X166400000Y-92681056D01*
X166400000Y-92631056D01*
X166373099Y-92495818D01*
X166320332Y-92368426D01*
X166243726Y-92253776D01*
X166146224Y-92156274D01*
X166031574Y-92079668D01*
X165904182Y-92026901D01*
X165768944Y-92000000D01*
X165662003Y-92000000D01*
X165746224Y-91943726D01*
X165843726Y-91846224D01*
X165920332Y-91731574D01*
X165973099Y-91604182D01*
X166000000Y-91468944D01*
X166000000Y-91331056D01*
X165973099Y-91195818D01*
X165920332Y-91068426D01*
X165843726Y-90953776D01*
X165746224Y-90856274D01*
X165631574Y-90779668D01*
X165504182Y-90726901D01*
X165368944Y-90700000D01*
X165231056Y-90700000D01*
X165095818Y-90726901D01*
X164968426Y-90779668D01*
X164853776Y-90856274D01*
X164756274Y-90953776D01*
X164679668Y-91068426D01*
X164665003Y-91103831D01*
X164582022Y-90796782D01*
X164550020Y-90608034D01*
X164568426Y-90620332D01*
X164695818Y-90673099D01*
X164831056Y-90700000D01*
X164968944Y-90700000D01*
X165104182Y-90673099D01*
X165231574Y-90620332D01*
X165346224Y-90543726D01*
X165443726Y-90446224D01*
X165453860Y-90431056D01*
X171600000Y-90431056D01*
X171600000Y-90568944D01*
X171626901Y-90704182D01*
X171679668Y-90831574D01*
X171756274Y-90946224D01*
X171853776Y-91043726D01*
X171968426Y-91120332D01*
X172095818Y-91173099D01*
X172231056Y-91200000D01*
X172368944Y-91200000D01*
X172504182Y-91173099D01*
X172631574Y-91120332D01*
X172746224Y-91043726D01*
X172843726Y-90946224D01*
X172920332Y-90831574D01*
X172973099Y-90704182D01*
X173000000Y-90568944D01*
X173000000Y-90431056D01*
X177000000Y-90431056D01*
X177000000Y-90568944D01*
X177026901Y-90704182D01*
X177079668Y-90831574D01*
X177156274Y-90946224D01*
X177253776Y-91043726D01*
X177368426Y-91120332D01*
X177495818Y-91173099D01*
X177631056Y-91200000D01*
X177768944Y-91200000D01*
X177904182Y-91173099D01*
X178031574Y-91120332D01*
X178146224Y-91043726D01*
X178243726Y-90946224D01*
X178320332Y-90831574D01*
X178373099Y-90704182D01*
X178400000Y-90568944D01*
X178400000Y-90431056D01*
X178373099Y-90295818D01*
X178320332Y-90168426D01*
X178243726Y-90053776D01*
X178146224Y-89956274D01*
X178031574Y-89879668D01*
X177904182Y-89826901D01*
X177768944Y-89800000D01*
X177631056Y-89800000D01*
X177495818Y-89826901D01*
X177368426Y-89879668D01*
X177253776Y-89956274D01*
X177156274Y-90053776D01*
X177079668Y-90168426D01*
X177026901Y-90295818D01*
X177000000Y-90431056D01*
X173000000Y-90431056D01*
X172973099Y-90295818D01*
X172920332Y-90168426D01*
X172843726Y-90053776D01*
X172746224Y-89956274D01*
X172631574Y-89879668D01*
X172504182Y-89826901D01*
X172368944Y-89800000D01*
X172231056Y-89800000D01*
X172095818Y-89826901D01*
X171968426Y-89879668D01*
X171853776Y-89956274D01*
X171756274Y-90053776D01*
X171679668Y-90168426D01*
X171626901Y-90295818D01*
X171600000Y-90431056D01*
X165453860Y-90431056D01*
X165520332Y-90331574D01*
X165573099Y-90204182D01*
X165600000Y-90068944D01*
X165600000Y-89931056D01*
X165573099Y-89795818D01*
X165520332Y-89668426D01*
X165443726Y-89553776D01*
X165346224Y-89456274D01*
X165231574Y-89379668D01*
X165109948Y-89329290D01*
X165131574Y-89320332D01*
X165246224Y-89243726D01*
X165343726Y-89146224D01*
X165420332Y-89031574D01*
X165420546Y-89031056D01*
X171800000Y-89031056D01*
X171800000Y-89168944D01*
X171826901Y-89304182D01*
X171879668Y-89431574D01*
X171956274Y-89546224D01*
X172053776Y-89643726D01*
X172168426Y-89720332D01*
X172295818Y-89773099D01*
X172431056Y-89800000D01*
X172568944Y-89800000D01*
X172704182Y-89773099D01*
X172831574Y-89720332D01*
X172946224Y-89643726D01*
X173043726Y-89546224D01*
X173120332Y-89431574D01*
X173173099Y-89304182D01*
X173200000Y-89168944D01*
X173200000Y-89031056D01*
X173173099Y-88895818D01*
X173120332Y-88768426D01*
X173043726Y-88653776D01*
X172946224Y-88556274D01*
X172831574Y-88479668D01*
X172704182Y-88426901D01*
X172568944Y-88400000D01*
X172431056Y-88400000D01*
X172295818Y-88426901D01*
X172168426Y-88479668D01*
X172053776Y-88556274D01*
X171956274Y-88653776D01*
X171879668Y-88768426D01*
X171826901Y-88895818D01*
X171800000Y-89031056D01*
X165420546Y-89031056D01*
X165473099Y-88904182D01*
X165500000Y-88768944D01*
X165500000Y-88631056D01*
X165473099Y-88495818D01*
X165420332Y-88368426D01*
X165343726Y-88253776D01*
X165246224Y-88156274D01*
X165131574Y-88079668D01*
X165004182Y-88026901D01*
X164868944Y-88000000D01*
X164731056Y-88000000D01*
X164595818Y-88026901D01*
X164468426Y-88079668D01*
X164353776Y-88156274D01*
X164256274Y-88253776D01*
X164247075Y-88267544D01*
X164205862Y-87695812D01*
X164253776Y-87743726D01*
X164368426Y-87820332D01*
X164495818Y-87873099D01*
X164631056Y-87900000D01*
X164768944Y-87900000D01*
X164904182Y-87873099D01*
X165031574Y-87820332D01*
X165146224Y-87743726D01*
X165243726Y-87646224D01*
X165320332Y-87531574D01*
X165373099Y-87404182D01*
X165400000Y-87268944D01*
X165400000Y-87181056D01*
X170800000Y-87181056D01*
X170800000Y-87318944D01*
X170826901Y-87454182D01*
X170879668Y-87581574D01*
X170956274Y-87696224D01*
X171053776Y-87793726D01*
X171168426Y-87870332D01*
X171295818Y-87923099D01*
X171431056Y-87950000D01*
X171568944Y-87950000D01*
X171704182Y-87923099D01*
X171831574Y-87870332D01*
X171946224Y-87793726D01*
X172043726Y-87696224D01*
X172120332Y-87581574D01*
X172173099Y-87454182D01*
X172200000Y-87318944D01*
X172200000Y-87181056D01*
X172199998Y-87181041D01*
X175800000Y-87181041D01*
X175800000Y-87318929D01*
X175826901Y-87454167D01*
X175879668Y-87581559D01*
X175956274Y-87696209D01*
X176053776Y-87793711D01*
X176168426Y-87870317D01*
X176295818Y-87923084D01*
X176431056Y-87949985D01*
X176568944Y-87949985D01*
X176704182Y-87923084D01*
X176831574Y-87870317D01*
X176946224Y-87793711D01*
X177043726Y-87696209D01*
X177120332Y-87581559D01*
X177173099Y-87454167D01*
X177200000Y-87318929D01*
X177200000Y-87181041D01*
X177173099Y-87045803D01*
X177120332Y-86918411D01*
X177043726Y-86803761D01*
X176946224Y-86706259D01*
X176831574Y-86629653D01*
X176704182Y-86576886D01*
X176568944Y-86549985D01*
X176431056Y-86549985D01*
X176295818Y-86576886D01*
X176168426Y-86629653D01*
X176053776Y-86706259D01*
X175956274Y-86803761D01*
X175879668Y-86918411D01*
X175826901Y-87045803D01*
X175800000Y-87181041D01*
X172199998Y-87181041D01*
X172173099Y-87045818D01*
X172120332Y-86918426D01*
X172043726Y-86803776D01*
X171946224Y-86706274D01*
X171831574Y-86629668D01*
X171704182Y-86576901D01*
X171568944Y-86550000D01*
X171431056Y-86550000D01*
X171295818Y-86576901D01*
X171168426Y-86629668D01*
X171053776Y-86706274D01*
X170956274Y-86803776D01*
X170879668Y-86918426D01*
X170826901Y-87045818D01*
X170800000Y-87181056D01*
X165400000Y-87181056D01*
X165400000Y-87131056D01*
X165373099Y-86995818D01*
X165320332Y-86868426D01*
X165243726Y-86753776D01*
X165146224Y-86656274D01*
X165031574Y-86579668D01*
X164904182Y-86526901D01*
X164768944Y-86500000D01*
X164868944Y-86500000D01*
X165004182Y-86473099D01*
X165131574Y-86420332D01*
X165246224Y-86343726D01*
X165343726Y-86246224D01*
X165420332Y-86131574D01*
X165473099Y-86004182D01*
X165500000Y-85868944D01*
X165500000Y-85731056D01*
X165473099Y-85595818D01*
X165420332Y-85468426D01*
X165343726Y-85353776D01*
X165246224Y-85256274D01*
X165131574Y-85179668D01*
X165109948Y-85170710D01*
X165231574Y-85120332D01*
X165346224Y-85043726D01*
X165443726Y-84946224D01*
X165520332Y-84831574D01*
X165573099Y-84704182D01*
X165600000Y-84568944D01*
X165600000Y-84431056D01*
X165573099Y-84295818D01*
X165520332Y-84168426D01*
X165443726Y-84053776D01*
X165346224Y-83956274D01*
X165231574Y-83879668D01*
X165104182Y-83826901D01*
X164968944Y-83800000D01*
X164831056Y-83800000D01*
X164695818Y-83826901D01*
X164568426Y-83879668D01*
X164561853Y-83884060D01*
X164641004Y-83523370D01*
X164656274Y-83546224D01*
X164753776Y-83643726D01*
X164868426Y-83720332D01*
X164995818Y-83773099D01*
X165131056Y-83800000D01*
X165268944Y-83800000D01*
X165404182Y-83773099D01*
X165531574Y-83720332D01*
X165646224Y-83643726D01*
X165743726Y-83546224D01*
X165820332Y-83431574D01*
X165873099Y-83304182D01*
X165897590Y-83181056D01*
X176300000Y-83181056D01*
X176300000Y-83318944D01*
X176326901Y-83454182D01*
X176379668Y-83581574D01*
X176456274Y-83696224D01*
X176553776Y-83793726D01*
X176668426Y-83870332D01*
X176795818Y-83923099D01*
X176931056Y-83950000D01*
X177068944Y-83950000D01*
X177204182Y-83923099D01*
X177331574Y-83870332D01*
X177446224Y-83793726D01*
X177543726Y-83696224D01*
X177620332Y-83581574D01*
X177673099Y-83454182D01*
X177700000Y-83318944D01*
X177700000Y-83181056D01*
X177673099Y-83045818D01*
X177620332Y-82918426D01*
X177543726Y-82803776D01*
X177446224Y-82706274D01*
X177331574Y-82629668D01*
X177204182Y-82576901D01*
X177068944Y-82550000D01*
X176931056Y-82550000D01*
X176795818Y-82576901D01*
X176668426Y-82629668D01*
X176553776Y-82706274D01*
X176456274Y-82803776D01*
X176379668Y-82918426D01*
X176326901Y-83045818D01*
X176300000Y-83181056D01*
X165897590Y-83181056D01*
X165900000Y-83168944D01*
X165900000Y-83031056D01*
X165873099Y-82895818D01*
X165820332Y-82768426D01*
X165743726Y-82653776D01*
X165646224Y-82556274D01*
X165532732Y-82480442D01*
X165631056Y-82500000D01*
X165768944Y-82500000D01*
X165904182Y-82473099D01*
X166031574Y-82420332D01*
X166146224Y-82343726D01*
X166243726Y-82246224D01*
X166320332Y-82131574D01*
X166373099Y-82004182D01*
X166400000Y-81868944D01*
X166400000Y-81731056D01*
X166373099Y-81595818D01*
X166320332Y-81468426D01*
X166243726Y-81353776D01*
X166146224Y-81256274D01*
X166031574Y-81179668D01*
X165904182Y-81126901D01*
X165768944Y-81100000D01*
X165631056Y-81100000D01*
X165495818Y-81126901D01*
X165368426Y-81179668D01*
X165359495Y-81185635D01*
X165621838Y-80578728D01*
X165626901Y-80604182D01*
X165679668Y-80731574D01*
X165756274Y-80846224D01*
X165853776Y-80943726D01*
X165968426Y-81020332D01*
X166095818Y-81073099D01*
X166231056Y-81100000D01*
X166368944Y-81100000D01*
X166504182Y-81073099D01*
X166631574Y-81020332D01*
X166746224Y-80943726D01*
X166843726Y-80846224D01*
X166920332Y-80731574D01*
X166973099Y-80604182D01*
X167000000Y-80468944D01*
X167000000Y-80331056D01*
X166973099Y-80195818D01*
X166920332Y-80068426D01*
X166874612Y-80000000D01*
X166968944Y-80000000D01*
X167104182Y-79973099D01*
X167231574Y-79920332D01*
X167346224Y-79843726D01*
X167443726Y-79746224D01*
X167520332Y-79631574D01*
X167573099Y-79504182D01*
X167600000Y-79368944D01*
X167600000Y-79231056D01*
X167573099Y-79095818D01*
X167520332Y-78968426D01*
X167443726Y-78853776D01*
X167346224Y-78756274D01*
X167231574Y-78679668D01*
X167104182Y-78626901D01*
X166968944Y-78600000D01*
X166831056Y-78600000D01*
X166695818Y-78626901D01*
X166603532Y-78665127D01*
X166655929Y-78570119D01*
X166922255Y-78180825D01*
X166926901Y-78204182D01*
X166979668Y-78331574D01*
X167056274Y-78446224D01*
X167153776Y-78543726D01*
X167268426Y-78620332D01*
X167395818Y-78673099D01*
X167531056Y-78700000D01*
X167668944Y-78700000D01*
X167804182Y-78673099D01*
X167931574Y-78620332D01*
X168046224Y-78543726D01*
X168143726Y-78446224D01*
X168220332Y-78331574D01*
X168273099Y-78204182D01*
X168300000Y-78068944D01*
X168300000Y-77931056D01*
X168273099Y-77795818D01*
X168220332Y-77668426D01*
X168195763Y-77631655D01*
X168295818Y-77673099D01*
X168431056Y-77700000D01*
X168568944Y-77700000D01*
X168704182Y-77673099D01*
X168831574Y-77620332D01*
X168946224Y-77543726D01*
X169043726Y-77446224D01*
X169053860Y-77431056D01*
X176800000Y-77431056D01*
X176800000Y-77568944D01*
X176826901Y-77704182D01*
X176879668Y-77831574D01*
X176956274Y-77946224D01*
X177053776Y-78043726D01*
X177168426Y-78120332D01*
X177295818Y-78173099D01*
X177431056Y-78200000D01*
X177568944Y-78200000D01*
X177704182Y-78173099D01*
X177831574Y-78120332D01*
X177946224Y-78043726D01*
X178043726Y-77946224D01*
X178120332Y-77831574D01*
X178173099Y-77704182D01*
X178200000Y-77568944D01*
X178200000Y-77431056D01*
X178173099Y-77295818D01*
X178120332Y-77168426D01*
X178043726Y-77053776D01*
X177946224Y-76956274D01*
X177831574Y-76879668D01*
X177704182Y-76826901D01*
X177568944Y-76800000D01*
X177431056Y-76800000D01*
X177295818Y-76826901D01*
X177168426Y-76879668D01*
X177053776Y-76956274D01*
X176956274Y-77053776D01*
X176879668Y-77168426D01*
X176826901Y-77295818D01*
X176800000Y-77431056D01*
X169053860Y-77431056D01*
X169120332Y-77331574D01*
X169173099Y-77204182D01*
X169200000Y-77068944D01*
X169200000Y-76931056D01*
X169173099Y-76795818D01*
X169120332Y-76668426D01*
X169043726Y-76553776D01*
X168946224Y-76456274D01*
X168831574Y-76379668D01*
X168704182Y-76326901D01*
X168568944Y-76300000D01*
X168431056Y-76300000D01*
X168338791Y-76318353D01*
X168571078Y-76040313D01*
X169241041Y-75379111D01*
X169135080Y-75537691D01*
X169061508Y-75715311D01*
X169024000Y-75903872D01*
X169024000Y-76096128D01*
X169061508Y-76284689D01*
X169135080Y-76462309D01*
X169241892Y-76622163D01*
X169377837Y-76758108D01*
X169537691Y-76864920D01*
X169715311Y-76938492D01*
X169903872Y-76976000D01*
X170096128Y-76976000D01*
X170284689Y-76938492D01*
X170462309Y-76864920D01*
X170622163Y-76758108D01*
X170758108Y-76622163D01*
X170864920Y-76462309D01*
X170877865Y-76431056D01*
X171050000Y-76431056D01*
X171050000Y-76568944D01*
X171076901Y-76704182D01*
X171129668Y-76831574D01*
X171206274Y-76946224D01*
X171303776Y-77043726D01*
X171418426Y-77120332D01*
X171545818Y-77173099D01*
X171681056Y-77200000D01*
X171818944Y-77200000D01*
X171954182Y-77173099D01*
X172081574Y-77120332D01*
X172196224Y-77043726D01*
X172293726Y-76946224D01*
X172370332Y-76831574D01*
X172423099Y-76704182D01*
X172450000Y-76568944D01*
X172450000Y-76431056D01*
X172423099Y-76295818D01*
X172370332Y-76168426D01*
X172293726Y-76053776D01*
X172196224Y-75956274D01*
X172081574Y-75879668D01*
X171954182Y-75826901D01*
X171818944Y-75800000D01*
X171681056Y-75800000D01*
X171545818Y-75826901D01*
X171418426Y-75879668D01*
X171303776Y-75956274D01*
X171206274Y-76053776D01*
X171129668Y-76168426D01*
X171076901Y-76295818D01*
X171050000Y-76431056D01*
X170877865Y-76431056D01*
X170938492Y-76284689D01*
X170976000Y-76096128D01*
X170976000Y-75903872D01*
X170938492Y-75715311D01*
X170864920Y-75537691D01*
X170758108Y-75377837D01*
X170622163Y-75241892D01*
X170462309Y-75135080D01*
X170284689Y-75061508D01*
X170096128Y-75024000D01*
X169903872Y-75024000D01*
X169715311Y-75061508D01*
X169537691Y-75135080D01*
X169384775Y-75237256D01*
X169701550Y-74924623D01*
X170919266Y-73934200D01*
X170900000Y-74031056D01*
X170900000Y-74168944D01*
X170926901Y-74304182D01*
X170979668Y-74431574D01*
X171056274Y-74546224D01*
X171153776Y-74643726D01*
X171268426Y-74720332D01*
X171395818Y-74773099D01*
X171531056Y-74800000D01*
X171668944Y-74800000D01*
X171804182Y-74773099D01*
X171931574Y-74720332D01*
X172046224Y-74643726D01*
X172143726Y-74546224D01*
X172220332Y-74431574D01*
X172273099Y-74304182D01*
X172300000Y-74168944D01*
X172300000Y-74031056D01*
X172287051Y-73965960D01*
X172368426Y-74020332D01*
X172495818Y-74073099D01*
X172631056Y-74100000D01*
X172768944Y-74100000D01*
X172904182Y-74073099D01*
X173031574Y-74020332D01*
X173146224Y-73943726D01*
X173243726Y-73846224D01*
X173320332Y-73731574D01*
X173373099Y-73604182D01*
X173400000Y-73468944D01*
X173400000Y-73331056D01*
X173373099Y-73195818D01*
X173346494Y-73131587D01*
X173356274Y-73146224D01*
X173453776Y-73243726D01*
X173568426Y-73320332D01*
X173695818Y-73373099D01*
X173831056Y-73400000D01*
X173968944Y-73400000D01*
X174104182Y-73373099D01*
X174231574Y-73320332D01*
X174346224Y-73243726D01*
X174443726Y-73146224D01*
X174520332Y-73031574D01*
X174573099Y-72904182D01*
X174600000Y-72768944D01*
X174600000Y-72631056D01*
X174573099Y-72495818D01*
X174520332Y-72368426D01*
X174443726Y-72253776D01*
X174346224Y-72156274D01*
X174231574Y-72079668D01*
X174201725Y-72067304D01*
X174679942Y-71868016D01*
X174679668Y-71868426D01*
X174626901Y-71995818D01*
X174600000Y-72131056D01*
X174600000Y-72268944D01*
X174626901Y-72404182D01*
X174679668Y-72531574D01*
X174756274Y-72646224D01*
X174853776Y-72743726D01*
X174968426Y-72820332D01*
X175095818Y-72873099D01*
X175231056Y-72900000D01*
X175368944Y-72900000D01*
X175504182Y-72873099D01*
X175631574Y-72820332D01*
X175746224Y-72743726D01*
X175843726Y-72646224D01*
X175920332Y-72531574D01*
X175973099Y-72404182D01*
X176000000Y-72268944D01*
X176000000Y-72162003D01*
X176056274Y-72246224D01*
X176153776Y-72343726D01*
X176268426Y-72420332D01*
X176395818Y-72473099D01*
X176531056Y-72500000D01*
X176668944Y-72500000D01*
X176804182Y-72473099D01*
X176931574Y-72420332D01*
X177046224Y-72343726D01*
X177143726Y-72246224D01*
X177220332Y-72131574D01*
X177273099Y-72004182D01*
X177300000Y-71868944D01*
X177300000Y-71731056D01*
X177273099Y-71595818D01*
X177220332Y-71468426D01*
X177143726Y-71353776D01*
X177046224Y-71256274D01*
X176931574Y-71179668D01*
X176893247Y-71163793D01*
X178121214Y-70911213D01*
X178053776Y-70956274D01*
X177956274Y-71053776D01*
X177879668Y-71168426D01*
X177826901Y-71295818D01*
X177800000Y-71431056D01*
X177800000Y-71568944D01*
X177826901Y-71704182D01*
X177879668Y-71831574D01*
X177956274Y-71946224D01*
X178010050Y-72000000D01*
X177956274Y-72053776D01*
X177879668Y-72168426D01*
X177826901Y-72295818D01*
X177800000Y-72431056D01*
X177800000Y-72568944D01*
X177826901Y-72704182D01*
X177879668Y-72831574D01*
X177956274Y-72946224D01*
X178010050Y-73000000D01*
X177956274Y-73053776D01*
X177879668Y-73168426D01*
X177826901Y-73295818D01*
X177800000Y-73431056D01*
X177800000Y-73568944D01*
X177826901Y-73704182D01*
X177879668Y-73831574D01*
X177956274Y-73946224D01*
X178053776Y-74043726D01*
X178168426Y-74120332D01*
X178295818Y-74173099D01*
X178431056Y-74200000D01*
X178568944Y-74200000D01*
X178704182Y-74173099D01*
X178831574Y-74120332D01*
X178946224Y-74043726D01*
X179043726Y-73946224D01*
X179120332Y-73831574D01*
X179173099Y-73704182D01*
X179200000Y-73568944D01*
X179200000Y-73431056D01*
X179173099Y-73295818D01*
X179120332Y-73168426D01*
X179043726Y-73053776D01*
X178989950Y-73000000D01*
X179043726Y-72946224D01*
X179120332Y-72831574D01*
X179173099Y-72704182D01*
X179200000Y-72568944D01*
X179200000Y-72431056D01*
X179173099Y-72295818D01*
X179120332Y-72168426D01*
X179043726Y-72053776D01*
X178989950Y-72000000D01*
X179043726Y-71946224D01*
X179120332Y-71831574D01*
X179173099Y-71704182D01*
X179200000Y-71568944D01*
X179200000Y-71431056D01*
X179173099Y-71295818D01*
X179120332Y-71168426D01*
X179043726Y-71053776D01*
X178946224Y-70956274D01*
X178831574Y-70879668D01*
X178731659Y-70838282D01*
X179400000Y-70766586D01*
X179400000Y-73806178D01*
G37*
X179400000Y-73806178D02*
X179295818Y-73826901D01*
X179168426Y-73879668D01*
X179053776Y-73956274D01*
X178956274Y-74053776D01*
X178879668Y-74168426D01*
X178826901Y-74295818D01*
X178800000Y-74431056D01*
X178800000Y-74568944D01*
X178826901Y-74704182D01*
X178879668Y-74831574D01*
X178956274Y-74946224D01*
X179007024Y-74996974D01*
X178926283Y-75050924D01*
X178800924Y-75176283D01*
X178702430Y-75323690D01*
X178634586Y-75487480D01*
X178600000Y-75661358D01*
X178600000Y-75838642D01*
X178634586Y-76012520D01*
X178702430Y-76176310D01*
X178800924Y-76323717D01*
X178926283Y-76449076D01*
X179002496Y-76500000D01*
X178926283Y-76550924D01*
X178800924Y-76676283D01*
X178702430Y-76823690D01*
X178634586Y-76987480D01*
X178600000Y-77161358D01*
X178600000Y-77338642D01*
X178634586Y-77512520D01*
X178702430Y-77676310D01*
X178800924Y-77823717D01*
X178926283Y-77949076D01*
X179073690Y-78047570D01*
X179237480Y-78115414D01*
X179400000Y-78147741D01*
X179400000Y-83326073D01*
X179395838Y-83326901D01*
X179268446Y-83379668D01*
X179153796Y-83456274D01*
X179056294Y-83553776D01*
X178979688Y-83668426D01*
X178926921Y-83795818D01*
X178900020Y-83931056D01*
X178900020Y-84068944D01*
X178926921Y-84204182D01*
X178979688Y-84331574D01*
X179056294Y-84446224D01*
X179153796Y-84543726D01*
X179268446Y-84620332D01*
X179395838Y-84673099D01*
X179400000Y-84673927D01*
X179400000Y-86554734D01*
X179332803Y-86526900D01*
X179197565Y-86499999D01*
X179059677Y-86499999D01*
X178924439Y-86526900D01*
X178797047Y-86579667D01*
X178682397Y-86656273D01*
X178584895Y-86753775D01*
X178508289Y-86868425D01*
X178455522Y-86995817D01*
X178428621Y-87131055D01*
X178428621Y-87268943D01*
X178455522Y-87404181D01*
X178508289Y-87531573D01*
X178584895Y-87646223D01*
X178682397Y-87743725D01*
X178797047Y-87820331D01*
X178924439Y-87873098D01*
X179059677Y-87899999D01*
X179197565Y-87899999D01*
X179332803Y-87873098D01*
X179400000Y-87845264D01*
X179400000Y-95316123D01*
X179318944Y-95300000D01*
X179181056Y-95300000D01*
X179045818Y-95326901D01*
X178918426Y-95379668D01*
X178803776Y-95456274D01*
X178706274Y-95553776D01*
X178629668Y-95668426D01*
X178576901Y-95795818D01*
X178550000Y-95931056D01*
X178550000Y-96068944D01*
X178576901Y-96204182D01*
X178629668Y-96331574D01*
X178706274Y-96446224D01*
X178803776Y-96543726D01*
X178918426Y-96620332D01*
X179045818Y-96673099D01*
X179181056Y-96700000D01*
X179318944Y-96700000D01*
X179454182Y-96673099D01*
X179581574Y-96620332D01*
X179696224Y-96543726D01*
X179793726Y-96446224D01*
X179870332Y-96331574D01*
X179923099Y-96204182D01*
X179947363Y-96082201D01*
X193173962Y-96082201D01*
X193126901Y-96195818D01*
X193100000Y-96331056D01*
X193100000Y-96468944D01*
X193126901Y-96604182D01*
X193179668Y-96731574D01*
X193256274Y-96846224D01*
X193260122Y-96850072D01*
X193204182Y-96826901D01*
X193068944Y-96800000D01*
X192931056Y-96800000D01*
X192795818Y-96826901D01*
X192668426Y-96879668D01*
X192553776Y-96956274D01*
X192456274Y-97053776D01*
X192379668Y-97168426D01*
X192326901Y-97295818D01*
X192300000Y-97431056D01*
X192300000Y-97568944D01*
X192326901Y-97704182D01*
X192379668Y-97831574D01*
X192456274Y-97946224D01*
X192553776Y-98043726D01*
X192668426Y-98120332D01*
X192795818Y-98173099D01*
X192931056Y-98200000D01*
X193068944Y-98200000D01*
X193178617Y-98178184D01*
X192117302Y-99281941D01*
X190911759Y-100316056D01*
X190584642Y-100546154D01*
X190600000Y-100468944D01*
X190600000Y-100331056D01*
X190573099Y-100195818D01*
X190520332Y-100068426D01*
X190443726Y-99953776D01*
X190346224Y-99856274D01*
X190231574Y-99779668D01*
X190104182Y-99726901D01*
X189968944Y-99700000D01*
X189831056Y-99700000D01*
X189695818Y-99726901D01*
X189568426Y-99779668D01*
X189453776Y-99856274D01*
X189356274Y-99953776D01*
X189279668Y-100068426D01*
X189226901Y-100195818D01*
X189200000Y-100331056D01*
X189200000Y-100468944D01*
X189226901Y-100604182D01*
X189253506Y-100668413D01*
X189243726Y-100653776D01*
X189146224Y-100556274D01*
X189031574Y-100479668D01*
X188904182Y-100426901D01*
X188768944Y-100400000D01*
X188631056Y-100400000D01*
X188495818Y-100426901D01*
X188368426Y-100479668D01*
X188253776Y-100556274D01*
X188156274Y-100653776D01*
X188079668Y-100768426D01*
X188026901Y-100895818D01*
X188000000Y-101031056D01*
X188000000Y-101168944D01*
X188026901Y-101304182D01*
X188053506Y-101368413D01*
X188043726Y-101353776D01*
X187946224Y-101256274D01*
X187831574Y-101179668D01*
X187704182Y-101126901D01*
X187568944Y-101100000D01*
X187431056Y-101100000D01*
X187295818Y-101126901D01*
X187168426Y-101179668D01*
X187053776Y-101256274D01*
X186956274Y-101353776D01*
X186879668Y-101468426D01*
X186826901Y-101595818D01*
X186800000Y-101731056D01*
X186800000Y-101868944D01*
X186819558Y-101967268D01*
X186743726Y-101853776D01*
X186646224Y-101756274D01*
X186531574Y-101679668D01*
X186404182Y-101626901D01*
X186268944Y-101600000D01*
X186131056Y-101600000D01*
X185995818Y-101626901D01*
X185868426Y-101679668D01*
X185753776Y-101756274D01*
X185656274Y-101853776D01*
X185579668Y-101968426D01*
X185526901Y-102095818D01*
X185500000Y-102231056D01*
X185500000Y-102368944D01*
X185526901Y-102504182D01*
X185579668Y-102631574D01*
X185656274Y-102746224D01*
X185753776Y-102843726D01*
X185868426Y-102920332D01*
X185937287Y-102948855D01*
X185277193Y-103171297D01*
X183730362Y-103531911D01*
X182156085Y-103742607D01*
X180568871Y-103801446D01*
X178983313Y-103707885D01*
X178463285Y-103626665D01*
X178543726Y-103546224D01*
X178620332Y-103431574D01*
X178673099Y-103304182D01*
X178700000Y-103168944D01*
X178700000Y-103031056D01*
X178673099Y-102895818D01*
X178620332Y-102768426D01*
X178543726Y-102653776D01*
X178446224Y-102556274D01*
X178331574Y-102479668D01*
X178204182Y-102426901D01*
X178068944Y-102400000D01*
X177931056Y-102400000D01*
X177795818Y-102426901D01*
X177668426Y-102479668D01*
X177553776Y-102556274D01*
X177456274Y-102653776D01*
X177379668Y-102768426D01*
X177326901Y-102895818D01*
X177300000Y-103031056D01*
X177300000Y-103168944D01*
X177326901Y-103304182D01*
X177379668Y-103431574D01*
X177397733Y-103458610D01*
X177019418Y-103361637D01*
X177046224Y-103343726D01*
X177143726Y-103246224D01*
X177220332Y-103131574D01*
X177273099Y-103004182D01*
X177300000Y-102868944D01*
X177300000Y-102731056D01*
X177273099Y-102595818D01*
X177220332Y-102468426D01*
X177143726Y-102353776D01*
X177046224Y-102256274D01*
X176931574Y-102179668D01*
X176804182Y-102126901D01*
X176668944Y-102100000D01*
X176531056Y-102100000D01*
X176395818Y-102126901D01*
X176268426Y-102179668D01*
X176153776Y-102256274D01*
X176056274Y-102353776D01*
X175979668Y-102468426D01*
X175926901Y-102595818D01*
X175900000Y-102731056D01*
X175900000Y-102868944D01*
X175926901Y-103004182D01*
X175962775Y-103090789D01*
X175875470Y-103068411D01*
X175500963Y-102933011D01*
X175531574Y-102920332D01*
X175646224Y-102843726D01*
X175743726Y-102746224D01*
X175820332Y-102631574D01*
X175873099Y-102504182D01*
X175900000Y-102368944D01*
X175900000Y-102231056D01*
X175873099Y-102095818D01*
X175820332Y-101968426D01*
X175743726Y-101853776D01*
X175646224Y-101756274D01*
X175531574Y-101679668D01*
X175404182Y-101626901D01*
X175268944Y-101600000D01*
X175131056Y-101600000D01*
X174995818Y-101626901D01*
X174868426Y-101679668D01*
X174753776Y-101756274D01*
X174700000Y-101810050D01*
X174700000Y-101681056D01*
X174673099Y-101545818D01*
X174620332Y-101418426D01*
X174543726Y-101303776D01*
X174446224Y-101206274D01*
X174331574Y-101129668D01*
X174204182Y-101076901D01*
X174068944Y-101050000D01*
X173931056Y-101050000D01*
X173795818Y-101076901D01*
X173668426Y-101129668D01*
X173553776Y-101206274D01*
X173456274Y-101303776D01*
X173379668Y-101418426D01*
X173326901Y-101545818D01*
X173300000Y-101681056D01*
X173300000Y-101818944D01*
X173326901Y-101954182D01*
X173364957Y-102046059D01*
X172946725Y-101847674D01*
X172842520Y-101785365D01*
X172904182Y-101773099D01*
X173031574Y-101720332D01*
X173146224Y-101643726D01*
X173243726Y-101546224D01*
X173320332Y-101431574D01*
X173373099Y-101304182D01*
X173400000Y-101168944D01*
X173400000Y-101031056D01*
X173373099Y-100895818D01*
X173320332Y-100768426D01*
X173243726Y-100653776D01*
X173146224Y-100556274D01*
X173031574Y-100479668D01*
X172904182Y-100426901D01*
X172768944Y-100400000D01*
X172631056Y-100400000D01*
X172495818Y-100426901D01*
X172368426Y-100479668D01*
X172253776Y-100556274D01*
X172249928Y-100560122D01*
X172273099Y-100504182D01*
X172300000Y-100368944D01*
X172300000Y-100231056D01*
X172273099Y-100095818D01*
X172220332Y-99968426D01*
X172143726Y-99853776D01*
X172046224Y-99756274D01*
X171931574Y-99679668D01*
X171804182Y-99626901D01*
X171668944Y-99600000D01*
X171531056Y-99600000D01*
X171395818Y-99626901D01*
X171268426Y-99679668D01*
X171153776Y-99756274D01*
X171056274Y-99853776D01*
X170979668Y-99968426D01*
X170926901Y-100095818D01*
X170900000Y-100231056D01*
X170900000Y-100368944D01*
X170926901Y-100504182D01*
X170953533Y-100568478D01*
X170453321Y-100200000D01*
X170468944Y-100200000D01*
X170604182Y-100173099D01*
X170731574Y-100120332D01*
X170846224Y-100043726D01*
X170943726Y-99946224D01*
X171020332Y-99831574D01*
X171073099Y-99704182D01*
X171100000Y-99568944D01*
X171100000Y-99431056D01*
X171073099Y-99295818D01*
X171020332Y-99168426D01*
X170943726Y-99053776D01*
X170846224Y-98956274D01*
X170808483Y-98931056D01*
X173500000Y-98931056D01*
X173500000Y-99068944D01*
X173526901Y-99204182D01*
X173579668Y-99331574D01*
X173656274Y-99446224D01*
X173753776Y-99543726D01*
X173868426Y-99620332D01*
X173995818Y-99673099D01*
X174131056Y-99700000D01*
X174268944Y-99700000D01*
X174404182Y-99673099D01*
X174531574Y-99620332D01*
X174646224Y-99543726D01*
X174743726Y-99446224D01*
X174820332Y-99331574D01*
X174873099Y-99204182D01*
X174900000Y-99068944D01*
X174900000Y-98931056D01*
X175300000Y-98931056D01*
X175300000Y-99068944D01*
X175326901Y-99204182D01*
X175379668Y-99331574D01*
X175456274Y-99446224D01*
X175553776Y-99543726D01*
X175668426Y-99620332D01*
X175795818Y-99673099D01*
X175931056Y-99700000D01*
X176068944Y-99700000D01*
X176204182Y-99673099D01*
X176331574Y-99620332D01*
X176446224Y-99543726D01*
X176543726Y-99446224D01*
X176620332Y-99331574D01*
X176673099Y-99204182D01*
X176700000Y-99068944D01*
X176700000Y-98931056D01*
X176673099Y-98795818D01*
X176620332Y-98668426D01*
X176543726Y-98553776D01*
X176446224Y-98456274D01*
X176367799Y-98403872D01*
X190524000Y-98403872D01*
X190524000Y-98596128D01*
X190561508Y-98784689D01*
X190635080Y-98962309D01*
X190741892Y-99122163D01*
X190877837Y-99258108D01*
X191037691Y-99364920D01*
X191215311Y-99438492D01*
X191403872Y-99476000D01*
X191596128Y-99476000D01*
X191784689Y-99438492D01*
X191962309Y-99364920D01*
X192122163Y-99258108D01*
X192258108Y-99122163D01*
X192364920Y-98962309D01*
X192438492Y-98784689D01*
X192476000Y-98596128D01*
X192476000Y-98403872D01*
X192438492Y-98215311D01*
X192364920Y-98037691D01*
X192258108Y-97877837D01*
X192122163Y-97741892D01*
X191962309Y-97635080D01*
X191784689Y-97561508D01*
X191596128Y-97524000D01*
X191403872Y-97524000D01*
X191215311Y-97561508D01*
X191037691Y-97635080D01*
X190877837Y-97741892D01*
X190741892Y-97877837D01*
X190635080Y-98037691D01*
X190561508Y-98215311D01*
X190524000Y-98403872D01*
X176367799Y-98403872D01*
X176331574Y-98379668D01*
X176204182Y-98326901D01*
X176068944Y-98300000D01*
X175931056Y-98300000D01*
X175795818Y-98326901D01*
X175668426Y-98379668D01*
X175553776Y-98456274D01*
X175456274Y-98553776D01*
X175379668Y-98668426D01*
X175326901Y-98795818D01*
X175300000Y-98931056D01*
X174900000Y-98931056D01*
X174873099Y-98795818D01*
X174820332Y-98668426D01*
X174743726Y-98553776D01*
X174646224Y-98456274D01*
X174531574Y-98379668D01*
X174404182Y-98326901D01*
X174268944Y-98300000D01*
X174131056Y-98300000D01*
X173995818Y-98326901D01*
X173868426Y-98379668D01*
X173753776Y-98456274D01*
X173656274Y-98553776D01*
X173579668Y-98668426D01*
X173526901Y-98795818D01*
X173500000Y-98931056D01*
X170808483Y-98931056D01*
X170731574Y-98879668D01*
X170604182Y-98826901D01*
X170468944Y-98800000D01*
X170331056Y-98800000D01*
X170195818Y-98826901D01*
X170068426Y-98879668D01*
X170031655Y-98904237D01*
X170073099Y-98804182D01*
X170100000Y-98668944D01*
X170100000Y-98531056D01*
X170073099Y-98395818D01*
X170020332Y-98268426D01*
X169943726Y-98153776D01*
X169846224Y-98056274D01*
X169731574Y-97979668D01*
X169604182Y-97926901D01*
X169468944Y-97900000D01*
X169331056Y-97900000D01*
X169195818Y-97926901D01*
X169068426Y-97979668D01*
X168953776Y-98056274D01*
X168856274Y-98153776D01*
X168779668Y-98268426D01*
X168726901Y-98395818D01*
X168700000Y-98531056D01*
X168700000Y-98571623D01*
X168341629Y-98182212D01*
X168431056Y-98200000D01*
X168568944Y-98200000D01*
X168704182Y-98173099D01*
X168831574Y-98120332D01*
X168946224Y-98043726D01*
X169043726Y-97946224D01*
X169120332Y-97831574D01*
X169173099Y-97704182D01*
X169200000Y-97568944D01*
X169200000Y-97431056D01*
X169173099Y-97295818D01*
X169120332Y-97168426D01*
X169043726Y-97053776D01*
X168946224Y-96956274D01*
X168831574Y-96879668D01*
X168704182Y-96826901D01*
X168568944Y-96800000D01*
X168431056Y-96800000D01*
X168295818Y-96826901D01*
X168239878Y-96850072D01*
X168243726Y-96846224D01*
X168320332Y-96731574D01*
X168373099Y-96604182D01*
X168387644Y-96531056D01*
X176400000Y-96531056D01*
X176400000Y-96668944D01*
X176426901Y-96804182D01*
X176479668Y-96931574D01*
X176525388Y-97000000D01*
X176479668Y-97068426D01*
X176426901Y-97195818D01*
X176400000Y-97331056D01*
X176400000Y-97468944D01*
X176426901Y-97604182D01*
X176479668Y-97731574D01*
X176556274Y-97846224D01*
X176653776Y-97943726D01*
X176768426Y-98020332D01*
X176895818Y-98073099D01*
X177031056Y-98100000D01*
X177168944Y-98100000D01*
X177304182Y-98073099D01*
X177431574Y-98020332D01*
X177546224Y-97943726D01*
X177643726Y-97846224D01*
X177720332Y-97731574D01*
X177773099Y-97604182D01*
X177800000Y-97468944D01*
X177800000Y-97331056D01*
X177773099Y-97195818D01*
X177720332Y-97068426D01*
X177674612Y-97000000D01*
X177720332Y-96931574D01*
X177773099Y-96804182D01*
X177800000Y-96668944D01*
X177800000Y-96531056D01*
X177773099Y-96395818D01*
X177720332Y-96268426D01*
X177643726Y-96153776D01*
X177546224Y-96056274D01*
X177431574Y-95979668D01*
X177304182Y-95926901D01*
X177168944Y-95900000D01*
X177031056Y-95900000D01*
X176895818Y-95926901D01*
X176768426Y-95979668D01*
X176653776Y-96056274D01*
X176556274Y-96153776D01*
X176479668Y-96268426D01*
X176426901Y-96395818D01*
X176400000Y-96531056D01*
X168387644Y-96531056D01*
X168400000Y-96468944D01*
X168400000Y-96331056D01*
X168373099Y-96195818D01*
X168320332Y-96068426D01*
X168243726Y-95953776D01*
X168146224Y-95856274D01*
X168031574Y-95779668D01*
X167904182Y-95726901D01*
X167768944Y-95700000D01*
X167631056Y-95700000D01*
X167495818Y-95726901D01*
X167368426Y-95779668D01*
X167253776Y-95856274D01*
X167156274Y-95953776D01*
X167079668Y-96068426D01*
X167026901Y-96195818D01*
X167000000Y-96331056D01*
X167000000Y-96452302D01*
X166625387Y-95843926D01*
X166695818Y-95873099D01*
X166831056Y-95900000D01*
X166968944Y-95900000D01*
X167104182Y-95873099D01*
X167231574Y-95820332D01*
X167346224Y-95743726D01*
X167443726Y-95646224D01*
X167520332Y-95531574D01*
X167573099Y-95404182D01*
X167600000Y-95268944D01*
X167600000Y-95131056D01*
X167573099Y-94995818D01*
X167520332Y-94868426D01*
X167443726Y-94753776D01*
X167346224Y-94656274D01*
X167231574Y-94579668D01*
X167104182Y-94526901D01*
X166968944Y-94500000D01*
X166831056Y-94500000D01*
X166695818Y-94526901D01*
X166631587Y-94553506D01*
X166646224Y-94543726D01*
X166743726Y-94446224D01*
X166820332Y-94331574D01*
X166873099Y-94204182D01*
X166900000Y-94068944D01*
X166900000Y-93931056D01*
X166873099Y-93795818D01*
X166825564Y-93681056D01*
X175800000Y-93681056D01*
X175800000Y-93818944D01*
X175826901Y-93954182D01*
X175879668Y-94081574D01*
X175956274Y-94196224D01*
X176010050Y-94250000D01*
X175956274Y-94303776D01*
X175879668Y-94418426D01*
X175826901Y-94545818D01*
X175800000Y-94681056D01*
X175800000Y-94818944D01*
X175826901Y-94954182D01*
X175879668Y-95081574D01*
X175956274Y-95196224D01*
X176053776Y-95293726D01*
X176168426Y-95370332D01*
X176295818Y-95423099D01*
X176431056Y-95450000D01*
X176568944Y-95450000D01*
X176704182Y-95423099D01*
X176831574Y-95370332D01*
X176946224Y-95293726D01*
X177043726Y-95196224D01*
X177120332Y-95081574D01*
X177173099Y-94954182D01*
X177200000Y-94818944D01*
X177200000Y-94681056D01*
X177173099Y-94545818D01*
X177120332Y-94418426D01*
X177043726Y-94303776D01*
X176989950Y-94250000D01*
X177043726Y-94196224D01*
X177120332Y-94081574D01*
X177173099Y-93954182D01*
X177200000Y-93818944D01*
X177200000Y-93681056D01*
X177173099Y-93545818D01*
X177120332Y-93418426D01*
X177043726Y-93303776D01*
X176946224Y-93206274D01*
X176831574Y-93129668D01*
X176704182Y-93076901D01*
X176568944Y-93050000D01*
X176431056Y-93050000D01*
X176295818Y-93076901D01*
X176168426Y-93129668D01*
X176053776Y-93206274D01*
X175956274Y-93303776D01*
X175879668Y-93418426D01*
X175826901Y-93545818D01*
X175800000Y-93681056D01*
X166825564Y-93681056D01*
X166820332Y-93668426D01*
X166743726Y-93553776D01*
X166646224Y-93456274D01*
X166531574Y-93379668D01*
X166404182Y-93326901D01*
X166268944Y-93300000D01*
X166131056Y-93300000D01*
X166032732Y-93319558D01*
X166146224Y-93243726D01*
X166243726Y-93146224D01*
X166320332Y-93031574D01*
X166373099Y-92904182D01*
X166400000Y-92768944D01*
X166400000Y-92681056D01*
X170300000Y-92681056D01*
X170300000Y-92818944D01*
X170326901Y-92954182D01*
X170379668Y-93081574D01*
X170456274Y-93196224D01*
X170553776Y-93293726D01*
X170668426Y-93370332D01*
X170795818Y-93423099D01*
X170931056Y-93450000D01*
X171068944Y-93450000D01*
X171204182Y-93423099D01*
X171331574Y-93370332D01*
X171446224Y-93293726D01*
X171543726Y-93196224D01*
X171620332Y-93081574D01*
X171673099Y-92954182D01*
X171700000Y-92818944D01*
X171700000Y-92681056D01*
X171692553Y-92643618D01*
X171762500Y-92643618D01*
X171762500Y-92781506D01*
X171789401Y-92916744D01*
X171842168Y-93044136D01*
X171918774Y-93158786D01*
X172016276Y-93256288D01*
X172130926Y-93332894D01*
X172258318Y-93385661D01*
X172393556Y-93412562D01*
X172531444Y-93412562D01*
X172666682Y-93385661D01*
X172794074Y-93332894D01*
X172908724Y-93256288D01*
X173006226Y-93158786D01*
X173082832Y-93044136D01*
X173135599Y-92916744D01*
X173162500Y-92781506D01*
X173162500Y-92668546D01*
X177037516Y-92668546D01*
X177037516Y-92806434D01*
X177064417Y-92941672D01*
X177117184Y-93069064D01*
X177193790Y-93183714D01*
X177291292Y-93281216D01*
X177405942Y-93357822D01*
X177533334Y-93410589D01*
X177668572Y-93437490D01*
X177806460Y-93437490D01*
X177941698Y-93410589D01*
X178069090Y-93357822D01*
X178183740Y-93281216D01*
X178281242Y-93183714D01*
X178357848Y-93069064D01*
X178410615Y-92941672D01*
X178437516Y-92806434D01*
X178437516Y-92668546D01*
X178410615Y-92533308D01*
X178357848Y-92405916D01*
X178281242Y-92291266D01*
X178183740Y-92193764D01*
X178069090Y-92117158D01*
X177941698Y-92064391D01*
X177806460Y-92037490D01*
X177668572Y-92037490D01*
X177533334Y-92064391D01*
X177405942Y-92117158D01*
X177291292Y-92193764D01*
X177193790Y-92291266D01*
X177117184Y-92405916D01*
X177064417Y-92533308D01*
X177037516Y-92668546D01*
X173162500Y-92668546D01*
X173162500Y-92643618D01*
X173135599Y-92508380D01*
X173082832Y-92380988D01*
X173006226Y-92266338D01*
X172908724Y-92168836D01*
X172794074Y-92092230D01*
X172666682Y-92039463D01*
X172531444Y-92012562D01*
X172393556Y-92012562D01*
X172258318Y-92039463D01*
X172130926Y-92092230D01*
X172016276Y-92168836D01*
X171918774Y-92266338D01*
X171842168Y-92380988D01*
X171789401Y-92508380D01*
X171762500Y-92643618D01*
X171692553Y-92643618D01*
X171673099Y-92545818D01*
X171620332Y-92418426D01*
X171543726Y-92303776D01*
X171446224Y-92206274D01*
X171331574Y-92129668D01*
X171204182Y-92076901D01*
X171068944Y-92050000D01*
X170931056Y-92050000D01*
X170795818Y-92076901D01*
X170668426Y-92129668D01*
X170553776Y-92206274D01*
X170456274Y-92303776D01*
X170379668Y-92418426D01*
X170326901Y-92545818D01*
X170300000Y-92681056D01*
X166400000Y-92681056D01*
X166400000Y-92631056D01*
X166373099Y-92495818D01*
X166320332Y-92368426D01*
X166243726Y-92253776D01*
X166146224Y-92156274D01*
X166031574Y-92079668D01*
X165904182Y-92026901D01*
X165768944Y-92000000D01*
X165662003Y-92000000D01*
X165746224Y-91943726D01*
X165843726Y-91846224D01*
X165920332Y-91731574D01*
X165973099Y-91604182D01*
X166000000Y-91468944D01*
X166000000Y-91331056D01*
X165973099Y-91195818D01*
X165920332Y-91068426D01*
X165843726Y-90953776D01*
X165746224Y-90856274D01*
X165631574Y-90779668D01*
X165504182Y-90726901D01*
X165368944Y-90700000D01*
X165231056Y-90700000D01*
X165095818Y-90726901D01*
X164968426Y-90779668D01*
X164853776Y-90856274D01*
X164756274Y-90953776D01*
X164679668Y-91068426D01*
X164665003Y-91103831D01*
X164582022Y-90796782D01*
X164550020Y-90608034D01*
X164568426Y-90620332D01*
X164695818Y-90673099D01*
X164831056Y-90700000D01*
X164968944Y-90700000D01*
X165104182Y-90673099D01*
X165231574Y-90620332D01*
X165346224Y-90543726D01*
X165443726Y-90446224D01*
X165453860Y-90431056D01*
X171600000Y-90431056D01*
X171600000Y-90568944D01*
X171626901Y-90704182D01*
X171679668Y-90831574D01*
X171756274Y-90946224D01*
X171853776Y-91043726D01*
X171968426Y-91120332D01*
X172095818Y-91173099D01*
X172231056Y-91200000D01*
X172368944Y-91200000D01*
X172504182Y-91173099D01*
X172631574Y-91120332D01*
X172746224Y-91043726D01*
X172843726Y-90946224D01*
X172920332Y-90831574D01*
X172973099Y-90704182D01*
X173000000Y-90568944D01*
X173000000Y-90431056D01*
X177000000Y-90431056D01*
X177000000Y-90568944D01*
X177026901Y-90704182D01*
X177079668Y-90831574D01*
X177156274Y-90946224D01*
X177253776Y-91043726D01*
X177368426Y-91120332D01*
X177495818Y-91173099D01*
X177631056Y-91200000D01*
X177768944Y-91200000D01*
X177904182Y-91173099D01*
X178031574Y-91120332D01*
X178146224Y-91043726D01*
X178243726Y-90946224D01*
X178320332Y-90831574D01*
X178373099Y-90704182D01*
X178400000Y-90568944D01*
X178400000Y-90431056D01*
X178373099Y-90295818D01*
X178320332Y-90168426D01*
X178243726Y-90053776D01*
X178146224Y-89956274D01*
X178031574Y-89879668D01*
X177904182Y-89826901D01*
X177768944Y-89800000D01*
X177631056Y-89800000D01*
X177495818Y-89826901D01*
X177368426Y-89879668D01*
X177253776Y-89956274D01*
X177156274Y-90053776D01*
X177079668Y-90168426D01*
X177026901Y-90295818D01*
X177000000Y-90431056D01*
X173000000Y-90431056D01*
X172973099Y-90295818D01*
X172920332Y-90168426D01*
X172843726Y-90053776D01*
X172746224Y-89956274D01*
X172631574Y-89879668D01*
X172504182Y-89826901D01*
X172368944Y-89800000D01*
X172231056Y-89800000D01*
X172095818Y-89826901D01*
X171968426Y-89879668D01*
X171853776Y-89956274D01*
X171756274Y-90053776D01*
X171679668Y-90168426D01*
X171626901Y-90295818D01*
X171600000Y-90431056D01*
X165453860Y-90431056D01*
X165520332Y-90331574D01*
X165573099Y-90204182D01*
X165600000Y-90068944D01*
X165600000Y-89931056D01*
X165573099Y-89795818D01*
X165520332Y-89668426D01*
X165443726Y-89553776D01*
X165346224Y-89456274D01*
X165231574Y-89379668D01*
X165109948Y-89329290D01*
X165131574Y-89320332D01*
X165246224Y-89243726D01*
X165343726Y-89146224D01*
X165420332Y-89031574D01*
X165420546Y-89031056D01*
X171800000Y-89031056D01*
X171800000Y-89168944D01*
X171826901Y-89304182D01*
X171879668Y-89431574D01*
X171956274Y-89546224D01*
X172053776Y-89643726D01*
X172168426Y-89720332D01*
X172295818Y-89773099D01*
X172431056Y-89800000D01*
X172568944Y-89800000D01*
X172704182Y-89773099D01*
X172831574Y-89720332D01*
X172946224Y-89643726D01*
X173043726Y-89546224D01*
X173120332Y-89431574D01*
X173173099Y-89304182D01*
X173200000Y-89168944D01*
X173200000Y-89031056D01*
X173173099Y-88895818D01*
X173120332Y-88768426D01*
X173043726Y-88653776D01*
X172946224Y-88556274D01*
X172831574Y-88479668D01*
X172704182Y-88426901D01*
X172568944Y-88400000D01*
X172431056Y-88400000D01*
X172295818Y-88426901D01*
X172168426Y-88479668D01*
X172053776Y-88556274D01*
X171956274Y-88653776D01*
X171879668Y-88768426D01*
X171826901Y-88895818D01*
X171800000Y-89031056D01*
X165420546Y-89031056D01*
X165473099Y-88904182D01*
X165500000Y-88768944D01*
X165500000Y-88631056D01*
X165473099Y-88495818D01*
X165420332Y-88368426D01*
X165343726Y-88253776D01*
X165246224Y-88156274D01*
X165131574Y-88079668D01*
X165004182Y-88026901D01*
X164868944Y-88000000D01*
X164731056Y-88000000D01*
X164595818Y-88026901D01*
X164468426Y-88079668D01*
X164353776Y-88156274D01*
X164256274Y-88253776D01*
X164247075Y-88267544D01*
X164205862Y-87695812D01*
X164253776Y-87743726D01*
X164368426Y-87820332D01*
X164495818Y-87873099D01*
X164631056Y-87900000D01*
X164768944Y-87900000D01*
X164904182Y-87873099D01*
X165031574Y-87820332D01*
X165146224Y-87743726D01*
X165243726Y-87646224D01*
X165320332Y-87531574D01*
X165373099Y-87404182D01*
X165400000Y-87268944D01*
X165400000Y-87181056D01*
X170800000Y-87181056D01*
X170800000Y-87318944D01*
X170826901Y-87454182D01*
X170879668Y-87581574D01*
X170956274Y-87696224D01*
X171053776Y-87793726D01*
X171168426Y-87870332D01*
X171295818Y-87923099D01*
X171431056Y-87950000D01*
X171568944Y-87950000D01*
X171704182Y-87923099D01*
X171831574Y-87870332D01*
X171946224Y-87793726D01*
X172043726Y-87696224D01*
X172120332Y-87581574D01*
X172173099Y-87454182D01*
X172200000Y-87318944D01*
X172200000Y-87181056D01*
X172199998Y-87181041D01*
X175800000Y-87181041D01*
X175800000Y-87318929D01*
X175826901Y-87454167D01*
X175879668Y-87581559D01*
X175956274Y-87696209D01*
X176053776Y-87793711D01*
X176168426Y-87870317D01*
X176295818Y-87923084D01*
X176431056Y-87949985D01*
X176568944Y-87949985D01*
X176704182Y-87923084D01*
X176831574Y-87870317D01*
X176946224Y-87793711D01*
X177043726Y-87696209D01*
X177120332Y-87581559D01*
X177173099Y-87454167D01*
X177200000Y-87318929D01*
X177200000Y-87181041D01*
X177173099Y-87045803D01*
X177120332Y-86918411D01*
X177043726Y-86803761D01*
X176946224Y-86706259D01*
X176831574Y-86629653D01*
X176704182Y-86576886D01*
X176568944Y-86549985D01*
X176431056Y-86549985D01*
X176295818Y-86576886D01*
X176168426Y-86629653D01*
X176053776Y-86706259D01*
X175956274Y-86803761D01*
X175879668Y-86918411D01*
X175826901Y-87045803D01*
X175800000Y-87181041D01*
X172199998Y-87181041D01*
X172173099Y-87045818D01*
X172120332Y-86918426D01*
X172043726Y-86803776D01*
X171946224Y-86706274D01*
X171831574Y-86629668D01*
X171704182Y-86576901D01*
X171568944Y-86550000D01*
X171431056Y-86550000D01*
X171295818Y-86576901D01*
X171168426Y-86629668D01*
X171053776Y-86706274D01*
X170956274Y-86803776D01*
X170879668Y-86918426D01*
X170826901Y-87045818D01*
X170800000Y-87181056D01*
X165400000Y-87181056D01*
X165400000Y-87131056D01*
X165373099Y-86995818D01*
X165320332Y-86868426D01*
X165243726Y-86753776D01*
X165146224Y-86656274D01*
X165031574Y-86579668D01*
X164904182Y-86526901D01*
X164768944Y-86500000D01*
X164868944Y-86500000D01*
X165004182Y-86473099D01*
X165131574Y-86420332D01*
X165246224Y-86343726D01*
X165343726Y-86246224D01*
X165420332Y-86131574D01*
X165473099Y-86004182D01*
X165500000Y-85868944D01*
X165500000Y-85731056D01*
X165473099Y-85595818D01*
X165420332Y-85468426D01*
X165343726Y-85353776D01*
X165246224Y-85256274D01*
X165131574Y-85179668D01*
X165109948Y-85170710D01*
X165231574Y-85120332D01*
X165346224Y-85043726D01*
X165443726Y-84946224D01*
X165520332Y-84831574D01*
X165573099Y-84704182D01*
X165600000Y-84568944D01*
X165600000Y-84431056D01*
X165573099Y-84295818D01*
X165520332Y-84168426D01*
X165443726Y-84053776D01*
X165346224Y-83956274D01*
X165231574Y-83879668D01*
X165104182Y-83826901D01*
X164968944Y-83800000D01*
X164831056Y-83800000D01*
X164695818Y-83826901D01*
X164568426Y-83879668D01*
X164561853Y-83884060D01*
X164641004Y-83523370D01*
X164656274Y-83546224D01*
X164753776Y-83643726D01*
X164868426Y-83720332D01*
X164995818Y-83773099D01*
X165131056Y-83800000D01*
X165268944Y-83800000D01*
X165404182Y-83773099D01*
X165531574Y-83720332D01*
X165646224Y-83643726D01*
X165743726Y-83546224D01*
X165820332Y-83431574D01*
X165873099Y-83304182D01*
X165897590Y-83181056D01*
X176300000Y-83181056D01*
X176300000Y-83318944D01*
X176326901Y-83454182D01*
X176379668Y-83581574D01*
X176456274Y-83696224D01*
X176553776Y-83793726D01*
X176668426Y-83870332D01*
X176795818Y-83923099D01*
X176931056Y-83950000D01*
X177068944Y-83950000D01*
X177204182Y-83923099D01*
X177331574Y-83870332D01*
X177446224Y-83793726D01*
X177543726Y-83696224D01*
X177620332Y-83581574D01*
X177673099Y-83454182D01*
X177700000Y-83318944D01*
X177700000Y-83181056D01*
X177673099Y-83045818D01*
X177620332Y-82918426D01*
X177543726Y-82803776D01*
X177446224Y-82706274D01*
X177331574Y-82629668D01*
X177204182Y-82576901D01*
X177068944Y-82550000D01*
X176931056Y-82550000D01*
X176795818Y-82576901D01*
X176668426Y-82629668D01*
X176553776Y-82706274D01*
X176456274Y-82803776D01*
X176379668Y-82918426D01*
X176326901Y-83045818D01*
X176300000Y-83181056D01*
X165897590Y-83181056D01*
X165900000Y-83168944D01*
X165900000Y-83031056D01*
X165873099Y-82895818D01*
X165820332Y-82768426D01*
X165743726Y-82653776D01*
X165646224Y-82556274D01*
X165532732Y-82480442D01*
X165631056Y-82500000D01*
X165768944Y-82500000D01*
X165904182Y-82473099D01*
X166031574Y-82420332D01*
X166146224Y-82343726D01*
X166243726Y-82246224D01*
X166320332Y-82131574D01*
X166373099Y-82004182D01*
X166400000Y-81868944D01*
X166400000Y-81731056D01*
X166373099Y-81595818D01*
X166320332Y-81468426D01*
X166243726Y-81353776D01*
X166146224Y-81256274D01*
X166031574Y-81179668D01*
X165904182Y-81126901D01*
X165768944Y-81100000D01*
X165631056Y-81100000D01*
X165495818Y-81126901D01*
X165368426Y-81179668D01*
X165359495Y-81185635D01*
X165621838Y-80578728D01*
X165626901Y-80604182D01*
X165679668Y-80731574D01*
X165756274Y-80846224D01*
X165853776Y-80943726D01*
X165968426Y-81020332D01*
X166095818Y-81073099D01*
X166231056Y-81100000D01*
X166368944Y-81100000D01*
X166504182Y-81073099D01*
X166631574Y-81020332D01*
X166746224Y-80943726D01*
X166843726Y-80846224D01*
X166920332Y-80731574D01*
X166973099Y-80604182D01*
X167000000Y-80468944D01*
X167000000Y-80331056D01*
X166973099Y-80195818D01*
X166920332Y-80068426D01*
X166874612Y-80000000D01*
X166968944Y-80000000D01*
X167104182Y-79973099D01*
X167231574Y-79920332D01*
X167346224Y-79843726D01*
X167443726Y-79746224D01*
X167520332Y-79631574D01*
X167573099Y-79504182D01*
X167600000Y-79368944D01*
X167600000Y-79231056D01*
X167573099Y-79095818D01*
X167520332Y-78968426D01*
X167443726Y-78853776D01*
X167346224Y-78756274D01*
X167231574Y-78679668D01*
X167104182Y-78626901D01*
X166968944Y-78600000D01*
X166831056Y-78600000D01*
X166695818Y-78626901D01*
X166603532Y-78665127D01*
X166655929Y-78570119D01*
X166922255Y-78180825D01*
X166926901Y-78204182D01*
X166979668Y-78331574D01*
X167056274Y-78446224D01*
X167153776Y-78543726D01*
X167268426Y-78620332D01*
X167395818Y-78673099D01*
X167531056Y-78700000D01*
X167668944Y-78700000D01*
X167804182Y-78673099D01*
X167931574Y-78620332D01*
X168046224Y-78543726D01*
X168143726Y-78446224D01*
X168220332Y-78331574D01*
X168273099Y-78204182D01*
X168300000Y-78068944D01*
X168300000Y-77931056D01*
X168273099Y-77795818D01*
X168220332Y-77668426D01*
X168195763Y-77631655D01*
X168295818Y-77673099D01*
X168431056Y-77700000D01*
X168568944Y-77700000D01*
X168704182Y-77673099D01*
X168831574Y-77620332D01*
X168946224Y-77543726D01*
X169043726Y-77446224D01*
X169053860Y-77431056D01*
X176800000Y-77431056D01*
X176800000Y-77568944D01*
X176826901Y-77704182D01*
X176879668Y-77831574D01*
X176956274Y-77946224D01*
X177053776Y-78043726D01*
X177168426Y-78120332D01*
X177295818Y-78173099D01*
X177431056Y-78200000D01*
X177568944Y-78200000D01*
X177704182Y-78173099D01*
X177831574Y-78120332D01*
X177946224Y-78043726D01*
X178043726Y-77946224D01*
X178120332Y-77831574D01*
X178173099Y-77704182D01*
X178200000Y-77568944D01*
X178200000Y-77431056D01*
X178173099Y-77295818D01*
X178120332Y-77168426D01*
X178043726Y-77053776D01*
X177946224Y-76956274D01*
X177831574Y-76879668D01*
X177704182Y-76826901D01*
X177568944Y-76800000D01*
X177431056Y-76800000D01*
X177295818Y-76826901D01*
X177168426Y-76879668D01*
X177053776Y-76956274D01*
X176956274Y-77053776D01*
X176879668Y-77168426D01*
X176826901Y-77295818D01*
X176800000Y-77431056D01*
X169053860Y-77431056D01*
X169120332Y-77331574D01*
X169173099Y-77204182D01*
X169200000Y-77068944D01*
X169200000Y-76931056D01*
X169173099Y-76795818D01*
X169120332Y-76668426D01*
X169043726Y-76553776D01*
X168946224Y-76456274D01*
X168831574Y-76379668D01*
X168704182Y-76326901D01*
X168568944Y-76300000D01*
X168431056Y-76300000D01*
X168338791Y-76318353D01*
X168571078Y-76040313D01*
X169241041Y-75379111D01*
X169135080Y-75537691D01*
X169061508Y-75715311D01*
X169024000Y-75903872D01*
X169024000Y-76096128D01*
X169061508Y-76284689D01*
X169135080Y-76462309D01*
X169241892Y-76622163D01*
X169377837Y-76758108D01*
X169537691Y-76864920D01*
X169715311Y-76938492D01*
X169903872Y-76976000D01*
X170096128Y-76976000D01*
X170284689Y-76938492D01*
X170462309Y-76864920D01*
X170622163Y-76758108D01*
X170758108Y-76622163D01*
X170864920Y-76462309D01*
X170877865Y-76431056D01*
X171050000Y-76431056D01*
X171050000Y-76568944D01*
X171076901Y-76704182D01*
X171129668Y-76831574D01*
X171206274Y-76946224D01*
X171303776Y-77043726D01*
X171418426Y-77120332D01*
X171545818Y-77173099D01*
X171681056Y-77200000D01*
X171818944Y-77200000D01*
X171954182Y-77173099D01*
X172081574Y-77120332D01*
X172196224Y-77043726D01*
X172293726Y-76946224D01*
X172370332Y-76831574D01*
X172423099Y-76704182D01*
X172450000Y-76568944D01*
X172450000Y-76431056D01*
X172423099Y-76295818D01*
X172370332Y-76168426D01*
X172293726Y-76053776D01*
X172196224Y-75956274D01*
X172081574Y-75879668D01*
X171954182Y-75826901D01*
X171818944Y-75800000D01*
X171681056Y-75800000D01*
X171545818Y-75826901D01*
X171418426Y-75879668D01*
X171303776Y-75956274D01*
X171206274Y-76053776D01*
X171129668Y-76168426D01*
X171076901Y-76295818D01*
X171050000Y-76431056D01*
X170877865Y-76431056D01*
X170938492Y-76284689D01*
X170976000Y-76096128D01*
X170976000Y-75903872D01*
X170938492Y-75715311D01*
X170864920Y-75537691D01*
X170758108Y-75377837D01*
X170622163Y-75241892D01*
X170462309Y-75135080D01*
X170284689Y-75061508D01*
X170096128Y-75024000D01*
X169903872Y-75024000D01*
X169715311Y-75061508D01*
X169537691Y-75135080D01*
X169384775Y-75237256D01*
X169701550Y-74924623D01*
X170919266Y-73934200D01*
X170900000Y-74031056D01*
X170900000Y-74168944D01*
X170926901Y-74304182D01*
X170979668Y-74431574D01*
X171056274Y-74546224D01*
X171153776Y-74643726D01*
X171268426Y-74720332D01*
X171395818Y-74773099D01*
X171531056Y-74800000D01*
X171668944Y-74800000D01*
X171804182Y-74773099D01*
X171931574Y-74720332D01*
X172046224Y-74643726D01*
X172143726Y-74546224D01*
X172220332Y-74431574D01*
X172273099Y-74304182D01*
X172300000Y-74168944D01*
X172300000Y-74031056D01*
X172287051Y-73965960D01*
X172368426Y-74020332D01*
X172495818Y-74073099D01*
X172631056Y-74100000D01*
X172768944Y-74100000D01*
X172904182Y-74073099D01*
X173031574Y-74020332D01*
X173146224Y-73943726D01*
X173243726Y-73846224D01*
X173320332Y-73731574D01*
X173373099Y-73604182D01*
X173400000Y-73468944D01*
X173400000Y-73331056D01*
X173373099Y-73195818D01*
X173346494Y-73131587D01*
X173356274Y-73146224D01*
X173453776Y-73243726D01*
X173568426Y-73320332D01*
X173695818Y-73373099D01*
X173831056Y-73400000D01*
X173968944Y-73400000D01*
X174104182Y-73373099D01*
X174231574Y-73320332D01*
X174346224Y-73243726D01*
X174443726Y-73146224D01*
X174520332Y-73031574D01*
X174573099Y-72904182D01*
X174600000Y-72768944D01*
X174600000Y-72631056D01*
X174573099Y-72495818D01*
X174520332Y-72368426D01*
X174443726Y-72253776D01*
X174346224Y-72156274D01*
X174231574Y-72079668D01*
X174201725Y-72067304D01*
X174679942Y-71868016D01*
X174679668Y-71868426D01*
X174626901Y-71995818D01*
X174600000Y-72131056D01*
X174600000Y-72268944D01*
X174626901Y-72404182D01*
X174679668Y-72531574D01*
X174756274Y-72646224D01*
X174853776Y-72743726D01*
X174968426Y-72820332D01*
X175095818Y-72873099D01*
X175231056Y-72900000D01*
X175368944Y-72900000D01*
X175504182Y-72873099D01*
X175631574Y-72820332D01*
X175746224Y-72743726D01*
X175843726Y-72646224D01*
X175920332Y-72531574D01*
X175973099Y-72404182D01*
X176000000Y-72268944D01*
X176000000Y-72162003D01*
X176056274Y-72246224D01*
X176153776Y-72343726D01*
X176268426Y-72420332D01*
X176395818Y-72473099D01*
X176531056Y-72500000D01*
X176668944Y-72500000D01*
X176804182Y-72473099D01*
X176931574Y-72420332D01*
X177046224Y-72343726D01*
X177143726Y-72246224D01*
X177220332Y-72131574D01*
X177273099Y-72004182D01*
X177300000Y-71868944D01*
X177300000Y-71731056D01*
X177273099Y-71595818D01*
X177220332Y-71468426D01*
X177143726Y-71353776D01*
X177046224Y-71256274D01*
X176931574Y-71179668D01*
X176893247Y-71163793D01*
X178121214Y-70911213D01*
X178053776Y-70956274D01*
X177956274Y-71053776D01*
X177879668Y-71168426D01*
X177826901Y-71295818D01*
X177800000Y-71431056D01*
X177800000Y-71568944D01*
X177826901Y-71704182D01*
X177879668Y-71831574D01*
X177956274Y-71946224D01*
X178010050Y-72000000D01*
X177956274Y-72053776D01*
X177879668Y-72168426D01*
X177826901Y-72295818D01*
X177800000Y-72431056D01*
X177800000Y-72568944D01*
X177826901Y-72704182D01*
X177879668Y-72831574D01*
X177956274Y-72946224D01*
X178010050Y-73000000D01*
X177956274Y-73053776D01*
X177879668Y-73168426D01*
X177826901Y-73295818D01*
X177800000Y-73431056D01*
X177800000Y-73568944D01*
X177826901Y-73704182D01*
X177879668Y-73831574D01*
X177956274Y-73946224D01*
X178053776Y-74043726D01*
X178168426Y-74120332D01*
X178295818Y-74173099D01*
X178431056Y-74200000D01*
X178568944Y-74200000D01*
X178704182Y-74173099D01*
X178831574Y-74120332D01*
X178946224Y-74043726D01*
X179043726Y-73946224D01*
X179120332Y-73831574D01*
X179173099Y-73704182D01*
X179200000Y-73568944D01*
X179200000Y-73431056D01*
X179173099Y-73295818D01*
X179120332Y-73168426D01*
X179043726Y-73053776D01*
X178989950Y-73000000D01*
X179043726Y-72946224D01*
X179120332Y-72831574D01*
X179173099Y-72704182D01*
X179200000Y-72568944D01*
X179200000Y-72431056D01*
X179173099Y-72295818D01*
X179120332Y-72168426D01*
X179043726Y-72053776D01*
X178989950Y-72000000D01*
X179043726Y-71946224D01*
X179120332Y-71831574D01*
X179173099Y-71704182D01*
X179200000Y-71568944D01*
X179200000Y-71431056D01*
X179173099Y-71295818D01*
X179120332Y-71168426D01*
X179043726Y-71053776D01*
X178946224Y-70956274D01*
X178831574Y-70879668D01*
X178731659Y-70838282D01*
X179400000Y-70766586D01*
X179400000Y-73806178D01*
%TO.N,+VSW*%
G36*
X182946888Y-70844000D02*
G01*
X182986864Y-70851320D01*
X182918426Y-70879668D01*
X182803776Y-70956274D01*
X182706274Y-71053776D01*
X182629668Y-71168426D01*
X182576901Y-71295818D01*
X182550000Y-71431056D01*
X182550000Y-71568944D01*
X182576901Y-71704182D01*
X182629668Y-71831574D01*
X182706274Y-71946224D01*
X182760050Y-72000000D01*
X182706274Y-72053776D01*
X182629668Y-72168426D01*
X182576901Y-72295818D01*
X182550000Y-72431056D01*
X182550000Y-72568944D01*
X182576901Y-72704182D01*
X182629668Y-72831574D01*
X182706274Y-72946224D01*
X182760050Y-73000000D01*
X182706274Y-73053776D01*
X182629668Y-73168426D01*
X182576901Y-73295818D01*
X182550000Y-73431056D01*
X182550000Y-73568944D01*
X182576901Y-73704182D01*
X182629668Y-73831574D01*
X182706274Y-73946224D01*
X182803776Y-74043726D01*
X182918426Y-74120332D01*
X183045818Y-74173099D01*
X183181056Y-74200000D01*
X183318944Y-74200000D01*
X183454182Y-74173099D01*
X183581574Y-74120332D01*
X183696224Y-74043726D01*
X183793726Y-73946224D01*
X183870332Y-73831574D01*
X183923099Y-73704182D01*
X183950000Y-73568944D01*
X183950000Y-73431056D01*
X183923099Y-73295818D01*
X183870332Y-73168426D01*
X183793726Y-73053776D01*
X183739950Y-73000000D01*
X183793726Y-72946224D01*
X183870332Y-72831574D01*
X183923099Y-72704182D01*
X183950000Y-72568944D01*
X183950000Y-72431056D01*
X183923099Y-72295818D01*
X183870332Y-72168426D01*
X183793726Y-72053776D01*
X183739950Y-72000000D01*
X183793726Y-71946224D01*
X183870332Y-71831574D01*
X183923099Y-71704182D01*
X183950000Y-71568944D01*
X183950000Y-71431056D01*
X183923099Y-71295818D01*
X183870332Y-71168426D01*
X183793726Y-71053776D01*
X183726759Y-70986809D01*
X184509230Y-71130095D01*
X184615284Y-71160259D01*
X184568426Y-71179668D01*
X184453776Y-71256274D01*
X184356274Y-71353776D01*
X184279668Y-71468426D01*
X184226901Y-71595818D01*
X184200000Y-71731056D01*
X184200000Y-71868944D01*
X184226901Y-72004182D01*
X184279668Y-72131574D01*
X184356274Y-72246224D01*
X184453776Y-72343726D01*
X184568426Y-72420332D01*
X184695818Y-72473099D01*
X184831056Y-72500000D01*
X184968944Y-72500000D01*
X185104182Y-72473099D01*
X185231574Y-72420332D01*
X185346224Y-72343726D01*
X185443726Y-72246224D01*
X185500000Y-72162003D01*
X185500000Y-72268944D01*
X185526901Y-72404182D01*
X185579668Y-72531574D01*
X185656274Y-72646224D01*
X185753776Y-72743726D01*
X185868426Y-72820332D01*
X185995818Y-72873099D01*
X186131056Y-72900000D01*
X186268944Y-72900000D01*
X186404182Y-72873099D01*
X186531574Y-72820332D01*
X186646224Y-72743726D01*
X186743726Y-72646224D01*
X186819558Y-72532732D01*
X186800000Y-72631056D01*
X186800000Y-72768944D01*
X186826901Y-72904182D01*
X186879668Y-73031574D01*
X186956274Y-73146224D01*
X187053776Y-73243726D01*
X187168426Y-73320332D01*
X187295818Y-73373099D01*
X187431056Y-73400000D01*
X187568944Y-73400000D01*
X187704182Y-73373099D01*
X187831574Y-73320332D01*
X187946224Y-73243726D01*
X188043726Y-73146224D01*
X188120332Y-73031574D01*
X188173099Y-72904182D01*
X188200000Y-72768944D01*
X188200000Y-72631056D01*
X188173099Y-72495818D01*
X188163023Y-72471491D01*
X188646911Y-72716738D01*
X188595818Y-72726901D01*
X188468426Y-72779668D01*
X188353776Y-72856274D01*
X188256274Y-72953776D01*
X188179668Y-73068426D01*
X188126901Y-73195818D01*
X188100000Y-73331056D01*
X188100000Y-73468944D01*
X188126901Y-73604182D01*
X188179668Y-73731574D01*
X188256274Y-73846224D01*
X188353776Y-73943726D01*
X188468426Y-74020332D01*
X188595818Y-74073099D01*
X188731056Y-74100000D01*
X188868944Y-74100000D01*
X189004182Y-74073099D01*
X189131574Y-74020332D01*
X189246224Y-73943726D01*
X189250072Y-73939878D01*
X189226901Y-73995818D01*
X189200000Y-74131056D01*
X189200000Y-74268944D01*
X189226901Y-74404182D01*
X189279668Y-74531574D01*
X189356274Y-74646224D01*
X189453776Y-74743726D01*
X189568426Y-74820332D01*
X189695818Y-74873099D01*
X189831056Y-74900000D01*
X189968944Y-74900000D01*
X190104182Y-74873099D01*
X190231574Y-74820332D01*
X190346224Y-74743726D01*
X190443726Y-74646224D01*
X190520332Y-74531574D01*
X190573099Y-74404182D01*
X190600000Y-74268944D01*
X190600000Y-74131056D01*
X190573099Y-73995818D01*
X190541844Y-73920360D01*
X191527822Y-74687288D01*
X192096920Y-75225025D01*
X191962309Y-75135080D01*
X191784689Y-75061508D01*
X191596128Y-75024000D01*
X191403872Y-75024000D01*
X191215311Y-75061508D01*
X191037691Y-75135080D01*
X190877837Y-75241892D01*
X190741892Y-75377837D01*
X190635080Y-75537691D01*
X190561508Y-75715311D01*
X190524000Y-75903872D01*
X190524000Y-76096128D01*
X190561508Y-76284689D01*
X190635080Y-76462309D01*
X190741892Y-76622163D01*
X190877837Y-76758108D01*
X191037691Y-76864920D01*
X191215311Y-76938492D01*
X191403872Y-76976000D01*
X191596128Y-76976000D01*
X191784689Y-76938492D01*
X191962309Y-76864920D01*
X192122163Y-76758108D01*
X192258108Y-76622163D01*
X192364920Y-76462309D01*
X192438492Y-76284689D01*
X192476000Y-76096128D01*
X192476000Y-75903872D01*
X192438492Y-75715311D01*
X192364920Y-75537691D01*
X192258108Y-75377837D01*
X192248917Y-75368646D01*
X192682281Y-75778129D01*
X193050601Y-76200000D01*
X192931056Y-76200000D01*
X192795818Y-76226901D01*
X192668426Y-76279668D01*
X192553776Y-76356274D01*
X192456274Y-76453776D01*
X192379668Y-76568426D01*
X192326901Y-76695818D01*
X192300000Y-76831056D01*
X192300000Y-76968944D01*
X192326901Y-77104182D01*
X192379668Y-77231574D01*
X192456274Y-77346224D01*
X192553776Y-77443726D01*
X192668426Y-77520332D01*
X192795818Y-77573099D01*
X192931056Y-77600000D01*
X193068944Y-77600000D01*
X193204182Y-77573099D01*
X193331574Y-77520332D01*
X193446224Y-77443726D01*
X193543726Y-77346224D01*
X193620332Y-77231574D01*
X193673099Y-77104182D01*
X193700000Y-76968944D01*
X193700000Y-76943816D01*
X193726880Y-76974604D01*
X193960038Y-77300000D01*
X193831056Y-77300000D01*
X193695818Y-77326901D01*
X193568426Y-77379668D01*
X193453776Y-77456274D01*
X193356274Y-77553776D01*
X193279668Y-77668426D01*
X193226901Y-77795818D01*
X193200000Y-77931056D01*
X193200000Y-78068944D01*
X193226901Y-78204182D01*
X193279668Y-78331574D01*
X193356274Y-78446224D01*
X193453776Y-78543726D01*
X193568426Y-78620332D01*
X193695818Y-78673099D01*
X193831056Y-78700000D01*
X193968944Y-78700000D01*
X194104182Y-78673099D01*
X194231574Y-78620332D01*
X194346224Y-78543726D01*
X194443726Y-78446224D01*
X194520332Y-78331574D01*
X194573099Y-78204182D01*
X194580665Y-78166147D01*
X194651985Y-78265681D01*
X194879726Y-78658192D01*
X194804182Y-78626901D01*
X194668944Y-78600000D01*
X194531056Y-78600000D01*
X194395818Y-78626901D01*
X194268426Y-78679668D01*
X194153776Y-78756274D01*
X194056274Y-78853776D01*
X193979668Y-78968426D01*
X193926901Y-79095818D01*
X193900000Y-79231056D01*
X193900000Y-79368944D01*
X193926901Y-79504182D01*
X193979668Y-79631574D01*
X194056274Y-79746224D01*
X194153776Y-79843726D01*
X194268426Y-79920332D01*
X194395818Y-79973099D01*
X194531056Y-80000000D01*
X194668944Y-80000000D01*
X194720257Y-79989793D01*
X194656274Y-80053776D01*
X194579668Y-80168426D01*
X194526901Y-80295818D01*
X194500000Y-80431056D01*
X194500000Y-80568944D01*
X194526901Y-80704182D01*
X194579668Y-80831574D01*
X194656274Y-80946224D01*
X194753776Y-81043726D01*
X194868426Y-81120332D01*
X194995818Y-81173099D01*
X195131056Y-81200000D01*
X195268944Y-81200000D01*
X195404182Y-81173099D01*
X195531574Y-81120332D01*
X195646224Y-81043726D01*
X195743726Y-80946224D01*
X195820332Y-80831574D01*
X195873099Y-80704182D01*
X195892458Y-80606858D01*
X196110858Y-81083378D01*
X196148065Y-81190687D01*
X196131574Y-81179668D01*
X196004182Y-81126901D01*
X195868944Y-81100000D01*
X195731056Y-81100000D01*
X195595818Y-81126901D01*
X195468426Y-81179668D01*
X195353776Y-81256274D01*
X195256274Y-81353776D01*
X195179668Y-81468426D01*
X195126901Y-81595818D01*
X195100000Y-81731056D01*
X195100000Y-81868944D01*
X195126901Y-82004182D01*
X195152787Y-82066678D01*
X195068944Y-82050000D01*
X194931056Y-82050000D01*
X194795818Y-82076901D01*
X194668426Y-82129668D01*
X194553776Y-82206274D01*
X194500000Y-82260050D01*
X194446224Y-82206274D01*
X194331574Y-82129668D01*
X194204182Y-82076901D01*
X194068944Y-82050000D01*
X193931056Y-82050000D01*
X193795818Y-82076901D01*
X193668426Y-82129668D01*
X193553776Y-82206274D01*
X193500000Y-82260050D01*
X193446224Y-82206274D01*
X193331574Y-82129668D01*
X193204182Y-82076901D01*
X193068944Y-82050000D01*
X192931056Y-82050000D01*
X192795818Y-82076901D01*
X192668426Y-82129668D01*
X192553776Y-82206274D01*
X192500000Y-82260050D01*
X192446224Y-82206274D01*
X192331574Y-82129668D01*
X192204182Y-82076901D01*
X192068944Y-82050000D01*
X191931056Y-82050000D01*
X191795818Y-82076901D01*
X191668426Y-82129668D01*
X191553776Y-82206274D01*
X191456274Y-82303776D01*
X191379668Y-82418426D01*
X191326901Y-82545818D01*
X191300000Y-82681056D01*
X191300000Y-82818944D01*
X191326901Y-82954182D01*
X191379668Y-83081574D01*
X191442093Y-83175000D01*
X191379668Y-83268426D01*
X191326901Y-83395818D01*
X191300000Y-83531056D01*
X191300000Y-83668944D01*
X191326901Y-83804182D01*
X191368345Y-83904237D01*
X191331574Y-83879668D01*
X191204182Y-83826901D01*
X191068944Y-83800000D01*
X190931056Y-83800000D01*
X190795818Y-83826901D01*
X190668426Y-83879668D01*
X190553776Y-83956274D01*
X190500000Y-84010050D01*
X190446224Y-83956274D01*
X190331574Y-83879668D01*
X190204182Y-83826901D01*
X190068944Y-83800000D01*
X189931056Y-83800000D01*
X189795818Y-83826901D01*
X189668426Y-83879668D01*
X189553776Y-83956274D01*
X189500000Y-84010050D01*
X189446224Y-83956274D01*
X189331574Y-83879668D01*
X189204182Y-83826901D01*
X189068944Y-83800000D01*
X188931056Y-83800000D01*
X188795818Y-83826901D01*
X188668426Y-83879668D01*
X188553776Y-83956274D01*
X188500000Y-84010050D01*
X188446224Y-83956274D01*
X188331574Y-83879668D01*
X188204182Y-83826901D01*
X188068944Y-83800000D01*
X187931056Y-83800000D01*
X187795818Y-83826901D01*
X187668426Y-83879668D01*
X187553776Y-83956274D01*
X187500000Y-84010050D01*
X187446224Y-83956274D01*
X187331574Y-83879668D01*
X187204182Y-83826901D01*
X187068944Y-83800000D01*
X186931056Y-83800000D01*
X186795818Y-83826901D01*
X186668426Y-83879668D01*
X186553776Y-83956274D01*
X186500000Y-84010050D01*
X186446224Y-83956274D01*
X186331574Y-83879668D01*
X186204182Y-83826901D01*
X186068944Y-83800000D01*
X185931056Y-83800000D01*
X185795818Y-83826901D01*
X185668426Y-83879668D01*
X185553776Y-83956274D01*
X185456274Y-84053776D01*
X185379668Y-84168426D01*
X185326901Y-84295818D01*
X185300000Y-84431056D01*
X185300000Y-84568944D01*
X185326901Y-84704182D01*
X185379668Y-84831574D01*
X185456274Y-84946224D01*
X185553776Y-85043726D01*
X185668426Y-85120332D01*
X185795818Y-85173099D01*
X185931056Y-85200000D01*
X186068944Y-85200000D01*
X186204182Y-85173099D01*
X186331574Y-85120332D01*
X186446224Y-85043726D01*
X186500000Y-84989950D01*
X186553776Y-85043726D01*
X186668426Y-85120332D01*
X186795818Y-85173099D01*
X186931056Y-85200000D01*
X187068944Y-85200000D01*
X187204182Y-85173099D01*
X187331574Y-85120332D01*
X187446224Y-85043726D01*
X187500000Y-84989950D01*
X187553776Y-85043726D01*
X187668426Y-85120332D01*
X187795818Y-85173099D01*
X187931056Y-85200000D01*
X188068944Y-85200000D01*
X188204182Y-85173099D01*
X188331574Y-85120332D01*
X188446224Y-85043726D01*
X188500000Y-84989950D01*
X188553776Y-85043726D01*
X188668426Y-85120332D01*
X188795818Y-85173099D01*
X188931056Y-85200000D01*
X189068944Y-85200000D01*
X189204182Y-85173099D01*
X189331574Y-85120332D01*
X189446224Y-85043726D01*
X189500000Y-84989950D01*
X189553776Y-85043726D01*
X189668426Y-85120332D01*
X189795818Y-85173099D01*
X189931056Y-85200000D01*
X190068944Y-85200000D01*
X190120868Y-85189672D01*
X190076901Y-85295818D01*
X190050000Y-85431056D01*
X190050000Y-85568944D01*
X190076901Y-85704182D01*
X190129668Y-85831574D01*
X190206274Y-85946224D01*
X190303776Y-86043726D01*
X190418426Y-86120332D01*
X190545818Y-86173099D01*
X190681056Y-86200000D01*
X190818944Y-86200000D01*
X190954182Y-86173099D01*
X191081574Y-86120332D01*
X191196224Y-86043726D01*
X191293726Y-85946224D01*
X191370332Y-85831574D01*
X191423099Y-85704182D01*
X191450000Y-85568944D01*
X191450000Y-85431056D01*
X191423099Y-85295818D01*
X191370332Y-85168426D01*
X191336153Y-85117273D01*
X191446224Y-85043726D01*
X191500000Y-84989950D01*
X191553776Y-85043726D01*
X191668426Y-85120332D01*
X191795818Y-85173099D01*
X191931056Y-85200000D01*
X192068944Y-85200000D01*
X192204182Y-85173099D01*
X192331574Y-85120332D01*
X192446224Y-85043726D01*
X192543726Y-84946224D01*
X192620332Y-84831574D01*
X192673099Y-84704182D01*
X192700000Y-84568944D01*
X192700000Y-84431056D01*
X192673099Y-84295818D01*
X192620332Y-84168426D01*
X192543726Y-84053776D01*
X192539950Y-84050000D01*
X192543726Y-84046224D01*
X192620332Y-83931574D01*
X192673099Y-83804182D01*
X192700000Y-83668944D01*
X192700000Y-83531056D01*
X192673099Y-83395818D01*
X192660291Y-83364896D01*
X192668426Y-83370332D01*
X192795818Y-83423099D01*
X192931056Y-83450000D01*
X193068944Y-83450000D01*
X193204182Y-83423099D01*
X193331574Y-83370332D01*
X193446224Y-83293726D01*
X193500000Y-83239950D01*
X193553776Y-83293726D01*
X193668426Y-83370332D01*
X193795818Y-83423099D01*
X193931056Y-83450000D01*
X194068944Y-83450000D01*
X194204182Y-83423099D01*
X194331574Y-83370332D01*
X194446224Y-83293726D01*
X194500000Y-83239950D01*
X194553776Y-83293726D01*
X194668426Y-83370332D01*
X194795818Y-83423099D01*
X194931056Y-83450000D01*
X195068944Y-83450000D01*
X195204182Y-83423099D01*
X195331574Y-83370332D01*
X195446224Y-83293726D01*
X195500000Y-83239950D01*
X195553776Y-83293726D01*
X195668426Y-83370332D01*
X195795818Y-83423099D01*
X195931056Y-83450000D01*
X196068944Y-83450000D01*
X196204182Y-83423099D01*
X196331574Y-83370332D01*
X196446224Y-83293726D01*
X196543726Y-83196224D01*
X196620332Y-83081574D01*
X196673099Y-82954182D01*
X196697660Y-82830710D01*
X196825000Y-83305951D01*
X196825001Y-91188842D01*
X196692068Y-91641179D01*
X196673099Y-91545818D01*
X196620332Y-91418426D01*
X196543726Y-91303776D01*
X196446224Y-91206274D01*
X196331574Y-91129668D01*
X196204182Y-91076901D01*
X196068944Y-91050000D01*
X195931056Y-91050000D01*
X195795818Y-91076901D01*
X195668426Y-91129668D01*
X195553776Y-91206274D01*
X195500000Y-91260050D01*
X195446224Y-91206274D01*
X195331574Y-91129668D01*
X195204182Y-91076901D01*
X195068944Y-91050000D01*
X194931056Y-91050000D01*
X194795818Y-91076901D01*
X194668426Y-91129668D01*
X194553776Y-91206274D01*
X194500000Y-91260050D01*
X194446224Y-91206274D01*
X194331574Y-91129668D01*
X194204182Y-91076901D01*
X194068944Y-91050000D01*
X193931056Y-91050000D01*
X193795818Y-91076901D01*
X193668426Y-91129668D01*
X193553776Y-91206274D01*
X193500000Y-91260050D01*
X193446224Y-91206274D01*
X193331574Y-91129668D01*
X193204182Y-91076901D01*
X193068944Y-91050000D01*
X192931056Y-91050000D01*
X192795818Y-91076901D01*
X192668426Y-91129668D01*
X192583843Y-91186184D01*
X192620332Y-91131574D01*
X192673099Y-91004182D01*
X192700000Y-90868944D01*
X192700000Y-90731056D01*
X192673099Y-90595818D01*
X192620332Y-90468426D01*
X192574612Y-90400000D01*
X192620332Y-90331574D01*
X192673099Y-90204182D01*
X192700000Y-90068944D01*
X192700000Y-89931056D01*
X192673099Y-89795818D01*
X192620332Y-89668426D01*
X192543726Y-89553776D01*
X192446224Y-89456274D01*
X192331574Y-89379668D01*
X192204182Y-89326901D01*
X192068944Y-89300000D01*
X191931056Y-89300000D01*
X191795818Y-89326901D01*
X191668426Y-89379668D01*
X191553776Y-89456274D01*
X191500000Y-89510050D01*
X191446224Y-89456274D01*
X191331574Y-89379668D01*
X191204182Y-89326901D01*
X191068944Y-89300000D01*
X190931056Y-89300000D01*
X190795818Y-89326901D01*
X190668426Y-89379668D01*
X190553776Y-89456274D01*
X190500000Y-89510050D01*
X190446224Y-89456274D01*
X190331574Y-89379668D01*
X190204182Y-89326901D01*
X190068944Y-89300000D01*
X189931056Y-89300000D01*
X189795818Y-89326901D01*
X189668426Y-89379668D01*
X189553776Y-89456274D01*
X189456274Y-89553776D01*
X189379668Y-89668426D01*
X189326901Y-89795818D01*
X189300000Y-89931056D01*
X189300000Y-90068944D01*
X189326901Y-90204182D01*
X189379668Y-90331574D01*
X189456274Y-90446224D01*
X189553776Y-90543726D01*
X189668426Y-90620332D01*
X189795818Y-90673099D01*
X189931056Y-90700000D01*
X190068944Y-90700000D01*
X190204182Y-90673099D01*
X190331574Y-90620332D01*
X190446224Y-90543726D01*
X190500000Y-90489950D01*
X190553776Y-90543726D01*
X190668426Y-90620332D01*
X190795818Y-90673099D01*
X190931056Y-90700000D01*
X191068944Y-90700000D01*
X191204182Y-90673099D01*
X191321167Y-90624643D01*
X191300000Y-90731056D01*
X191300000Y-90868944D01*
X191326901Y-91004182D01*
X191379668Y-91131574D01*
X191456274Y-91246224D01*
X191485050Y-91275000D01*
X191456274Y-91303776D01*
X191379668Y-91418426D01*
X191326901Y-91545818D01*
X191300000Y-91681056D01*
X191300000Y-91818944D01*
X191326901Y-91954182D01*
X191379668Y-92081574D01*
X191456274Y-92196224D01*
X191553776Y-92293726D01*
X191668426Y-92370332D01*
X191795818Y-92423099D01*
X191931056Y-92450000D01*
X192068944Y-92450000D01*
X192204182Y-92423099D01*
X192331574Y-92370332D01*
X192446224Y-92293726D01*
X192500000Y-92239950D01*
X192553776Y-92293726D01*
X192668426Y-92370332D01*
X192795818Y-92423099D01*
X192931056Y-92450000D01*
X193068944Y-92450000D01*
X193204182Y-92423099D01*
X193331574Y-92370332D01*
X193446224Y-92293726D01*
X193500000Y-92239950D01*
X193553776Y-92293726D01*
X193668426Y-92370332D01*
X193795818Y-92423099D01*
X193931056Y-92450000D01*
X194068944Y-92450000D01*
X194204182Y-92423099D01*
X194331574Y-92370332D01*
X194446224Y-92293726D01*
X194500000Y-92239950D01*
X194553776Y-92293726D01*
X194668426Y-92370332D01*
X194795818Y-92423099D01*
X194931056Y-92450000D01*
X195068944Y-92450000D01*
X195152787Y-92433322D01*
X195126901Y-92495818D01*
X195100000Y-92631056D01*
X195100000Y-92768944D01*
X195126901Y-92904182D01*
X195179668Y-93031574D01*
X195256274Y-93146224D01*
X195353776Y-93243726D01*
X195468426Y-93320332D01*
X195595818Y-93373099D01*
X195731056Y-93400000D01*
X195868944Y-93400000D01*
X196004182Y-93373099D01*
X196128462Y-93321621D01*
X195894618Y-93904002D01*
X195873099Y-93795818D01*
X195820332Y-93668426D01*
X195743726Y-93553776D01*
X195646224Y-93456274D01*
X195531574Y-93379668D01*
X195404182Y-93326901D01*
X195268944Y-93300000D01*
X195131056Y-93300000D01*
X194995818Y-93326901D01*
X194868426Y-93379668D01*
X194753776Y-93456274D01*
X194656274Y-93553776D01*
X194579668Y-93668426D01*
X194526901Y-93795818D01*
X194500000Y-93931056D01*
X194500000Y-94068944D01*
X194526901Y-94204182D01*
X194579668Y-94331574D01*
X194656274Y-94446224D01*
X194720257Y-94510207D01*
X194668944Y-94500000D01*
X194531056Y-94500000D01*
X194395818Y-94526901D01*
X194268426Y-94579668D01*
X194153776Y-94656274D01*
X194056274Y-94753776D01*
X193979668Y-94868426D01*
X193966590Y-94900000D01*
X180350000Y-94900000D01*
X180350000Y-93981056D01*
X185450000Y-93981056D01*
X185450000Y-94118944D01*
X185476901Y-94254182D01*
X185529668Y-94381574D01*
X185606274Y-94496224D01*
X185703776Y-94593726D01*
X185818426Y-94670332D01*
X185945818Y-94723099D01*
X186081056Y-94750000D01*
X186218944Y-94750000D01*
X186354182Y-94723099D01*
X186481574Y-94670332D01*
X186596224Y-94593726D01*
X186693726Y-94496224D01*
X186770332Y-94381574D01*
X186807279Y-94292374D01*
X186904180Y-94273099D01*
X187031572Y-94220332D01*
X187146222Y-94143726D01*
X187243724Y-94046224D01*
X187320330Y-93931574D01*
X187373097Y-93804182D01*
X187399998Y-93668944D01*
X187399998Y-93531056D01*
X187373097Y-93395818D01*
X187320330Y-93268426D01*
X187243724Y-93153776D01*
X187146222Y-93056274D01*
X187031572Y-92979668D01*
X186904180Y-92926901D01*
X186768942Y-92900000D01*
X186631054Y-92900000D01*
X186495816Y-92926901D01*
X186368424Y-92979668D01*
X186253774Y-93056274D01*
X186156272Y-93153776D01*
X186079666Y-93268426D01*
X186042719Y-93357626D01*
X185945818Y-93376901D01*
X185818426Y-93429668D01*
X185703776Y-93506274D01*
X185606274Y-93603776D01*
X185529668Y-93718426D01*
X185476901Y-93845818D01*
X185450000Y-93981056D01*
X180350000Y-93981056D01*
X180350000Y-92539954D01*
X180353772Y-92543726D01*
X180468422Y-92620332D01*
X180595814Y-92673099D01*
X180731052Y-92700000D01*
X180868940Y-92700000D01*
X181004178Y-92673099D01*
X181131570Y-92620332D01*
X181246220Y-92543726D01*
X181343722Y-92446224D01*
X181420328Y-92331574D01*
X181473095Y-92204182D01*
X181476190Y-92188622D01*
X181554182Y-92173108D01*
X181681574Y-92120341D01*
X181796224Y-92043735D01*
X181893726Y-91946233D01*
X181970332Y-91831583D01*
X182023099Y-91704191D01*
X182050000Y-91568953D01*
X182050000Y-91431065D01*
X182023099Y-91295827D01*
X181970332Y-91168435D01*
X181893726Y-91053785D01*
X181796224Y-90956283D01*
X181681574Y-90879677D01*
X181554182Y-90826910D01*
X181418944Y-90800009D01*
X181281056Y-90800009D01*
X181145818Y-90826910D01*
X181018426Y-90879677D01*
X180903776Y-90956283D01*
X180806274Y-91053785D01*
X180729668Y-91168435D01*
X180676901Y-91295827D01*
X180673806Y-91311387D01*
X180595814Y-91326901D01*
X180468422Y-91379668D01*
X180353772Y-91456274D01*
X180350000Y-91460046D01*
X180350000Y-90431056D01*
X182250000Y-90431056D01*
X182250000Y-90568944D01*
X182276901Y-90704182D01*
X182329668Y-90831574D01*
X182406274Y-90946224D01*
X182503776Y-91043726D01*
X182618426Y-91120332D01*
X182745818Y-91173099D01*
X182881056Y-91200000D01*
X183018944Y-91200000D01*
X183154182Y-91173099D01*
X183281574Y-91120332D01*
X183396224Y-91043726D01*
X183493726Y-90946224D01*
X183570332Y-90831574D01*
X183623099Y-90704182D01*
X183650000Y-90568944D01*
X183650000Y-90431056D01*
X183623099Y-90295818D01*
X183575564Y-90181056D01*
X185050000Y-90181056D01*
X185050000Y-90318944D01*
X185076901Y-90454182D01*
X185129668Y-90581574D01*
X185206274Y-90696224D01*
X185303776Y-90793726D01*
X185418426Y-90870332D01*
X185545818Y-90923099D01*
X185681056Y-90950000D01*
X185818944Y-90950000D01*
X185954182Y-90923099D01*
X186081574Y-90870332D01*
X186196224Y-90793726D01*
X186250000Y-90739950D01*
X186303776Y-90793726D01*
X186418426Y-90870332D01*
X186545818Y-90923099D01*
X186681056Y-90950000D01*
X186818944Y-90950000D01*
X186838771Y-90946056D01*
X188035000Y-90946056D01*
X188035000Y-91083944D01*
X188061901Y-91219182D01*
X188114668Y-91346574D01*
X188191274Y-91461224D01*
X188288776Y-91558726D01*
X188403426Y-91635332D01*
X188530818Y-91688099D01*
X188666056Y-91715000D01*
X188803944Y-91715000D01*
X188939182Y-91688099D01*
X189066574Y-91635332D01*
X189181224Y-91558726D01*
X189278726Y-91461224D01*
X189355332Y-91346574D01*
X189408099Y-91219182D01*
X189435000Y-91083944D01*
X189435000Y-90946056D01*
X189408099Y-90810818D01*
X189355332Y-90683426D01*
X189278726Y-90568776D01*
X189181224Y-90471274D01*
X189066574Y-90394668D01*
X188939182Y-90341901D01*
X188803944Y-90315000D01*
X188666056Y-90315000D01*
X188530818Y-90341901D01*
X188403426Y-90394668D01*
X188288776Y-90471274D01*
X188191274Y-90568776D01*
X188114668Y-90683426D01*
X188061901Y-90810818D01*
X188035000Y-90946056D01*
X186838771Y-90946056D01*
X186954182Y-90923099D01*
X187081574Y-90870332D01*
X187196224Y-90793726D01*
X187293726Y-90696224D01*
X187370332Y-90581574D01*
X187423099Y-90454182D01*
X187450000Y-90318944D01*
X187450000Y-90181056D01*
X187423099Y-90045818D01*
X187370332Y-89918426D01*
X187293726Y-89803776D01*
X187196224Y-89706274D01*
X187081574Y-89629668D01*
X186954182Y-89576901D01*
X186818944Y-89550000D01*
X186681056Y-89550000D01*
X186545818Y-89576901D01*
X186418426Y-89629668D01*
X186303776Y-89706274D01*
X186250000Y-89760050D01*
X186196224Y-89706274D01*
X186081574Y-89629668D01*
X185954182Y-89576901D01*
X185818944Y-89550000D01*
X185681056Y-89550000D01*
X185545818Y-89576901D01*
X185418426Y-89629668D01*
X185303776Y-89706274D01*
X185206274Y-89803776D01*
X185129668Y-89918426D01*
X185076901Y-90045818D01*
X185050000Y-90181056D01*
X183575564Y-90181056D01*
X183570332Y-90168426D01*
X183493726Y-90053776D01*
X183396224Y-89956274D01*
X183281574Y-89879668D01*
X183154182Y-89826901D01*
X183018944Y-89800000D01*
X182881056Y-89800000D01*
X182745818Y-89826901D01*
X182618426Y-89879668D01*
X182503776Y-89956274D01*
X182406274Y-90053776D01*
X182329668Y-90168426D01*
X182276901Y-90295818D01*
X182250000Y-90431056D01*
X180350000Y-90431056D01*
X180350000Y-86531056D01*
X181100000Y-86531056D01*
X181100000Y-86668944D01*
X181126901Y-86804182D01*
X181179668Y-86931574D01*
X181256274Y-87046224D01*
X181353776Y-87143726D01*
X181468426Y-87220332D01*
X181595818Y-87273099D01*
X181731056Y-87300000D01*
X181595818Y-87326901D01*
X181468426Y-87379668D01*
X181353776Y-87456274D01*
X181256274Y-87553776D01*
X181179668Y-87668426D01*
X181126901Y-87795818D01*
X181100000Y-87931056D01*
X181100000Y-88068944D01*
X181126901Y-88204182D01*
X181179668Y-88331574D01*
X181256274Y-88446224D01*
X181353776Y-88543726D01*
X181468426Y-88620332D01*
X181595818Y-88673099D01*
X181731056Y-88700000D01*
X181868944Y-88700000D01*
X182004182Y-88673099D01*
X182131574Y-88620332D01*
X182246224Y-88543726D01*
X182343726Y-88446224D01*
X182420332Y-88331574D01*
X182473099Y-88204182D01*
X182500000Y-88068944D01*
X182526901Y-88204182D01*
X182579668Y-88331574D01*
X182656274Y-88446224D01*
X182753776Y-88543726D01*
X182868426Y-88620332D01*
X182995818Y-88673099D01*
X183131056Y-88700000D01*
X183268944Y-88700000D01*
X183404182Y-88673099D01*
X183531574Y-88620332D01*
X183646224Y-88543726D01*
X183743726Y-88446224D01*
X183820332Y-88331574D01*
X183873099Y-88204182D01*
X183900000Y-88068944D01*
X183900000Y-87931056D01*
X183873099Y-87795818D01*
X183820332Y-87668426D01*
X183743726Y-87553776D01*
X183646224Y-87456274D01*
X183531574Y-87379668D01*
X183404182Y-87326901D01*
X183268944Y-87300000D01*
X183404182Y-87273099D01*
X183531574Y-87220332D01*
X183646224Y-87143726D01*
X183743726Y-87046224D01*
X183820332Y-86931574D01*
X183873099Y-86804182D01*
X183900000Y-86668944D01*
X183900000Y-86531056D01*
X183873099Y-86395818D01*
X183820332Y-86268426D01*
X183743726Y-86153776D01*
X183646224Y-86056274D01*
X183531574Y-85979668D01*
X183404182Y-85926901D01*
X183268944Y-85900000D01*
X183131056Y-85900000D01*
X182995818Y-85926901D01*
X182868426Y-85979668D01*
X182753776Y-86056274D01*
X182656274Y-86153776D01*
X182579668Y-86268426D01*
X182526901Y-86395818D01*
X182500000Y-86531056D01*
X182473099Y-86395818D01*
X182420332Y-86268426D01*
X182343726Y-86153776D01*
X182246224Y-86056274D01*
X182131574Y-85979668D01*
X182004182Y-85926901D01*
X181868944Y-85900000D01*
X181731056Y-85900000D01*
X181595818Y-85926901D01*
X181468426Y-85979668D01*
X181353776Y-86056274D01*
X181256274Y-86153776D01*
X181179668Y-86268426D01*
X181126901Y-86395818D01*
X181100000Y-86531056D01*
X180350000Y-86531056D01*
X180350000Y-82931056D01*
X183300000Y-82931056D01*
X183300000Y-83068944D01*
X183326901Y-83204182D01*
X183379668Y-83331574D01*
X183456274Y-83446224D01*
X183510050Y-83500000D01*
X183456274Y-83553776D01*
X183379668Y-83668426D01*
X183326901Y-83795818D01*
X183300000Y-83931056D01*
X183300000Y-84068944D01*
X183326901Y-84204182D01*
X183379668Y-84331574D01*
X183456274Y-84446224D01*
X183553776Y-84543726D01*
X183668426Y-84620332D01*
X183795818Y-84673099D01*
X183931056Y-84700000D01*
X184068944Y-84700000D01*
X184204182Y-84673099D01*
X184331574Y-84620332D01*
X184446224Y-84543726D01*
X184543726Y-84446224D01*
X184620332Y-84331574D01*
X184673099Y-84204182D01*
X184700000Y-84068944D01*
X184700000Y-83931056D01*
X184673099Y-83795818D01*
X184620332Y-83668426D01*
X184543726Y-83553776D01*
X184489950Y-83500000D01*
X184543726Y-83446224D01*
X184620332Y-83331574D01*
X184673099Y-83204182D01*
X184700000Y-83068944D01*
X184700000Y-82931056D01*
X184694717Y-82904496D01*
X184718426Y-82920338D01*
X184845818Y-82973105D01*
X184981056Y-83000006D01*
X185118944Y-83000006D01*
X185254182Y-82973105D01*
X185381574Y-82920338D01*
X185496224Y-82843732D01*
X185593726Y-82746230D01*
X185670332Y-82631580D01*
X185723099Y-82504188D01*
X185750000Y-82368950D01*
X185750000Y-82350000D01*
X185868944Y-82350000D01*
X186004182Y-82323099D01*
X186131574Y-82270332D01*
X186246224Y-82193726D01*
X186343726Y-82096224D01*
X186420332Y-81981574D01*
X186473099Y-81854182D01*
X186500000Y-81718944D01*
X186500000Y-81581056D01*
X186650000Y-81581056D01*
X186650000Y-81718944D01*
X186676901Y-81854182D01*
X186729668Y-81981574D01*
X186806274Y-82096224D01*
X186903776Y-82193726D01*
X187018426Y-82270332D01*
X187145818Y-82323099D01*
X187281056Y-82350000D01*
X187418944Y-82350000D01*
X187554182Y-82323099D01*
X187681574Y-82270332D01*
X187796224Y-82193726D01*
X187893726Y-82096224D01*
X187970332Y-81981574D01*
X188023099Y-81854182D01*
X188050000Y-81718944D01*
X188050000Y-81581056D01*
X188023099Y-81445818D01*
X187970332Y-81318426D01*
X187893726Y-81203776D01*
X187796224Y-81106274D01*
X187681574Y-81029668D01*
X187554182Y-80976901D01*
X187418944Y-80950000D01*
X187281056Y-80950000D01*
X187145818Y-80976901D01*
X187018426Y-81029668D01*
X186903776Y-81106274D01*
X186806274Y-81203776D01*
X186729668Y-81318426D01*
X186676901Y-81445818D01*
X186650000Y-81581056D01*
X186500000Y-81581056D01*
X186473099Y-81445818D01*
X186420332Y-81318426D01*
X186343726Y-81203776D01*
X186246224Y-81106274D01*
X186131574Y-81029668D01*
X186004182Y-80976901D01*
X185868944Y-80950000D01*
X185731056Y-80950000D01*
X185595818Y-80976901D01*
X185468426Y-81029668D01*
X185353776Y-81106274D01*
X185256274Y-81203776D01*
X185179668Y-81318426D01*
X185126901Y-81445818D01*
X185100000Y-81581056D01*
X185100000Y-81600006D01*
X184981056Y-81600006D01*
X184845818Y-81626907D01*
X184718426Y-81679674D01*
X184603776Y-81756280D01*
X184506274Y-81853782D01*
X184429668Y-81968432D01*
X184376901Y-82095824D01*
X184350000Y-82231062D01*
X184350000Y-82368950D01*
X184355283Y-82395510D01*
X184331574Y-82379668D01*
X184204182Y-82326901D01*
X184068944Y-82300000D01*
X183931056Y-82300000D01*
X183795818Y-82326901D01*
X183668426Y-82379668D01*
X183553776Y-82456274D01*
X183456274Y-82553776D01*
X183379668Y-82668426D01*
X183326901Y-82795818D01*
X183300000Y-82931056D01*
X180350000Y-82931056D01*
X180350000Y-77549733D01*
X180365414Y-77512520D01*
X180400000Y-77338642D01*
X180400000Y-77161358D01*
X180365414Y-76987480D01*
X180350000Y-76950267D01*
X180350000Y-76049733D01*
X180365414Y-76012520D01*
X180400000Y-75838642D01*
X180400000Y-75661358D01*
X180365414Y-75487480D01*
X180350000Y-75450267D01*
X180350000Y-75074612D01*
X180418426Y-75120332D01*
X180545818Y-75173099D01*
X180681056Y-75200000D01*
X180818944Y-75200000D01*
X180954182Y-75173099D01*
X181081574Y-75120332D01*
X181196224Y-75043726D01*
X181293726Y-74946224D01*
X181370332Y-74831574D01*
X181375000Y-74820304D01*
X181379668Y-74831574D01*
X181456274Y-74946224D01*
X181553776Y-75043726D01*
X181668426Y-75120332D01*
X181795818Y-75173099D01*
X181931056Y-75200000D01*
X182068944Y-75200000D01*
X182204182Y-75173099D01*
X182331574Y-75120332D01*
X182446224Y-75043726D01*
X182543726Y-74946224D01*
X182620332Y-74831574D01*
X182673099Y-74704182D01*
X182700000Y-74568944D01*
X182700000Y-74431056D01*
X182673099Y-74295818D01*
X182620332Y-74168426D01*
X182543726Y-74053776D01*
X182446224Y-73956274D01*
X182331574Y-73879668D01*
X182204182Y-73826901D01*
X182068944Y-73800000D01*
X181931056Y-73800000D01*
X181795818Y-73826901D01*
X181668426Y-73879668D01*
X181553776Y-73956274D01*
X181456274Y-74053776D01*
X181379668Y-74168426D01*
X181375000Y-74179696D01*
X181370332Y-74168426D01*
X181293726Y-74053776D01*
X181196224Y-73956274D01*
X181081574Y-73879668D01*
X180954182Y-73826901D01*
X180818944Y-73800000D01*
X180681056Y-73800000D01*
X180545818Y-73826901D01*
X180418426Y-73879668D01*
X180350000Y-73925388D01*
X180350000Y-70719998D01*
X181364341Y-70708968D01*
X182946888Y-70844000D01*
G37*
X182946888Y-70844000D02*
X182986864Y-70851320D01*
X182918426Y-70879668D01*
X182803776Y-70956274D01*
X182706274Y-71053776D01*
X182629668Y-71168426D01*
X182576901Y-71295818D01*
X182550000Y-71431056D01*
X182550000Y-71568944D01*
X182576901Y-71704182D01*
X182629668Y-71831574D01*
X182706274Y-71946224D01*
X182760050Y-72000000D01*
X182706274Y-72053776D01*
X182629668Y-72168426D01*
X182576901Y-72295818D01*
X182550000Y-72431056D01*
X182550000Y-72568944D01*
X182576901Y-72704182D01*
X182629668Y-72831574D01*
X182706274Y-72946224D01*
X182760050Y-73000000D01*
X182706274Y-73053776D01*
X182629668Y-73168426D01*
X182576901Y-73295818D01*
X182550000Y-73431056D01*
X182550000Y-73568944D01*
X182576901Y-73704182D01*
X182629668Y-73831574D01*
X182706274Y-73946224D01*
X182803776Y-74043726D01*
X182918426Y-74120332D01*
X183045818Y-74173099D01*
X183181056Y-74200000D01*
X183318944Y-74200000D01*
X183454182Y-74173099D01*
X183581574Y-74120332D01*
X183696224Y-74043726D01*
X183793726Y-73946224D01*
X183870332Y-73831574D01*
X183923099Y-73704182D01*
X183950000Y-73568944D01*
X183950000Y-73431056D01*
X183923099Y-73295818D01*
X183870332Y-73168426D01*
X183793726Y-73053776D01*
X183739950Y-73000000D01*
X183793726Y-72946224D01*
X183870332Y-72831574D01*
X183923099Y-72704182D01*
X183950000Y-72568944D01*
X183950000Y-72431056D01*
X183923099Y-72295818D01*
X183870332Y-72168426D01*
X183793726Y-72053776D01*
X183739950Y-72000000D01*
X183793726Y-71946224D01*
X183870332Y-71831574D01*
X183923099Y-71704182D01*
X183950000Y-71568944D01*
X183950000Y-71431056D01*
X183923099Y-71295818D01*
X183870332Y-71168426D01*
X183793726Y-71053776D01*
X183726759Y-70986809D01*
X184509230Y-71130095D01*
X184615284Y-71160259D01*
X184568426Y-71179668D01*
X184453776Y-71256274D01*
X184356274Y-71353776D01*
X184279668Y-71468426D01*
X184226901Y-71595818D01*
X184200000Y-71731056D01*
X184200000Y-71868944D01*
X184226901Y-72004182D01*
X184279668Y-72131574D01*
X184356274Y-72246224D01*
X184453776Y-72343726D01*
X184568426Y-72420332D01*
X184695818Y-72473099D01*
X184831056Y-72500000D01*
X184968944Y-72500000D01*
X185104182Y-72473099D01*
X185231574Y-72420332D01*
X185346224Y-72343726D01*
X185443726Y-72246224D01*
X185500000Y-72162003D01*
X185500000Y-72268944D01*
X185526901Y-72404182D01*
X185579668Y-72531574D01*
X185656274Y-72646224D01*
X185753776Y-72743726D01*
X185868426Y-72820332D01*
X185995818Y-72873099D01*
X186131056Y-72900000D01*
X186268944Y-72900000D01*
X186404182Y-72873099D01*
X186531574Y-72820332D01*
X186646224Y-72743726D01*
X186743726Y-72646224D01*
X186819558Y-72532732D01*
X186800000Y-72631056D01*
X186800000Y-72768944D01*
X186826901Y-72904182D01*
X186879668Y-73031574D01*
X186956274Y-73146224D01*
X187053776Y-73243726D01*
X187168426Y-73320332D01*
X187295818Y-73373099D01*
X187431056Y-73400000D01*
X187568944Y-73400000D01*
X187704182Y-73373099D01*
X187831574Y-73320332D01*
X187946224Y-73243726D01*
X188043726Y-73146224D01*
X188120332Y-73031574D01*
X188173099Y-72904182D01*
X188200000Y-72768944D01*
X188200000Y-72631056D01*
X188173099Y-72495818D01*
X188163023Y-72471491D01*
X188646911Y-72716738D01*
X188595818Y-72726901D01*
X188468426Y-72779668D01*
X188353776Y-72856274D01*
X188256274Y-72953776D01*
X188179668Y-73068426D01*
X188126901Y-73195818D01*
X188100000Y-73331056D01*
X188100000Y-73468944D01*
X188126901Y-73604182D01*
X188179668Y-73731574D01*
X188256274Y-73846224D01*
X188353776Y-73943726D01*
X188468426Y-74020332D01*
X188595818Y-74073099D01*
X188731056Y-74100000D01*
X188868944Y-74100000D01*
X189004182Y-74073099D01*
X189131574Y-74020332D01*
X189246224Y-73943726D01*
X189250072Y-73939878D01*
X189226901Y-73995818D01*
X189200000Y-74131056D01*
X189200000Y-74268944D01*
X189226901Y-74404182D01*
X189279668Y-74531574D01*
X189356274Y-74646224D01*
X189453776Y-74743726D01*
X189568426Y-74820332D01*
X189695818Y-74873099D01*
X189831056Y-74900000D01*
X189968944Y-74900000D01*
X190104182Y-74873099D01*
X190231574Y-74820332D01*
X190346224Y-74743726D01*
X190443726Y-74646224D01*
X190520332Y-74531574D01*
X190573099Y-74404182D01*
X190600000Y-74268944D01*
X190600000Y-74131056D01*
X190573099Y-73995818D01*
X190541844Y-73920360D01*
X191527822Y-74687288D01*
X192096920Y-75225025D01*
X191962309Y-75135080D01*
X191784689Y-75061508D01*
X191596128Y-75024000D01*
X191403872Y-75024000D01*
X191215311Y-75061508D01*
X191037691Y-75135080D01*
X190877837Y-75241892D01*
X190741892Y-75377837D01*
X190635080Y-75537691D01*
X190561508Y-75715311D01*
X190524000Y-75903872D01*
X190524000Y-76096128D01*
X190561508Y-76284689D01*
X190635080Y-76462309D01*
X190741892Y-76622163D01*
X190877837Y-76758108D01*
X191037691Y-76864920D01*
X191215311Y-76938492D01*
X191403872Y-76976000D01*
X191596128Y-76976000D01*
X191784689Y-76938492D01*
X191962309Y-76864920D01*
X192122163Y-76758108D01*
X192258108Y-76622163D01*
X192364920Y-76462309D01*
X192438492Y-76284689D01*
X192476000Y-76096128D01*
X192476000Y-75903872D01*
X192438492Y-75715311D01*
X192364920Y-75537691D01*
X192258108Y-75377837D01*
X192248917Y-75368646D01*
X192682281Y-75778129D01*
X193050601Y-76200000D01*
X192931056Y-76200000D01*
X192795818Y-76226901D01*
X192668426Y-76279668D01*
X192553776Y-76356274D01*
X192456274Y-76453776D01*
X192379668Y-76568426D01*
X192326901Y-76695818D01*
X192300000Y-76831056D01*
X192300000Y-76968944D01*
X192326901Y-77104182D01*
X192379668Y-77231574D01*
X192456274Y-77346224D01*
X192553776Y-77443726D01*
X192668426Y-77520332D01*
X192795818Y-77573099D01*
X192931056Y-77600000D01*
X193068944Y-77600000D01*
X193204182Y-77573099D01*
X193331574Y-77520332D01*
X193446224Y-77443726D01*
X193543726Y-77346224D01*
X193620332Y-77231574D01*
X193673099Y-77104182D01*
X193700000Y-76968944D01*
X193700000Y-76943816D01*
X193726880Y-76974604D01*
X193960038Y-77300000D01*
X193831056Y-77300000D01*
X193695818Y-77326901D01*
X193568426Y-77379668D01*
X193453776Y-77456274D01*
X193356274Y-77553776D01*
X193279668Y-77668426D01*
X193226901Y-77795818D01*
X193200000Y-77931056D01*
X193200000Y-78068944D01*
X193226901Y-78204182D01*
X193279668Y-78331574D01*
X193356274Y-78446224D01*
X193453776Y-78543726D01*
X193568426Y-78620332D01*
X193695818Y-78673099D01*
X193831056Y-78700000D01*
X193968944Y-78700000D01*
X194104182Y-78673099D01*
X194231574Y-78620332D01*
X194346224Y-78543726D01*
X194443726Y-78446224D01*
X194520332Y-78331574D01*
X194573099Y-78204182D01*
X194580665Y-78166147D01*
X194651985Y-78265681D01*
X194879726Y-78658192D01*
X194804182Y-78626901D01*
X194668944Y-78600000D01*
X194531056Y-78600000D01*
X194395818Y-78626901D01*
X194268426Y-78679668D01*
X194153776Y-78756274D01*
X194056274Y-78853776D01*
X193979668Y-78968426D01*
X193926901Y-79095818D01*
X193900000Y-79231056D01*
X193900000Y-79368944D01*
X193926901Y-79504182D01*
X193979668Y-79631574D01*
X194056274Y-79746224D01*
X194153776Y-79843726D01*
X194268426Y-79920332D01*
X194395818Y-79973099D01*
X194531056Y-80000000D01*
X194668944Y-80000000D01*
X194720257Y-79989793D01*
X194656274Y-80053776D01*
X194579668Y-80168426D01*
X194526901Y-80295818D01*
X194500000Y-80431056D01*
X194500000Y-80568944D01*
X194526901Y-80704182D01*
X194579668Y-80831574D01*
X194656274Y-80946224D01*
X194753776Y-81043726D01*
X194868426Y-81120332D01*
X194995818Y-81173099D01*
X195131056Y-81200000D01*
X195268944Y-81200000D01*
X195404182Y-81173099D01*
X195531574Y-81120332D01*
X195646224Y-81043726D01*
X195743726Y-80946224D01*
X195820332Y-80831574D01*
X195873099Y-80704182D01*
X195892458Y-80606858D01*
X196110858Y-81083378D01*
X196148065Y-81190687D01*
X196131574Y-81179668D01*
X196004182Y-81126901D01*
X195868944Y-81100000D01*
X195731056Y-81100000D01*
X195595818Y-81126901D01*
X195468426Y-81179668D01*
X195353776Y-81256274D01*
X195256274Y-81353776D01*
X195179668Y-81468426D01*
X195126901Y-81595818D01*
X195100000Y-81731056D01*
X195100000Y-81868944D01*
X195126901Y-82004182D01*
X195152787Y-82066678D01*
X195068944Y-82050000D01*
X194931056Y-82050000D01*
X194795818Y-82076901D01*
X194668426Y-82129668D01*
X194553776Y-82206274D01*
X194500000Y-82260050D01*
X194446224Y-82206274D01*
X194331574Y-82129668D01*
X194204182Y-82076901D01*
X194068944Y-82050000D01*
X193931056Y-82050000D01*
X193795818Y-82076901D01*
X193668426Y-82129668D01*
X193553776Y-82206274D01*
X193500000Y-82260050D01*
X193446224Y-82206274D01*
X193331574Y-82129668D01*
X193204182Y-82076901D01*
X193068944Y-82050000D01*
X192931056Y-82050000D01*
X192795818Y-82076901D01*
X192668426Y-82129668D01*
X192553776Y-82206274D01*
X192500000Y-82260050D01*
X192446224Y-82206274D01*
X192331574Y-82129668D01*
X192204182Y-82076901D01*
X192068944Y-82050000D01*
X191931056Y-82050000D01*
X191795818Y-82076901D01*
X191668426Y-82129668D01*
X191553776Y-82206274D01*
X191456274Y-82303776D01*
X191379668Y-82418426D01*
X191326901Y-82545818D01*
X191300000Y-82681056D01*
X191300000Y-82818944D01*
X191326901Y-82954182D01*
X191379668Y-83081574D01*
X191442093Y-83175000D01*
X191379668Y-83268426D01*
X191326901Y-83395818D01*
X191300000Y-83531056D01*
X191300000Y-83668944D01*
X191326901Y-83804182D01*
X191368345Y-83904237D01*
X191331574Y-83879668D01*
X191204182Y-83826901D01*
X191068944Y-83800000D01*
X190931056Y-83800000D01*
X190795818Y-83826901D01*
X190668426Y-83879668D01*
X190553776Y-83956274D01*
X190500000Y-84010050D01*
X190446224Y-83956274D01*
X190331574Y-83879668D01*
X190204182Y-83826901D01*
X190068944Y-83800000D01*
X189931056Y-83800000D01*
X189795818Y-83826901D01*
X189668426Y-83879668D01*
X189553776Y-83956274D01*
X189500000Y-84010050D01*
X189446224Y-83956274D01*
X189331574Y-83879668D01*
X189204182Y-83826901D01*
X189068944Y-83800000D01*
X188931056Y-83800000D01*
X188795818Y-83826901D01*
X188668426Y-83879668D01*
X188553776Y-83956274D01*
X188500000Y-84010050D01*
X188446224Y-83956274D01*
X188331574Y-83879668D01*
X188204182Y-83826901D01*
X188068944Y-83800000D01*
X187931056Y-83800000D01*
X187795818Y-83826901D01*
X187668426Y-83879668D01*
X187553776Y-83956274D01*
X187500000Y-84010050D01*
X187446224Y-83956274D01*
X187331574Y-83879668D01*
X187204182Y-83826901D01*
X187068944Y-83800000D01*
X186931056Y-83800000D01*
X186795818Y-83826901D01*
X186668426Y-83879668D01*
X186553776Y-83956274D01*
X186500000Y-84010050D01*
X186446224Y-83956274D01*
X186331574Y-83879668D01*
X186204182Y-83826901D01*
X186068944Y-83800000D01*
X185931056Y-83800000D01*
X185795818Y-83826901D01*
X185668426Y-83879668D01*
X185553776Y-83956274D01*
X185456274Y-84053776D01*
X185379668Y-84168426D01*
X185326901Y-84295818D01*
X185300000Y-84431056D01*
X185300000Y-84568944D01*
X185326901Y-84704182D01*
X185379668Y-84831574D01*
X185456274Y-84946224D01*
X185553776Y-85043726D01*
X185668426Y-85120332D01*
X185795818Y-85173099D01*
X185931056Y-85200000D01*
X186068944Y-85200000D01*
X186204182Y-85173099D01*
X186331574Y-85120332D01*
X186446224Y-85043726D01*
X186500000Y-84989950D01*
X186553776Y-85043726D01*
X186668426Y-85120332D01*
X186795818Y-85173099D01*
X186931056Y-85200000D01*
X187068944Y-85200000D01*
X187204182Y-85173099D01*
X187331574Y-85120332D01*
X187446224Y-85043726D01*
X187500000Y-84989950D01*
X187553776Y-85043726D01*
X187668426Y-85120332D01*
X187795818Y-85173099D01*
X187931056Y-85200000D01*
X188068944Y-85200000D01*
X188204182Y-85173099D01*
X188331574Y-85120332D01*
X188446224Y-85043726D01*
X188500000Y-84989950D01*
X188553776Y-85043726D01*
X188668426Y-85120332D01*
X188795818Y-85173099D01*
X188931056Y-85200000D01*
X189068944Y-85200000D01*
X189204182Y-85173099D01*
X189331574Y-85120332D01*
X189446224Y-85043726D01*
X189500000Y-84989950D01*
X189553776Y-85043726D01*
X189668426Y-85120332D01*
X189795818Y-85173099D01*
X189931056Y-85200000D01*
X190068944Y-85200000D01*
X190120868Y-85189672D01*
X190076901Y-85295818D01*
X190050000Y-85431056D01*
X190050000Y-85568944D01*
X190076901Y-85704182D01*
X190129668Y-85831574D01*
X190206274Y-85946224D01*
X190303776Y-86043726D01*
X190418426Y-86120332D01*
X190545818Y-86173099D01*
X190681056Y-86200000D01*
X190818944Y-86200000D01*
X190954182Y-86173099D01*
X191081574Y-86120332D01*
X191196224Y-86043726D01*
X191293726Y-85946224D01*
X191370332Y-85831574D01*
X191423099Y-85704182D01*
X191450000Y-85568944D01*
X191450000Y-85431056D01*
X191423099Y-85295818D01*
X191370332Y-85168426D01*
X191336153Y-85117273D01*
X191446224Y-85043726D01*
X191500000Y-84989950D01*
X191553776Y-85043726D01*
X191668426Y-85120332D01*
X191795818Y-85173099D01*
X191931056Y-85200000D01*
X192068944Y-85200000D01*
X192204182Y-85173099D01*
X192331574Y-85120332D01*
X192446224Y-85043726D01*
X192543726Y-84946224D01*
X192620332Y-84831574D01*
X192673099Y-84704182D01*
X192700000Y-84568944D01*
X192700000Y-84431056D01*
X192673099Y-84295818D01*
X192620332Y-84168426D01*
X192543726Y-84053776D01*
X192539950Y-84050000D01*
X192543726Y-84046224D01*
X192620332Y-83931574D01*
X192673099Y-83804182D01*
X192700000Y-83668944D01*
X192700000Y-83531056D01*
X192673099Y-83395818D01*
X192660291Y-83364896D01*
X192668426Y-83370332D01*
X192795818Y-83423099D01*
X192931056Y-83450000D01*
X193068944Y-83450000D01*
X193204182Y-83423099D01*
X193331574Y-83370332D01*
X193446224Y-83293726D01*
X193500000Y-83239950D01*
X193553776Y-83293726D01*
X193668426Y-83370332D01*
X193795818Y-83423099D01*
X193931056Y-83450000D01*
X194068944Y-83450000D01*
X194204182Y-83423099D01*
X194331574Y-83370332D01*
X194446224Y-83293726D01*
X194500000Y-83239950D01*
X194553776Y-83293726D01*
X194668426Y-83370332D01*
X194795818Y-83423099D01*
X194931056Y-83450000D01*
X195068944Y-83450000D01*
X195204182Y-83423099D01*
X195331574Y-83370332D01*
X195446224Y-83293726D01*
X195500000Y-83239950D01*
X195553776Y-83293726D01*
X195668426Y-83370332D01*
X195795818Y-83423099D01*
X195931056Y-83450000D01*
X196068944Y-83450000D01*
X196204182Y-83423099D01*
X196331574Y-83370332D01*
X196446224Y-83293726D01*
X196543726Y-83196224D01*
X196620332Y-83081574D01*
X196673099Y-82954182D01*
X196697660Y-82830710D01*
X196825000Y-83305951D01*
X196825001Y-91188842D01*
X196692068Y-91641179D01*
X196673099Y-91545818D01*
X196620332Y-91418426D01*
X196543726Y-91303776D01*
X196446224Y-91206274D01*
X196331574Y-91129668D01*
X196204182Y-91076901D01*
X196068944Y-91050000D01*
X195931056Y-91050000D01*
X195795818Y-91076901D01*
X195668426Y-91129668D01*
X195553776Y-91206274D01*
X195500000Y-91260050D01*
X195446224Y-91206274D01*
X195331574Y-91129668D01*
X195204182Y-91076901D01*
X195068944Y-91050000D01*
X194931056Y-91050000D01*
X194795818Y-91076901D01*
X194668426Y-91129668D01*
X194553776Y-91206274D01*
X194500000Y-91260050D01*
X194446224Y-91206274D01*
X194331574Y-91129668D01*
X194204182Y-91076901D01*
X194068944Y-91050000D01*
X193931056Y-91050000D01*
X193795818Y-91076901D01*
X193668426Y-91129668D01*
X193553776Y-91206274D01*
X193500000Y-91260050D01*
X193446224Y-91206274D01*
X193331574Y-91129668D01*
X193204182Y-91076901D01*
X193068944Y-91050000D01*
X192931056Y-91050000D01*
X192795818Y-91076901D01*
X192668426Y-91129668D01*
X192583843Y-91186184D01*
X192620332Y-91131574D01*
X192673099Y-91004182D01*
X192700000Y-90868944D01*
X192700000Y-90731056D01*
X192673099Y-90595818D01*
X192620332Y-90468426D01*
X192574612Y-90400000D01*
X192620332Y-90331574D01*
X192673099Y-90204182D01*
X192700000Y-90068944D01*
X192700000Y-89931056D01*
X192673099Y-89795818D01*
X192620332Y-89668426D01*
X192543726Y-89553776D01*
X192446224Y-89456274D01*
X192331574Y-89379668D01*
X192204182Y-89326901D01*
X192068944Y-89300000D01*
X191931056Y-89300000D01*
X191795818Y-89326901D01*
X191668426Y-89379668D01*
X191553776Y-89456274D01*
X191500000Y-89510050D01*
X191446224Y-89456274D01*
X191331574Y-89379668D01*
X191204182Y-89326901D01*
X191068944Y-89300000D01*
X190931056Y-89300000D01*
X190795818Y-89326901D01*
X190668426Y-89379668D01*
X190553776Y-89456274D01*
X190500000Y-89510050D01*
X190446224Y-89456274D01*
X190331574Y-89379668D01*
X190204182Y-89326901D01*
X190068944Y-89300000D01*
X189931056Y-89300000D01*
X189795818Y-89326901D01*
X189668426Y-89379668D01*
X189553776Y-89456274D01*
X189456274Y-89553776D01*
X189379668Y-89668426D01*
X189326901Y-89795818D01*
X189300000Y-89931056D01*
X189300000Y-90068944D01*
X189326901Y-90204182D01*
X189379668Y-90331574D01*
X189456274Y-90446224D01*
X189553776Y-90543726D01*
X189668426Y-90620332D01*
X189795818Y-90673099D01*
X189931056Y-90700000D01*
X190068944Y-90700000D01*
X190204182Y-90673099D01*
X190331574Y-90620332D01*
X190446224Y-90543726D01*
X190500000Y-90489950D01*
X190553776Y-90543726D01*
X190668426Y-90620332D01*
X190795818Y-90673099D01*
X190931056Y-90700000D01*
X191068944Y-90700000D01*
X191204182Y-90673099D01*
X191321167Y-90624643D01*
X191300000Y-90731056D01*
X191300000Y-90868944D01*
X191326901Y-91004182D01*
X191379668Y-91131574D01*
X191456274Y-91246224D01*
X191485050Y-91275000D01*
X191456274Y-91303776D01*
X191379668Y-91418426D01*
X191326901Y-91545818D01*
X191300000Y-91681056D01*
X191300000Y-91818944D01*
X191326901Y-91954182D01*
X191379668Y-92081574D01*
X191456274Y-92196224D01*
X191553776Y-92293726D01*
X191668426Y-92370332D01*
X191795818Y-92423099D01*
X191931056Y-92450000D01*
X192068944Y-92450000D01*
X192204182Y-92423099D01*
X192331574Y-92370332D01*
X192446224Y-92293726D01*
X192500000Y-92239950D01*
X192553776Y-92293726D01*
X192668426Y-92370332D01*
X192795818Y-92423099D01*
X192931056Y-92450000D01*
X193068944Y-92450000D01*
X193204182Y-92423099D01*
X193331574Y-92370332D01*
X193446224Y-92293726D01*
X193500000Y-92239950D01*
X193553776Y-92293726D01*
X193668426Y-92370332D01*
X193795818Y-92423099D01*
X193931056Y-92450000D01*
X194068944Y-92450000D01*
X194204182Y-92423099D01*
X194331574Y-92370332D01*
X194446224Y-92293726D01*
X194500000Y-92239950D01*
X194553776Y-92293726D01*
X194668426Y-92370332D01*
X194795818Y-92423099D01*
X194931056Y-92450000D01*
X195068944Y-92450000D01*
X195152787Y-92433322D01*
X195126901Y-92495818D01*
X195100000Y-92631056D01*
X195100000Y-92768944D01*
X195126901Y-92904182D01*
X195179668Y-93031574D01*
X195256274Y-93146224D01*
X195353776Y-93243726D01*
X195468426Y-93320332D01*
X195595818Y-93373099D01*
X195731056Y-93400000D01*
X195868944Y-93400000D01*
X196004182Y-93373099D01*
X196128462Y-93321621D01*
X195894618Y-93904002D01*
X195873099Y-93795818D01*
X195820332Y-93668426D01*
X195743726Y-93553776D01*
X195646224Y-93456274D01*
X195531574Y-93379668D01*
X195404182Y-93326901D01*
X195268944Y-93300000D01*
X195131056Y-93300000D01*
X194995818Y-93326901D01*
X194868426Y-93379668D01*
X194753776Y-93456274D01*
X194656274Y-93553776D01*
X194579668Y-93668426D01*
X194526901Y-93795818D01*
X194500000Y-93931056D01*
X194500000Y-94068944D01*
X194526901Y-94204182D01*
X194579668Y-94331574D01*
X194656274Y-94446224D01*
X194720257Y-94510207D01*
X194668944Y-94500000D01*
X194531056Y-94500000D01*
X194395818Y-94526901D01*
X194268426Y-94579668D01*
X194153776Y-94656274D01*
X194056274Y-94753776D01*
X193979668Y-94868426D01*
X193966590Y-94900000D01*
X180350000Y-94900000D01*
X180350000Y-93981056D01*
X185450000Y-93981056D01*
X185450000Y-94118944D01*
X185476901Y-94254182D01*
X185529668Y-94381574D01*
X185606274Y-94496224D01*
X185703776Y-94593726D01*
X185818426Y-94670332D01*
X185945818Y-94723099D01*
X186081056Y-94750000D01*
X186218944Y-94750000D01*
X186354182Y-94723099D01*
X186481574Y-94670332D01*
X186596224Y-94593726D01*
X186693726Y-94496224D01*
X186770332Y-94381574D01*
X186807279Y-94292374D01*
X186904180Y-94273099D01*
X187031572Y-94220332D01*
X187146222Y-94143726D01*
X187243724Y-94046224D01*
X187320330Y-93931574D01*
X187373097Y-93804182D01*
X187399998Y-93668944D01*
X187399998Y-93531056D01*
X187373097Y-93395818D01*
X187320330Y-93268426D01*
X187243724Y-93153776D01*
X187146222Y-93056274D01*
X187031572Y-92979668D01*
X186904180Y-92926901D01*
X186768942Y-92900000D01*
X186631054Y-92900000D01*
X186495816Y-92926901D01*
X186368424Y-92979668D01*
X186253774Y-93056274D01*
X186156272Y-93153776D01*
X186079666Y-93268426D01*
X186042719Y-93357626D01*
X185945818Y-93376901D01*
X185818426Y-93429668D01*
X185703776Y-93506274D01*
X185606274Y-93603776D01*
X185529668Y-93718426D01*
X185476901Y-93845818D01*
X185450000Y-93981056D01*
X180350000Y-93981056D01*
X180350000Y-92539954D01*
X180353772Y-92543726D01*
X180468422Y-92620332D01*
X180595814Y-92673099D01*
X180731052Y-92700000D01*
X180868940Y-92700000D01*
X181004178Y-92673099D01*
X181131570Y-92620332D01*
X181246220Y-92543726D01*
X181343722Y-92446224D01*
X181420328Y-92331574D01*
X181473095Y-92204182D01*
X181476190Y-92188622D01*
X181554182Y-92173108D01*
X181681574Y-92120341D01*
X181796224Y-92043735D01*
X181893726Y-91946233D01*
X181970332Y-91831583D01*
X182023099Y-91704191D01*
X182050000Y-91568953D01*
X182050000Y-91431065D01*
X182023099Y-91295827D01*
X181970332Y-91168435D01*
X181893726Y-91053785D01*
X181796224Y-90956283D01*
X181681574Y-90879677D01*
X181554182Y-90826910D01*
X181418944Y-90800009D01*
X181281056Y-90800009D01*
X181145818Y-90826910D01*
X181018426Y-90879677D01*
X180903776Y-90956283D01*
X180806274Y-91053785D01*
X180729668Y-91168435D01*
X180676901Y-91295827D01*
X180673806Y-91311387D01*
X180595814Y-91326901D01*
X180468422Y-91379668D01*
X180353772Y-91456274D01*
X180350000Y-91460046D01*
X180350000Y-90431056D01*
X182250000Y-90431056D01*
X182250000Y-90568944D01*
X182276901Y-90704182D01*
X182329668Y-90831574D01*
X182406274Y-90946224D01*
X182503776Y-91043726D01*
X182618426Y-91120332D01*
X182745818Y-91173099D01*
X182881056Y-91200000D01*
X183018944Y-91200000D01*
X183154182Y-91173099D01*
X183281574Y-91120332D01*
X183396224Y-91043726D01*
X183493726Y-90946224D01*
X183570332Y-90831574D01*
X183623099Y-90704182D01*
X183650000Y-90568944D01*
X183650000Y-90431056D01*
X183623099Y-90295818D01*
X183575564Y-90181056D01*
X185050000Y-90181056D01*
X185050000Y-90318944D01*
X185076901Y-90454182D01*
X185129668Y-90581574D01*
X185206274Y-90696224D01*
X185303776Y-90793726D01*
X185418426Y-90870332D01*
X185545818Y-90923099D01*
X185681056Y-90950000D01*
X185818944Y-90950000D01*
X185954182Y-90923099D01*
X186081574Y-90870332D01*
X186196224Y-90793726D01*
X186250000Y-90739950D01*
X186303776Y-90793726D01*
X186418426Y-90870332D01*
X186545818Y-90923099D01*
X186681056Y-90950000D01*
X186818944Y-90950000D01*
X186838771Y-90946056D01*
X188035000Y-90946056D01*
X188035000Y-91083944D01*
X188061901Y-91219182D01*
X188114668Y-91346574D01*
X188191274Y-91461224D01*
X188288776Y-91558726D01*
X188403426Y-91635332D01*
X188530818Y-91688099D01*
X188666056Y-91715000D01*
X188803944Y-91715000D01*
X188939182Y-91688099D01*
X189066574Y-91635332D01*
X189181224Y-91558726D01*
X189278726Y-91461224D01*
X189355332Y-91346574D01*
X189408099Y-91219182D01*
X189435000Y-91083944D01*
X189435000Y-90946056D01*
X189408099Y-90810818D01*
X189355332Y-90683426D01*
X189278726Y-90568776D01*
X189181224Y-90471274D01*
X189066574Y-90394668D01*
X188939182Y-90341901D01*
X188803944Y-90315000D01*
X188666056Y-90315000D01*
X188530818Y-90341901D01*
X188403426Y-90394668D01*
X188288776Y-90471274D01*
X188191274Y-90568776D01*
X188114668Y-90683426D01*
X188061901Y-90810818D01*
X188035000Y-90946056D01*
X186838771Y-90946056D01*
X186954182Y-90923099D01*
X187081574Y-90870332D01*
X187196224Y-90793726D01*
X187293726Y-90696224D01*
X187370332Y-90581574D01*
X187423099Y-90454182D01*
X187450000Y-90318944D01*
X187450000Y-90181056D01*
X187423099Y-90045818D01*
X187370332Y-89918426D01*
X187293726Y-89803776D01*
X187196224Y-89706274D01*
X187081574Y-89629668D01*
X186954182Y-89576901D01*
X186818944Y-89550000D01*
X186681056Y-89550000D01*
X186545818Y-89576901D01*
X186418426Y-89629668D01*
X186303776Y-89706274D01*
X186250000Y-89760050D01*
X186196224Y-89706274D01*
X186081574Y-89629668D01*
X185954182Y-89576901D01*
X185818944Y-89550000D01*
X185681056Y-89550000D01*
X185545818Y-89576901D01*
X185418426Y-89629668D01*
X185303776Y-89706274D01*
X185206274Y-89803776D01*
X185129668Y-89918426D01*
X185076901Y-90045818D01*
X185050000Y-90181056D01*
X183575564Y-90181056D01*
X183570332Y-90168426D01*
X183493726Y-90053776D01*
X183396224Y-89956274D01*
X183281574Y-89879668D01*
X183154182Y-89826901D01*
X183018944Y-89800000D01*
X182881056Y-89800000D01*
X182745818Y-89826901D01*
X182618426Y-89879668D01*
X182503776Y-89956274D01*
X182406274Y-90053776D01*
X182329668Y-90168426D01*
X182276901Y-90295818D01*
X182250000Y-90431056D01*
X180350000Y-90431056D01*
X180350000Y-86531056D01*
X181100000Y-86531056D01*
X181100000Y-86668944D01*
X181126901Y-86804182D01*
X181179668Y-86931574D01*
X181256274Y-87046224D01*
X181353776Y-87143726D01*
X181468426Y-87220332D01*
X181595818Y-87273099D01*
X181731056Y-87300000D01*
X181595818Y-87326901D01*
X181468426Y-87379668D01*
X181353776Y-87456274D01*
X181256274Y-87553776D01*
X181179668Y-87668426D01*
X181126901Y-87795818D01*
X181100000Y-87931056D01*
X181100000Y-88068944D01*
X181126901Y-88204182D01*
X181179668Y-88331574D01*
X181256274Y-88446224D01*
X181353776Y-88543726D01*
X181468426Y-88620332D01*
X181595818Y-88673099D01*
X181731056Y-88700000D01*
X181868944Y-88700000D01*
X182004182Y-88673099D01*
X182131574Y-88620332D01*
X182246224Y-88543726D01*
X182343726Y-88446224D01*
X182420332Y-88331574D01*
X182473099Y-88204182D01*
X182500000Y-88068944D01*
X182526901Y-88204182D01*
X182579668Y-88331574D01*
X182656274Y-88446224D01*
X182753776Y-88543726D01*
X182868426Y-88620332D01*
X182995818Y-88673099D01*
X183131056Y-88700000D01*
X183268944Y-88700000D01*
X183404182Y-88673099D01*
X183531574Y-88620332D01*
X183646224Y-88543726D01*
X183743726Y-88446224D01*
X183820332Y-88331574D01*
X183873099Y-88204182D01*
X183900000Y-88068944D01*
X183900000Y-87931056D01*
X183873099Y-87795818D01*
X183820332Y-87668426D01*
X183743726Y-87553776D01*
X183646224Y-87456274D01*
X183531574Y-87379668D01*
X183404182Y-87326901D01*
X183268944Y-87300000D01*
X183404182Y-87273099D01*
X183531574Y-87220332D01*
X183646224Y-87143726D01*
X183743726Y-87046224D01*
X183820332Y-86931574D01*
X183873099Y-86804182D01*
X183900000Y-86668944D01*
X183900000Y-86531056D01*
X183873099Y-86395818D01*
X183820332Y-86268426D01*
X183743726Y-86153776D01*
X183646224Y-86056274D01*
X183531574Y-85979668D01*
X183404182Y-85926901D01*
X183268944Y-85900000D01*
X183131056Y-85900000D01*
X182995818Y-85926901D01*
X182868426Y-85979668D01*
X182753776Y-86056274D01*
X182656274Y-86153776D01*
X182579668Y-86268426D01*
X182526901Y-86395818D01*
X182500000Y-86531056D01*
X182473099Y-86395818D01*
X182420332Y-86268426D01*
X182343726Y-86153776D01*
X182246224Y-86056274D01*
X182131574Y-85979668D01*
X182004182Y-85926901D01*
X181868944Y-85900000D01*
X181731056Y-85900000D01*
X181595818Y-85926901D01*
X181468426Y-85979668D01*
X181353776Y-86056274D01*
X181256274Y-86153776D01*
X181179668Y-86268426D01*
X181126901Y-86395818D01*
X181100000Y-86531056D01*
X180350000Y-86531056D01*
X180350000Y-82931056D01*
X183300000Y-82931056D01*
X183300000Y-83068944D01*
X183326901Y-83204182D01*
X183379668Y-83331574D01*
X183456274Y-83446224D01*
X183510050Y-83500000D01*
X183456274Y-83553776D01*
X183379668Y-83668426D01*
X183326901Y-83795818D01*
X183300000Y-83931056D01*
X183300000Y-84068944D01*
X183326901Y-84204182D01*
X183379668Y-84331574D01*
X183456274Y-84446224D01*
X183553776Y-84543726D01*
X183668426Y-84620332D01*
X183795818Y-84673099D01*
X183931056Y-84700000D01*
X184068944Y-84700000D01*
X184204182Y-84673099D01*
X184331574Y-84620332D01*
X184446224Y-84543726D01*
X184543726Y-84446224D01*
X184620332Y-84331574D01*
X184673099Y-84204182D01*
X184700000Y-84068944D01*
X184700000Y-83931056D01*
X184673099Y-83795818D01*
X184620332Y-83668426D01*
X184543726Y-83553776D01*
X184489950Y-83500000D01*
X184543726Y-83446224D01*
X184620332Y-83331574D01*
X184673099Y-83204182D01*
X184700000Y-83068944D01*
X184700000Y-82931056D01*
X184694717Y-82904496D01*
X184718426Y-82920338D01*
X184845818Y-82973105D01*
X184981056Y-83000006D01*
X185118944Y-83000006D01*
X185254182Y-82973105D01*
X185381574Y-82920338D01*
X185496224Y-82843732D01*
X185593726Y-82746230D01*
X185670332Y-82631580D01*
X185723099Y-82504188D01*
X185750000Y-82368950D01*
X185750000Y-82350000D01*
X185868944Y-82350000D01*
X186004182Y-82323099D01*
X186131574Y-82270332D01*
X186246224Y-82193726D01*
X186343726Y-82096224D01*
X186420332Y-81981574D01*
X186473099Y-81854182D01*
X186500000Y-81718944D01*
X186500000Y-81581056D01*
X186650000Y-81581056D01*
X186650000Y-81718944D01*
X186676901Y-81854182D01*
X186729668Y-81981574D01*
X186806274Y-82096224D01*
X186903776Y-82193726D01*
X187018426Y-82270332D01*
X187145818Y-82323099D01*
X187281056Y-82350000D01*
X187418944Y-82350000D01*
X187554182Y-82323099D01*
X187681574Y-82270332D01*
X187796224Y-82193726D01*
X187893726Y-82096224D01*
X187970332Y-81981574D01*
X188023099Y-81854182D01*
X188050000Y-81718944D01*
X188050000Y-81581056D01*
X188023099Y-81445818D01*
X187970332Y-81318426D01*
X187893726Y-81203776D01*
X187796224Y-81106274D01*
X187681574Y-81029668D01*
X187554182Y-80976901D01*
X187418944Y-80950000D01*
X187281056Y-80950000D01*
X187145818Y-80976901D01*
X187018426Y-81029668D01*
X186903776Y-81106274D01*
X186806274Y-81203776D01*
X186729668Y-81318426D01*
X186676901Y-81445818D01*
X186650000Y-81581056D01*
X186500000Y-81581056D01*
X186473099Y-81445818D01*
X186420332Y-81318426D01*
X186343726Y-81203776D01*
X186246224Y-81106274D01*
X186131574Y-81029668D01*
X186004182Y-80976901D01*
X185868944Y-80950000D01*
X185731056Y-80950000D01*
X185595818Y-80976901D01*
X185468426Y-81029668D01*
X185353776Y-81106274D01*
X185256274Y-81203776D01*
X185179668Y-81318426D01*
X185126901Y-81445818D01*
X185100000Y-81581056D01*
X185100000Y-81600006D01*
X184981056Y-81600006D01*
X184845818Y-81626907D01*
X184718426Y-81679674D01*
X184603776Y-81756280D01*
X184506274Y-81853782D01*
X184429668Y-81968432D01*
X184376901Y-82095824D01*
X184350000Y-82231062D01*
X184350000Y-82368950D01*
X184355283Y-82395510D01*
X184331574Y-82379668D01*
X184204182Y-82326901D01*
X184068944Y-82300000D01*
X183931056Y-82300000D01*
X183795818Y-82326901D01*
X183668426Y-82379668D01*
X183553776Y-82456274D01*
X183456274Y-82553776D01*
X183379668Y-82668426D01*
X183326901Y-82795818D01*
X183300000Y-82931056D01*
X180350000Y-82931056D01*
X180350000Y-77549733D01*
X180365414Y-77512520D01*
X180400000Y-77338642D01*
X180400000Y-77161358D01*
X180365414Y-76987480D01*
X180350000Y-76950267D01*
X180350000Y-76049733D01*
X180365414Y-76012520D01*
X180400000Y-75838642D01*
X180400000Y-75661358D01*
X180365414Y-75487480D01*
X180350000Y-75450267D01*
X180350000Y-75074612D01*
X180418426Y-75120332D01*
X180545818Y-75173099D01*
X180681056Y-75200000D01*
X180818944Y-75200000D01*
X180954182Y-75173099D01*
X181081574Y-75120332D01*
X181196224Y-75043726D01*
X181293726Y-74946224D01*
X181370332Y-74831574D01*
X181375000Y-74820304D01*
X181379668Y-74831574D01*
X181456274Y-74946224D01*
X181553776Y-75043726D01*
X181668426Y-75120332D01*
X181795818Y-75173099D01*
X181931056Y-75200000D01*
X182068944Y-75200000D01*
X182204182Y-75173099D01*
X182331574Y-75120332D01*
X182446224Y-75043726D01*
X182543726Y-74946224D01*
X182620332Y-74831574D01*
X182673099Y-74704182D01*
X182700000Y-74568944D01*
X182700000Y-74431056D01*
X182673099Y-74295818D01*
X182620332Y-74168426D01*
X182543726Y-74053776D01*
X182446224Y-73956274D01*
X182331574Y-73879668D01*
X182204182Y-73826901D01*
X182068944Y-73800000D01*
X181931056Y-73800000D01*
X181795818Y-73826901D01*
X181668426Y-73879668D01*
X181553776Y-73956274D01*
X181456274Y-74053776D01*
X181379668Y-74168426D01*
X181375000Y-74179696D01*
X181370332Y-74168426D01*
X181293726Y-74053776D01*
X181196224Y-73956274D01*
X181081574Y-73879668D01*
X180954182Y-73826901D01*
X180818944Y-73800000D01*
X180681056Y-73800000D01*
X180545818Y-73826901D01*
X180418426Y-73879668D01*
X180350000Y-73925388D01*
X180350000Y-70719998D01*
X181364341Y-70708968D01*
X182946888Y-70844000D01*
%TD*%
M02*
