%TF.GenerationSoftware,KiCad,Pcbnew,(5.1.6)-1*%
%TF.CreationDate,2020-10-05T19:31:36+02:00*%
%TF.ProjectId,NRF24,4e524632-342e-46b6-9963-61645f706362,rev?*%
%TF.SameCoordinates,Original*%
%TF.FileFunction,Soldermask,Top*%
%TF.FilePolarity,Negative*%
%FSLAX46Y46*%
G04 Gerber Fmt 4.6, Leading zero omitted, Abs format (unit mm)*
G04 Created by KiCad (PCBNEW (5.1.6)-1) date 2020-10-05 19:31:36*
%MOMM*%
%LPD*%
G01*
G04 APERTURE LIST*
%ADD10C,1.300000*%
%ADD11R,3.700000X1.370000*%
%ADD12R,4.300000X1.450000*%
%ADD13R,0.900000X1.000000*%
%ADD14R,1.000000X0.900000*%
%ADD15R,2.600000X2.600000*%
%ADD16R,1.500000X1.300000*%
%ADD17C,0.150000*%
%ADD18R,1.600000X2.500000*%
%ADD19R,2.500000X0.840000*%
G04 APERTURE END LIST*
%TO.C,C20*%
G36*
G01*
X181675000Y-75543867D02*
X181675000Y-77456133D01*
G75*
G02*
X181406133Y-77725000I-268867J0D01*
G01*
X180518867Y-77725000D01*
G75*
G02*
X180250000Y-77456133I0J268867D01*
G01*
X180250000Y-75543867D01*
G75*
G02*
X180518867Y-75275000I268867J0D01*
G01*
X181406133Y-75275000D01*
G75*
G02*
X181675000Y-75543867I0J-268867D01*
G01*
G37*
G36*
G01*
X184750000Y-75543867D02*
X184750000Y-77456133D01*
G75*
G02*
X184481133Y-77725000I-268867J0D01*
G01*
X183593867Y-77725000D01*
G75*
G02*
X183325000Y-77456133I0J268867D01*
G01*
X183325000Y-75543867D01*
G75*
G02*
X183593867Y-75275000I268867J0D01*
G01*
X184481133Y-75275000D01*
G75*
G02*
X184750000Y-75543867I0J-268867D01*
G01*
G37*
%TD*%
%TO.C,C19*%
G36*
G01*
X187068750Y-80350000D02*
X187631250Y-80350000D01*
G75*
G02*
X187875000Y-80593750I0J-243750D01*
G01*
X187875000Y-81081250D01*
G75*
G02*
X187631250Y-81325000I-243750J0D01*
G01*
X187068750Y-81325000D01*
G75*
G02*
X186825000Y-81081250I0J243750D01*
G01*
X186825000Y-80593750D01*
G75*
G02*
X187068750Y-80350000I243750J0D01*
G01*
G37*
G36*
G01*
X187068750Y-78775000D02*
X187631250Y-78775000D01*
G75*
G02*
X187875000Y-79018750I0J-243750D01*
G01*
X187875000Y-79506250D01*
G75*
G02*
X187631250Y-79750000I-243750J0D01*
G01*
X187068750Y-79750000D01*
G75*
G02*
X186825000Y-79506250I0J243750D01*
G01*
X186825000Y-79018750D01*
G75*
G02*
X187068750Y-78775000I243750J0D01*
G01*
G37*
%TD*%
D10*
%TO.C,REF\u002A\u002A*%
X191500000Y-98500000D03*
%TD*%
%TO.C,REF\u002A\u002A*%
X191500000Y-76000000D03*
%TD*%
%TO.C,REF\u002A\u002A*%
X170000000Y-76000000D03*
%TD*%
%TO.C,R12*%
G36*
G01*
X178302500Y-94390000D02*
X178697500Y-94390000D01*
G75*
G02*
X178870000Y-94562500I0J-172500D01*
G01*
X178870000Y-94907500D01*
G75*
G02*
X178697500Y-95080000I-172500J0D01*
G01*
X178302500Y-95080000D01*
G75*
G02*
X178130000Y-94907500I0J172500D01*
G01*
X178130000Y-94562500D01*
G75*
G02*
X178302500Y-94390000I172500J0D01*
G01*
G37*
G36*
G01*
X178302500Y-93420000D02*
X178697500Y-93420000D01*
G75*
G02*
X178870000Y-93592500I0J-172500D01*
G01*
X178870000Y-93937500D01*
G75*
G02*
X178697500Y-94110000I-172500J0D01*
G01*
X178302500Y-94110000D01*
G75*
G02*
X178130000Y-93937500I0J172500D01*
G01*
X178130000Y-93592500D01*
G75*
G02*
X178302500Y-93420000I172500J0D01*
G01*
G37*
%TD*%
D11*
%TO.C,J2*%
X195200000Y-87250000D03*
D12*
X195000000Y-84425000D03*
X195000000Y-90075000D03*
%TD*%
%TO.C,R11*%
G36*
G01*
X170390000Y-88697500D02*
X170390000Y-88302500D01*
G75*
G02*
X170562500Y-88130000I172500J0D01*
G01*
X170907500Y-88130000D01*
G75*
G02*
X171080000Y-88302500I0J-172500D01*
G01*
X171080000Y-88697500D01*
G75*
G02*
X170907500Y-88870000I-172500J0D01*
G01*
X170562500Y-88870000D01*
G75*
G02*
X170390000Y-88697500I0J172500D01*
G01*
G37*
G36*
G01*
X169420000Y-88697500D02*
X169420000Y-88302500D01*
G75*
G02*
X169592500Y-88130000I172500J0D01*
G01*
X169937500Y-88130000D01*
G75*
G02*
X170110000Y-88302500I0J-172500D01*
G01*
X170110000Y-88697500D01*
G75*
G02*
X169937500Y-88870000I-172500J0D01*
G01*
X169592500Y-88870000D01*
G75*
G02*
X169420000Y-88697500I0J172500D01*
G01*
G37*
%TD*%
D13*
%TO.C,Q3*%
X169750000Y-91750000D03*
X168800000Y-89750000D03*
X170700000Y-89750000D03*
%TD*%
%TO.C,Q2*%
X175100000Y-99000000D03*
X174150000Y-97000000D03*
X176050000Y-97000000D03*
%TD*%
D14*
%TO.C,Q1*%
X179000000Y-80000000D03*
X179000000Y-81900000D03*
X181000000Y-80950000D03*
%TD*%
%TO.C,LD1*%
G36*
G01*
X173550000Y-94531250D02*
X173550000Y-93968750D01*
G75*
G02*
X173793750Y-93725000I243750J0D01*
G01*
X174281250Y-93725000D01*
G75*
G02*
X174525000Y-93968750I0J-243750D01*
G01*
X174525000Y-94531250D01*
G75*
G02*
X174281250Y-94775000I-243750J0D01*
G01*
X173793750Y-94775000D01*
G75*
G02*
X173550000Y-94531250I0J243750D01*
G01*
G37*
G36*
G01*
X171975000Y-94531250D02*
X171975000Y-93968750D01*
G75*
G02*
X172218750Y-93725000I243750J0D01*
G01*
X172706250Y-93725000D01*
G75*
G02*
X172950000Y-93968750I0J-243750D01*
G01*
X172950000Y-94531250D01*
G75*
G02*
X172706250Y-94775000I-243750J0D01*
G01*
X172218750Y-94775000D01*
G75*
G02*
X171975000Y-94531250I0J243750D01*
G01*
G37*
%TD*%
%TO.C,FB1*%
G36*
G01*
X183281250Y-79800000D02*
X182318750Y-79800000D01*
G75*
G02*
X182050000Y-79531250I0J268750D01*
G01*
X182050000Y-78993750D01*
G75*
G02*
X182318750Y-78725000I268750J0D01*
G01*
X183281250Y-78725000D01*
G75*
G02*
X183550000Y-78993750I0J-268750D01*
G01*
X183550000Y-79531250D01*
G75*
G02*
X183281250Y-79800000I-268750J0D01*
G01*
G37*
G36*
G01*
X183281250Y-81675000D02*
X182318750Y-81675000D01*
G75*
G02*
X182050000Y-81406250I0J268750D01*
G01*
X182050000Y-80868750D01*
G75*
G02*
X182318750Y-80600000I268750J0D01*
G01*
X183281250Y-80600000D01*
G75*
G02*
X183550000Y-80868750I0J-268750D01*
G01*
X183550000Y-81406250D01*
G75*
G02*
X183281250Y-81675000I-268750J0D01*
G01*
G37*
%TD*%
D15*
%TO.C,U3*%
X182500000Y-87250000D03*
G36*
G01*
X181325000Y-85687500D02*
X181325000Y-84937500D01*
G75*
G02*
X181412500Y-84850000I87500J0D01*
G01*
X181587500Y-84850000D01*
G75*
G02*
X181675000Y-84937500I0J-87500D01*
G01*
X181675000Y-85687500D01*
G75*
G02*
X181587500Y-85775000I-87500J0D01*
G01*
X181412500Y-85775000D01*
G75*
G02*
X181325000Y-85687500I0J87500D01*
G01*
G37*
G36*
G01*
X181825000Y-85687500D02*
X181825000Y-84937500D01*
G75*
G02*
X181912500Y-84850000I87500J0D01*
G01*
X182087500Y-84850000D01*
G75*
G02*
X182175000Y-84937500I0J-87500D01*
G01*
X182175000Y-85687500D01*
G75*
G02*
X182087500Y-85775000I-87500J0D01*
G01*
X181912500Y-85775000D01*
G75*
G02*
X181825000Y-85687500I0J87500D01*
G01*
G37*
G36*
G01*
X182325000Y-85687500D02*
X182325000Y-84937500D01*
G75*
G02*
X182412500Y-84850000I87500J0D01*
G01*
X182587500Y-84850000D01*
G75*
G02*
X182675000Y-84937500I0J-87500D01*
G01*
X182675000Y-85687500D01*
G75*
G02*
X182587500Y-85775000I-87500J0D01*
G01*
X182412500Y-85775000D01*
G75*
G02*
X182325000Y-85687500I0J87500D01*
G01*
G37*
G36*
G01*
X182825000Y-85687500D02*
X182825000Y-84937500D01*
G75*
G02*
X182912500Y-84850000I87500J0D01*
G01*
X183087500Y-84850000D01*
G75*
G02*
X183175000Y-84937500I0J-87500D01*
G01*
X183175000Y-85687500D01*
G75*
G02*
X183087500Y-85775000I-87500J0D01*
G01*
X182912500Y-85775000D01*
G75*
G02*
X182825000Y-85687500I0J87500D01*
G01*
G37*
G36*
G01*
X183325000Y-85687500D02*
X183325000Y-84937500D01*
G75*
G02*
X183412500Y-84850000I87500J0D01*
G01*
X183587500Y-84850000D01*
G75*
G02*
X183675000Y-84937500I0J-87500D01*
G01*
X183675000Y-85687500D01*
G75*
G02*
X183587500Y-85775000I-87500J0D01*
G01*
X183412500Y-85775000D01*
G75*
G02*
X183325000Y-85687500I0J87500D01*
G01*
G37*
G36*
G01*
X183975000Y-86337500D02*
X183975000Y-86162500D01*
G75*
G02*
X184062500Y-86075000I87500J0D01*
G01*
X184812500Y-86075000D01*
G75*
G02*
X184900000Y-86162500I0J-87500D01*
G01*
X184900000Y-86337500D01*
G75*
G02*
X184812500Y-86425000I-87500J0D01*
G01*
X184062500Y-86425000D01*
G75*
G02*
X183975000Y-86337500I0J87500D01*
G01*
G37*
G36*
G01*
X183975000Y-86837500D02*
X183975000Y-86662500D01*
G75*
G02*
X184062500Y-86575000I87500J0D01*
G01*
X184812500Y-86575000D01*
G75*
G02*
X184900000Y-86662500I0J-87500D01*
G01*
X184900000Y-86837500D01*
G75*
G02*
X184812500Y-86925000I-87500J0D01*
G01*
X184062500Y-86925000D01*
G75*
G02*
X183975000Y-86837500I0J87500D01*
G01*
G37*
G36*
G01*
X183975000Y-87337500D02*
X183975000Y-87162500D01*
G75*
G02*
X184062500Y-87075000I87500J0D01*
G01*
X184812500Y-87075000D01*
G75*
G02*
X184900000Y-87162500I0J-87500D01*
G01*
X184900000Y-87337500D01*
G75*
G02*
X184812500Y-87425000I-87500J0D01*
G01*
X184062500Y-87425000D01*
G75*
G02*
X183975000Y-87337500I0J87500D01*
G01*
G37*
G36*
G01*
X183975000Y-87837500D02*
X183975000Y-87662500D01*
G75*
G02*
X184062500Y-87575000I87500J0D01*
G01*
X184812500Y-87575000D01*
G75*
G02*
X184900000Y-87662500I0J-87500D01*
G01*
X184900000Y-87837500D01*
G75*
G02*
X184812500Y-87925000I-87500J0D01*
G01*
X184062500Y-87925000D01*
G75*
G02*
X183975000Y-87837500I0J87500D01*
G01*
G37*
G36*
G01*
X183975000Y-88337500D02*
X183975000Y-88162500D01*
G75*
G02*
X184062500Y-88075000I87500J0D01*
G01*
X184812500Y-88075000D01*
G75*
G02*
X184900000Y-88162500I0J-87500D01*
G01*
X184900000Y-88337500D01*
G75*
G02*
X184812500Y-88425000I-87500J0D01*
G01*
X184062500Y-88425000D01*
G75*
G02*
X183975000Y-88337500I0J87500D01*
G01*
G37*
G36*
G01*
X183325000Y-89562500D02*
X183325000Y-88812500D01*
G75*
G02*
X183412500Y-88725000I87500J0D01*
G01*
X183587500Y-88725000D01*
G75*
G02*
X183675000Y-88812500I0J-87500D01*
G01*
X183675000Y-89562500D01*
G75*
G02*
X183587500Y-89650000I-87500J0D01*
G01*
X183412500Y-89650000D01*
G75*
G02*
X183325000Y-89562500I0J87500D01*
G01*
G37*
G36*
G01*
X182825000Y-89562500D02*
X182825000Y-88812500D01*
G75*
G02*
X182912500Y-88725000I87500J0D01*
G01*
X183087500Y-88725000D01*
G75*
G02*
X183175000Y-88812500I0J-87500D01*
G01*
X183175000Y-89562500D01*
G75*
G02*
X183087500Y-89650000I-87500J0D01*
G01*
X182912500Y-89650000D01*
G75*
G02*
X182825000Y-89562500I0J87500D01*
G01*
G37*
G36*
G01*
X182325000Y-89562500D02*
X182325000Y-88812500D01*
G75*
G02*
X182412500Y-88725000I87500J0D01*
G01*
X182587500Y-88725000D01*
G75*
G02*
X182675000Y-88812500I0J-87500D01*
G01*
X182675000Y-89562500D01*
G75*
G02*
X182587500Y-89650000I-87500J0D01*
G01*
X182412500Y-89650000D01*
G75*
G02*
X182325000Y-89562500I0J87500D01*
G01*
G37*
G36*
G01*
X181825000Y-89562500D02*
X181825000Y-88812500D01*
G75*
G02*
X181912500Y-88725000I87500J0D01*
G01*
X182087500Y-88725000D01*
G75*
G02*
X182175000Y-88812500I0J-87500D01*
G01*
X182175000Y-89562500D01*
G75*
G02*
X182087500Y-89650000I-87500J0D01*
G01*
X181912500Y-89650000D01*
G75*
G02*
X181825000Y-89562500I0J87500D01*
G01*
G37*
G36*
G01*
X181325000Y-89562500D02*
X181325000Y-88812500D01*
G75*
G02*
X181412500Y-88725000I87500J0D01*
G01*
X181587500Y-88725000D01*
G75*
G02*
X181675000Y-88812500I0J-87500D01*
G01*
X181675000Y-89562500D01*
G75*
G02*
X181587500Y-89650000I-87500J0D01*
G01*
X181412500Y-89650000D01*
G75*
G02*
X181325000Y-89562500I0J87500D01*
G01*
G37*
G36*
G01*
X180100000Y-88337500D02*
X180100000Y-88162500D01*
G75*
G02*
X180187500Y-88075000I87500J0D01*
G01*
X180937500Y-88075000D01*
G75*
G02*
X181025000Y-88162500I0J-87500D01*
G01*
X181025000Y-88337500D01*
G75*
G02*
X180937500Y-88425000I-87500J0D01*
G01*
X180187500Y-88425000D01*
G75*
G02*
X180100000Y-88337500I0J87500D01*
G01*
G37*
G36*
G01*
X180100000Y-87837500D02*
X180100000Y-87662500D01*
G75*
G02*
X180187500Y-87575000I87500J0D01*
G01*
X180937500Y-87575000D01*
G75*
G02*
X181025000Y-87662500I0J-87500D01*
G01*
X181025000Y-87837500D01*
G75*
G02*
X180937500Y-87925000I-87500J0D01*
G01*
X180187500Y-87925000D01*
G75*
G02*
X180100000Y-87837500I0J87500D01*
G01*
G37*
G36*
G01*
X180100000Y-87337500D02*
X180100000Y-87162500D01*
G75*
G02*
X180187500Y-87075000I87500J0D01*
G01*
X180937500Y-87075000D01*
G75*
G02*
X181025000Y-87162500I0J-87500D01*
G01*
X181025000Y-87337500D01*
G75*
G02*
X180937500Y-87425000I-87500J0D01*
G01*
X180187500Y-87425000D01*
G75*
G02*
X180100000Y-87337500I0J87500D01*
G01*
G37*
G36*
G01*
X180100000Y-86837500D02*
X180100000Y-86662500D01*
G75*
G02*
X180187500Y-86575000I87500J0D01*
G01*
X180937500Y-86575000D01*
G75*
G02*
X181025000Y-86662500I0J-87500D01*
G01*
X181025000Y-86837500D01*
G75*
G02*
X180937500Y-86925000I-87500J0D01*
G01*
X180187500Y-86925000D01*
G75*
G02*
X180100000Y-86837500I0J87500D01*
G01*
G37*
G36*
G01*
X180100000Y-86337500D02*
X180100000Y-86162500D01*
G75*
G02*
X180187500Y-86075000I87500J0D01*
G01*
X180937500Y-86075000D01*
G75*
G02*
X181025000Y-86162500I0J-87500D01*
G01*
X181025000Y-86337500D01*
G75*
G02*
X180937500Y-86425000I-87500J0D01*
G01*
X180187500Y-86425000D01*
G75*
G02*
X180100000Y-86337500I0J87500D01*
G01*
G37*
%TD*%
%TO.C,R7*%
G36*
G01*
X171197500Y-93860000D02*
X170802500Y-93860000D01*
G75*
G02*
X170630000Y-93687500I0J172500D01*
G01*
X170630000Y-93342500D01*
G75*
G02*
X170802500Y-93170000I172500J0D01*
G01*
X171197500Y-93170000D01*
G75*
G02*
X171370000Y-93342500I0J-172500D01*
G01*
X171370000Y-93687500D01*
G75*
G02*
X171197500Y-93860000I-172500J0D01*
G01*
G37*
G36*
G01*
X171197500Y-94830000D02*
X170802500Y-94830000D01*
G75*
G02*
X170630000Y-94657500I0J172500D01*
G01*
X170630000Y-94312500D01*
G75*
G02*
X170802500Y-94140000I172500J0D01*
G01*
X171197500Y-94140000D01*
G75*
G02*
X171370000Y-94312500I0J-172500D01*
G01*
X171370000Y-94657500D01*
G75*
G02*
X171197500Y-94830000I-172500J0D01*
G01*
G37*
%TD*%
%TO.C,C18*%
G36*
G01*
X181660000Y-90302500D02*
X181660000Y-90697500D01*
G75*
G02*
X181487500Y-90870000I-172500J0D01*
G01*
X181142500Y-90870000D01*
G75*
G02*
X180970000Y-90697500I0J172500D01*
G01*
X180970000Y-90302500D01*
G75*
G02*
X181142500Y-90130000I172500J0D01*
G01*
X181487500Y-90130000D01*
G75*
G02*
X181660000Y-90302500I0J-172500D01*
G01*
G37*
G36*
G01*
X182630000Y-90302500D02*
X182630000Y-90697500D01*
G75*
G02*
X182457500Y-90870000I-172500J0D01*
G01*
X182112500Y-90870000D01*
G75*
G02*
X181940000Y-90697500I0J172500D01*
G01*
X181940000Y-90302500D01*
G75*
G02*
X182112500Y-90130000I172500J0D01*
G01*
X182457500Y-90130000D01*
G75*
G02*
X182630000Y-90302500I0J-172500D01*
G01*
G37*
%TD*%
%TO.C,R2*%
G36*
G01*
X172670000Y-81947500D02*
X172670000Y-81552500D01*
G75*
G02*
X172842500Y-81380000I172500J0D01*
G01*
X173187500Y-81380000D01*
G75*
G02*
X173360000Y-81552500I0J-172500D01*
G01*
X173360000Y-81947500D01*
G75*
G02*
X173187500Y-82120000I-172500J0D01*
G01*
X172842500Y-82120000D01*
G75*
G02*
X172670000Y-81947500I0J172500D01*
G01*
G37*
G36*
G01*
X173640000Y-81947500D02*
X173640000Y-81552500D01*
G75*
G02*
X173812500Y-81380000I172500J0D01*
G01*
X174157500Y-81380000D01*
G75*
G02*
X174330000Y-81552500I0J-172500D01*
G01*
X174330000Y-81947500D01*
G75*
G02*
X174157500Y-82120000I-172500J0D01*
G01*
X173812500Y-82120000D01*
G75*
G02*
X173640000Y-81947500I0J172500D01*
G01*
G37*
%TD*%
%TO.C,R1*%
G36*
G01*
X176330000Y-81552500D02*
X176330000Y-81947500D01*
G75*
G02*
X176157500Y-82120000I-172500J0D01*
G01*
X175812500Y-82120000D01*
G75*
G02*
X175640000Y-81947500I0J172500D01*
G01*
X175640000Y-81552500D01*
G75*
G02*
X175812500Y-81380000I172500J0D01*
G01*
X176157500Y-81380000D01*
G75*
G02*
X176330000Y-81552500I0J-172500D01*
G01*
G37*
G36*
G01*
X175360000Y-81552500D02*
X175360000Y-81947500D01*
G75*
G02*
X175187500Y-82120000I-172500J0D01*
G01*
X174842500Y-82120000D01*
G75*
G02*
X174670000Y-81947500I0J172500D01*
G01*
X174670000Y-81552500D01*
G75*
G02*
X174842500Y-81380000I172500J0D01*
G01*
X175187500Y-81380000D01*
G75*
G02*
X175360000Y-81552500I0J-172500D01*
G01*
G37*
%TD*%
%TO.C,R9*%
G36*
G01*
X179302500Y-94390000D02*
X179697500Y-94390000D01*
G75*
G02*
X179870000Y-94562500I0J-172500D01*
G01*
X179870000Y-94907500D01*
G75*
G02*
X179697500Y-95080000I-172500J0D01*
G01*
X179302500Y-95080000D01*
G75*
G02*
X179130000Y-94907500I0J172500D01*
G01*
X179130000Y-94562500D01*
G75*
G02*
X179302500Y-94390000I172500J0D01*
G01*
G37*
G36*
G01*
X179302500Y-93420000D02*
X179697500Y-93420000D01*
G75*
G02*
X179870000Y-93592500I0J-172500D01*
G01*
X179870000Y-93937500D01*
G75*
G02*
X179697500Y-94110000I-172500J0D01*
G01*
X179302500Y-94110000D01*
G75*
G02*
X179130000Y-93937500I0J172500D01*
G01*
X179130000Y-93592500D01*
G75*
G02*
X179302500Y-93420000I172500J0D01*
G01*
G37*
%TD*%
%TO.C,R8*%
G36*
G01*
X177697500Y-94110000D02*
X177302500Y-94110000D01*
G75*
G02*
X177130000Y-93937500I0J172500D01*
G01*
X177130000Y-93592500D01*
G75*
G02*
X177302500Y-93420000I172500J0D01*
G01*
X177697500Y-93420000D01*
G75*
G02*
X177870000Y-93592500I0J-172500D01*
G01*
X177870000Y-93937500D01*
G75*
G02*
X177697500Y-94110000I-172500J0D01*
G01*
G37*
G36*
G01*
X177697500Y-95080000D02*
X177302500Y-95080000D01*
G75*
G02*
X177130000Y-94907500I0J172500D01*
G01*
X177130000Y-94562500D01*
G75*
G02*
X177302500Y-94390000I172500J0D01*
G01*
X177697500Y-94390000D01*
G75*
G02*
X177870000Y-94562500I0J-172500D01*
G01*
X177870000Y-94907500D01*
G75*
G02*
X177697500Y-95080000I-172500J0D01*
G01*
G37*
%TD*%
%TO.C,R5*%
G36*
G01*
X184202500Y-79940000D02*
X184597500Y-79940000D01*
G75*
G02*
X184770000Y-80112500I0J-172500D01*
G01*
X184770000Y-80457500D01*
G75*
G02*
X184597500Y-80630000I-172500J0D01*
G01*
X184202500Y-80630000D01*
G75*
G02*
X184030000Y-80457500I0J172500D01*
G01*
X184030000Y-80112500D01*
G75*
G02*
X184202500Y-79940000I172500J0D01*
G01*
G37*
G36*
G01*
X184202500Y-78970000D02*
X184597500Y-78970000D01*
G75*
G02*
X184770000Y-79142500I0J-172500D01*
G01*
X184770000Y-79487500D01*
G75*
G02*
X184597500Y-79660000I-172500J0D01*
G01*
X184202500Y-79660000D01*
G75*
G02*
X184030000Y-79487500I0J172500D01*
G01*
X184030000Y-79142500D01*
G75*
G02*
X184202500Y-78970000I172500J0D01*
G01*
G37*
%TD*%
%TO.C,R4*%
G36*
G01*
X177947500Y-81080000D02*
X177552500Y-81080000D01*
G75*
G02*
X177380000Y-80907500I0J172500D01*
G01*
X177380000Y-80562500D01*
G75*
G02*
X177552500Y-80390000I172500J0D01*
G01*
X177947500Y-80390000D01*
G75*
G02*
X178120000Y-80562500I0J-172500D01*
G01*
X178120000Y-80907500D01*
G75*
G02*
X177947500Y-81080000I-172500J0D01*
G01*
G37*
G36*
G01*
X177947500Y-80110000D02*
X177552500Y-80110000D01*
G75*
G02*
X177380000Y-79937500I0J172500D01*
G01*
X177380000Y-79592500D01*
G75*
G02*
X177552500Y-79420000I172500J0D01*
G01*
X177947500Y-79420000D01*
G75*
G02*
X178120000Y-79592500I0J-172500D01*
G01*
X178120000Y-79937500D01*
G75*
G02*
X177947500Y-80110000I-172500J0D01*
G01*
G37*
%TD*%
%TO.C,R3*%
G36*
G01*
X172447500Y-88580000D02*
X172052500Y-88580000D01*
G75*
G02*
X171880000Y-88407500I0J172500D01*
G01*
X171880000Y-88062500D01*
G75*
G02*
X172052500Y-87890000I172500J0D01*
G01*
X172447500Y-87890000D01*
G75*
G02*
X172620000Y-88062500I0J-172500D01*
G01*
X172620000Y-88407500D01*
G75*
G02*
X172447500Y-88580000I-172500J0D01*
G01*
G37*
G36*
G01*
X172447500Y-87610000D02*
X172052500Y-87610000D01*
G75*
G02*
X171880000Y-87437500I0J172500D01*
G01*
X171880000Y-87092500D01*
G75*
G02*
X172052500Y-86920000I172500J0D01*
G01*
X172447500Y-86920000D01*
G75*
G02*
X172620000Y-87092500I0J-172500D01*
G01*
X172620000Y-87437500D01*
G75*
G02*
X172447500Y-87610000I-172500J0D01*
G01*
G37*
%TD*%
%TO.C,R6*%
G36*
G01*
X185247500Y-83360000D02*
X184852500Y-83360000D01*
G75*
G02*
X184680000Y-83187500I0J172500D01*
G01*
X184680000Y-82842500D01*
G75*
G02*
X184852500Y-82670000I172500J0D01*
G01*
X185247500Y-82670000D01*
G75*
G02*
X185420000Y-82842500I0J-172500D01*
G01*
X185420000Y-83187500D01*
G75*
G02*
X185247500Y-83360000I-172500J0D01*
G01*
G37*
G36*
G01*
X185247500Y-84330000D02*
X184852500Y-84330000D01*
G75*
G02*
X184680000Y-84157500I0J172500D01*
G01*
X184680000Y-83812500D01*
G75*
G02*
X184852500Y-83640000I172500J0D01*
G01*
X185247500Y-83640000D01*
G75*
G02*
X185420000Y-83812500I0J-172500D01*
G01*
X185420000Y-84157500D01*
G75*
G02*
X185247500Y-84330000I-172500J0D01*
G01*
G37*
%TD*%
%TO.C,R10*%
G36*
G01*
X184110000Y-90302500D02*
X184110000Y-90697500D01*
G75*
G02*
X183937500Y-90870000I-172500J0D01*
G01*
X183592500Y-90870000D01*
G75*
G02*
X183420000Y-90697500I0J172500D01*
G01*
X183420000Y-90302500D01*
G75*
G02*
X183592500Y-90130000I172500J0D01*
G01*
X183937500Y-90130000D01*
G75*
G02*
X184110000Y-90302500I0J-172500D01*
G01*
G37*
G36*
G01*
X185080000Y-90302500D02*
X185080000Y-90697500D01*
G75*
G02*
X184907500Y-90870000I-172500J0D01*
G01*
X184562500Y-90870000D01*
G75*
G02*
X184390000Y-90697500I0J172500D01*
G01*
X184390000Y-90302500D01*
G75*
G02*
X184562500Y-90130000I172500J0D01*
G01*
X184907500Y-90130000D01*
G75*
G02*
X185080000Y-90302500I0J-172500D01*
G01*
G37*
%TD*%
D16*
%TO.C,Y1*%
X182650000Y-91900000D03*
X184850000Y-91900000D03*
X184850000Y-93600000D03*
X182650000Y-93600000D03*
%TD*%
D17*
%TO.C,U2*%
G36*
X173825241Y-89043737D02*
G01*
X173826106Y-89034958D01*
X173828017Y-89025351D01*
X173830577Y-89016909D01*
X173834330Y-89007847D01*
X173838489Y-89000067D01*
X173843933Y-88991920D01*
X173849529Y-88985101D01*
X173852825Y-88981465D01*
X173986465Y-88847825D01*
X173990101Y-88844529D01*
X173996920Y-88838933D01*
X174005067Y-88833489D01*
X174012847Y-88829330D01*
X174021909Y-88825577D01*
X174030351Y-88823017D01*
X174039958Y-88821106D01*
X174048737Y-88820241D01*
X174053640Y-88820000D01*
X174080000Y-88820000D01*
X174084903Y-88820241D01*
X174093682Y-88821106D01*
X174103289Y-88823017D01*
X174111731Y-88825577D01*
X174120793Y-88829330D01*
X174128573Y-88833489D01*
X174136720Y-88838933D01*
X174143539Y-88844529D01*
X174150471Y-88851461D01*
X174156067Y-88858280D01*
X174161511Y-88866427D01*
X174165670Y-88874207D01*
X174169423Y-88883269D01*
X174171983Y-88891711D01*
X174173894Y-88901318D01*
X174174759Y-88910097D01*
X174175000Y-88915000D01*
X174175000Y-89580000D01*
X174174759Y-89584903D01*
X174173894Y-89593682D01*
X174171983Y-89603289D01*
X174169423Y-89611731D01*
X174165670Y-89620793D01*
X174161511Y-89628573D01*
X174156067Y-89636720D01*
X174150471Y-89643539D01*
X174143539Y-89650471D01*
X174136720Y-89656067D01*
X174128573Y-89661511D01*
X174120793Y-89665670D01*
X174111731Y-89669423D01*
X174103289Y-89671983D01*
X174093682Y-89673894D01*
X174084903Y-89674759D01*
X174080000Y-89675000D01*
X173920000Y-89675000D01*
X173915097Y-89674759D01*
X173906318Y-89673894D01*
X173896711Y-89671983D01*
X173888269Y-89669423D01*
X173879207Y-89665670D01*
X173871427Y-89661511D01*
X173863280Y-89656067D01*
X173856461Y-89650471D01*
X173849529Y-89643539D01*
X173843933Y-89636720D01*
X173838489Y-89628573D01*
X173834330Y-89620793D01*
X173830577Y-89611731D01*
X173828017Y-89603289D01*
X173826106Y-89593682D01*
X173825241Y-89584903D01*
X173825000Y-89580000D01*
X173825000Y-89048640D01*
X173825241Y-89043737D01*
G37*
G36*
G01*
X174587500Y-89675000D02*
X174412500Y-89675000D01*
G75*
G02*
X174325000Y-89587500I0J87500D01*
G01*
X174325000Y-88787500D01*
G75*
G02*
X174412500Y-88700000I87500J0D01*
G01*
X174587500Y-88700000D01*
G75*
G02*
X174675000Y-88787500I0J-87500D01*
G01*
X174675000Y-89587500D01*
G75*
G02*
X174587500Y-89675000I-87500J0D01*
G01*
G37*
G36*
G01*
X175087500Y-89675000D02*
X174912500Y-89675000D01*
G75*
G02*
X174825000Y-89587500I0J87500D01*
G01*
X174825000Y-88787500D01*
G75*
G02*
X174912500Y-88700000I87500J0D01*
G01*
X175087500Y-88700000D01*
G75*
G02*
X175175000Y-88787500I0J-87500D01*
G01*
X175175000Y-89587500D01*
G75*
G02*
X175087500Y-89675000I-87500J0D01*
G01*
G37*
G36*
G01*
X175587500Y-89675000D02*
X175412500Y-89675000D01*
G75*
G02*
X175325000Y-89587500I0J87500D01*
G01*
X175325000Y-88787500D01*
G75*
G02*
X175412500Y-88700000I87500J0D01*
G01*
X175587500Y-88700000D01*
G75*
G02*
X175675000Y-88787500I0J-87500D01*
G01*
X175675000Y-89587500D01*
G75*
G02*
X175587500Y-89675000I-87500J0D01*
G01*
G37*
G36*
G01*
X176087500Y-89675000D02*
X175912500Y-89675000D01*
G75*
G02*
X175825000Y-89587500I0J87500D01*
G01*
X175825000Y-88787500D01*
G75*
G02*
X175912500Y-88700000I87500J0D01*
G01*
X176087500Y-88700000D01*
G75*
G02*
X176175000Y-88787500I0J-87500D01*
G01*
X176175000Y-89587500D01*
G75*
G02*
X176087500Y-89675000I-87500J0D01*
G01*
G37*
G36*
G01*
X176587500Y-89675000D02*
X176412500Y-89675000D01*
G75*
G02*
X176325000Y-89587500I0J87500D01*
G01*
X176325000Y-88787500D01*
G75*
G02*
X176412500Y-88700000I87500J0D01*
G01*
X176587500Y-88700000D01*
G75*
G02*
X176675000Y-88787500I0J-87500D01*
G01*
X176675000Y-89587500D01*
G75*
G02*
X176587500Y-89675000I-87500J0D01*
G01*
G37*
G36*
X176825241Y-88910097D02*
G01*
X176826106Y-88901318D01*
X176828017Y-88891711D01*
X176830577Y-88883269D01*
X176834330Y-88874207D01*
X176838489Y-88866427D01*
X176843933Y-88858280D01*
X176849529Y-88851461D01*
X176856461Y-88844529D01*
X176863280Y-88838933D01*
X176871427Y-88833489D01*
X176879207Y-88829330D01*
X176888269Y-88825577D01*
X176896711Y-88823017D01*
X176906318Y-88821106D01*
X176915097Y-88820241D01*
X176920000Y-88820000D01*
X176946360Y-88820000D01*
X176951263Y-88820241D01*
X176960042Y-88821106D01*
X176969649Y-88823017D01*
X176978091Y-88825577D01*
X176987153Y-88829330D01*
X176994933Y-88833489D01*
X177003080Y-88838933D01*
X177009899Y-88844529D01*
X177013535Y-88847825D01*
X177147175Y-88981465D01*
X177150471Y-88985101D01*
X177156067Y-88991920D01*
X177161511Y-89000067D01*
X177165670Y-89007847D01*
X177169423Y-89016909D01*
X177171983Y-89025351D01*
X177173894Y-89034958D01*
X177174759Y-89043737D01*
X177175000Y-89048640D01*
X177175000Y-89580000D01*
X177174759Y-89584903D01*
X177173894Y-89593682D01*
X177171983Y-89603289D01*
X177169423Y-89611731D01*
X177165670Y-89620793D01*
X177161511Y-89628573D01*
X177156067Y-89636720D01*
X177150471Y-89643539D01*
X177143539Y-89650471D01*
X177136720Y-89656067D01*
X177128573Y-89661511D01*
X177120793Y-89665670D01*
X177111731Y-89669423D01*
X177103289Y-89671983D01*
X177093682Y-89673894D01*
X177084903Y-89674759D01*
X177080000Y-89675000D01*
X176920000Y-89675000D01*
X176915097Y-89674759D01*
X176906318Y-89673894D01*
X176896711Y-89671983D01*
X176888269Y-89669423D01*
X176879207Y-89665670D01*
X176871427Y-89661511D01*
X176863280Y-89656067D01*
X176856461Y-89650471D01*
X176849529Y-89643539D01*
X176843933Y-89636720D01*
X176838489Y-89628573D01*
X176834330Y-89620793D01*
X176830577Y-89611731D01*
X176828017Y-89603289D01*
X176826106Y-89593682D01*
X176825241Y-89584903D01*
X176825000Y-89580000D01*
X176825000Y-88915000D01*
X176825241Y-88910097D01*
G37*
G36*
X177070241Y-88665097D02*
G01*
X177071106Y-88656318D01*
X177073017Y-88646711D01*
X177075577Y-88638269D01*
X177079330Y-88629207D01*
X177083489Y-88621427D01*
X177088933Y-88613280D01*
X177094529Y-88606461D01*
X177101461Y-88599529D01*
X177108280Y-88593933D01*
X177116427Y-88588489D01*
X177124207Y-88584330D01*
X177133269Y-88580577D01*
X177141711Y-88578017D01*
X177151318Y-88576106D01*
X177160097Y-88575241D01*
X177165000Y-88575000D01*
X177830000Y-88575000D01*
X177834903Y-88575241D01*
X177843682Y-88576106D01*
X177853289Y-88578017D01*
X177861731Y-88580577D01*
X177870793Y-88584330D01*
X177878573Y-88588489D01*
X177886720Y-88593933D01*
X177893539Y-88599529D01*
X177900471Y-88606461D01*
X177906067Y-88613280D01*
X177911511Y-88621427D01*
X177915670Y-88629207D01*
X177919423Y-88638269D01*
X177921983Y-88646711D01*
X177923894Y-88656318D01*
X177924759Y-88665097D01*
X177925000Y-88670000D01*
X177925000Y-88830000D01*
X177924759Y-88834903D01*
X177923894Y-88843682D01*
X177921983Y-88853289D01*
X177919423Y-88861731D01*
X177915670Y-88870793D01*
X177911511Y-88878573D01*
X177906067Y-88886720D01*
X177900471Y-88893539D01*
X177893539Y-88900471D01*
X177886720Y-88906067D01*
X177878573Y-88911511D01*
X177870793Y-88915670D01*
X177861731Y-88919423D01*
X177853289Y-88921983D01*
X177843682Y-88923894D01*
X177834903Y-88924759D01*
X177830000Y-88925000D01*
X177298640Y-88925000D01*
X177293737Y-88924759D01*
X177284958Y-88923894D01*
X177275351Y-88921983D01*
X177266909Y-88919423D01*
X177257847Y-88915670D01*
X177250067Y-88911511D01*
X177241920Y-88906067D01*
X177235101Y-88900471D01*
X177231465Y-88897175D01*
X177097825Y-88763535D01*
X177094529Y-88759899D01*
X177088933Y-88753080D01*
X177083489Y-88744933D01*
X177079330Y-88737153D01*
X177075577Y-88728091D01*
X177073017Y-88719649D01*
X177071106Y-88710042D01*
X177070241Y-88701263D01*
X177070000Y-88696360D01*
X177070000Y-88670000D01*
X177070241Y-88665097D01*
G37*
G36*
G01*
X177837500Y-88425000D02*
X177037500Y-88425000D01*
G75*
G02*
X176950000Y-88337500I0J87500D01*
G01*
X176950000Y-88162500D01*
G75*
G02*
X177037500Y-88075000I87500J0D01*
G01*
X177837500Y-88075000D01*
G75*
G02*
X177925000Y-88162500I0J-87500D01*
G01*
X177925000Y-88337500D01*
G75*
G02*
X177837500Y-88425000I-87500J0D01*
G01*
G37*
G36*
G01*
X177837500Y-87925000D02*
X177037500Y-87925000D01*
G75*
G02*
X176950000Y-87837500I0J87500D01*
G01*
X176950000Y-87662500D01*
G75*
G02*
X177037500Y-87575000I87500J0D01*
G01*
X177837500Y-87575000D01*
G75*
G02*
X177925000Y-87662500I0J-87500D01*
G01*
X177925000Y-87837500D01*
G75*
G02*
X177837500Y-87925000I-87500J0D01*
G01*
G37*
G36*
G01*
X177837500Y-87425000D02*
X177037500Y-87425000D01*
G75*
G02*
X176950000Y-87337500I0J87500D01*
G01*
X176950000Y-87162500D01*
G75*
G02*
X177037500Y-87075000I87500J0D01*
G01*
X177837500Y-87075000D01*
G75*
G02*
X177925000Y-87162500I0J-87500D01*
G01*
X177925000Y-87337500D01*
G75*
G02*
X177837500Y-87425000I-87500J0D01*
G01*
G37*
G36*
G01*
X177837500Y-86925000D02*
X177037500Y-86925000D01*
G75*
G02*
X176950000Y-86837500I0J87500D01*
G01*
X176950000Y-86662500D01*
G75*
G02*
X177037500Y-86575000I87500J0D01*
G01*
X177837500Y-86575000D01*
G75*
G02*
X177925000Y-86662500I0J-87500D01*
G01*
X177925000Y-86837500D01*
G75*
G02*
X177837500Y-86925000I-87500J0D01*
G01*
G37*
G36*
G01*
X177837500Y-86425000D02*
X177037500Y-86425000D01*
G75*
G02*
X176950000Y-86337500I0J87500D01*
G01*
X176950000Y-86162500D01*
G75*
G02*
X177037500Y-86075000I87500J0D01*
G01*
X177837500Y-86075000D01*
G75*
G02*
X177925000Y-86162500I0J-87500D01*
G01*
X177925000Y-86337500D01*
G75*
G02*
X177837500Y-86425000I-87500J0D01*
G01*
G37*
G36*
X177070241Y-85798737D02*
G01*
X177071106Y-85789958D01*
X177073017Y-85780351D01*
X177075577Y-85771909D01*
X177079330Y-85762847D01*
X177083489Y-85755067D01*
X177088933Y-85746920D01*
X177094529Y-85740101D01*
X177097825Y-85736465D01*
X177231465Y-85602825D01*
X177235101Y-85599529D01*
X177241920Y-85593933D01*
X177250067Y-85588489D01*
X177257847Y-85584330D01*
X177266909Y-85580577D01*
X177275351Y-85578017D01*
X177284958Y-85576106D01*
X177293737Y-85575241D01*
X177298640Y-85575000D01*
X177830000Y-85575000D01*
X177834903Y-85575241D01*
X177843682Y-85576106D01*
X177853289Y-85578017D01*
X177861731Y-85580577D01*
X177870793Y-85584330D01*
X177878573Y-85588489D01*
X177886720Y-85593933D01*
X177893539Y-85599529D01*
X177900471Y-85606461D01*
X177906067Y-85613280D01*
X177911511Y-85621427D01*
X177915670Y-85629207D01*
X177919423Y-85638269D01*
X177921983Y-85646711D01*
X177923894Y-85656318D01*
X177924759Y-85665097D01*
X177925000Y-85670000D01*
X177925000Y-85830000D01*
X177924759Y-85834903D01*
X177923894Y-85843682D01*
X177921983Y-85853289D01*
X177919423Y-85861731D01*
X177915670Y-85870793D01*
X177911511Y-85878573D01*
X177906067Y-85886720D01*
X177900471Y-85893539D01*
X177893539Y-85900471D01*
X177886720Y-85906067D01*
X177878573Y-85911511D01*
X177870793Y-85915670D01*
X177861731Y-85919423D01*
X177853289Y-85921983D01*
X177843682Y-85923894D01*
X177834903Y-85924759D01*
X177830000Y-85925000D01*
X177165000Y-85925000D01*
X177160097Y-85924759D01*
X177151318Y-85923894D01*
X177141711Y-85921983D01*
X177133269Y-85919423D01*
X177124207Y-85915670D01*
X177116427Y-85911511D01*
X177108280Y-85906067D01*
X177101461Y-85900471D01*
X177094529Y-85893539D01*
X177088933Y-85886720D01*
X177083489Y-85878573D01*
X177079330Y-85870793D01*
X177075577Y-85861731D01*
X177073017Y-85853289D01*
X177071106Y-85843682D01*
X177070241Y-85834903D01*
X177070000Y-85830000D01*
X177070000Y-85803640D01*
X177070241Y-85798737D01*
G37*
G36*
X176825241Y-84915097D02*
G01*
X176826106Y-84906318D01*
X176828017Y-84896711D01*
X176830577Y-84888269D01*
X176834330Y-84879207D01*
X176838489Y-84871427D01*
X176843933Y-84863280D01*
X176849529Y-84856461D01*
X176856461Y-84849529D01*
X176863280Y-84843933D01*
X176871427Y-84838489D01*
X176879207Y-84834330D01*
X176888269Y-84830577D01*
X176896711Y-84828017D01*
X176906318Y-84826106D01*
X176915097Y-84825241D01*
X176920000Y-84825000D01*
X177080000Y-84825000D01*
X177084903Y-84825241D01*
X177093682Y-84826106D01*
X177103289Y-84828017D01*
X177111731Y-84830577D01*
X177120793Y-84834330D01*
X177128573Y-84838489D01*
X177136720Y-84843933D01*
X177143539Y-84849529D01*
X177150471Y-84856461D01*
X177156067Y-84863280D01*
X177161511Y-84871427D01*
X177165670Y-84879207D01*
X177169423Y-84888269D01*
X177171983Y-84896711D01*
X177173894Y-84906318D01*
X177174759Y-84915097D01*
X177175000Y-84920000D01*
X177175000Y-85451360D01*
X177174759Y-85456263D01*
X177173894Y-85465042D01*
X177171983Y-85474649D01*
X177169423Y-85483091D01*
X177165670Y-85492153D01*
X177161511Y-85499933D01*
X177156067Y-85508080D01*
X177150471Y-85514899D01*
X177147175Y-85518535D01*
X177013535Y-85652175D01*
X177009899Y-85655471D01*
X177003080Y-85661067D01*
X176994933Y-85666511D01*
X176987153Y-85670670D01*
X176978091Y-85674423D01*
X176969649Y-85676983D01*
X176960042Y-85678894D01*
X176951263Y-85679759D01*
X176946360Y-85680000D01*
X176920000Y-85680000D01*
X176915097Y-85679759D01*
X176906318Y-85678894D01*
X176896711Y-85676983D01*
X176888269Y-85674423D01*
X176879207Y-85670670D01*
X176871427Y-85666511D01*
X176863280Y-85661067D01*
X176856461Y-85655471D01*
X176849529Y-85648539D01*
X176843933Y-85641720D01*
X176838489Y-85633573D01*
X176834330Y-85625793D01*
X176830577Y-85616731D01*
X176828017Y-85608289D01*
X176826106Y-85598682D01*
X176825241Y-85589903D01*
X176825000Y-85585000D01*
X176825000Y-84920000D01*
X176825241Y-84915097D01*
G37*
G36*
G01*
X176587500Y-85800000D02*
X176412500Y-85800000D01*
G75*
G02*
X176325000Y-85712500I0J87500D01*
G01*
X176325000Y-84912500D01*
G75*
G02*
X176412500Y-84825000I87500J0D01*
G01*
X176587500Y-84825000D01*
G75*
G02*
X176675000Y-84912500I0J-87500D01*
G01*
X176675000Y-85712500D01*
G75*
G02*
X176587500Y-85800000I-87500J0D01*
G01*
G37*
G36*
G01*
X176087500Y-85800000D02*
X175912500Y-85800000D01*
G75*
G02*
X175825000Y-85712500I0J87500D01*
G01*
X175825000Y-84912500D01*
G75*
G02*
X175912500Y-84825000I87500J0D01*
G01*
X176087500Y-84825000D01*
G75*
G02*
X176175000Y-84912500I0J-87500D01*
G01*
X176175000Y-85712500D01*
G75*
G02*
X176087500Y-85800000I-87500J0D01*
G01*
G37*
G36*
G01*
X175587500Y-85800000D02*
X175412500Y-85800000D01*
G75*
G02*
X175325000Y-85712500I0J87500D01*
G01*
X175325000Y-84912500D01*
G75*
G02*
X175412500Y-84825000I87500J0D01*
G01*
X175587500Y-84825000D01*
G75*
G02*
X175675000Y-84912500I0J-87500D01*
G01*
X175675000Y-85712500D01*
G75*
G02*
X175587500Y-85800000I-87500J0D01*
G01*
G37*
G36*
G01*
X175087500Y-85800000D02*
X174912500Y-85800000D01*
G75*
G02*
X174825000Y-85712500I0J87500D01*
G01*
X174825000Y-84912500D01*
G75*
G02*
X174912500Y-84825000I87500J0D01*
G01*
X175087500Y-84825000D01*
G75*
G02*
X175175000Y-84912500I0J-87500D01*
G01*
X175175000Y-85712500D01*
G75*
G02*
X175087500Y-85800000I-87500J0D01*
G01*
G37*
G36*
G01*
X174587500Y-85800000D02*
X174412500Y-85800000D01*
G75*
G02*
X174325000Y-85712500I0J87500D01*
G01*
X174325000Y-84912500D01*
G75*
G02*
X174412500Y-84825000I87500J0D01*
G01*
X174587500Y-84825000D01*
G75*
G02*
X174675000Y-84912500I0J-87500D01*
G01*
X174675000Y-85712500D01*
G75*
G02*
X174587500Y-85800000I-87500J0D01*
G01*
G37*
G36*
X173825241Y-84915097D02*
G01*
X173826106Y-84906318D01*
X173828017Y-84896711D01*
X173830577Y-84888269D01*
X173834330Y-84879207D01*
X173838489Y-84871427D01*
X173843933Y-84863280D01*
X173849529Y-84856461D01*
X173856461Y-84849529D01*
X173863280Y-84843933D01*
X173871427Y-84838489D01*
X173879207Y-84834330D01*
X173888269Y-84830577D01*
X173896711Y-84828017D01*
X173906318Y-84826106D01*
X173915097Y-84825241D01*
X173920000Y-84825000D01*
X174080000Y-84825000D01*
X174084903Y-84825241D01*
X174093682Y-84826106D01*
X174103289Y-84828017D01*
X174111731Y-84830577D01*
X174120793Y-84834330D01*
X174128573Y-84838489D01*
X174136720Y-84843933D01*
X174143539Y-84849529D01*
X174150471Y-84856461D01*
X174156067Y-84863280D01*
X174161511Y-84871427D01*
X174165670Y-84879207D01*
X174169423Y-84888269D01*
X174171983Y-84896711D01*
X174173894Y-84906318D01*
X174174759Y-84915097D01*
X174175000Y-84920000D01*
X174175000Y-85585000D01*
X174174759Y-85589903D01*
X174173894Y-85598682D01*
X174171983Y-85608289D01*
X174169423Y-85616731D01*
X174165670Y-85625793D01*
X174161511Y-85633573D01*
X174156067Y-85641720D01*
X174150471Y-85648539D01*
X174143539Y-85655471D01*
X174136720Y-85661067D01*
X174128573Y-85666511D01*
X174120793Y-85670670D01*
X174111731Y-85674423D01*
X174103289Y-85676983D01*
X174093682Y-85678894D01*
X174084903Y-85679759D01*
X174080000Y-85680000D01*
X174053640Y-85680000D01*
X174048737Y-85679759D01*
X174039958Y-85678894D01*
X174030351Y-85676983D01*
X174021909Y-85674423D01*
X174012847Y-85670670D01*
X174005067Y-85666511D01*
X173996920Y-85661067D01*
X173990101Y-85655471D01*
X173986465Y-85652175D01*
X173852825Y-85518535D01*
X173849529Y-85514899D01*
X173843933Y-85508080D01*
X173838489Y-85499933D01*
X173834330Y-85492153D01*
X173830577Y-85483091D01*
X173828017Y-85474649D01*
X173826106Y-85465042D01*
X173825241Y-85456263D01*
X173825000Y-85451360D01*
X173825000Y-84920000D01*
X173825241Y-84915097D01*
G37*
G36*
X173075241Y-85665097D02*
G01*
X173076106Y-85656318D01*
X173078017Y-85646711D01*
X173080577Y-85638269D01*
X173084330Y-85629207D01*
X173088489Y-85621427D01*
X173093933Y-85613280D01*
X173099529Y-85606461D01*
X173106461Y-85599529D01*
X173113280Y-85593933D01*
X173121427Y-85588489D01*
X173129207Y-85584330D01*
X173138269Y-85580577D01*
X173146711Y-85578017D01*
X173156318Y-85576106D01*
X173165097Y-85575241D01*
X173170000Y-85575000D01*
X173701360Y-85575000D01*
X173706263Y-85575241D01*
X173715042Y-85576106D01*
X173724649Y-85578017D01*
X173733091Y-85580577D01*
X173742153Y-85584330D01*
X173749933Y-85588489D01*
X173758080Y-85593933D01*
X173764899Y-85599529D01*
X173768535Y-85602825D01*
X173902175Y-85736465D01*
X173905471Y-85740101D01*
X173911067Y-85746920D01*
X173916511Y-85755067D01*
X173920670Y-85762847D01*
X173924423Y-85771909D01*
X173926983Y-85780351D01*
X173928894Y-85789958D01*
X173929759Y-85798737D01*
X173930000Y-85803640D01*
X173930000Y-85830000D01*
X173929759Y-85834903D01*
X173928894Y-85843682D01*
X173926983Y-85853289D01*
X173924423Y-85861731D01*
X173920670Y-85870793D01*
X173916511Y-85878573D01*
X173911067Y-85886720D01*
X173905471Y-85893539D01*
X173898539Y-85900471D01*
X173891720Y-85906067D01*
X173883573Y-85911511D01*
X173875793Y-85915670D01*
X173866731Y-85919423D01*
X173858289Y-85921983D01*
X173848682Y-85923894D01*
X173839903Y-85924759D01*
X173835000Y-85925000D01*
X173170000Y-85925000D01*
X173165097Y-85924759D01*
X173156318Y-85923894D01*
X173146711Y-85921983D01*
X173138269Y-85919423D01*
X173129207Y-85915670D01*
X173121427Y-85911511D01*
X173113280Y-85906067D01*
X173106461Y-85900471D01*
X173099529Y-85893539D01*
X173093933Y-85886720D01*
X173088489Y-85878573D01*
X173084330Y-85870793D01*
X173080577Y-85861731D01*
X173078017Y-85853289D01*
X173076106Y-85843682D01*
X173075241Y-85834903D01*
X173075000Y-85830000D01*
X173075000Y-85670000D01*
X173075241Y-85665097D01*
G37*
G36*
G01*
X173962500Y-86425000D02*
X173162500Y-86425000D01*
G75*
G02*
X173075000Y-86337500I0J87500D01*
G01*
X173075000Y-86162500D01*
G75*
G02*
X173162500Y-86075000I87500J0D01*
G01*
X173962500Y-86075000D01*
G75*
G02*
X174050000Y-86162500I0J-87500D01*
G01*
X174050000Y-86337500D01*
G75*
G02*
X173962500Y-86425000I-87500J0D01*
G01*
G37*
G36*
G01*
X173962500Y-86925000D02*
X173162500Y-86925000D01*
G75*
G02*
X173075000Y-86837500I0J87500D01*
G01*
X173075000Y-86662500D01*
G75*
G02*
X173162500Y-86575000I87500J0D01*
G01*
X173962500Y-86575000D01*
G75*
G02*
X174050000Y-86662500I0J-87500D01*
G01*
X174050000Y-86837500D01*
G75*
G02*
X173962500Y-86925000I-87500J0D01*
G01*
G37*
G36*
G01*
X173962500Y-87425000D02*
X173162500Y-87425000D01*
G75*
G02*
X173075000Y-87337500I0J87500D01*
G01*
X173075000Y-87162500D01*
G75*
G02*
X173162500Y-87075000I87500J0D01*
G01*
X173962500Y-87075000D01*
G75*
G02*
X174050000Y-87162500I0J-87500D01*
G01*
X174050000Y-87337500D01*
G75*
G02*
X173962500Y-87425000I-87500J0D01*
G01*
G37*
G36*
G01*
X173962500Y-87925000D02*
X173162500Y-87925000D01*
G75*
G02*
X173075000Y-87837500I0J87500D01*
G01*
X173075000Y-87662500D01*
G75*
G02*
X173162500Y-87575000I87500J0D01*
G01*
X173962500Y-87575000D01*
G75*
G02*
X174050000Y-87662500I0J-87500D01*
G01*
X174050000Y-87837500D01*
G75*
G02*
X173962500Y-87925000I-87500J0D01*
G01*
G37*
G36*
G01*
X173962500Y-88425000D02*
X173162500Y-88425000D01*
G75*
G02*
X173075000Y-88337500I0J87500D01*
G01*
X173075000Y-88162500D01*
G75*
G02*
X173162500Y-88075000I87500J0D01*
G01*
X173962500Y-88075000D01*
G75*
G02*
X174050000Y-88162500I0J-87500D01*
G01*
X174050000Y-88337500D01*
G75*
G02*
X173962500Y-88425000I-87500J0D01*
G01*
G37*
G36*
X173075241Y-88665097D02*
G01*
X173076106Y-88656318D01*
X173078017Y-88646711D01*
X173080577Y-88638269D01*
X173084330Y-88629207D01*
X173088489Y-88621427D01*
X173093933Y-88613280D01*
X173099529Y-88606461D01*
X173106461Y-88599529D01*
X173113280Y-88593933D01*
X173121427Y-88588489D01*
X173129207Y-88584330D01*
X173138269Y-88580577D01*
X173146711Y-88578017D01*
X173156318Y-88576106D01*
X173165097Y-88575241D01*
X173170000Y-88575000D01*
X173835000Y-88575000D01*
X173839903Y-88575241D01*
X173848682Y-88576106D01*
X173858289Y-88578017D01*
X173866731Y-88580577D01*
X173875793Y-88584330D01*
X173883573Y-88588489D01*
X173891720Y-88593933D01*
X173898539Y-88599529D01*
X173905471Y-88606461D01*
X173911067Y-88613280D01*
X173916511Y-88621427D01*
X173920670Y-88629207D01*
X173924423Y-88638269D01*
X173926983Y-88646711D01*
X173928894Y-88656318D01*
X173929759Y-88665097D01*
X173930000Y-88670000D01*
X173930000Y-88696360D01*
X173929759Y-88701263D01*
X173928894Y-88710042D01*
X173926983Y-88719649D01*
X173924423Y-88728091D01*
X173920670Y-88737153D01*
X173916511Y-88744933D01*
X173911067Y-88753080D01*
X173905471Y-88759899D01*
X173902175Y-88763535D01*
X173768535Y-88897175D01*
X173764899Y-88900471D01*
X173758080Y-88906067D01*
X173749933Y-88911511D01*
X173742153Y-88915670D01*
X173733091Y-88919423D01*
X173724649Y-88921983D01*
X173715042Y-88923894D01*
X173706263Y-88924759D01*
X173701360Y-88925000D01*
X173170000Y-88925000D01*
X173165097Y-88924759D01*
X173156318Y-88923894D01*
X173146711Y-88921983D01*
X173138269Y-88919423D01*
X173129207Y-88915670D01*
X173121427Y-88911511D01*
X173113280Y-88906067D01*
X173106461Y-88900471D01*
X173099529Y-88893539D01*
X173093933Y-88886720D01*
X173088489Y-88878573D01*
X173084330Y-88870793D01*
X173080577Y-88861731D01*
X173078017Y-88853289D01*
X173076106Y-88843682D01*
X173075241Y-88834903D01*
X173075000Y-88830000D01*
X173075000Y-88670000D01*
X173075241Y-88665097D01*
G37*
%TD*%
D18*
%TO.C,U1*%
X174000000Y-76500000D03*
G36*
G01*
X175000000Y-75625000D02*
X175000000Y-75375000D01*
G75*
G02*
X175125000Y-75250000I125000J0D01*
G01*
X175775000Y-75250000D01*
G75*
G02*
X175900000Y-75375000I0J-125000D01*
G01*
X175900000Y-75625000D01*
G75*
G02*
X175775000Y-75750000I-125000J0D01*
G01*
X175125000Y-75750000D01*
G75*
G02*
X175000000Y-75625000I0J125000D01*
G01*
G37*
G36*
G01*
X175000000Y-76625000D02*
X175000000Y-76375000D01*
G75*
G02*
X175125000Y-76250000I125000J0D01*
G01*
X175775000Y-76250000D01*
G75*
G02*
X175900000Y-76375000I0J-125000D01*
G01*
X175900000Y-76625000D01*
G75*
G02*
X175775000Y-76750000I-125000J0D01*
G01*
X175125000Y-76750000D01*
G75*
G02*
X175000000Y-76625000I0J125000D01*
G01*
G37*
G36*
G01*
X175000000Y-77625000D02*
X175000000Y-77375000D01*
G75*
G02*
X175125000Y-77250000I125000J0D01*
G01*
X175775000Y-77250000D01*
G75*
G02*
X175900000Y-77375000I0J-125000D01*
G01*
X175900000Y-77625000D01*
G75*
G02*
X175775000Y-77750000I-125000J0D01*
G01*
X175125000Y-77750000D01*
G75*
G02*
X175000000Y-77625000I0J125000D01*
G01*
G37*
G36*
G01*
X172100000Y-77625000D02*
X172100000Y-77375000D01*
G75*
G02*
X172225000Y-77250000I125000J0D01*
G01*
X172875000Y-77250000D01*
G75*
G02*
X173000000Y-77375000I0J-125000D01*
G01*
X173000000Y-77625000D01*
G75*
G02*
X172875000Y-77750000I-125000J0D01*
G01*
X172225000Y-77750000D01*
G75*
G02*
X172100000Y-77625000I0J125000D01*
G01*
G37*
G36*
G01*
X172100000Y-76625000D02*
X172100000Y-76375000D01*
G75*
G02*
X172225000Y-76250000I125000J0D01*
G01*
X172875000Y-76250000D01*
G75*
G02*
X173000000Y-76375000I0J-125000D01*
G01*
X173000000Y-76625000D01*
G75*
G02*
X172875000Y-76750000I-125000J0D01*
G01*
X172225000Y-76750000D01*
G75*
G02*
X172100000Y-76625000I0J125000D01*
G01*
G37*
G36*
G01*
X172100000Y-75625000D02*
X172100000Y-75375000D01*
G75*
G02*
X172225000Y-75250000I125000J0D01*
G01*
X172875000Y-75250000D01*
G75*
G02*
X173000000Y-75375000I0J-125000D01*
G01*
X173000000Y-75625000D01*
G75*
G02*
X172875000Y-75750000I-125000J0D01*
G01*
X172225000Y-75750000D01*
G75*
G02*
X172100000Y-75625000I0J125000D01*
G01*
G37*
%TD*%
%TO.C,L4*%
G36*
G01*
X187110000Y-87052500D02*
X187110000Y-87447500D01*
G75*
G02*
X186937500Y-87620000I-172500J0D01*
G01*
X186592500Y-87620000D01*
G75*
G02*
X186420000Y-87447500I0J172500D01*
G01*
X186420000Y-87052500D01*
G75*
G02*
X186592500Y-86880000I172500J0D01*
G01*
X186937500Y-86880000D01*
G75*
G02*
X187110000Y-87052500I0J-172500D01*
G01*
G37*
G36*
G01*
X188080000Y-87052500D02*
X188080000Y-87447500D01*
G75*
G02*
X187907500Y-87620000I-172500J0D01*
G01*
X187562500Y-87620000D01*
G75*
G02*
X187390000Y-87447500I0J172500D01*
G01*
X187390000Y-87052500D01*
G75*
G02*
X187562500Y-86880000I172500J0D01*
G01*
X187907500Y-86880000D01*
G75*
G02*
X188080000Y-87052500I0J-172500D01*
G01*
G37*
%TD*%
%TO.C,L3*%
G36*
G01*
X186552500Y-88890000D02*
X186947500Y-88890000D01*
G75*
G02*
X187120000Y-89062500I0J-172500D01*
G01*
X187120000Y-89407500D01*
G75*
G02*
X186947500Y-89580000I-172500J0D01*
G01*
X186552500Y-89580000D01*
G75*
G02*
X186380000Y-89407500I0J172500D01*
G01*
X186380000Y-89062500D01*
G75*
G02*
X186552500Y-88890000I172500J0D01*
G01*
G37*
G36*
G01*
X186552500Y-87920000D02*
X186947500Y-87920000D01*
G75*
G02*
X187120000Y-88092500I0J-172500D01*
G01*
X187120000Y-88437500D01*
G75*
G02*
X186947500Y-88610000I-172500J0D01*
G01*
X186552500Y-88610000D01*
G75*
G02*
X186380000Y-88437500I0J172500D01*
G01*
X186380000Y-88092500D01*
G75*
G02*
X186552500Y-87920000I172500J0D01*
G01*
G37*
%TD*%
%TO.C,L2*%
G36*
G01*
X185947500Y-87610000D02*
X185552500Y-87610000D01*
G75*
G02*
X185380000Y-87437500I0J172500D01*
G01*
X185380000Y-87092500D01*
G75*
G02*
X185552500Y-86920000I172500J0D01*
G01*
X185947500Y-86920000D01*
G75*
G02*
X186120000Y-87092500I0J-172500D01*
G01*
X186120000Y-87437500D01*
G75*
G02*
X185947500Y-87610000I-172500J0D01*
G01*
G37*
G36*
G01*
X185947500Y-88580000D02*
X185552500Y-88580000D01*
G75*
G02*
X185380000Y-88407500I0J172500D01*
G01*
X185380000Y-88062500D01*
G75*
G02*
X185552500Y-87890000I172500J0D01*
G01*
X185947500Y-87890000D01*
G75*
G02*
X186120000Y-88062500I0J-172500D01*
G01*
X186120000Y-88407500D01*
G75*
G02*
X185947500Y-88580000I-172500J0D01*
G01*
G37*
%TD*%
D19*
%TO.C,J1*%
X179300000Y-96960000D03*
X183200000Y-96960000D03*
X179300000Y-98230000D03*
X183200000Y-98230000D03*
X179300000Y-99500000D03*
X183200000Y-99500000D03*
X179300000Y-100770000D03*
X183200000Y-100770000D03*
X179300000Y-102040000D03*
X183200000Y-102040000D03*
%TD*%
%TO.C,C17*%
G36*
G01*
X190552500Y-86890000D02*
X190947500Y-86890000D01*
G75*
G02*
X191120000Y-87062500I0J-172500D01*
G01*
X191120000Y-87407500D01*
G75*
G02*
X190947500Y-87580000I-172500J0D01*
G01*
X190552500Y-87580000D01*
G75*
G02*
X190380000Y-87407500I0J172500D01*
G01*
X190380000Y-87062500D01*
G75*
G02*
X190552500Y-86890000I172500J0D01*
G01*
G37*
G36*
G01*
X190552500Y-85920000D02*
X190947500Y-85920000D01*
G75*
G02*
X191120000Y-86092500I0J-172500D01*
G01*
X191120000Y-86437500D01*
G75*
G02*
X190947500Y-86610000I-172500J0D01*
G01*
X190552500Y-86610000D01*
G75*
G02*
X190380000Y-86437500I0J172500D01*
G01*
X190380000Y-86092500D01*
G75*
G02*
X190552500Y-85920000I172500J0D01*
G01*
G37*
%TD*%
%TO.C,C16*%
G36*
G01*
X189110000Y-87052500D02*
X189110000Y-87447500D01*
G75*
G02*
X188937500Y-87620000I-172500J0D01*
G01*
X188592500Y-87620000D01*
G75*
G02*
X188420000Y-87447500I0J172500D01*
G01*
X188420000Y-87052500D01*
G75*
G02*
X188592500Y-86880000I172500J0D01*
G01*
X188937500Y-86880000D01*
G75*
G02*
X189110000Y-87052500I0J-172500D01*
G01*
G37*
G36*
G01*
X190080000Y-87052500D02*
X190080000Y-87447500D01*
G75*
G02*
X189907500Y-87620000I-172500J0D01*
G01*
X189562500Y-87620000D01*
G75*
G02*
X189390000Y-87447500I0J172500D01*
G01*
X189390000Y-87052500D01*
G75*
G02*
X189562500Y-86880000I172500J0D01*
G01*
X189907500Y-86880000D01*
G75*
G02*
X190080000Y-87052500I0J-172500D01*
G01*
G37*
%TD*%
%TO.C,C15*%
G36*
G01*
X188390000Y-90447500D02*
X188390000Y-90052500D01*
G75*
G02*
X188562500Y-89880000I172500J0D01*
G01*
X188907500Y-89880000D01*
G75*
G02*
X189080000Y-90052500I0J-172500D01*
G01*
X189080000Y-90447500D01*
G75*
G02*
X188907500Y-90620000I-172500J0D01*
G01*
X188562500Y-90620000D01*
G75*
G02*
X188390000Y-90447500I0J172500D01*
G01*
G37*
G36*
G01*
X187420000Y-90447500D02*
X187420000Y-90052500D01*
G75*
G02*
X187592500Y-89880000I172500J0D01*
G01*
X187937500Y-89880000D01*
G75*
G02*
X188110000Y-90052500I0J-172500D01*
G01*
X188110000Y-90447500D01*
G75*
G02*
X187937500Y-90620000I-172500J0D01*
G01*
X187592500Y-90620000D01*
G75*
G02*
X187420000Y-90447500I0J172500D01*
G01*
G37*
%TD*%
%TO.C,C14*%
G36*
G01*
X186302500Y-92390000D02*
X186697500Y-92390000D01*
G75*
G02*
X186870000Y-92562500I0J-172500D01*
G01*
X186870000Y-92907500D01*
G75*
G02*
X186697500Y-93080000I-172500J0D01*
G01*
X186302500Y-93080000D01*
G75*
G02*
X186130000Y-92907500I0J172500D01*
G01*
X186130000Y-92562500D01*
G75*
G02*
X186302500Y-92390000I172500J0D01*
G01*
G37*
G36*
G01*
X186302500Y-91420000D02*
X186697500Y-91420000D01*
G75*
G02*
X186870000Y-91592500I0J-172500D01*
G01*
X186870000Y-91937500D01*
G75*
G02*
X186697500Y-92110000I-172500J0D01*
G01*
X186302500Y-92110000D01*
G75*
G02*
X186130000Y-91937500I0J172500D01*
G01*
X186130000Y-91592500D01*
G75*
G02*
X186302500Y-91420000I172500J0D01*
G01*
G37*
%TD*%
%TO.C,C13*%
G36*
G01*
X188390000Y-89447500D02*
X188390000Y-89052500D01*
G75*
G02*
X188562500Y-88880000I172500J0D01*
G01*
X188907500Y-88880000D01*
G75*
G02*
X189080000Y-89052500I0J-172500D01*
G01*
X189080000Y-89447500D01*
G75*
G02*
X188907500Y-89620000I-172500J0D01*
G01*
X188562500Y-89620000D01*
G75*
G02*
X188390000Y-89447500I0J172500D01*
G01*
G37*
G36*
G01*
X187420000Y-89447500D02*
X187420000Y-89052500D01*
G75*
G02*
X187592500Y-88880000I172500J0D01*
G01*
X187937500Y-88880000D01*
G75*
G02*
X188110000Y-89052500I0J-172500D01*
G01*
X188110000Y-89447500D01*
G75*
G02*
X187937500Y-89620000I-172500J0D01*
G01*
X187592500Y-89620000D01*
G75*
G02*
X187420000Y-89447500I0J172500D01*
G01*
G37*
%TD*%
%TO.C,C12*%
G36*
G01*
X181197500Y-93160000D02*
X180802500Y-93160000D01*
G75*
G02*
X180630000Y-92987500I0J172500D01*
G01*
X180630000Y-92642500D01*
G75*
G02*
X180802500Y-92470000I172500J0D01*
G01*
X181197500Y-92470000D01*
G75*
G02*
X181370000Y-92642500I0J-172500D01*
G01*
X181370000Y-92987500D01*
G75*
G02*
X181197500Y-93160000I-172500J0D01*
G01*
G37*
G36*
G01*
X181197500Y-94130000D02*
X180802500Y-94130000D01*
G75*
G02*
X180630000Y-93957500I0J172500D01*
G01*
X180630000Y-93612500D01*
G75*
G02*
X180802500Y-93440000I172500J0D01*
G01*
X181197500Y-93440000D01*
G75*
G02*
X181370000Y-93612500I0J-172500D01*
G01*
X181370000Y-93957500D01*
G75*
G02*
X181197500Y-94130000I-172500J0D01*
G01*
G37*
%TD*%
%TO.C,C11*%
G36*
G01*
X182610000Y-83802500D02*
X182610000Y-84197500D01*
G75*
G02*
X182437500Y-84370000I-172500J0D01*
G01*
X182092500Y-84370000D01*
G75*
G02*
X181920000Y-84197500I0J172500D01*
G01*
X181920000Y-83802500D01*
G75*
G02*
X182092500Y-83630000I172500J0D01*
G01*
X182437500Y-83630000D01*
G75*
G02*
X182610000Y-83802500I0J-172500D01*
G01*
G37*
G36*
G01*
X183580000Y-83802500D02*
X183580000Y-84197500D01*
G75*
G02*
X183407500Y-84370000I-172500J0D01*
G01*
X183062500Y-84370000D01*
G75*
G02*
X182890000Y-84197500I0J172500D01*
G01*
X182890000Y-83802500D01*
G75*
G02*
X183062500Y-83630000I172500J0D01*
G01*
X183407500Y-83630000D01*
G75*
G02*
X183580000Y-83802500I0J-172500D01*
G01*
G37*
%TD*%
%TO.C,C10*%
G36*
G01*
X180890000Y-84197500D02*
X180890000Y-83802500D01*
G75*
G02*
X181062500Y-83630000I172500J0D01*
G01*
X181407500Y-83630000D01*
G75*
G02*
X181580000Y-83802500I0J-172500D01*
G01*
X181580000Y-84197500D01*
G75*
G02*
X181407500Y-84370000I-172500J0D01*
G01*
X181062500Y-84370000D01*
G75*
G02*
X180890000Y-84197500I0J172500D01*
G01*
G37*
G36*
G01*
X179920000Y-84197500D02*
X179920000Y-83802500D01*
G75*
G02*
X180092500Y-83630000I172500J0D01*
G01*
X180437500Y-83630000D01*
G75*
G02*
X180610000Y-83802500I0J-172500D01*
G01*
X180610000Y-84197500D01*
G75*
G02*
X180437500Y-84370000I-172500J0D01*
G01*
X180092500Y-84370000D01*
G75*
G02*
X179920000Y-84197500I0J172500D01*
G01*
G37*
%TD*%
%TO.C,C9*%
G36*
G01*
X182610000Y-82802500D02*
X182610000Y-83197500D01*
G75*
G02*
X182437500Y-83370000I-172500J0D01*
G01*
X182092500Y-83370000D01*
G75*
G02*
X181920000Y-83197500I0J172500D01*
G01*
X181920000Y-82802500D01*
G75*
G02*
X182092500Y-82630000I172500J0D01*
G01*
X182437500Y-82630000D01*
G75*
G02*
X182610000Y-82802500I0J-172500D01*
G01*
G37*
G36*
G01*
X183580000Y-82802500D02*
X183580000Y-83197500D01*
G75*
G02*
X183407500Y-83370000I-172500J0D01*
G01*
X183062500Y-83370000D01*
G75*
G02*
X182890000Y-83197500I0J172500D01*
G01*
X182890000Y-82802500D01*
G75*
G02*
X183062500Y-82630000I172500J0D01*
G01*
X183407500Y-82630000D01*
G75*
G02*
X183580000Y-82802500I0J-172500D01*
G01*
G37*
%TD*%
%TO.C,C8*%
G36*
G01*
X185518750Y-80350000D02*
X186081250Y-80350000D01*
G75*
G02*
X186325000Y-80593750I0J-243750D01*
G01*
X186325000Y-81081250D01*
G75*
G02*
X186081250Y-81325000I-243750J0D01*
G01*
X185518750Y-81325000D01*
G75*
G02*
X185275000Y-81081250I0J243750D01*
G01*
X185275000Y-80593750D01*
G75*
G02*
X185518750Y-80350000I243750J0D01*
G01*
G37*
G36*
G01*
X185518750Y-78775000D02*
X186081250Y-78775000D01*
G75*
G02*
X186325000Y-79018750I0J-243750D01*
G01*
X186325000Y-79506250D01*
G75*
G02*
X186081250Y-79750000I-243750J0D01*
G01*
X185518750Y-79750000D01*
G75*
G02*
X185275000Y-79506250I0J243750D01*
G01*
X185275000Y-79018750D01*
G75*
G02*
X185518750Y-78775000I243750J0D01*
G01*
G37*
%TD*%
%TO.C,C7*%
G36*
G01*
X175675000Y-92031250D02*
X175675000Y-91468750D01*
G75*
G02*
X175918750Y-91225000I243750J0D01*
G01*
X176406250Y-91225000D01*
G75*
G02*
X176650000Y-91468750I0J-243750D01*
G01*
X176650000Y-92031250D01*
G75*
G02*
X176406250Y-92275000I-243750J0D01*
G01*
X175918750Y-92275000D01*
G75*
G02*
X175675000Y-92031250I0J243750D01*
G01*
G37*
G36*
G01*
X177250000Y-92031250D02*
X177250000Y-91468750D01*
G75*
G02*
X177493750Y-91225000I243750J0D01*
G01*
X177981250Y-91225000D01*
G75*
G02*
X178225000Y-91468750I0J-243750D01*
G01*
X178225000Y-92031250D01*
G75*
G02*
X177981250Y-92275000I-243750J0D01*
G01*
X177493750Y-92275000D01*
G75*
G02*
X177250000Y-92031250I0J243750D01*
G01*
G37*
%TD*%
%TO.C,C6*%
G36*
G01*
X176590000Y-90697500D02*
X176590000Y-90302500D01*
G75*
G02*
X176762500Y-90130000I172500J0D01*
G01*
X177107500Y-90130000D01*
G75*
G02*
X177280000Y-90302500I0J-172500D01*
G01*
X177280000Y-90697500D01*
G75*
G02*
X177107500Y-90870000I-172500J0D01*
G01*
X176762500Y-90870000D01*
G75*
G02*
X176590000Y-90697500I0J172500D01*
G01*
G37*
G36*
G01*
X175620000Y-90697500D02*
X175620000Y-90302500D01*
G75*
G02*
X175792500Y-90130000I172500J0D01*
G01*
X176137500Y-90130000D01*
G75*
G02*
X176310000Y-90302500I0J-172500D01*
G01*
X176310000Y-90697500D01*
G75*
G02*
X176137500Y-90870000I-172500J0D01*
G01*
X175792500Y-90870000D01*
G75*
G02*
X175620000Y-90697500I0J172500D01*
G01*
G37*
%TD*%
%TO.C,C5*%
G36*
G01*
X175670000Y-84197500D02*
X175670000Y-83802500D01*
G75*
G02*
X175842500Y-83630000I172500J0D01*
G01*
X176187500Y-83630000D01*
G75*
G02*
X176360000Y-83802500I0J-172500D01*
G01*
X176360000Y-84197500D01*
G75*
G02*
X176187500Y-84370000I-172500J0D01*
G01*
X175842500Y-84370000D01*
G75*
G02*
X175670000Y-84197500I0J172500D01*
G01*
G37*
G36*
G01*
X176640000Y-84197500D02*
X176640000Y-83802500D01*
G75*
G02*
X176812500Y-83630000I172500J0D01*
G01*
X177157500Y-83630000D01*
G75*
G02*
X177330000Y-83802500I0J-172500D01*
G01*
X177330000Y-84197500D01*
G75*
G02*
X177157500Y-84370000I-172500J0D01*
G01*
X176812500Y-84370000D01*
G75*
G02*
X176640000Y-84197500I0J172500D01*
G01*
G37*
%TD*%
%TO.C,C4*%
G36*
G01*
X174330000Y-90302500D02*
X174330000Y-90697500D01*
G75*
G02*
X174157500Y-90870000I-172500J0D01*
G01*
X173812500Y-90870000D01*
G75*
G02*
X173640000Y-90697500I0J172500D01*
G01*
X173640000Y-90302500D01*
G75*
G02*
X173812500Y-90130000I172500J0D01*
G01*
X174157500Y-90130000D01*
G75*
G02*
X174330000Y-90302500I0J-172500D01*
G01*
G37*
G36*
G01*
X173360000Y-90302500D02*
X173360000Y-90697500D01*
G75*
G02*
X173187500Y-90870000I-172500J0D01*
G01*
X172842500Y-90870000D01*
G75*
G02*
X172670000Y-90697500I0J172500D01*
G01*
X172670000Y-90302500D01*
G75*
G02*
X172842500Y-90130000I172500J0D01*
G01*
X173187500Y-90130000D01*
G75*
G02*
X173360000Y-90302500I0J-172500D01*
G01*
G37*
%TD*%
%TO.C,C3*%
G36*
G01*
X176552500Y-77140000D02*
X176947500Y-77140000D01*
G75*
G02*
X177120000Y-77312500I0J-172500D01*
G01*
X177120000Y-77657500D01*
G75*
G02*
X176947500Y-77830000I-172500J0D01*
G01*
X176552500Y-77830000D01*
G75*
G02*
X176380000Y-77657500I0J172500D01*
G01*
X176380000Y-77312500D01*
G75*
G02*
X176552500Y-77140000I172500J0D01*
G01*
G37*
G36*
G01*
X176552500Y-76170000D02*
X176947500Y-76170000D01*
G75*
G02*
X177120000Y-76342500I0J-172500D01*
G01*
X177120000Y-76687500D01*
G75*
G02*
X176947500Y-76860000I-172500J0D01*
G01*
X176552500Y-76860000D01*
G75*
G02*
X176380000Y-76687500I0J172500D01*
G01*
X176380000Y-76342500D01*
G75*
G02*
X176552500Y-76170000I172500J0D01*
G01*
G37*
%TD*%
%TO.C,C2*%
G36*
G01*
X175947500Y-95080000D02*
X175552500Y-95080000D01*
G75*
G02*
X175380000Y-94907500I0J172500D01*
G01*
X175380000Y-94562500D01*
G75*
G02*
X175552500Y-94390000I172500J0D01*
G01*
X175947500Y-94390000D01*
G75*
G02*
X176120000Y-94562500I0J-172500D01*
G01*
X176120000Y-94907500D01*
G75*
G02*
X175947500Y-95080000I-172500J0D01*
G01*
G37*
G36*
G01*
X175947500Y-94110000D02*
X175552500Y-94110000D01*
G75*
G02*
X175380000Y-93937500I0J172500D01*
G01*
X175380000Y-93592500D01*
G75*
G02*
X175552500Y-93420000I172500J0D01*
G01*
X175947500Y-93420000D01*
G75*
G02*
X176120000Y-93592500I0J-172500D01*
G01*
X176120000Y-93937500D01*
G75*
G02*
X175947500Y-94110000I-172500J0D01*
G01*
G37*
%TD*%
%TO.C,C1*%
G36*
G01*
X174525000Y-91468750D02*
X174525000Y-92031250D01*
G75*
G02*
X174281250Y-92275000I-243750J0D01*
G01*
X173793750Y-92275000D01*
G75*
G02*
X173550000Y-92031250I0J243750D01*
G01*
X173550000Y-91468750D01*
G75*
G02*
X173793750Y-91225000I243750J0D01*
G01*
X174281250Y-91225000D01*
G75*
G02*
X174525000Y-91468750I0J-243750D01*
G01*
G37*
G36*
G01*
X172950000Y-91468750D02*
X172950000Y-92031250D01*
G75*
G02*
X172706250Y-92275000I-243750J0D01*
G01*
X172218750Y-92275000D01*
G75*
G02*
X171975000Y-92031250I0J243750D01*
G01*
X171975000Y-91468750D01*
G75*
G02*
X172218750Y-91225000I243750J0D01*
G01*
X172706250Y-91225000D01*
G75*
G02*
X172950000Y-91468750I0J-243750D01*
G01*
G37*
%TD*%
M02*
