M48
; DRILL file {KiCad (5.1.6)-1} date 10/05/20 19:31:34
; FORMAT={-:-/ absolute / metric / decimal}
; #@! TF.CreationDate,2020-10-05T19:31:34+02:00
; #@! TF.GenerationSoftware,Kicad,Pcbnew,(5.1.6)-1
FMAT,2
METRIC
T1C0.300
T2C0.500
T3C1.152
%
G90
G05
T1
X164.7Y-87.2
X164.8Y-85.8
X164.8Y-88.7
X164.9Y-84.5
X164.9Y-90.0
X165.2Y-83.1
X165.3Y-91.4
X165.7Y-81.8
X165.7Y-92.7
X166.2Y-94.0
X166.3Y-80.4
X166.9Y-79.3
X166.9Y-95.2
X167.6Y-78.0
X167.7Y-96.4
X168.5Y-77.0
X168.5Y-97.5
X168.8Y-88.75
X169.4Y-98.6
X170.4Y-99.5
X171.0Y-92.75
X171.5Y-87.25
X171.6Y-74.1
X171.6Y-100.3
X171.75Y-76.5
X172.25Y-81.75
X172.3Y-90.5
X172.463Y-92.713
X172.5Y-89.1
X172.7Y-73.4
X172.7Y-101.1
X172.9Y-96.6
X172.9Y-97.4
X173.9Y-72.7
X174.0Y-101.75
X174.038Y-92.712
X174.2Y-99.0
X175.2Y-102.3
X175.3Y-72.2
X176.0Y-83.25
X176.0Y-99.0
X176.163Y-92.694
X176.5Y-87.25
X176.5Y-93.75
X176.5Y-94.75
X176.6Y-71.8
X176.6Y-102.8
X176.75Y-81.75
X177.0Y-83.25
X177.1Y-96.6
X177.1Y-97.4
X177.5Y-76.5
X177.5Y-77.5
X177.7Y-90.5
X177.738Y-92.737
X178.0Y-103.1
X178.1Y-81.95
X178.1Y-82.85
X178.5Y-71.5
X178.5Y-72.5
X178.5Y-73.5
X179.0Y-82.85
X179.129Y-87.2
X179.25Y-96.0
X179.5Y-74.5
X179.6Y-84.0
X180.65Y-90.5
X180.75Y-74.5
X180.8Y-92.0
X181.35Y-91.5
X181.6Y-83.0
X181.8Y-86.6
X181.8Y-88.0
X182.0Y-74.5
X182.95Y-90.5
X183.2Y-86.6
X183.2Y-88.0
X183.25Y-71.5
X183.25Y-72.5
X183.25Y-73.5
X184.0Y-83.0
X184.0Y-84.0
X184.75Y-85.5
X184.9Y-71.8
X185.05Y-82.3
X185.25Y-101.5
X185.75Y-90.25
X185.8Y-81.65
X186.0Y-84.5
X186.15Y-94.05
X186.2Y-72.2
X186.2Y-102.3
X186.7Y-93.6
X186.75Y-90.25
X187.0Y-84.5
X187.35Y-81.65
X187.5Y-72.7
X187.5Y-101.8
X188.0Y-84.5
X188.7Y-101.1
X188.735Y-91.015
X188.8Y-73.4
X189.0Y-84.5
X189.9Y-74.2
X189.9Y-100.4
X190.0Y-84.5
X190.0Y-90.0
X190.75Y-85.5
X191.0Y-84.5
X191.0Y-90.0
X192.0Y-82.75
X192.0Y-83.6
X192.0Y-84.5
X192.0Y-90.0
X192.0Y-90.8
X192.0Y-91.75
X193.0Y-76.9
X193.0Y-82.75
X193.0Y-91.75
X193.0Y-97.5
X193.8Y-96.4
X193.9Y-78.0
X194.0Y-82.75
X194.0Y-91.75
X194.6Y-79.3
X194.6Y-95.2
X195.0Y-82.75
X195.0Y-91.75
X195.2Y-80.5
X195.2Y-94.0
X195.8Y-81.8
X195.8Y-92.7
X196.0Y-82.75
X196.0Y-91.75
T2
X179.5Y-75.75
X179.5Y-77.25
X185.75Y-75.75
X185.75Y-77.25
X187.25Y-75.75
X187.25Y-77.25
T3
X191.5Y-98.5
X170.0Y-76.0
X191.5Y-76.0
T0
M30
