%TF.GenerationSoftware,KiCad,Pcbnew,(5.1.6)-1*%
%TF.CreationDate,2020-10-05T19:31:36+02:00*%
%TF.ProjectId,NRF24,4e524632-342e-46b6-9963-61645f706362,rev?*%
%TF.SameCoordinates,Original*%
%TF.FileFunction,Copper,L2,Inr*%
%TF.FilePolarity,Positive*%
%FSLAX46Y46*%
G04 Gerber Fmt 4.6, Leading zero omitted, Abs format (unit mm)*
G04 Created by KiCad (PCBNEW (5.1.6)-1) date 2020-10-05 19:31:36*
%MOMM*%
%LPD*%
G01*
G04 APERTURE LIST*
%TA.AperFunction,ViaPad*%
%ADD10C,1.000000*%
%TD*%
%TA.AperFunction,ViaPad*%
%ADD11C,0.600000*%
%TD*%
%TA.AperFunction,Conductor*%
%ADD12C,0.200000*%
%TD*%
G04 APERTURE END LIST*
D10*
%TO.N,GND*%
X179500000Y-77250000D03*
X179500000Y-75750000D03*
D11*
X178500000Y-71500000D03*
X181800000Y-88000000D03*
X183200000Y-86600000D03*
X183200000Y-88000000D03*
X181800000Y-86600000D03*
X184000000Y-84000000D03*
X184000000Y-83000000D03*
X182950000Y-90500000D03*
X172462500Y-92712562D03*
X179600020Y-84000000D03*
X177000000Y-83250000D03*
X172500000Y-89100000D03*
X185050000Y-82300006D03*
X185750000Y-90250000D03*
X178500000Y-72500000D03*
X178500000Y-73500000D03*
X179500000Y-74500000D03*
X180750000Y-74500000D03*
X182000000Y-74500000D03*
X183250000Y-73500000D03*
X192000000Y-84500000D03*
X192000000Y-82750000D03*
X193000000Y-82750000D03*
X194000000Y-82750000D03*
X195000000Y-82750000D03*
X191000000Y-90000000D03*
X192000000Y-91750000D03*
X193000000Y-91750000D03*
X194000000Y-91750000D03*
X195000000Y-91750000D03*
X196000000Y-91750000D03*
X164700000Y-87200000D03*
X164800000Y-85800000D03*
X164900000Y-84500000D03*
X165200000Y-83100000D03*
X165700000Y-81800000D03*
X166300000Y-80400000D03*
X166900000Y-79300000D03*
X167600000Y-78000000D03*
X168500000Y-77000000D03*
X184900000Y-71800000D03*
X186200000Y-72200000D03*
X187500000Y-72700000D03*
X188800000Y-73400000D03*
X189900000Y-74200000D03*
X193000000Y-76900000D03*
X193900000Y-78000000D03*
X194600000Y-79300000D03*
X195200000Y-80500000D03*
X195800000Y-81800000D03*
X195800000Y-92700000D03*
X195200000Y-94000000D03*
X194600000Y-95200000D03*
X193800000Y-96400000D03*
X193000000Y-97500000D03*
X189900000Y-100400000D03*
X188700000Y-101100000D03*
X187500000Y-101800000D03*
X186200000Y-102300000D03*
X178000000Y-103100000D03*
X176600000Y-102800000D03*
X175200000Y-102300000D03*
X172700000Y-101100000D03*
X171600000Y-100300000D03*
X170400000Y-99500000D03*
X169400000Y-98600000D03*
X168500000Y-97500000D03*
X167700000Y-96400000D03*
X166900000Y-95200000D03*
X166200000Y-94000000D03*
X165700000Y-92700000D03*
X165300000Y-91400000D03*
X164900000Y-90000000D03*
X164800000Y-88700000D03*
X174000000Y-101750000D03*
X183250000Y-71500000D03*
X183250000Y-72500000D03*
X190750000Y-85500000D03*
X191000000Y-84500000D03*
X172300000Y-90500000D03*
X180799996Y-92000000D03*
X181350000Y-91500009D03*
X186699998Y-93600000D03*
X186150000Y-94050000D03*
X187350000Y-81650000D03*
X185800000Y-81650000D03*
X171500000Y-87250000D03*
X177100000Y-96600000D03*
X177100000Y-97400000D03*
X186750000Y-90250000D03*
X190000000Y-84500000D03*
X189000000Y-84500000D03*
X188000000Y-84500000D03*
X187000000Y-84500000D03*
X196000000Y-82750000D03*
X192000000Y-83600000D03*
X192000000Y-90000000D03*
X190000000Y-90000000D03*
X192000000Y-90800000D03*
X186000000Y-84500000D03*
X177700000Y-90500000D03*
X176500000Y-94750000D03*
X171000000Y-92750000D03*
X177737516Y-92737490D03*
X176600000Y-71800000D03*
X171600000Y-74100000D03*
X175300000Y-72200000D03*
X173900000Y-72700000D03*
X172700000Y-73400000D03*
X177500000Y-77500000D03*
X171750000Y-76500000D03*
X188735000Y-91015000D03*
%TO.N,/NRST*%
X176500000Y-93750000D03*
X179250000Y-96000000D03*
%TO.N,/SPI_SCK*%
X176500000Y-87249985D03*
X179128621Y-87199999D03*
%TO.N,Net-(BT1-Pad1)*%
X176000000Y-99000000D03*
X174200000Y-99000000D03*
%TO.N,VCC*%
X174037512Y-92712488D03*
X176000000Y-83250000D03*
X185250000Y-101500000D03*
X172900000Y-96600000D03*
X172900000Y-97400000D03*
X178100000Y-81950000D03*
X178100000Y-82850000D03*
X179000000Y-82850000D03*
X168799992Y-88750000D03*
X176162516Y-92694193D03*
X177500000Y-76500000D03*
X176750000Y-81750000D03*
X172250000Y-81750000D03*
D10*
%TO.N,+VSW*%
X185750000Y-77250000D03*
X185750000Y-75750000D03*
D11*
X180650000Y-90500000D03*
X181600000Y-83000000D03*
X184750000Y-85500000D03*
D10*
X187250000Y-75750000D03*
X187250000Y-77250000D03*
%TD*%
D12*
%TO.N,GND*%
G36*
X182960183Y-70744771D02*
G01*
X184531960Y-71032593D01*
X186068921Y-71469741D01*
X187556911Y-72052189D01*
X188982214Y-72774567D01*
X190331724Y-73630232D01*
X191593006Y-74611301D01*
X192754456Y-75708748D01*
X193805368Y-76912454D01*
X194736073Y-78211347D01*
X195538004Y-79593471D01*
X196203767Y-81046085D01*
X196728522Y-82559521D01*
X196925000Y-83292788D01*
X196925001Y-91203229D01*
X196483240Y-92706432D01*
X195887836Y-94189267D01*
X195153041Y-95608223D01*
X194285635Y-96950210D01*
X193293595Y-98202886D01*
X192186054Y-99354716D01*
X190973222Y-100395083D01*
X189666256Y-101314418D01*
X188277196Y-102104253D01*
X186818825Y-102757316D01*
X185304571Y-103267596D01*
X183748384Y-103630390D01*
X182164590Y-103842360D01*
X180567775Y-103901555D01*
X178972627Y-103807428D01*
X177393856Y-103560849D01*
X175845976Y-103164083D01*
X174343259Y-102620790D01*
X172899529Y-101935966D01*
X172071588Y-101440905D01*
X184650000Y-101440905D01*
X184650000Y-101559095D01*
X184673058Y-101675014D01*
X184718287Y-101784207D01*
X184783950Y-101882478D01*
X184867522Y-101966050D01*
X184965793Y-102031713D01*
X185074986Y-102076942D01*
X185190905Y-102100000D01*
X185309095Y-102100000D01*
X185425014Y-102076942D01*
X185534207Y-102031713D01*
X185632478Y-101966050D01*
X185716050Y-101882478D01*
X185781713Y-101784207D01*
X185826942Y-101675014D01*
X185850000Y-101559095D01*
X185850000Y-101440905D01*
X185826942Y-101324986D01*
X185781713Y-101215793D01*
X185716050Y-101117522D01*
X185632478Y-101033950D01*
X185534207Y-100968287D01*
X185425014Y-100923058D01*
X185309095Y-100900000D01*
X185190905Y-100900000D01*
X185074986Y-100923058D01*
X184965793Y-100968287D01*
X184867522Y-101033950D01*
X184783950Y-101117522D01*
X184718287Y-101215793D01*
X184673058Y-101324986D01*
X184650000Y-101440905D01*
X172071588Y-101440905D01*
X171528085Y-101115922D01*
X170241552Y-100168205D01*
X169051779Y-99101545D01*
X168903944Y-98940905D01*
X173600000Y-98940905D01*
X173600000Y-99059095D01*
X173623058Y-99175014D01*
X173668287Y-99284207D01*
X173733950Y-99382478D01*
X173817522Y-99466050D01*
X173915793Y-99531713D01*
X174024986Y-99576942D01*
X174140905Y-99600000D01*
X174259095Y-99600000D01*
X174375014Y-99576942D01*
X174484207Y-99531713D01*
X174582478Y-99466050D01*
X174666050Y-99382478D01*
X174731713Y-99284207D01*
X174776942Y-99175014D01*
X174800000Y-99059095D01*
X174800000Y-98940905D01*
X175400000Y-98940905D01*
X175400000Y-99059095D01*
X175423058Y-99175014D01*
X175468287Y-99284207D01*
X175533950Y-99382478D01*
X175617522Y-99466050D01*
X175715793Y-99531713D01*
X175824986Y-99576942D01*
X175940905Y-99600000D01*
X176059095Y-99600000D01*
X176175014Y-99576942D01*
X176284207Y-99531713D01*
X176382478Y-99466050D01*
X176466050Y-99382478D01*
X176531713Y-99284207D01*
X176576942Y-99175014D01*
X176600000Y-99059095D01*
X176600000Y-98940905D01*
X176576942Y-98824986D01*
X176531713Y-98715793D01*
X176466050Y-98617522D01*
X176382478Y-98533950D01*
X176284207Y-98468287D01*
X176175014Y-98423058D01*
X176103320Y-98408797D01*
X190574000Y-98408797D01*
X190574000Y-98591203D01*
X190609585Y-98770104D01*
X190679389Y-98938626D01*
X190780728Y-99090291D01*
X190909709Y-99219272D01*
X191061374Y-99320611D01*
X191229896Y-99390415D01*
X191408797Y-99426000D01*
X191591203Y-99426000D01*
X191770104Y-99390415D01*
X191938626Y-99320611D01*
X192090291Y-99219272D01*
X192219272Y-99090291D01*
X192320611Y-98938626D01*
X192390415Y-98770104D01*
X192426000Y-98591203D01*
X192426000Y-98408797D01*
X192390415Y-98229896D01*
X192320611Y-98061374D01*
X192219272Y-97909709D01*
X192090291Y-97780728D01*
X191938626Y-97679389D01*
X191770104Y-97609585D01*
X191591203Y-97574000D01*
X191408797Y-97574000D01*
X191229896Y-97609585D01*
X191061374Y-97679389D01*
X190909709Y-97780728D01*
X190780728Y-97909709D01*
X190679389Y-98061374D01*
X190609585Y-98229896D01*
X190574000Y-98408797D01*
X176103320Y-98408797D01*
X176059095Y-98400000D01*
X175940905Y-98400000D01*
X175824986Y-98423058D01*
X175715793Y-98468287D01*
X175617522Y-98533950D01*
X175533950Y-98617522D01*
X175468287Y-98715793D01*
X175423058Y-98824986D01*
X175400000Y-98940905D01*
X174800000Y-98940905D01*
X174776942Y-98824986D01*
X174731713Y-98715793D01*
X174666050Y-98617522D01*
X174582478Y-98533950D01*
X174484207Y-98468287D01*
X174375014Y-98423058D01*
X174259095Y-98400000D01*
X174140905Y-98400000D01*
X174024986Y-98423058D01*
X173915793Y-98468287D01*
X173817522Y-98533950D01*
X173733950Y-98617522D01*
X173668287Y-98715793D01*
X173623058Y-98824986D01*
X173600000Y-98940905D01*
X168903944Y-98940905D01*
X167969712Y-97925754D01*
X167005325Y-96651669D01*
X166937122Y-96540905D01*
X172300000Y-96540905D01*
X172300000Y-96659095D01*
X172323058Y-96775014D01*
X172368287Y-96884207D01*
X172433950Y-96982478D01*
X172451472Y-97000000D01*
X172433950Y-97017522D01*
X172368287Y-97115793D01*
X172323058Y-97224986D01*
X172300000Y-97340905D01*
X172300000Y-97459095D01*
X172323058Y-97575014D01*
X172368287Y-97684207D01*
X172433950Y-97782478D01*
X172517522Y-97866050D01*
X172615793Y-97931713D01*
X172724986Y-97976942D01*
X172840905Y-98000000D01*
X172959095Y-98000000D01*
X173075014Y-97976942D01*
X173184207Y-97931713D01*
X173282478Y-97866050D01*
X173366050Y-97782478D01*
X173431713Y-97684207D01*
X173476942Y-97575014D01*
X173500000Y-97459095D01*
X173500000Y-97340905D01*
X173476942Y-97224986D01*
X173431713Y-97115793D01*
X173366050Y-97017522D01*
X173348528Y-97000000D01*
X173366050Y-96982478D01*
X173431713Y-96884207D01*
X173476942Y-96775014D01*
X173500000Y-96659095D01*
X173500000Y-96540905D01*
X173476942Y-96424986D01*
X173431713Y-96315793D01*
X173366050Y-96217522D01*
X173282478Y-96133950D01*
X173184207Y-96068287D01*
X173075014Y-96023058D01*
X172959095Y-96000000D01*
X172840905Y-96000000D01*
X172724986Y-96023058D01*
X172615793Y-96068287D01*
X172517522Y-96133950D01*
X172433950Y-96217522D01*
X172368287Y-96315793D01*
X172323058Y-96424986D01*
X172300000Y-96540905D01*
X166937122Y-96540905D01*
X166567667Y-95940905D01*
X178650000Y-95940905D01*
X178650000Y-96059095D01*
X178673058Y-96175014D01*
X178718287Y-96284207D01*
X178783950Y-96382478D01*
X178867522Y-96466050D01*
X178965793Y-96531713D01*
X179074986Y-96576942D01*
X179190905Y-96600000D01*
X179309095Y-96600000D01*
X179425014Y-96576942D01*
X179534207Y-96531713D01*
X179632478Y-96466050D01*
X179716050Y-96382478D01*
X179781713Y-96284207D01*
X179826942Y-96175014D01*
X179850000Y-96059095D01*
X179850000Y-95940905D01*
X179826942Y-95824986D01*
X179781713Y-95715793D01*
X179716050Y-95617522D01*
X179632478Y-95533950D01*
X179534207Y-95468287D01*
X179425014Y-95423058D01*
X179309095Y-95400000D01*
X179190905Y-95400000D01*
X179074986Y-95423058D01*
X178965793Y-95468287D01*
X178867522Y-95533950D01*
X178783950Y-95617522D01*
X178718287Y-95715793D01*
X178673058Y-95824986D01*
X178650000Y-95940905D01*
X166567667Y-95940905D01*
X166167491Y-95291014D01*
X165463927Y-93856320D01*
X165011225Y-92653393D01*
X173437512Y-92653393D01*
X173437512Y-92771583D01*
X173460570Y-92887502D01*
X173505799Y-92996695D01*
X173571462Y-93094966D01*
X173655034Y-93178538D01*
X173753305Y-93244201D01*
X173862498Y-93289430D01*
X173978417Y-93312488D01*
X174096607Y-93312488D01*
X174212526Y-93289430D01*
X174321719Y-93244201D01*
X174419990Y-93178538D01*
X174503562Y-93094966D01*
X174569225Y-92996695D01*
X174614454Y-92887502D01*
X174637512Y-92771583D01*
X174637512Y-92653393D01*
X174633873Y-92635098D01*
X175562516Y-92635098D01*
X175562516Y-92753288D01*
X175585574Y-92869207D01*
X175630803Y-92978400D01*
X175696466Y-93076671D01*
X175780038Y-93160243D01*
X175878309Y-93225906D01*
X175987502Y-93271135D01*
X176103421Y-93294193D01*
X176107279Y-93294193D01*
X176033950Y-93367522D01*
X175968287Y-93465793D01*
X175923058Y-93574986D01*
X175900000Y-93690905D01*
X175900000Y-93809095D01*
X175923058Y-93925014D01*
X175968287Y-94034207D01*
X176033950Y-94132478D01*
X176117522Y-94216050D01*
X176215793Y-94281713D01*
X176324986Y-94326942D01*
X176440905Y-94350000D01*
X176559095Y-94350000D01*
X176675014Y-94326942D01*
X176784207Y-94281713D01*
X176882478Y-94216050D01*
X176966050Y-94132478D01*
X177031713Y-94034207D01*
X177076942Y-93925014D01*
X177100000Y-93809095D01*
X177100000Y-93690905D01*
X177076942Y-93574986D01*
X177031713Y-93465793D01*
X176966050Y-93367522D01*
X176882478Y-93283950D01*
X176784207Y-93218287D01*
X176675014Y-93173058D01*
X176559095Y-93150000D01*
X176555237Y-93150000D01*
X176628566Y-93076671D01*
X176694229Y-92978400D01*
X176739458Y-92869207D01*
X176762516Y-92753288D01*
X176762516Y-92635098D01*
X176739458Y-92519179D01*
X176694229Y-92409986D01*
X176628566Y-92311715D01*
X176544994Y-92228143D01*
X176446723Y-92162480D01*
X176337530Y-92117251D01*
X176221611Y-92094193D01*
X176103421Y-92094193D01*
X175987502Y-92117251D01*
X175878309Y-92162480D01*
X175780038Y-92228143D01*
X175696466Y-92311715D01*
X175630803Y-92409986D01*
X175585574Y-92519179D01*
X175562516Y-92635098D01*
X174633873Y-92635098D01*
X174614454Y-92537474D01*
X174569225Y-92428281D01*
X174503562Y-92330010D01*
X174419990Y-92246438D01*
X174321719Y-92180775D01*
X174212526Y-92135546D01*
X174096607Y-92112488D01*
X173978417Y-92112488D01*
X173862498Y-92135546D01*
X173753305Y-92180775D01*
X173655034Y-92246438D01*
X173571462Y-92330010D01*
X173505799Y-92428281D01*
X173460570Y-92537474D01*
X173437512Y-92653393D01*
X165011225Y-92653393D01*
X164901117Y-92360813D01*
X164484231Y-90818224D01*
X164420257Y-90440905D01*
X180050000Y-90440905D01*
X180050000Y-90559095D01*
X180073058Y-90675014D01*
X180118287Y-90784207D01*
X180183950Y-90882478D01*
X180267522Y-90966050D01*
X180365793Y-91031713D01*
X180474986Y-91076942D01*
X180590905Y-91100000D01*
X180709095Y-91100000D01*
X180825014Y-91076942D01*
X180934207Y-91031713D01*
X181032478Y-90966050D01*
X181116050Y-90882478D01*
X181181713Y-90784207D01*
X181226942Y-90675014D01*
X181250000Y-90559095D01*
X181250000Y-90440905D01*
X181226942Y-90324986D01*
X181181713Y-90215793D01*
X181116050Y-90117522D01*
X181032478Y-90033950D01*
X180934207Y-89968287D01*
X180825014Y-89923058D01*
X180709095Y-89900000D01*
X180590905Y-89900000D01*
X180474986Y-89923058D01*
X180365793Y-89968287D01*
X180267522Y-90033950D01*
X180183950Y-90117522D01*
X180118287Y-90215793D01*
X180073058Y-90324986D01*
X180050000Y-90440905D01*
X164420257Y-90440905D01*
X164217116Y-89242795D01*
X164177334Y-88690905D01*
X168199992Y-88690905D01*
X168199992Y-88809095D01*
X168223050Y-88925014D01*
X168268279Y-89034207D01*
X168333942Y-89132478D01*
X168417514Y-89216050D01*
X168515785Y-89281713D01*
X168624978Y-89326942D01*
X168740897Y-89350000D01*
X168859087Y-89350000D01*
X168975006Y-89326942D01*
X169084199Y-89281713D01*
X169182470Y-89216050D01*
X169266042Y-89132478D01*
X169331705Y-89034207D01*
X169376934Y-88925014D01*
X169399992Y-88809095D01*
X169399992Y-88690905D01*
X169376934Y-88574986D01*
X169331705Y-88465793D01*
X169266042Y-88367522D01*
X169182470Y-88283950D01*
X169084199Y-88218287D01*
X168975006Y-88173058D01*
X168859087Y-88150000D01*
X168740897Y-88150000D01*
X168624978Y-88173058D01*
X168515785Y-88218287D01*
X168417514Y-88283950D01*
X168333942Y-88367522D01*
X168268279Y-88465793D01*
X168223050Y-88574986D01*
X168199992Y-88690905D01*
X164177334Y-88690905D01*
X164102229Y-87649012D01*
X164113241Y-87190890D01*
X175900000Y-87190890D01*
X175900000Y-87309080D01*
X175923058Y-87424999D01*
X175968287Y-87534192D01*
X176033950Y-87632463D01*
X176117522Y-87716035D01*
X176215793Y-87781698D01*
X176324986Y-87826927D01*
X176440905Y-87849985D01*
X176559095Y-87849985D01*
X176675014Y-87826927D01*
X176784207Y-87781698D01*
X176882478Y-87716035D01*
X176966050Y-87632463D01*
X177031713Y-87534192D01*
X177076942Y-87424999D01*
X177100000Y-87309080D01*
X177100000Y-87190890D01*
X177090058Y-87140904D01*
X178528621Y-87140904D01*
X178528621Y-87259094D01*
X178551679Y-87375013D01*
X178596908Y-87484206D01*
X178662571Y-87582477D01*
X178746143Y-87666049D01*
X178844414Y-87731712D01*
X178953607Y-87776941D01*
X179069526Y-87799999D01*
X179187716Y-87799999D01*
X179303635Y-87776941D01*
X179412828Y-87731712D01*
X179511099Y-87666049D01*
X179594671Y-87582477D01*
X179660334Y-87484206D01*
X179705563Y-87375013D01*
X179728621Y-87259094D01*
X179728621Y-87140904D01*
X179705563Y-87024985D01*
X179660334Y-86915792D01*
X179594671Y-86817521D01*
X179511099Y-86733949D01*
X179412828Y-86668286D01*
X179303635Y-86623057D01*
X179187716Y-86599999D01*
X179069526Y-86599999D01*
X178953607Y-86623057D01*
X178844414Y-86668286D01*
X178746143Y-86733949D01*
X178662571Y-86817521D01*
X178596908Y-86915792D01*
X178551679Y-87024985D01*
X178528621Y-87140904D01*
X177090058Y-87140904D01*
X177076942Y-87074971D01*
X177031713Y-86965778D01*
X176966050Y-86867507D01*
X176882478Y-86783935D01*
X176784207Y-86718272D01*
X176675014Y-86673043D01*
X176559095Y-86649985D01*
X176440905Y-86649985D01*
X176324986Y-86673043D01*
X176215793Y-86718272D01*
X176117522Y-86783935D01*
X176033950Y-86867507D01*
X175968287Y-86965778D01*
X175923058Y-87074971D01*
X175900000Y-87190890D01*
X164113241Y-87190890D01*
X164140628Y-86051563D01*
X164214277Y-85440905D01*
X184150000Y-85440905D01*
X184150000Y-85559095D01*
X184173058Y-85675014D01*
X184218287Y-85784207D01*
X184283950Y-85882478D01*
X184367522Y-85966050D01*
X184465793Y-86031713D01*
X184574986Y-86076942D01*
X184690905Y-86100000D01*
X184809095Y-86100000D01*
X184925014Y-86076942D01*
X185034207Y-86031713D01*
X185132478Y-85966050D01*
X185216050Y-85882478D01*
X185281713Y-85784207D01*
X185326942Y-85675014D01*
X185350000Y-85559095D01*
X185350000Y-85440905D01*
X185326942Y-85324986D01*
X185281713Y-85215793D01*
X185216050Y-85117522D01*
X185132478Y-85033950D01*
X185034207Y-84968287D01*
X184925014Y-84923058D01*
X184809095Y-84900000D01*
X184690905Y-84900000D01*
X184574986Y-84923058D01*
X184465793Y-84968287D01*
X184367522Y-85033950D01*
X184283950Y-85117522D01*
X184218287Y-85215793D01*
X184173058Y-85324986D01*
X184150000Y-85440905D01*
X164214277Y-85440905D01*
X164331961Y-84465133D01*
X164611582Y-83190905D01*
X175400000Y-83190905D01*
X175400000Y-83309095D01*
X175423058Y-83425014D01*
X175468287Y-83534207D01*
X175533950Y-83632478D01*
X175617522Y-83716050D01*
X175715793Y-83781713D01*
X175824986Y-83826942D01*
X175940905Y-83850000D01*
X176059095Y-83850000D01*
X176175014Y-83826942D01*
X176284207Y-83781713D01*
X176382478Y-83716050D01*
X176466050Y-83632478D01*
X176531713Y-83534207D01*
X176576942Y-83425014D01*
X176600000Y-83309095D01*
X176600000Y-83190905D01*
X176576942Y-83074986D01*
X176531713Y-82965793D01*
X176466050Y-82867522D01*
X176382478Y-82783950D01*
X176284207Y-82718287D01*
X176175014Y-82673058D01*
X176059095Y-82650000D01*
X175940905Y-82650000D01*
X175824986Y-82673058D01*
X175715793Y-82718287D01*
X175617522Y-82783950D01*
X175533950Y-82867522D01*
X175468287Y-82965793D01*
X175423058Y-83074986D01*
X175400000Y-83190905D01*
X164611582Y-83190905D01*
X164674464Y-82904355D01*
X165065859Y-81690905D01*
X171650000Y-81690905D01*
X171650000Y-81809095D01*
X171673058Y-81925014D01*
X171718287Y-82034207D01*
X171783950Y-82132478D01*
X171867522Y-82216050D01*
X171965793Y-82281713D01*
X172074986Y-82326942D01*
X172190905Y-82350000D01*
X172309095Y-82350000D01*
X172425014Y-82326942D01*
X172534207Y-82281713D01*
X172632478Y-82216050D01*
X172716050Y-82132478D01*
X172781713Y-82034207D01*
X172826942Y-81925014D01*
X172850000Y-81809095D01*
X172850000Y-81690905D01*
X176150000Y-81690905D01*
X176150000Y-81809095D01*
X176173058Y-81925014D01*
X176218287Y-82034207D01*
X176283950Y-82132478D01*
X176367522Y-82216050D01*
X176465793Y-82281713D01*
X176574986Y-82326942D01*
X176690905Y-82350000D01*
X176809095Y-82350000D01*
X176925014Y-82326942D01*
X177034207Y-82281713D01*
X177132478Y-82216050D01*
X177216050Y-82132478D01*
X177281713Y-82034207D01*
X177326942Y-81925014D01*
X177333726Y-81890905D01*
X177500000Y-81890905D01*
X177500000Y-82009095D01*
X177523058Y-82125014D01*
X177568287Y-82234207D01*
X177633950Y-82332478D01*
X177701472Y-82400000D01*
X177633950Y-82467522D01*
X177568287Y-82565793D01*
X177523058Y-82674986D01*
X177500000Y-82790905D01*
X177500000Y-82909095D01*
X177523058Y-83025014D01*
X177568287Y-83134207D01*
X177633950Y-83232478D01*
X177717522Y-83316050D01*
X177815793Y-83381713D01*
X177924986Y-83426942D01*
X178040905Y-83450000D01*
X178159095Y-83450000D01*
X178275014Y-83426942D01*
X178384207Y-83381713D01*
X178482478Y-83316050D01*
X178550000Y-83248528D01*
X178617522Y-83316050D01*
X178715793Y-83381713D01*
X178824986Y-83426942D01*
X178940905Y-83450000D01*
X179059095Y-83450000D01*
X179175014Y-83426942D01*
X179284207Y-83381713D01*
X179382478Y-83316050D01*
X179466050Y-83232478D01*
X179531713Y-83134207D01*
X179576942Y-83025014D01*
X179593672Y-82940905D01*
X181000000Y-82940905D01*
X181000000Y-83059095D01*
X181023058Y-83175014D01*
X181068287Y-83284207D01*
X181133950Y-83382478D01*
X181217522Y-83466050D01*
X181315793Y-83531713D01*
X181424986Y-83576942D01*
X181540905Y-83600000D01*
X181659095Y-83600000D01*
X181775014Y-83576942D01*
X181884207Y-83531713D01*
X181982478Y-83466050D01*
X182066050Y-83382478D01*
X182131713Y-83284207D01*
X182176942Y-83175014D01*
X182200000Y-83059095D01*
X182200000Y-82940905D01*
X182176942Y-82824986D01*
X182131713Y-82715793D01*
X182066050Y-82617522D01*
X181982478Y-82533950D01*
X181884207Y-82468287D01*
X181775014Y-82423058D01*
X181659095Y-82400000D01*
X181540905Y-82400000D01*
X181424986Y-82423058D01*
X181315793Y-82468287D01*
X181217522Y-82533950D01*
X181133950Y-82617522D01*
X181068287Y-82715793D01*
X181023058Y-82824986D01*
X181000000Y-82940905D01*
X179593672Y-82940905D01*
X179600000Y-82909095D01*
X179600000Y-82790905D01*
X179576942Y-82674986D01*
X179531713Y-82565793D01*
X179466050Y-82467522D01*
X179382478Y-82383950D01*
X179284207Y-82318287D01*
X179175014Y-82273058D01*
X179059095Y-82250000D01*
X178940905Y-82250000D01*
X178824986Y-82273058D01*
X178715793Y-82318287D01*
X178617522Y-82383950D01*
X178550000Y-82451472D01*
X178498528Y-82400000D01*
X178566050Y-82332478D01*
X178631713Y-82234207D01*
X178676942Y-82125014D01*
X178700000Y-82009095D01*
X178700000Y-81890905D01*
X178676942Y-81774986D01*
X178631713Y-81665793D01*
X178566050Y-81567522D01*
X178482478Y-81483950D01*
X178384207Y-81418287D01*
X178275014Y-81373058D01*
X178159095Y-81350000D01*
X178040905Y-81350000D01*
X177924986Y-81373058D01*
X177815793Y-81418287D01*
X177717522Y-81483950D01*
X177633950Y-81567522D01*
X177568287Y-81665793D01*
X177523058Y-81774986D01*
X177500000Y-81890905D01*
X177333726Y-81890905D01*
X177350000Y-81809095D01*
X177350000Y-81690905D01*
X177326942Y-81574986D01*
X177281713Y-81465793D01*
X177216050Y-81367522D01*
X177132478Y-81283950D01*
X177034207Y-81218287D01*
X176925014Y-81173058D01*
X176809095Y-81150000D01*
X176690905Y-81150000D01*
X176574986Y-81173058D01*
X176465793Y-81218287D01*
X176367522Y-81283950D01*
X176283950Y-81367522D01*
X176218287Y-81465793D01*
X176173058Y-81574986D01*
X176150000Y-81690905D01*
X172850000Y-81690905D01*
X172826942Y-81574986D01*
X172781713Y-81465793D01*
X172716050Y-81367522D01*
X172632478Y-81283950D01*
X172534207Y-81218287D01*
X172425014Y-81173058D01*
X172309095Y-81150000D01*
X172190905Y-81150000D01*
X172074986Y-81173058D01*
X171965793Y-81218287D01*
X171867522Y-81283950D01*
X171783950Y-81367522D01*
X171718287Y-81465793D01*
X171673058Y-81574986D01*
X171650000Y-81690905D01*
X165065859Y-81690905D01*
X165164982Y-81383595D01*
X165799000Y-79916848D01*
X166570681Y-78517624D01*
X167472932Y-77198784D01*
X168497412Y-75972518D01*
X168561977Y-75908797D01*
X169074000Y-75908797D01*
X169074000Y-76091203D01*
X169109585Y-76270104D01*
X169179389Y-76438626D01*
X169280728Y-76590291D01*
X169409709Y-76719272D01*
X169561374Y-76820611D01*
X169729896Y-76890415D01*
X169908797Y-76926000D01*
X170091203Y-76926000D01*
X170270104Y-76890415D01*
X170438626Y-76820611D01*
X170590291Y-76719272D01*
X170719272Y-76590291D01*
X170819088Y-76440905D01*
X176900000Y-76440905D01*
X176900000Y-76559095D01*
X176923058Y-76675014D01*
X176968287Y-76784207D01*
X177033950Y-76882478D01*
X177117522Y-76966050D01*
X177215793Y-77031713D01*
X177324986Y-77076942D01*
X177440905Y-77100000D01*
X177559095Y-77100000D01*
X177675014Y-77076942D01*
X177784207Y-77031713D01*
X177882478Y-76966050D01*
X177966050Y-76882478D01*
X178031713Y-76784207D01*
X178076942Y-76675014D01*
X178100000Y-76559095D01*
X178100000Y-76440905D01*
X178076942Y-76324986D01*
X178031713Y-76215793D01*
X177966050Y-76117522D01*
X177882478Y-76033950D01*
X177784207Y-75968287D01*
X177675014Y-75923058D01*
X177559095Y-75900000D01*
X177440905Y-75900000D01*
X177324986Y-75923058D01*
X177215793Y-75968287D01*
X177117522Y-76033950D01*
X177033950Y-76117522D01*
X176968287Y-76215793D01*
X176923058Y-76324986D01*
X176900000Y-76440905D01*
X170819088Y-76440905D01*
X170820611Y-76438626D01*
X170890415Y-76270104D01*
X170926000Y-76091203D01*
X170926000Y-75908797D01*
X170890415Y-75729896D01*
X170866106Y-75671207D01*
X184950000Y-75671207D01*
X184950000Y-75828793D01*
X184980743Y-75983351D01*
X185041049Y-76128942D01*
X185128599Y-76259970D01*
X185240030Y-76371401D01*
X185371058Y-76458951D01*
X185470159Y-76500000D01*
X185371058Y-76541049D01*
X185240030Y-76628599D01*
X185128599Y-76740030D01*
X185041049Y-76871058D01*
X184980743Y-77016649D01*
X184950000Y-77171207D01*
X184950000Y-77328793D01*
X184980743Y-77483351D01*
X185041049Y-77628942D01*
X185128599Y-77759970D01*
X185240030Y-77871401D01*
X185371058Y-77958951D01*
X185516649Y-78019257D01*
X185671207Y-78050000D01*
X185828793Y-78050000D01*
X185983351Y-78019257D01*
X186128942Y-77958951D01*
X186259970Y-77871401D01*
X186371401Y-77759970D01*
X186458951Y-77628942D01*
X186500000Y-77529841D01*
X186541049Y-77628942D01*
X186628599Y-77759970D01*
X186740030Y-77871401D01*
X186871058Y-77958951D01*
X187016649Y-78019257D01*
X187171207Y-78050000D01*
X187328793Y-78050000D01*
X187483351Y-78019257D01*
X187628942Y-77958951D01*
X187759970Y-77871401D01*
X187871401Y-77759970D01*
X187958951Y-77628942D01*
X188019257Y-77483351D01*
X188050000Y-77328793D01*
X188050000Y-77171207D01*
X188019257Y-77016649D01*
X187958951Y-76871058D01*
X187871401Y-76740030D01*
X187759970Y-76628599D01*
X187628942Y-76541049D01*
X187529841Y-76500000D01*
X187628942Y-76458951D01*
X187759970Y-76371401D01*
X187871401Y-76259970D01*
X187958951Y-76128942D01*
X188019257Y-75983351D01*
X188034086Y-75908797D01*
X190574000Y-75908797D01*
X190574000Y-76091203D01*
X190609585Y-76270104D01*
X190679389Y-76438626D01*
X190780728Y-76590291D01*
X190909709Y-76719272D01*
X191061374Y-76820611D01*
X191229896Y-76890415D01*
X191408797Y-76926000D01*
X191591203Y-76926000D01*
X191770104Y-76890415D01*
X191938626Y-76820611D01*
X192090291Y-76719272D01*
X192219272Y-76590291D01*
X192320611Y-76438626D01*
X192390415Y-76270104D01*
X192426000Y-76091203D01*
X192426000Y-75908797D01*
X192390415Y-75729896D01*
X192320611Y-75561374D01*
X192219272Y-75409709D01*
X192090291Y-75280728D01*
X191938626Y-75179389D01*
X191770104Y-75109585D01*
X191591203Y-75074000D01*
X191408797Y-75074000D01*
X191229896Y-75109585D01*
X191061374Y-75179389D01*
X190909709Y-75280728D01*
X190780728Y-75409709D01*
X190679389Y-75561374D01*
X190609585Y-75729896D01*
X190574000Y-75908797D01*
X188034086Y-75908797D01*
X188050000Y-75828793D01*
X188050000Y-75671207D01*
X188019257Y-75516649D01*
X187958951Y-75371058D01*
X187871401Y-75240030D01*
X187759970Y-75128599D01*
X187628942Y-75041049D01*
X187483351Y-74980743D01*
X187328793Y-74950000D01*
X187171207Y-74950000D01*
X187016649Y-74980743D01*
X186871058Y-75041049D01*
X186740030Y-75128599D01*
X186628599Y-75240030D01*
X186541049Y-75371058D01*
X186500000Y-75470159D01*
X186458951Y-75371058D01*
X186371401Y-75240030D01*
X186259970Y-75128599D01*
X186128942Y-75041049D01*
X185983351Y-74980743D01*
X185828793Y-74950000D01*
X185671207Y-74950000D01*
X185516649Y-74980743D01*
X185371058Y-75041049D01*
X185240030Y-75128599D01*
X185128599Y-75240030D01*
X185041049Y-75371058D01*
X184980743Y-75516649D01*
X184950000Y-75671207D01*
X170866106Y-75671207D01*
X170820611Y-75561374D01*
X170719272Y-75409709D01*
X170590291Y-75280728D01*
X170438626Y-75179389D01*
X170270104Y-75109585D01*
X170091203Y-75074000D01*
X169908797Y-75074000D01*
X169729896Y-75109585D01*
X169561374Y-75179389D01*
X169409709Y-75280728D01*
X169280728Y-75409709D01*
X169179389Y-75561374D01*
X169109585Y-75729896D01*
X169074000Y-75908797D01*
X168561977Y-75908797D01*
X169634726Y-74850074D01*
X170874380Y-73841808D01*
X172204958Y-72957004D01*
X173614228Y-72203796D01*
X175089193Y-71589133D01*
X176616273Y-71118670D01*
X178181430Y-70796735D01*
X179770229Y-70626296D01*
X181368058Y-70608922D01*
X182960183Y-70744771D01*
G37*
X182960183Y-70744771D02*
X184531960Y-71032593D01*
X186068921Y-71469741D01*
X187556911Y-72052189D01*
X188982214Y-72774567D01*
X190331724Y-73630232D01*
X191593006Y-74611301D01*
X192754456Y-75708748D01*
X193805368Y-76912454D01*
X194736073Y-78211347D01*
X195538004Y-79593471D01*
X196203767Y-81046085D01*
X196728522Y-82559521D01*
X196925000Y-83292788D01*
X196925001Y-91203229D01*
X196483240Y-92706432D01*
X195887836Y-94189267D01*
X195153041Y-95608223D01*
X194285635Y-96950210D01*
X193293595Y-98202886D01*
X192186054Y-99354716D01*
X190973222Y-100395083D01*
X189666256Y-101314418D01*
X188277196Y-102104253D01*
X186818825Y-102757316D01*
X185304571Y-103267596D01*
X183748384Y-103630390D01*
X182164590Y-103842360D01*
X180567775Y-103901555D01*
X178972627Y-103807428D01*
X177393856Y-103560849D01*
X175845976Y-103164083D01*
X174343259Y-102620790D01*
X172899529Y-101935966D01*
X172071588Y-101440905D01*
X184650000Y-101440905D01*
X184650000Y-101559095D01*
X184673058Y-101675014D01*
X184718287Y-101784207D01*
X184783950Y-101882478D01*
X184867522Y-101966050D01*
X184965793Y-102031713D01*
X185074986Y-102076942D01*
X185190905Y-102100000D01*
X185309095Y-102100000D01*
X185425014Y-102076942D01*
X185534207Y-102031713D01*
X185632478Y-101966050D01*
X185716050Y-101882478D01*
X185781713Y-101784207D01*
X185826942Y-101675014D01*
X185850000Y-101559095D01*
X185850000Y-101440905D01*
X185826942Y-101324986D01*
X185781713Y-101215793D01*
X185716050Y-101117522D01*
X185632478Y-101033950D01*
X185534207Y-100968287D01*
X185425014Y-100923058D01*
X185309095Y-100900000D01*
X185190905Y-100900000D01*
X185074986Y-100923058D01*
X184965793Y-100968287D01*
X184867522Y-101033950D01*
X184783950Y-101117522D01*
X184718287Y-101215793D01*
X184673058Y-101324986D01*
X184650000Y-101440905D01*
X172071588Y-101440905D01*
X171528085Y-101115922D01*
X170241552Y-100168205D01*
X169051779Y-99101545D01*
X168903944Y-98940905D01*
X173600000Y-98940905D01*
X173600000Y-99059095D01*
X173623058Y-99175014D01*
X173668287Y-99284207D01*
X173733950Y-99382478D01*
X173817522Y-99466050D01*
X173915793Y-99531713D01*
X174024986Y-99576942D01*
X174140905Y-99600000D01*
X174259095Y-99600000D01*
X174375014Y-99576942D01*
X174484207Y-99531713D01*
X174582478Y-99466050D01*
X174666050Y-99382478D01*
X174731713Y-99284207D01*
X174776942Y-99175014D01*
X174800000Y-99059095D01*
X174800000Y-98940905D01*
X175400000Y-98940905D01*
X175400000Y-99059095D01*
X175423058Y-99175014D01*
X175468287Y-99284207D01*
X175533950Y-99382478D01*
X175617522Y-99466050D01*
X175715793Y-99531713D01*
X175824986Y-99576942D01*
X175940905Y-99600000D01*
X176059095Y-99600000D01*
X176175014Y-99576942D01*
X176284207Y-99531713D01*
X176382478Y-99466050D01*
X176466050Y-99382478D01*
X176531713Y-99284207D01*
X176576942Y-99175014D01*
X176600000Y-99059095D01*
X176600000Y-98940905D01*
X176576942Y-98824986D01*
X176531713Y-98715793D01*
X176466050Y-98617522D01*
X176382478Y-98533950D01*
X176284207Y-98468287D01*
X176175014Y-98423058D01*
X176103320Y-98408797D01*
X190574000Y-98408797D01*
X190574000Y-98591203D01*
X190609585Y-98770104D01*
X190679389Y-98938626D01*
X190780728Y-99090291D01*
X190909709Y-99219272D01*
X191061374Y-99320611D01*
X191229896Y-99390415D01*
X191408797Y-99426000D01*
X191591203Y-99426000D01*
X191770104Y-99390415D01*
X191938626Y-99320611D01*
X192090291Y-99219272D01*
X192219272Y-99090291D01*
X192320611Y-98938626D01*
X192390415Y-98770104D01*
X192426000Y-98591203D01*
X192426000Y-98408797D01*
X192390415Y-98229896D01*
X192320611Y-98061374D01*
X192219272Y-97909709D01*
X192090291Y-97780728D01*
X191938626Y-97679389D01*
X191770104Y-97609585D01*
X191591203Y-97574000D01*
X191408797Y-97574000D01*
X191229896Y-97609585D01*
X191061374Y-97679389D01*
X190909709Y-97780728D01*
X190780728Y-97909709D01*
X190679389Y-98061374D01*
X190609585Y-98229896D01*
X190574000Y-98408797D01*
X176103320Y-98408797D01*
X176059095Y-98400000D01*
X175940905Y-98400000D01*
X175824986Y-98423058D01*
X175715793Y-98468287D01*
X175617522Y-98533950D01*
X175533950Y-98617522D01*
X175468287Y-98715793D01*
X175423058Y-98824986D01*
X175400000Y-98940905D01*
X174800000Y-98940905D01*
X174776942Y-98824986D01*
X174731713Y-98715793D01*
X174666050Y-98617522D01*
X174582478Y-98533950D01*
X174484207Y-98468287D01*
X174375014Y-98423058D01*
X174259095Y-98400000D01*
X174140905Y-98400000D01*
X174024986Y-98423058D01*
X173915793Y-98468287D01*
X173817522Y-98533950D01*
X173733950Y-98617522D01*
X173668287Y-98715793D01*
X173623058Y-98824986D01*
X173600000Y-98940905D01*
X168903944Y-98940905D01*
X167969712Y-97925754D01*
X167005325Y-96651669D01*
X166937122Y-96540905D01*
X172300000Y-96540905D01*
X172300000Y-96659095D01*
X172323058Y-96775014D01*
X172368287Y-96884207D01*
X172433950Y-96982478D01*
X172451472Y-97000000D01*
X172433950Y-97017522D01*
X172368287Y-97115793D01*
X172323058Y-97224986D01*
X172300000Y-97340905D01*
X172300000Y-97459095D01*
X172323058Y-97575014D01*
X172368287Y-97684207D01*
X172433950Y-97782478D01*
X172517522Y-97866050D01*
X172615793Y-97931713D01*
X172724986Y-97976942D01*
X172840905Y-98000000D01*
X172959095Y-98000000D01*
X173075014Y-97976942D01*
X173184207Y-97931713D01*
X173282478Y-97866050D01*
X173366050Y-97782478D01*
X173431713Y-97684207D01*
X173476942Y-97575014D01*
X173500000Y-97459095D01*
X173500000Y-97340905D01*
X173476942Y-97224986D01*
X173431713Y-97115793D01*
X173366050Y-97017522D01*
X173348528Y-97000000D01*
X173366050Y-96982478D01*
X173431713Y-96884207D01*
X173476942Y-96775014D01*
X173500000Y-96659095D01*
X173500000Y-96540905D01*
X173476942Y-96424986D01*
X173431713Y-96315793D01*
X173366050Y-96217522D01*
X173282478Y-96133950D01*
X173184207Y-96068287D01*
X173075014Y-96023058D01*
X172959095Y-96000000D01*
X172840905Y-96000000D01*
X172724986Y-96023058D01*
X172615793Y-96068287D01*
X172517522Y-96133950D01*
X172433950Y-96217522D01*
X172368287Y-96315793D01*
X172323058Y-96424986D01*
X172300000Y-96540905D01*
X166937122Y-96540905D01*
X166567667Y-95940905D01*
X178650000Y-95940905D01*
X178650000Y-96059095D01*
X178673058Y-96175014D01*
X178718287Y-96284207D01*
X178783950Y-96382478D01*
X178867522Y-96466050D01*
X178965793Y-96531713D01*
X179074986Y-96576942D01*
X179190905Y-96600000D01*
X179309095Y-96600000D01*
X179425014Y-96576942D01*
X179534207Y-96531713D01*
X179632478Y-96466050D01*
X179716050Y-96382478D01*
X179781713Y-96284207D01*
X179826942Y-96175014D01*
X179850000Y-96059095D01*
X179850000Y-95940905D01*
X179826942Y-95824986D01*
X179781713Y-95715793D01*
X179716050Y-95617522D01*
X179632478Y-95533950D01*
X179534207Y-95468287D01*
X179425014Y-95423058D01*
X179309095Y-95400000D01*
X179190905Y-95400000D01*
X179074986Y-95423058D01*
X178965793Y-95468287D01*
X178867522Y-95533950D01*
X178783950Y-95617522D01*
X178718287Y-95715793D01*
X178673058Y-95824986D01*
X178650000Y-95940905D01*
X166567667Y-95940905D01*
X166167491Y-95291014D01*
X165463927Y-93856320D01*
X165011225Y-92653393D01*
X173437512Y-92653393D01*
X173437512Y-92771583D01*
X173460570Y-92887502D01*
X173505799Y-92996695D01*
X173571462Y-93094966D01*
X173655034Y-93178538D01*
X173753305Y-93244201D01*
X173862498Y-93289430D01*
X173978417Y-93312488D01*
X174096607Y-93312488D01*
X174212526Y-93289430D01*
X174321719Y-93244201D01*
X174419990Y-93178538D01*
X174503562Y-93094966D01*
X174569225Y-92996695D01*
X174614454Y-92887502D01*
X174637512Y-92771583D01*
X174637512Y-92653393D01*
X174633873Y-92635098D01*
X175562516Y-92635098D01*
X175562516Y-92753288D01*
X175585574Y-92869207D01*
X175630803Y-92978400D01*
X175696466Y-93076671D01*
X175780038Y-93160243D01*
X175878309Y-93225906D01*
X175987502Y-93271135D01*
X176103421Y-93294193D01*
X176107279Y-93294193D01*
X176033950Y-93367522D01*
X175968287Y-93465793D01*
X175923058Y-93574986D01*
X175900000Y-93690905D01*
X175900000Y-93809095D01*
X175923058Y-93925014D01*
X175968287Y-94034207D01*
X176033950Y-94132478D01*
X176117522Y-94216050D01*
X176215793Y-94281713D01*
X176324986Y-94326942D01*
X176440905Y-94350000D01*
X176559095Y-94350000D01*
X176675014Y-94326942D01*
X176784207Y-94281713D01*
X176882478Y-94216050D01*
X176966050Y-94132478D01*
X177031713Y-94034207D01*
X177076942Y-93925014D01*
X177100000Y-93809095D01*
X177100000Y-93690905D01*
X177076942Y-93574986D01*
X177031713Y-93465793D01*
X176966050Y-93367522D01*
X176882478Y-93283950D01*
X176784207Y-93218287D01*
X176675014Y-93173058D01*
X176559095Y-93150000D01*
X176555237Y-93150000D01*
X176628566Y-93076671D01*
X176694229Y-92978400D01*
X176739458Y-92869207D01*
X176762516Y-92753288D01*
X176762516Y-92635098D01*
X176739458Y-92519179D01*
X176694229Y-92409986D01*
X176628566Y-92311715D01*
X176544994Y-92228143D01*
X176446723Y-92162480D01*
X176337530Y-92117251D01*
X176221611Y-92094193D01*
X176103421Y-92094193D01*
X175987502Y-92117251D01*
X175878309Y-92162480D01*
X175780038Y-92228143D01*
X175696466Y-92311715D01*
X175630803Y-92409986D01*
X175585574Y-92519179D01*
X175562516Y-92635098D01*
X174633873Y-92635098D01*
X174614454Y-92537474D01*
X174569225Y-92428281D01*
X174503562Y-92330010D01*
X174419990Y-92246438D01*
X174321719Y-92180775D01*
X174212526Y-92135546D01*
X174096607Y-92112488D01*
X173978417Y-92112488D01*
X173862498Y-92135546D01*
X173753305Y-92180775D01*
X173655034Y-92246438D01*
X173571462Y-92330010D01*
X173505799Y-92428281D01*
X173460570Y-92537474D01*
X173437512Y-92653393D01*
X165011225Y-92653393D01*
X164901117Y-92360813D01*
X164484231Y-90818224D01*
X164420257Y-90440905D01*
X180050000Y-90440905D01*
X180050000Y-90559095D01*
X180073058Y-90675014D01*
X180118287Y-90784207D01*
X180183950Y-90882478D01*
X180267522Y-90966050D01*
X180365793Y-91031713D01*
X180474986Y-91076942D01*
X180590905Y-91100000D01*
X180709095Y-91100000D01*
X180825014Y-91076942D01*
X180934207Y-91031713D01*
X181032478Y-90966050D01*
X181116050Y-90882478D01*
X181181713Y-90784207D01*
X181226942Y-90675014D01*
X181250000Y-90559095D01*
X181250000Y-90440905D01*
X181226942Y-90324986D01*
X181181713Y-90215793D01*
X181116050Y-90117522D01*
X181032478Y-90033950D01*
X180934207Y-89968287D01*
X180825014Y-89923058D01*
X180709095Y-89900000D01*
X180590905Y-89900000D01*
X180474986Y-89923058D01*
X180365793Y-89968287D01*
X180267522Y-90033950D01*
X180183950Y-90117522D01*
X180118287Y-90215793D01*
X180073058Y-90324986D01*
X180050000Y-90440905D01*
X164420257Y-90440905D01*
X164217116Y-89242795D01*
X164177334Y-88690905D01*
X168199992Y-88690905D01*
X168199992Y-88809095D01*
X168223050Y-88925014D01*
X168268279Y-89034207D01*
X168333942Y-89132478D01*
X168417514Y-89216050D01*
X168515785Y-89281713D01*
X168624978Y-89326942D01*
X168740897Y-89350000D01*
X168859087Y-89350000D01*
X168975006Y-89326942D01*
X169084199Y-89281713D01*
X169182470Y-89216050D01*
X169266042Y-89132478D01*
X169331705Y-89034207D01*
X169376934Y-88925014D01*
X169399992Y-88809095D01*
X169399992Y-88690905D01*
X169376934Y-88574986D01*
X169331705Y-88465793D01*
X169266042Y-88367522D01*
X169182470Y-88283950D01*
X169084199Y-88218287D01*
X168975006Y-88173058D01*
X168859087Y-88150000D01*
X168740897Y-88150000D01*
X168624978Y-88173058D01*
X168515785Y-88218287D01*
X168417514Y-88283950D01*
X168333942Y-88367522D01*
X168268279Y-88465793D01*
X168223050Y-88574986D01*
X168199992Y-88690905D01*
X164177334Y-88690905D01*
X164102229Y-87649012D01*
X164113241Y-87190890D01*
X175900000Y-87190890D01*
X175900000Y-87309080D01*
X175923058Y-87424999D01*
X175968287Y-87534192D01*
X176033950Y-87632463D01*
X176117522Y-87716035D01*
X176215793Y-87781698D01*
X176324986Y-87826927D01*
X176440905Y-87849985D01*
X176559095Y-87849985D01*
X176675014Y-87826927D01*
X176784207Y-87781698D01*
X176882478Y-87716035D01*
X176966050Y-87632463D01*
X177031713Y-87534192D01*
X177076942Y-87424999D01*
X177100000Y-87309080D01*
X177100000Y-87190890D01*
X177090058Y-87140904D01*
X178528621Y-87140904D01*
X178528621Y-87259094D01*
X178551679Y-87375013D01*
X178596908Y-87484206D01*
X178662571Y-87582477D01*
X178746143Y-87666049D01*
X178844414Y-87731712D01*
X178953607Y-87776941D01*
X179069526Y-87799999D01*
X179187716Y-87799999D01*
X179303635Y-87776941D01*
X179412828Y-87731712D01*
X179511099Y-87666049D01*
X179594671Y-87582477D01*
X179660334Y-87484206D01*
X179705563Y-87375013D01*
X179728621Y-87259094D01*
X179728621Y-87140904D01*
X179705563Y-87024985D01*
X179660334Y-86915792D01*
X179594671Y-86817521D01*
X179511099Y-86733949D01*
X179412828Y-86668286D01*
X179303635Y-86623057D01*
X179187716Y-86599999D01*
X179069526Y-86599999D01*
X178953607Y-86623057D01*
X178844414Y-86668286D01*
X178746143Y-86733949D01*
X178662571Y-86817521D01*
X178596908Y-86915792D01*
X178551679Y-87024985D01*
X178528621Y-87140904D01*
X177090058Y-87140904D01*
X177076942Y-87074971D01*
X177031713Y-86965778D01*
X176966050Y-86867507D01*
X176882478Y-86783935D01*
X176784207Y-86718272D01*
X176675014Y-86673043D01*
X176559095Y-86649985D01*
X176440905Y-86649985D01*
X176324986Y-86673043D01*
X176215793Y-86718272D01*
X176117522Y-86783935D01*
X176033950Y-86867507D01*
X175968287Y-86965778D01*
X175923058Y-87074971D01*
X175900000Y-87190890D01*
X164113241Y-87190890D01*
X164140628Y-86051563D01*
X164214277Y-85440905D01*
X184150000Y-85440905D01*
X184150000Y-85559095D01*
X184173058Y-85675014D01*
X184218287Y-85784207D01*
X184283950Y-85882478D01*
X184367522Y-85966050D01*
X184465793Y-86031713D01*
X184574986Y-86076942D01*
X184690905Y-86100000D01*
X184809095Y-86100000D01*
X184925014Y-86076942D01*
X185034207Y-86031713D01*
X185132478Y-85966050D01*
X185216050Y-85882478D01*
X185281713Y-85784207D01*
X185326942Y-85675014D01*
X185350000Y-85559095D01*
X185350000Y-85440905D01*
X185326942Y-85324986D01*
X185281713Y-85215793D01*
X185216050Y-85117522D01*
X185132478Y-85033950D01*
X185034207Y-84968287D01*
X184925014Y-84923058D01*
X184809095Y-84900000D01*
X184690905Y-84900000D01*
X184574986Y-84923058D01*
X184465793Y-84968287D01*
X184367522Y-85033950D01*
X184283950Y-85117522D01*
X184218287Y-85215793D01*
X184173058Y-85324986D01*
X184150000Y-85440905D01*
X164214277Y-85440905D01*
X164331961Y-84465133D01*
X164611582Y-83190905D01*
X175400000Y-83190905D01*
X175400000Y-83309095D01*
X175423058Y-83425014D01*
X175468287Y-83534207D01*
X175533950Y-83632478D01*
X175617522Y-83716050D01*
X175715793Y-83781713D01*
X175824986Y-83826942D01*
X175940905Y-83850000D01*
X176059095Y-83850000D01*
X176175014Y-83826942D01*
X176284207Y-83781713D01*
X176382478Y-83716050D01*
X176466050Y-83632478D01*
X176531713Y-83534207D01*
X176576942Y-83425014D01*
X176600000Y-83309095D01*
X176600000Y-83190905D01*
X176576942Y-83074986D01*
X176531713Y-82965793D01*
X176466050Y-82867522D01*
X176382478Y-82783950D01*
X176284207Y-82718287D01*
X176175014Y-82673058D01*
X176059095Y-82650000D01*
X175940905Y-82650000D01*
X175824986Y-82673058D01*
X175715793Y-82718287D01*
X175617522Y-82783950D01*
X175533950Y-82867522D01*
X175468287Y-82965793D01*
X175423058Y-83074986D01*
X175400000Y-83190905D01*
X164611582Y-83190905D01*
X164674464Y-82904355D01*
X165065859Y-81690905D01*
X171650000Y-81690905D01*
X171650000Y-81809095D01*
X171673058Y-81925014D01*
X171718287Y-82034207D01*
X171783950Y-82132478D01*
X171867522Y-82216050D01*
X171965793Y-82281713D01*
X172074986Y-82326942D01*
X172190905Y-82350000D01*
X172309095Y-82350000D01*
X172425014Y-82326942D01*
X172534207Y-82281713D01*
X172632478Y-82216050D01*
X172716050Y-82132478D01*
X172781713Y-82034207D01*
X172826942Y-81925014D01*
X172850000Y-81809095D01*
X172850000Y-81690905D01*
X176150000Y-81690905D01*
X176150000Y-81809095D01*
X176173058Y-81925014D01*
X176218287Y-82034207D01*
X176283950Y-82132478D01*
X176367522Y-82216050D01*
X176465793Y-82281713D01*
X176574986Y-82326942D01*
X176690905Y-82350000D01*
X176809095Y-82350000D01*
X176925014Y-82326942D01*
X177034207Y-82281713D01*
X177132478Y-82216050D01*
X177216050Y-82132478D01*
X177281713Y-82034207D01*
X177326942Y-81925014D01*
X177333726Y-81890905D01*
X177500000Y-81890905D01*
X177500000Y-82009095D01*
X177523058Y-82125014D01*
X177568287Y-82234207D01*
X177633950Y-82332478D01*
X177701472Y-82400000D01*
X177633950Y-82467522D01*
X177568287Y-82565793D01*
X177523058Y-82674986D01*
X177500000Y-82790905D01*
X177500000Y-82909095D01*
X177523058Y-83025014D01*
X177568287Y-83134207D01*
X177633950Y-83232478D01*
X177717522Y-83316050D01*
X177815793Y-83381713D01*
X177924986Y-83426942D01*
X178040905Y-83450000D01*
X178159095Y-83450000D01*
X178275014Y-83426942D01*
X178384207Y-83381713D01*
X178482478Y-83316050D01*
X178550000Y-83248528D01*
X178617522Y-83316050D01*
X178715793Y-83381713D01*
X178824986Y-83426942D01*
X178940905Y-83450000D01*
X179059095Y-83450000D01*
X179175014Y-83426942D01*
X179284207Y-83381713D01*
X179382478Y-83316050D01*
X179466050Y-83232478D01*
X179531713Y-83134207D01*
X179576942Y-83025014D01*
X179593672Y-82940905D01*
X181000000Y-82940905D01*
X181000000Y-83059095D01*
X181023058Y-83175014D01*
X181068287Y-83284207D01*
X181133950Y-83382478D01*
X181217522Y-83466050D01*
X181315793Y-83531713D01*
X181424986Y-83576942D01*
X181540905Y-83600000D01*
X181659095Y-83600000D01*
X181775014Y-83576942D01*
X181884207Y-83531713D01*
X181982478Y-83466050D01*
X182066050Y-83382478D01*
X182131713Y-83284207D01*
X182176942Y-83175014D01*
X182200000Y-83059095D01*
X182200000Y-82940905D01*
X182176942Y-82824986D01*
X182131713Y-82715793D01*
X182066050Y-82617522D01*
X181982478Y-82533950D01*
X181884207Y-82468287D01*
X181775014Y-82423058D01*
X181659095Y-82400000D01*
X181540905Y-82400000D01*
X181424986Y-82423058D01*
X181315793Y-82468287D01*
X181217522Y-82533950D01*
X181133950Y-82617522D01*
X181068287Y-82715793D01*
X181023058Y-82824986D01*
X181000000Y-82940905D01*
X179593672Y-82940905D01*
X179600000Y-82909095D01*
X179600000Y-82790905D01*
X179576942Y-82674986D01*
X179531713Y-82565793D01*
X179466050Y-82467522D01*
X179382478Y-82383950D01*
X179284207Y-82318287D01*
X179175014Y-82273058D01*
X179059095Y-82250000D01*
X178940905Y-82250000D01*
X178824986Y-82273058D01*
X178715793Y-82318287D01*
X178617522Y-82383950D01*
X178550000Y-82451472D01*
X178498528Y-82400000D01*
X178566050Y-82332478D01*
X178631713Y-82234207D01*
X178676942Y-82125014D01*
X178700000Y-82009095D01*
X178700000Y-81890905D01*
X178676942Y-81774986D01*
X178631713Y-81665793D01*
X178566050Y-81567522D01*
X178482478Y-81483950D01*
X178384207Y-81418287D01*
X178275014Y-81373058D01*
X178159095Y-81350000D01*
X178040905Y-81350000D01*
X177924986Y-81373058D01*
X177815793Y-81418287D01*
X177717522Y-81483950D01*
X177633950Y-81567522D01*
X177568287Y-81665793D01*
X177523058Y-81774986D01*
X177500000Y-81890905D01*
X177333726Y-81890905D01*
X177350000Y-81809095D01*
X177350000Y-81690905D01*
X177326942Y-81574986D01*
X177281713Y-81465793D01*
X177216050Y-81367522D01*
X177132478Y-81283950D01*
X177034207Y-81218287D01*
X176925014Y-81173058D01*
X176809095Y-81150000D01*
X176690905Y-81150000D01*
X176574986Y-81173058D01*
X176465793Y-81218287D01*
X176367522Y-81283950D01*
X176283950Y-81367522D01*
X176218287Y-81465793D01*
X176173058Y-81574986D01*
X176150000Y-81690905D01*
X172850000Y-81690905D01*
X172826942Y-81574986D01*
X172781713Y-81465793D01*
X172716050Y-81367522D01*
X172632478Y-81283950D01*
X172534207Y-81218287D01*
X172425014Y-81173058D01*
X172309095Y-81150000D01*
X172190905Y-81150000D01*
X172074986Y-81173058D01*
X171965793Y-81218287D01*
X171867522Y-81283950D01*
X171783950Y-81367522D01*
X171718287Y-81465793D01*
X171673058Y-81574986D01*
X171650000Y-81690905D01*
X165065859Y-81690905D01*
X165164982Y-81383595D01*
X165799000Y-79916848D01*
X166570681Y-78517624D01*
X167472932Y-77198784D01*
X168497412Y-75972518D01*
X168561977Y-75908797D01*
X169074000Y-75908797D01*
X169074000Y-76091203D01*
X169109585Y-76270104D01*
X169179389Y-76438626D01*
X169280728Y-76590291D01*
X169409709Y-76719272D01*
X169561374Y-76820611D01*
X169729896Y-76890415D01*
X169908797Y-76926000D01*
X170091203Y-76926000D01*
X170270104Y-76890415D01*
X170438626Y-76820611D01*
X170590291Y-76719272D01*
X170719272Y-76590291D01*
X170819088Y-76440905D01*
X176900000Y-76440905D01*
X176900000Y-76559095D01*
X176923058Y-76675014D01*
X176968287Y-76784207D01*
X177033950Y-76882478D01*
X177117522Y-76966050D01*
X177215793Y-77031713D01*
X177324986Y-77076942D01*
X177440905Y-77100000D01*
X177559095Y-77100000D01*
X177675014Y-77076942D01*
X177784207Y-77031713D01*
X177882478Y-76966050D01*
X177966050Y-76882478D01*
X178031713Y-76784207D01*
X178076942Y-76675014D01*
X178100000Y-76559095D01*
X178100000Y-76440905D01*
X178076942Y-76324986D01*
X178031713Y-76215793D01*
X177966050Y-76117522D01*
X177882478Y-76033950D01*
X177784207Y-75968287D01*
X177675014Y-75923058D01*
X177559095Y-75900000D01*
X177440905Y-75900000D01*
X177324986Y-75923058D01*
X177215793Y-75968287D01*
X177117522Y-76033950D01*
X177033950Y-76117522D01*
X176968287Y-76215793D01*
X176923058Y-76324986D01*
X176900000Y-76440905D01*
X170819088Y-76440905D01*
X170820611Y-76438626D01*
X170890415Y-76270104D01*
X170926000Y-76091203D01*
X170926000Y-75908797D01*
X170890415Y-75729896D01*
X170866106Y-75671207D01*
X184950000Y-75671207D01*
X184950000Y-75828793D01*
X184980743Y-75983351D01*
X185041049Y-76128942D01*
X185128599Y-76259970D01*
X185240030Y-76371401D01*
X185371058Y-76458951D01*
X185470159Y-76500000D01*
X185371058Y-76541049D01*
X185240030Y-76628599D01*
X185128599Y-76740030D01*
X185041049Y-76871058D01*
X184980743Y-77016649D01*
X184950000Y-77171207D01*
X184950000Y-77328793D01*
X184980743Y-77483351D01*
X185041049Y-77628942D01*
X185128599Y-77759970D01*
X185240030Y-77871401D01*
X185371058Y-77958951D01*
X185516649Y-78019257D01*
X185671207Y-78050000D01*
X185828793Y-78050000D01*
X185983351Y-78019257D01*
X186128942Y-77958951D01*
X186259970Y-77871401D01*
X186371401Y-77759970D01*
X186458951Y-77628942D01*
X186500000Y-77529841D01*
X186541049Y-77628942D01*
X186628599Y-77759970D01*
X186740030Y-77871401D01*
X186871058Y-77958951D01*
X187016649Y-78019257D01*
X187171207Y-78050000D01*
X187328793Y-78050000D01*
X187483351Y-78019257D01*
X187628942Y-77958951D01*
X187759970Y-77871401D01*
X187871401Y-77759970D01*
X187958951Y-77628942D01*
X188019257Y-77483351D01*
X188050000Y-77328793D01*
X188050000Y-77171207D01*
X188019257Y-77016649D01*
X187958951Y-76871058D01*
X187871401Y-76740030D01*
X187759970Y-76628599D01*
X187628942Y-76541049D01*
X187529841Y-76500000D01*
X187628942Y-76458951D01*
X187759970Y-76371401D01*
X187871401Y-76259970D01*
X187958951Y-76128942D01*
X188019257Y-75983351D01*
X188034086Y-75908797D01*
X190574000Y-75908797D01*
X190574000Y-76091203D01*
X190609585Y-76270104D01*
X190679389Y-76438626D01*
X190780728Y-76590291D01*
X190909709Y-76719272D01*
X191061374Y-76820611D01*
X191229896Y-76890415D01*
X191408797Y-76926000D01*
X191591203Y-76926000D01*
X191770104Y-76890415D01*
X191938626Y-76820611D01*
X192090291Y-76719272D01*
X192219272Y-76590291D01*
X192320611Y-76438626D01*
X192390415Y-76270104D01*
X192426000Y-76091203D01*
X192426000Y-75908797D01*
X192390415Y-75729896D01*
X192320611Y-75561374D01*
X192219272Y-75409709D01*
X192090291Y-75280728D01*
X191938626Y-75179389D01*
X191770104Y-75109585D01*
X191591203Y-75074000D01*
X191408797Y-75074000D01*
X191229896Y-75109585D01*
X191061374Y-75179389D01*
X190909709Y-75280728D01*
X190780728Y-75409709D01*
X190679389Y-75561374D01*
X190609585Y-75729896D01*
X190574000Y-75908797D01*
X188034086Y-75908797D01*
X188050000Y-75828793D01*
X188050000Y-75671207D01*
X188019257Y-75516649D01*
X187958951Y-75371058D01*
X187871401Y-75240030D01*
X187759970Y-75128599D01*
X187628942Y-75041049D01*
X187483351Y-74980743D01*
X187328793Y-74950000D01*
X187171207Y-74950000D01*
X187016649Y-74980743D01*
X186871058Y-75041049D01*
X186740030Y-75128599D01*
X186628599Y-75240030D01*
X186541049Y-75371058D01*
X186500000Y-75470159D01*
X186458951Y-75371058D01*
X186371401Y-75240030D01*
X186259970Y-75128599D01*
X186128942Y-75041049D01*
X185983351Y-74980743D01*
X185828793Y-74950000D01*
X185671207Y-74950000D01*
X185516649Y-74980743D01*
X185371058Y-75041049D01*
X185240030Y-75128599D01*
X185128599Y-75240030D01*
X185041049Y-75371058D01*
X184980743Y-75516649D01*
X184950000Y-75671207D01*
X170866106Y-75671207D01*
X170820611Y-75561374D01*
X170719272Y-75409709D01*
X170590291Y-75280728D01*
X170438626Y-75179389D01*
X170270104Y-75109585D01*
X170091203Y-75074000D01*
X169908797Y-75074000D01*
X169729896Y-75109585D01*
X169561374Y-75179389D01*
X169409709Y-75280728D01*
X169280728Y-75409709D01*
X169179389Y-75561374D01*
X169109585Y-75729896D01*
X169074000Y-75908797D01*
X168561977Y-75908797D01*
X169634726Y-74850074D01*
X170874380Y-73841808D01*
X172204958Y-72957004D01*
X173614228Y-72203796D01*
X175089193Y-71589133D01*
X176616273Y-71118670D01*
X178181430Y-70796735D01*
X179770229Y-70626296D01*
X181368058Y-70608922D01*
X182960183Y-70744771D01*
%TD*%
M02*
